<svg id="Layer_1" data-name="Layer 1" xmlns="http://www.w3.org/2000/svg" viewBox="0 0 255.75 283.91"><path d="M232.07,81.75l.27-.23v-.67C232,81,232,81.34,232.07,81.75Z" transform="translate(-6.41 -8.57)"/><g id="كيس"><path d="M196.45,64.75a2.9,2.9,0,0,1,.48-.14h0C196.11,64.83,196.19,64.83,196.45,64.75Z" transform="translate(-6.41 -8.57)" style="fill:#a3cc84"/><path d="M51.15,69s0,0-.06,0l-.08.07.4-.27A1.92,1.92,0,0,0,51.15,69Z" transform="translate(-6.41 -8.57)" style="fill:#a3cc84"/><path d="M49.56,70.49s0,0,0,0a.35.35,0,0,0-.05.08c0,.09-.08.19-.11.27C49.32,71.11,49.45,71.08,49.56,70.49Z" transform="translate(-6.41 -8.57)" style="fill:#a3cc84"/><path d="M49.58,70.29a.1.1,0,0,1,0,.07h0A.1.1,0,0,0,49.58,70.29Z" transform="translate(-6.41 -8.57)" style="fill:#a3cc84"/><path d="M215.17,52.69s0,0,0,0l0,0Z" transform="translate(-6.41 -8.57)" style="fill:#a3cc84"/><path d="M235.71,71.33c0-.15.06-.27.08-.4v0C235.53,71.78,235.61,71.65,235.71,71.33Z" transform="translate(-6.41 -8.57)" style="fill:#a3cc84"/><path d="M214.82,54.58h0l.24-.37Z" transform="translate(-6.41 -8.57)" style="fill:#a3cc84"/><path d="M215.14,54.13a.44.44,0,0,0,0,.2C215.25,54.18,215.25,54.06,215.14,54.13Z" transform="translate(-6.41 -8.57)" style="fill:#a3cc84"/><path d="M62.94,67.43a2.53,2.53,0,0,1,.22.18.49.49,0,0,0-.08-.1,1,1,0,0,0-.3-.22A1.07,1.07,0,0,1,62.94,67.43Z" transform="translate(-6.41 -8.57)" style="fill:#a3cc84"/><path d="M215.33,53.81Z" transform="translate(-6.41 -8.57)" style="fill:#a3cc84"/><path d="M228.16,84.31c.16-.1.26-.15.29-.18h0A2.35,2.35,0,0,0,228.16,84.31Z" transform="translate(-6.41 -8.57)" style="fill:#a3cc84"/><path d="M215.14,54.13a2.72,2.72,0,0,1,.19-.29,3.81,3.81,0,0,1-.27.37Z" transform="translate(-6.41 -8.57)" style="fill:#a3cc84"/><path d="M22.38,277.57l.32.12a.15.15,0,0,0,.11,0h0c-.37-.15-.58-.25-.69-.3A.61.61,0,0,0,22.38,277.57Z" transform="translate(-6.41 -8.57)" style="fill:#a3cc84"/><path d="M15.22,267.29c.24-.32.32-.64-.23.28l0,0A1.21,1.21,0,0,0,15.22,267.29Z" transform="translate(-6.41 -8.57)" style="fill:#a3cc84"/><path d="M262,266.25c-1.17-11.11-5.65-21.69-10.9-31.66.72-2.11,1.36-4.24,2-6.38a196.69,196.69,0,0,0,5-22.33,220.53,220.53,0,0,0,3.1-33.63,195.2,195.2,0,0,0-3.66-40.32A172.07,172.07,0,0,0,242.77,88.8c-.32-.62-.64-1.24-1-1.89A24.86,24.86,0,0,0,244,83.49c5.83-11.19,5.14-25.63-1.41-36.45a30.54,30.54,0,0,0-15.83-12.86,26.05,26.05,0,0,0-9.65-1.54c-1.67,0-3.34.3-5,.35a8.69,8.69,0,0,1-1.25,0,3.7,3.7,0,0,0-.56,0,14.29,14.29,0,0,1-2.2-.62s-.31-.13-.55-.2l-.59-.25c-.71-.32-1.4-.65-2.06-1-1.49-.75-3-1.54-4.4-2.31-2.87-1.52-5.73-3.08-8.59-4.62-6-3.22-12.09-6.37-18.4-9-6.52-2.75-13.28-5.31-20.42-6.15a53.74,53.74,0,0,0-19.46,1.78,122,122,0,0,0-18.53,6.73A123.13,123.13,0,0,0,98,26.54C89.67,31.85,82.11,38,74.5,44.13c-2.81,2.26-5.62,4.54-8.35,6.9-4.32.37-8.54,2.09-12.41,3.72a42.61,42.61,0,0,0-11.93,7C37.15,66,36.25,72.55,38.55,78.06c2.68,6.4,7.9,11,14.11,14.46.32.18.61.35.92.5a159,159,0,0,1,5.28,18.86q1.08,4.83,1.83,9.7s0,.1,0,.15l.16,1.19c.1.84.21,1.71.29,2.56q.27,2.56.42,5.13a71.36,71.36,0,0,1-.1,10.13c-.08.82-.16,1.64-.27,2.43v.07c0,.38-.11.72-.19,1.1A45.69,45.69,0,0,1,60,148.9q-.31,1.08-.72,2.16c-.13.32-.26.67-.4,1,0,0,0,.1-.08.18a38.07,38.07,0,0,1-2.09,3.67c-1.83,2.75-3.63,5.51-5.43,8.26-4.11,6.33-8.06,12.76-11.64,19.36-8.7,16.13-15,33.2-17.1,51.22A106.33,106.33,0,0,0,21.77,249c0,1.21.08,2.45.13,3.67,0,.59.08,1.17.11,1.74a8.59,8.59,0,0,1,0,.86c0,.13,0,.2,0,.28a3.62,3.62,0,0,0-.16.47c-.16.4-.34.82-.53,1.21.82-1.93.11-.24-.21.43-.64,1.31-1.35,2.63-2.1,3.89A48.12,48.12,0,0,1,16.18,266c-.27.35-.53.72-.8,1.07a1.26,1.26,0,0,0-.13.17l-.11.15a.46.46,0,0,1-.1.1l-.08.12s0,0,0-.07c-.61.69-1.22,1.36-1.88,2s-1.43,1.36-2.2,2l-.85.67a4.93,4.93,0,0,1-.66.42c-2.49,1.61-4.08,5-2.15,7.64a22,22,0,0,0,8.06,6.38c7.45,3.67,16.12,4.59,24.42,4a99.78,99.78,0,0,0,21.63-4.3q4.84.68,9.73,1.27,13.4,1.64,26.85,2.75c12.15,1,24.31,1.72,36.51,2a391.32,391.32,0,0,0,39.79-.84c12.62-1,25.35-2.56,37.52-5.93l2.33-.67a134.36,134.36,0,0,0,14,3.32,81.14,81.14,0,0,0,13.71,1.59c4.16.08,8.64-.35,12.32-2.31a13.16,13.16,0,0,0,5.36-5.58A27.86,27.86,0,0,0,262,266.25ZM215.38,53.76Zm.16-.22ZM76.2,57.63c4.85-4.14,9.86-8.16,14.87-12.16,1.19-.94,2.39-1.88,3.61-2.8l1.83-1.37c.23-.17.47-.37.74-.54-1.17.79.24-.15.45-.32,2.49-1.77,5-3.48,7.61-5.09a127.47,127.47,0,0,1,16.12-8.49l3.68-1.56c.29-.13.58-.25.9-.37,0,0,.06,0,.11-.05.77-.3,1.51-.57,2.28-.85,2.89-1,5.83-2,8.8-2.73,1.3-.32,2.62-.62,4-.87.74-.14,1.46-.27,2.2-.37.08,0,1.22-.12.77-.1a7.06,7.06,0,0,0,.72-.07,39.05,39.05,0,0,1,3.92-.15c.71,0,1.43,0,2.15.07.34,0,.71.05,1.06.1.08,0,.13,0,.18,0l.11,0a68.29,68.29,0,0,1,8.67,2.29c1.32.44,2.65.91,3.95,1.41l.66.25-.32-.13c.29.1.59.25.88.35.87.35,1.75.72,2.62,1.12,5.86,2.55,11.51,5.48,17.1,8.49,5.36,2.87,10.66,6.15,16.33,8.46.72.3,1.43.54,2.15.79a6.08,6.08,0,0,0,1.22.94c.82.48,1.62,1,2.41,1.52l1,.67c.23.17.47.35.68.54a33.23,33.23,0,0,1,2.52,2.19c.4.37.8.77,1.17,1.16a5.49,5.49,0,0,0,.4.43c.5.72.9,1.49,1.4,2.2-.5-.76-.24-.71-.08-.32.06.13.08.25.14.37s.07.13.13.18a1.72,1.72,0,0,0-.13-.18,3.7,3.7,0,0,1,.13.4,1.46,1.46,0,0,0,.08.27v.25a.38.38,0,0,0,0,.18h0c0,.1,0,.17-.05.24-.06.23-.16.33-.19.28l-.08.07-.16.15a1.29,1.29,0,0,0-.1.22.84.84,0,0,1,.08-.19c-.24.22-.48.47-.74.69-.43.35-.85.7-1.3,1l-.3.23-.23.17a.16.16,0,0,0-.08.05c-1.12.77-2.26,1.49-3.45,2.18a77.74,77.74,0,0,1-7.21,3.7c-1.19.55-2.41,1.07-3.63,1.56l-.93.38h0l-.45.15c-.55.19-1.09.44-1.62.64-2.57,1-5.16,1.86-7.76,2.71a244.28,244.28,0,0,1-34.23,8.85c-3.05.53-6.12,1.1-9.2,1.42.32,0,1.12-.15.11,0l-1.17.15-2.12.23c-1.72.17-3.45.34-5.17.47a179.06,179.06,0,0,1-18.82.52c-3.1-.08-6.23-.25-9.33-.5-1.46-.12-2.92-.27-4.38-.42a7.6,7.6,0,0,1-.85-.1h-.08c-.9-.12-1.82-.25-2.73-.4a119.15,119.15,0,0,1-18.18-4.09c-1.59-.5-3.16-1-4.72-1.59-.72-.25-1.41-.52-2.1-.77-.39-.15-.76-.3-1.16-.44l-.16-.08c-.08,0-.16-.07-.27-.1-2.41-1-4.87-1.88-7.37-2.65h0c1,.29.56.15,0,0,.19-.3.4-.57.61-.87,0,0,0,0,0-.07.21-.25.43-.47.61-.72.56-.62,1.12-1.22,1.7-1.81C70.68,62.47,73.41,60,76.2,57.63Zm136.61-1.31a1.76,1.76,0,0,1-.5.34A5.64,5.64,0,0,0,212.81,56.32ZM63.08,67.48l.15.15s0,0-.07,0h0a.39.39,0,0,1-.16-.1c-.27-.15-.35-.29-.22-.22C62.55,67,62.47,66.64,63.08,67.48Zm4.56-5.31c.39,0,.47,0-.69,0,0,0,.08,0,.1,0C67.24,62.2,67.42,62.17,67.64,62.17Zm-3.53,7.92a1.15,1.15,0,0,1,0,.2s0,0-.06.1v0C64.06,70.24,64.08,70.16,64.11,70.09Zm-.08.3a.35.35,0,0,0,0-.08c0,.18-.1.38-.18.6C64,70.73,64,70.54,64,70.39ZM49.74,74.48s.13.27.21.5C49.79,74.7,49.69,74.51,49.74,74.48Zm.93,1.64c-.08-.12-.45-.7-.69-1.12a1.38,1.38,0,0,1-.08-.2c-.11-.27-.21-.57-.32-.84a6.4,6.4,0,0,0-.37-1.51V71.7c0-.25.08-.59.13-.74s0,0,0-.08a1.71,1.71,0,0,1,.11-.27l.08-.22c-.14.17-.24.3-.24.25s.18-.28.37-.45a1.37,1.37,0,0,0-.13.2s0,.1,0,.15a2.49,2.49,0,0,1,.29-.43c.19-.14.34-.27.4-.32l.79-.64-.42.29a6,6,0,0,1,.53-.34s.05,0,.05,0c.21-.18.56-.37.27-.18l.9-.57a7.41,7.41,0,0,0,1,5.74c1.93,2.68,5.06,4,8.14,5.23,1.14.45,2.28.82,3.44,1.22.53.17,1.06.34,1.59.54.24.08.48.18.72.25l.1,0s0,0,0,0c3.55,1.41,7.16,2.75,10.82,3.89A122.39,122.39,0,0,0,97.25,89.4c26.93,3.79,54.77.84,80.72-6.6,11.38-3.26,23-6.9,33.43-12.26a60.12,60.12,0,0,0,7.08-4.22c2.65-1.86,5.52-3.85,7.13-6.63,2.79-4.86,1.62-9.85-1.27-14.14A13.64,13.64,0,0,1,227,47a.93.93,0,0,0,.26.29c.32.25.64.5.93.77.45.4.9.8,1.32,1.22a6.34,6.34,0,0,1,1.22,1.32s0,0,0,0a1.53,1.53,0,0,0,.16.25c.26.35.5.69.74,1a15.34,15.34,0,0,1,2.07,3.62c-.08-.24-.43-1-.08-.12l.39,1c.27.72.53,1.46.75,2.18.39,1.34.69,2.73.95,4.1a.9.9,0,0,0,.05.19c0,.2,0,.4.06.6.08.72.13,1.44.16,2.16a38.43,38.43,0,0,1,0,3.87c0,.55-.08,1.12-.16,1.66,0,0,0,0,0-.07s0,.07,0,.1v0c0,.12-.05.24-.08.34a5.92,5.92,0,0,1-.1.65,26.18,26.18,0,0,1-1,3.72c-.19.55-.4,1-.61,1.59-.16.32-.32.65-.48.94-.29.57-.64,1.12-1,1.67-.24.37-.74,1.41-1.11,1.56,0,0,.92-1,.18-.22-.21.24-.42.49-.66.72-.53.54-1.06,1-1.64,1.53-.27.23-.53.45-.83.67h0c-.55.43-.47.3-.29.18-.5.3-1.38.92-1.46,1-1.22.71-2.51,1.36-3.81,2-.24.09-1.86.57-2,.84h0l-1,.37c-1.4.5-2.81,1-4.21,1.44-3,1-6,1.89-9,2.73q-9,2.54-18.27,4.32c-3.08.59-6.18,1.11-9.28,1.59-1.56.22-3.1.44-4.67.64-.05,0-.08,0-.1,0-.37,0-.74.1-1.12.12l-2.57.3c-6.25.67-12.51,1.09-18.82,1.24s-12.59.07-18.85-.27c-3.13-.18-6.28-.4-9.41-.7-1.48-.15-3-.3-4.45-.47-.67-.07-1.36-.12-2-.22a2,2,0,0,0-.37-.05l-1.64-.23a223.91,223.91,0,0,1-36.64-8.19c-3-.94-5.94-1.93-8.88-3-.72-.25-1.43-.52-2.12-.8-.3-.1-.56-.22-.85-.32a.49.49,0,0,0-.16,0c-1.38-.57-2.76-1.14-4.14-1.79a6.16,6.16,0,0,0-3.23-1.63L58.41,83c-.58-.32-1.17-.67-1.72-1-.37-.25-.75-.48-1.12-.72-.13-.08-.24-.18-.37-.25-.53-.37-.48-.35.13.1a11.06,11.06,0,0,1-2.89-2.48c-.23-.23-.45-.48-.66-.7-.71-.74.11.2.19.25A13.2,13.2,0,0,1,50.67,76.12ZM22.36,255s-.08.1-.14.24C22.25,255.11,22.3,255,22.36,255Zm225.23,23.25Zm.48-.3.13-.07h0Zm.34-.2h0c.14-.1.27-.17.4-.25C248.68,277.57,248.55,277.64,248.41,277.74Zm1.7-5.11c0,.1,0,.22,0,.32a15.22,15.22,0,0,1-.34,1.52c-.19.67-.43,1.34-.66,2,0,0,0,.05,0,.08l-.48.84a2,2,0,0,0-.21.32,2.71,2.71,0,0,1-.37.3,0,0,0,0,0,0,0c-.61.17-1.22.37-1.85.49a2,2,0,0,1-.32.05,3.11,3.11,0,0,0,.4,0c-.4,0-.83.07-1.22.12-1,.07-1.94.07-2.89.07a55.54,55.54,0,0,1-5.78-.39l.24,0c-.14,0-.24,0-.37-.05h0l-.56-.07-1.09-.15c-1.11-.17-2.22-.37-3.34-.57-5.24-1-10.28-2.48-15.42-3.77-2.6-.65-5.7.79-8.22,1.46-2,.55-4.11,1-6.21,1.49-4.48,1-9,1.74-13.57,2.36-.5.07-1,.12-1.51.2l-.56.07c-1.22.15-2.46.27-3.68.42-2.44.25-4.88.47-7.35.67-4.93.37-9.89.65-14.82.8-9.91.32-19.85.24-29.77-.08-16.83-.54-33.64-1.81-50.39-3.65-2.82-.29-5.6-.62-8.38-1-.48,0-1-.13-1.43-.18l-.67-.07c-.9-.13-1.8-.23-2.7-.35-1.14-.15-2.28-.3-3.42-.47a5.4,5.4,0,0,1-.58-.1,9.67,9.67,0,0,0-4.64.45c-1.67.52-3.37,1-5.07,1.44-2.94.74-5.91,1.39-8.9,1.86-.61.1-1.22.15-1.83.25a7.8,7.8,0,0,0-.83.09c-1.24.13-2.49.2-3.73.25a57.73,57.73,0,0,1-6.31-.1c-.45,0-.9-.07-1.36-.12h0c-.84-.12-1.69-.27-2.54-.45a33.84,33.84,0,0,1-4.4-1.24,4.05,4.05,0,0,1,.37.18,2.75,2.75,0,0,0-.5-.2c-.4-.15-1-.4-.59-.25-.13,0-.26-.13-.39-.17a50.84,50.84,0,0,0,9.46-13.26,45.47,45.47,0,0,0,2.65-5.93c.64-1.93,0-4.41,0-6.4q-.16-3.64-.06-7.29c.08-2.44.22-4.89.46-7.33.1-1.16.23-2.33.39-3.47.06-.4.16-2.06.08-.55a16.6,16.6,0,0,1,.29-1.81A117.56,117.56,0,0,1,38,217.94c1.22-4.25,2.68-8.44,4.32-12.56.4-1,.8-2,1.22-2.95l.59-1.37a6.21,6.21,0,0,0,.29-.69c.05-.13.1-.32.16-.5.29-.74.74-1.51,1.08-2.21.48-1,1-2,1.44-2.95a233.23,233.23,0,0,1,11.71-20.55c1.89-3,3.8-5.9,5.73-8.83a61.27,61.27,0,0,0,4.83-8,2.44,2.44,0,0,1,.1-.24c10.66-16.83,21.69-20.75,26-22.29.58-.2,1-.37,1.35-.52l-.59-1.12c-.26.13-.68.28-1.22.48-4,1.41-13.67,4.88-23.56,18.31,3.71-12.11,2.3-25.41,0-37.62-.93-5.09-2.09-10.17-3.53-15.21,1.14.4,2.31.79,3.45,1.16q9.34,3.14,18.93,5.41a240,240,0,0,0,40.64,6,237.91,237.91,0,0,0,79.88-8.51c7.31-2.08,15.29-4.36,21.9-8.26.58,1.19,1.16,2.38,1.72,3.6.13.27.26.57.4.84-.51-1.26.08.17.16.35.31.69.6,1.41.9,2.11.66,1.54,1.27,3.07,1.88,4.64a164.69,164.69,0,0,1,5.78,17.79c1.51,5.76,2.73,11.56,3.66,17.45.1.67.24,1.34.31,2-.18-1.64.06.49.14.91.21,1.52.37,3.06.55,4.57.3,2.78.53,5.58.72,8.39a201.25,201.25,0,0,1-.45,30.47c-.19,2.23-.43,4.47-.69,6.7l-.4,3.2c-.05.47-.37,2.46-.05.45-.08.57-.16,1.16-.27,1.74-.58,3.74-1.24,7.49-2,11.19-1.14,5.48-2.49,10.92-4.14,16.3-.45,1.49-.92,2.95-1.43,4.44a8,8,0,0,0-.74,3c.11,2.23,1.62,4.29,2.65,6.28.77,1.49,1.51,3,2.2,4.49.13.27,1.14,2.38.45,1,.29.6.56,1.24.82,1.86.56,1.29,1.06,2.58,1.57,3.9A67.53,67.53,0,0,1,250,265.26c0,.07,0,.12,0,.2,0,.32.08.62.1.94.08.8.14,1.59.16,2.38C250.27,270,250.24,271.31,250.11,272.63Z" transform="translate(-6.41 -8.57)" style="fill:#a3cc84"/><path d="M245.74,278.56c-1.36.05-.61.08,0,0Z" transform="translate(-6.41 -8.57)" style="fill:#a3cc84"/><path d="M235.48,278.24a2.6,2.6,0,0,0,.39.05l.22,0a.27.27,0,0,1,.15,0C235.18,278.19,235.21,278.19,235.48,278.24Z" transform="translate(-6.41 -8.57)" style="fill:#a3cc84"/></g></svg>