<svg id="Layer_1" data-name="Layer 1" xmlns="http://www.w3.org/2000/svg" viewBox="0 0 261.18 245.07"><g id="Layer_2" data-name="Layer 2"><path d="M270.35,55.62l-.07-.11-.07-.09a3.58,3.58,0,0,0-1.36-1.2l-46.4-22.85-31.9-15.72c-4.76-2.34-9.56-5.2-14.5-7.14-3.67-1.41-8.62.17-12.39.63l-27.43,3.37-74,9.09L14.41,27.45h-.07a4.16,4.16,0,0,0-2,.59,4.07,4.07,0,0,0-2.44,3.9V200.75a4.48,4.48,0,0,0,2.23,3.88l78.09,41.82,11.27,6a4.73,4.73,0,0,0,3.38.41,4.6,4.6,0,0,0,1.57,0l141.28-20.1,20.06-2.85c1.92-.27,3.3-2.55,3.3-4.34V58.11A4.32,4.32,0,0,0,270.35,55.62Zm-143-33,30-3.67,10.29-1.27c1.55-.19,3.87-.06,5.37-.63,2.5,1.42,5.21,2.56,7.77,3.82l29.15,14.36,41.75,20.56L122.51,74.5l-17.84,2.58L28.61,34.73ZM28,202.9l-9-4.85V39.63L58.56,61.7,89.44,78.9c2.73,1.52,6.28,4.22,9.82,5.84V241.05Zm96.15,38.46-15.85,2.25V85.76c12.17-1.2,24.39-3.71,36.44-5.46L219.6,69.45l42.48-6.16V221.73Z" transform="translate(-9.9 -7.94)" style="fill:#4caeca"/><path d="M94.52,96.79c-.17-3-1.92-3.68-4.36-5.24l-20.37-13L26.27,50.84a1.92,1.92,0,0,0-2-.15A1.92,1.92,0,0,0,23,52.16c-.7,3-.24,6.56-.26,9.59-.06,7.54-.07,15.09-.07,22.63q0,31.16.1,62.31.06,21.59.14,43.19c0,2.91.68,3.86,3.24,5.33L45.8,206.45l34.77,19.88a1.71,1.71,0,0,0,1.81,1l8.82,5a2.24,2.24,0,0,0,3-.85,2.33,2.33,0,0,0,.28-1v-92.8C94.52,124.1,95.26,110.32,94.52,96.79ZM84.09,223.24,34.28,108.09q-3.57-8.28-7.16-16.57h0V71.05q0-3.6.05-7.22,27.54,64.35,55.09,128.69l7.83,18.3V226.7Zm6-126.49v102.7L37,75.38,29.64,58.21ZM27.36,190.8q-.18-44-.26-88.07L73.33,209.62l4.29,9.92Z" transform="translate(-9.9 -7.94)" style="fill:#4caeca"/><path d="M254.74,72.91,134.29,91.33l-17,2.61a1.78,1.78,0,0,0-1.62,1.85V238.54a2.28,2.28,0,0,0,2.33,2.23,2.32,2.32,0,0,0,.52-.07L136.26,238a1.61,1.61,0,0,0,1.25-.19l101.38-15.56,17-2.62a2.25,2.25,0,0,0,1.7-2.15V75.08a2.3,2.3,0,0,0-2.34-2.24A2.24,2.24,0,0,0,254.74,72.91Zm-18,7.27c-.19.25-.37.49-.54.69-3,3.47-5.91,7-8.84,10.48q-14.64,17.43-29.18,35-33.35,40.08-66.6,80.24l-11.49,13.91V98ZM120.09,235.93v-8.48q20.13-24.33,40.29-48.62,32.94-39.69,66-79.3c3.74-4.46,7.47-8.93,11.24-13.37,1.13-1.33,2.25-2.66,3.4-4,.94-1.07,2-1.45.47-1a2,2,0,0,0,1.59-2l10-1.54v15.1a10.77,10.77,0,0,0-1.13,1c-2.66,2.67-5.08,5.59-7.55,8.43C235,113,225.79,124,216.58,135.05q-33.24,39.82-66.1,80L135.3,233.57l-1,.16Zm21.9-3.36q17.37-21.19,34.79-42.36c21-25.43,41.91-50.88,63.27-76,3.79-4.45,7.58-8.91,11.48-13.28l1.61-1.81V215.51Z" transform="translate(-9.9 -7.94)" style="fill:#4caeca"/><path d="M44.69,40.94,81.25,59.8l20.83,10.75c2.41,1.24,4.25,2.61,7,2.33,11.78-1.2,23.53-3.35,35.25-5l56.33-8,34.33-5c1.92-.27,2.16-3.29.54-4.11L199.09,32.32,178,21.63c-2.35-1.19-4-2.34-6.64-2.07-4,.4-8.07.91-12.1,1.46a2.15,2.15,0,0,0-1.89.26c-7.24,1-14.48,2.17-21.7,3.16l-56,7.67L45.22,36.82a1.75,1.75,0,0,0-1.62,1.86.13.13,0,0,1,0,.06A1.91,1.91,0,0,0,44.69,40.94Zm146.58-7.55L227,51.54,151.4,62.33,132.4,65l3.7-3.39Q144.53,54,153,46.37q11.48-10.32,23-20.6C181,28.45,186.23,30.83,191.27,33.39ZM171,24.21Q160,34,149.12,43.86q-8.52,7.68-17,15.39c-2.41,2.19-5.33,4.33-7.43,6.89l-13.52,1.93c1.53-1.37,3-2.84,4.28-4,6.08-5.2,12.1-10.47,18.1-15.75q12.82-11.26,25.56-22.63l10.67-1.46A10.51,10.51,0,0,0,171,24.21Zm-42.45,5.71,22.54-3.08q-9.59,8.52-19.2,17C126,49.07,120,54.27,114,59.45c-2.23,1.91-4.47,3.83-6.74,5.7-.69.56-1.37,1.14-2.08,1.67a1.67,1.67,0,0,1-.28.18L89.05,58.77,53.15,40.24Z" transform="translate(-9.9 -7.94)" style="fill:#4caeca"/></g></svg>