<svg id="Layer_1" data-name="Layer 1" xmlns="http://www.w3.org/2000/svg" viewBox="0 0 261.17 245.06"><g id="Layer_2" data-name="Layer 2"><path d="M267.35,52.62a.75.75,0,0,1-.07-.12l-.07-.08a3.5,3.5,0,0,0-1.36-1.2l-46.4-22.85-31.9-15.72c-4.76-2.35-9.56-5.18-14.5-7.18-3.67-1.41-8.62.16-12.39.63L133.23,9.47l-74,9.13L11.41,24.47h-.07a4.16,4.16,0,0,0-2,.59A4.07,4.07,0,0,0,6.9,29V197.75a4.48,4.48,0,0,0,2.23,3.88q39,20.9,78.08,41.77l11.27,6a4.73,4.73,0,0,0,3.38.41,4.6,4.6,0,0,0,1.57,0l141.28-20.1,20.06-2.85c1.92-.28,3.3-2.55,3.3-4.34V55.11A4.33,4.33,0,0,0,267.35,52.62Zm-143-33,30-3.68,10.29-1.26c1.55-.19,3.87-.06,5.37-.63,2.5,1.41,5.21,2.55,7.77,3.82l29.15,14.36,41.75,20.56L119.51,71.47l-17.84,2.61L25.61,31.72ZM25,199.89q-4.53-2.41-9-4.84V36.62L55.56,58.7,86.44,75.9c2.73,1.52,6.28,4.22,9.82,5.84V238Zm96.15,38.47-15.85,2.25V82.76c12.17-1.2,24.39-3.71,36.44-5.46L216.6,66.47l42.48-6.17V218.73Z" transform="translate(-6.9 -4.9)" style="fill:#214f6e"/><path d="M91.52,93.79c-.17-3-1.92-3.69-4.36-5.24l-20.37-13L23.27,47.84a1.92,1.92,0,0,0-2-.15A1.92,1.92,0,0,0,20,49.15c-.7,3-.24,6.57-.26,9.6-.06,7.54-.07,15.08-.07,22.63q0,31.16.1,62.3.06,21.6.14,43.2c0,2.91.68,3.86,3.24,5.33L42.8,203.47l34.77,19.89a1.71,1.71,0,0,0,1.81,1l8.82,5a2.24,2.24,0,0,0,3-.85,2.38,2.38,0,0,0,.28-1V134.65C91.52,121.1,92.26,107.32,91.52,93.79ZM81.09,220.24,31.28,105.09q-3.57-8.28-7.16-16.57h0V68.05c0-2.41,0-4.81.05-7.22q27.55,64.34,55.1,128.64l7.83,18.3v15.88Zm6-126.49V196.47Q60.56,134.42,34,72.38L26.64,55.21ZM24.36,187.8q-.18-44-.26-88.07L70.33,206.62l4.29,9.92Z" transform="translate(-6.9 -4.9)" style="fill:#214f6e"/><path d="M251.74,69.91,131.29,88.33l-17,2.61a1.78,1.78,0,0,0-1.62,1.85,1.71,1.71,0,0,0,0,.32V235.53a2.3,2.3,0,0,0,2.34,2.24,2.24,2.24,0,0,0,.51-.07L133.26,235a1.71,1.71,0,0,0,1.25-.19l101.38-15.57,17-2.61a2.26,2.26,0,0,0,1.7-2.13V72.08a2.3,2.3,0,0,0-2.34-2.24A2.24,2.24,0,0,0,251.74,69.91Zm-18,7.27c-.19.25-.37.49-.54.69q-4.45,5.2-8.84,10.47-14.64,17.44-29.18,35-33.35,40.08-66.6,80.24l-11.49,13.89V95ZM117.09,232.93v-8.46q20.13-24.33,40.29-48.62,32.94-39.69,66-79.3c3.74-4.47,7.47-8.93,11.24-13.37,1.13-1.33,2.25-2.66,3.4-4,.94-1.08,2-1.45.47-1a2,2,0,0,0,1.59-2l10-1.54v15.1a10.77,10.77,0,0,0-1.13,1c-2.66,2.67-5.08,5.59-7.55,8.43-9.41,10.85-18.61,21.88-27.82,32.9q-33.24,39.83-66.1,80L132.3,230.59l-1,.16Zm21.9-3.36q17.37-21.19,34.79-42.36c21-25.43,41.91-50.88,63.27-76,3.79-4.46,7.58-8.91,11.48-13.28.53-.61,1.07-1.21,1.61-1.81V212.47Z" transform="translate(-6.9 -4.9)" style="fill:#214f6e"/><path d="M41.69,37.94,78.25,56.8,99.08,67.55c2.41,1.24,4.25,2.61,7,2.33,11.78-1.2,23.53-3.36,35.25-5l56.33-8,34.33-5c1.92-.27,2.16-3.29.54-4.11L196.09,29.32,175,18.63c-2.35-1.19-4-2.34-6.64-2.08-4,.41-8.07.92-12.1,1.47a2.11,2.11,0,0,0-1.89.26c-7.24,1-14.48,2.17-21.7,3.16l-56,7.67L42.22,33.82a1.75,1.75,0,0,0-1.62,1.86.13.13,0,0,1,0,.06A1.92,1.92,0,0,0,41.69,37.94Zm146.58-7.55L224,48.53l-75.63,10.8-19,2.7,3.7-3.38Q141.49,51,150,43.37q11.52-10.32,23-20.6C178,25.47,183.23,27.83,188.27,30.39ZM168,21.21Q157,31,146.12,40.86q-8.52,7.68-17,15.38c-2.41,2.2-5.33,4.34-7.43,6.9l-13.54,1.93c1.53-1.37,3-2.84,4.28-3.95,6.08-5.2,12.1-10.47,18.1-15.75q12.83-11.26,25.56-22.63l10.67-1.46C167,21.25,167.45,21.24,168,21.21Zm-42.45,5.71,22.54-3.08q-9.59,8.52-19.2,17C123,46.06,117,51.27,111,56.4c-2.23,1.92-4.47,3.84-6.74,5.71-.69.56-1.37,1.14-2.08,1.67a1.67,1.67,0,0,1-.28.18L86.05,55.77,50.15,37.24Z" transform="translate(-6.9 -4.9)" style="fill:#214f6e"/></g></svg>