<svg id="Layer_1" data-name="Layer 1" xmlns="http://www.w3.org/2000/svg" viewBox="0 0 323.44 257.36"><path d="M232.07,81.75l.27-.23v-.67C232,81,232,81.34,232.07,81.75Z" transform="translate(0 -51.18)"/><g id="صندوق"><path d="M323.44,164.46a7.65,7.65,0,0,0-.39-2.21,8,8,0,0,0-.31-.9q-5.5-13.47-11-27-8.76-21.43-17.51-42.9c-1.34-3.25-2.66-6.53-4-9.78a5.16,5.16,0,0,0-.76-1.26,4,4,0,0,0-2.29-1.6c-.07,0-.16,0-.23-.06l-.39-.08c-3.89-.85-7.77-1.73-11.64-2.59l-29.48-6.58q-17.73-4-35.5-7.9-15.34-3.43-30.68-6.83c-5-1.11-9.94-2.26-14.92-3.34h0a3.8,3.8,0,0,0-1.57-.27,4.59,4.59,0,0,0-1.82.47,5.21,5.21,0,0,0-3.07-.25c-4,.77-8,1.54-12,2.34L117.2,59.34,82.45,66.11q-15,2.94-30,5.84c-4.85.94-9.76,1.66-14.56,2.84a.46.46,0,0,1-.2,0,3.59,3.59,0,0,0-1.73.93,4.61,4.61,0,0,0-1.34,1.93.27.27,0,0,0-.05.14,5.83,5.83,0,0,0-.23.58l-3.07,8c-2.7,7-5.41,14-8.12,20.93q-4.87,12.6-9.77,25.19Q9.11,143.4,4.89,154.27c-1.36,3.55-2.77,7.08-4.11,10.63,0,0,0,0-.05.11A6.47,6.47,0,0,0,0,168.2a8.23,8.23,0,0,0,.23,1.6,5.46,5.46,0,0,0,2.32,3.75l.05,0a4.25,4.25,0,0,0,2.52.83l12.33-.25c5.48-.11,10.94-.22,16.42-.36v85.6c0,4.07-.09,8.15,0,12.2v.19a6.77,6.77,0,0,0,.32,2.06c0,.2-.09.36-.14.58-.57,3,.75,7,3.57,7.63L50,284.67,79.56,291l35.69,7.57q15.42,3.27,30.86,6.55c5,1.08,10,2.18,15.06,3.2h0a3.8,3.8,0,0,0,1.57.27,3.87,3.87,0,0,0,.84-.13,4.82,4.82,0,0,0,.52-.11c4.28-1,8.55-2,12.83-3q15.39-3.64,30.77-7.3l37.21-8.84,32.07-7.6c3.91-.94,7.87-1.74,11.8-2.7a3.76,3.76,0,0,0,2,.44,5.37,5.37,0,0,0,4.5-3.31,7.37,7.37,0,0,0,1.14-5.81,7.87,7.87,0,0,0-.52-1.4v-84.6c0-4.1.09-8.24,0-12.37v-.16a8,8,0,0,0-.12-1.3c2.48.06,5,.09,7.44.14,5,.08,10,.33,14.94.28h.21a2.25,2.25,0,0,0,.63-.06,4,4,0,0,0,2-.8,4.5,4.5,0,0,0,.52-.46A6.85,6.85,0,0,0,323.44,164.46Zm-310.2-2.73q3.89-10,7.78-20,4.88-12.6,9.78-25.2Q35,105.57,39.26,94.7c1.07-2.78,2.18-5.56,3.25-8.34,3.28-.64,6.55-1.27,9.85-1.93l28.73-5.59,34.75-6.78q15-2.93,30-5.84c3.18-.6,6.39-1.12,9.57-1.76-.31,1-.63,2-1,3-2.71,8.51-5.41,17.05-8.1,25.56q-4.9,15.45-9.8,30.93-4.23,13.38-8.48,26.74c-.91,2.89-1.91,5.78-2.85,8.7-2.91.06-5.82.11-8.73.19l-29.59.64L51.27,161l-30.84.66C18,161.65,15.63,161.68,13.24,161.73ZM122.18,287.34c-11.89-2.54-23.79-5-35.68-7.58q-15.42-3.25-30.86-6.55-5.78-1.24-11.51-2.45V183.87c0-3.47.07-6.94,0-10.41,1,0,1.93,0,2.91-.05l35.66-.75,30.84-.66c5-.11,10-.11,15-.33h.22c2.3,0,4.51-2.09,5-4.79,1.09-3.47,2.2-6.94,3.3-10.41,2.7-8.51,5.41-17.05,8.09-25.56,3.28-10.29,6.53-20.62,9.8-30.92.87-2.73,1.73-5.48,2.6-8.21v203l-5.85-1.24Q137,290.49,122.18,287.34ZM285.62,171.51v88.92q0,3.18-.05,6.36l-8.32,2q-15.39,3.63-30.77,7.29l-37.21,8.84-32.07,7.61c-3.09.74-6.23,1.4-9.35,2.12V92.17c.32,1,.64,2,1,3.08q4.66,14.91,9.37,29.85c2.7,8.65,5.41,17.27,8.14,25.92,1.32,4.18,2.62,8.4,4,12.58a.53.53,0,0,1,0,.17c.07.22.16.44.23.66a6,6,0,0,0,2.66,3.36,3.69,3.69,0,0,0,2.53.55l11.8.22c9.78.19,19.54.39,29.32.55q17.83.33,35.66.69l13.21.25C285.69,170.49,285.62,171,285.62,171.51Zm-8.92-14q-17.83-.33-35.66-.69l-30.61-.57c-3.87-.09-7.76-.25-11.65-.28-.61-1.93-1.2-3.85-1.82-5.78l-7.77-24.79q-4.68-14.91-9.37-29.85c-2.71-8.65-5.42-17.27-8.15-25.92-.43-1.4-.88-2.83-1.32-4.24l3.3.75,29.48,6.58q17.73,4,35.5,7.9Q254,84,269.31,87.4c4.34,1,8.71,2,13.06,2.92,3.34,8.18,6.68,16.39,10,24.57q8.78,21.48,17.52,42.9c0,.11.09.2.13.31l-4-.09Q291.36,157.77,276.7,157.46Z" transform="translate(0 -51.18)" style="fill:#a3cc84"/></g></svg>