<svg id="Layer_1" data-name="Layer 1" xmlns="http://www.w3.org/2000/svg" viewBox="0 0 333.31 196.78"><path d="M265.64,29.38l.27-.23v-.67C265.55,28.58,265.52,29,265.64,29.38Z" transform="translate(-0.01 -0.08)"/><path d="M333,45.49V33.41a2.73,2.73,0,0,0-.64-1.77,2.64,2.64,0,0,0-2.25-1.12H271.75c.65-2.86,0-6.59,0-9.12V3.4A3,3,0,0,0,269.28.55a2.17,2.17,0,0,0-.88,0H214.79c-7,0-14.89-1.06-21.82,0-2.22.33-3,1.49-4.4,3.1l-9.3,10.46-19,21.35h-23.2c-3.51,0-4.52,1-6.8,3.26L103.64,65.31l-81.91,82L.84,168.14a2.66,2.66,0,0,0-.83,2V194a2.92,2.92,0,0,0,2.88,2.82H51.17c7.93,0,15.86.14,23.78,0a7.19,7.19,0,0,0,1.31-.14,3,3,0,0,0,3-1.23c2.67-1.69,4.78-4.61,7.07-6.87L106.12,169a2.61,2.61,0,0,0,.85-2H121.5a2.81,2.81,0,0,0-.51,1.66V190a2.92,2.92,0,0,0,2.89,2.89H194.5a2.88,2.88,0,0,0,1.16-.25,2.91,2.91,0,0,0,3.21-1.18c-.92,1.33.66-.58,1-.92l3.54-3.57q6.17-6.19,12.34-12.36,19.35-19.35,38.74-38.66,36.36-36.24,72.75-72.46c1.77-1.76,5-4,5.67-6.51C333.8,53.57,333,49,333,45.49ZM64.34,161.24l-.25-15.51c0-.71,0-1.5.06-2.29,22.87.82,45.91.05,68.8-.08q-.15,8.89-.31,17.77c-.56,0-1.07.11-1.33.11ZM266.8,28.62a2.11,2.11,0,0,0-.91.53,2.33,2.33,0,0,0,.11.74c.4,1.06-.2.26-.38-.51-2.34,2.07-7.23,7.65-7.76,8.19l-48.93,49L153.76,141.8l-15.27,15.28.27-15.38q23.46-24.12,46.86-48.3L255,21.8l11-11.3V27.25c0,.35-.05.79-.09,1.23A1.47,1.47,0,0,1,266.8,28.62ZM167.28,104,152.91,118.8q-9.12,9.4-18.25,18.8c-5.11,0-10.22.08-15.34.15q9.83-10.12,19.71-20.2c3.79-3.85,7.55-7.76,11.46-11.49a10.61,10.61,0,0,1,5.25-3,25.75,25.75,0,0,1,6.53-1c1,0,4.74.71,5.24.19a1.42,1.42,0,0,0-.23,1.71Zm-40.49,67.61h64.85V187.1H126.79Zm66.54-5.77h-9.69l29.61-30.11c1.35-1.38-.77-3.5-2.12-2.12Q196,149,180.78,164.43a1.37,1.37,0,0,0-.38,1.37H159.81q6.91-7,13.85-14.09c1.36-1.38-.76-3.5-2.12-2.13l-14.79,15a1.37,1.37,0,0,0-.42,1.18h-18.5l.11-.18a6.55,6.55,0,0,0,.81-.67c4.62-4.48,9.11-9.12,13.66-13.67L258.73,44.88c2.83-2.84,6.33-5.66,9.25-8.73a2.8,2.8,0,0,0,.91.15h11.67l-19.32,20c-1.34,1.39.78,3.51,2.12,2.12L284.74,36.3H323.1l-41,40.87-72.8,72.63ZM193.9,6.18C194.67,5.18,194.4,5.72,193.9,6.18Zm-.28.23c-.34.22-.71.3-.93-.17.05.1.41.15.95.17ZM179.47,22.49l10.71-12a47.06,47.06,0,0,0,3.39-3.81l.16-.22c1.64,0,4.68-.17,5-.17h16Q201.86,19.3,189,32.35c-1.36,1.38.76,3.5,2.12,2.12L218.93,6.24h22.52L189,59.17c-1.36,1.37.76,3.5,2.12,2.12l54.52-55,.05-.06h16.4q-19.24,19.86-38.5,39.7l-53.34,55c-2.47-2.09-11.5-1.6-13-1.31-6.14,1.19-9.07,4.44-13.28,8.66-9.52,9.54-18.91,19.22-28.3,28.9a1.42,1.42,0,0,0-.36.6c-15.74.22-31.51.46-47.21,0,5.47-5.29,10.6-11.08,15.89-16.47L147.27,57l16.37-16.64ZM59.25,117.87l72.32-72.35c1.31-1.31,2.74-2.57,4-4a1.51,1.51,0,0,1,.23-.21c1.31.27,4.39-.18,5.21-.18h2.22L130,54.52a1.5,1.5,0,0,0,2.12,2.12l15.27-15.48h7.28L60.86,136.6a15.51,15.51,0,0,0-1.09,1.2A2.84,2.84,0,0,0,58.4,141a14.49,14.49,0,0,0-.12,2.46q.16,10.35.32,20.69A3,3,0,0,0,61.49,167h13.2l-.12.11c-1.38,0-3.79.16-4.09.16H9.86ZM54,191.05H5.78v-18H72c.58,0,1.25.06,1.92.09v17.71C67.49,190.2,60.37,191.05,54,191.05Zm31.63-9.84L79.73,187V172.2a3,3,0,0,0-.2-1.08c1.49-1.25,2.9-2.84,4.17-4.1H100Zm238.77-123-28.23,28.1Q255.32,127,214.5,167.73q-7.35,7.35-14.69,14.72c-.75.75-1.56,1.49-2.37,2.26v-14.8l45-45,72.8-72.65,11.93-11.91V43c0,3.58-1,8.85-.06,12.4a28.67,28.67,0,0,0-2.73,2.78Zm3-3c.07-.3.21-.53.51-.49-.13-.09-.33.21-.54.41Z" transform="translate(-0.01 -0.08)" style="fill:#a3cc84"/></svg>