<svg id="Layer_1" data-name="Layer 1" xmlns="http://www.w3.org/2000/svg" viewBox="0 0 329.18 248.54"><g id="Layer_2" data-name="Layer 2"><g id="Layer_2-2" data-name="Layer 2-2"><path d="M179.26,134.12v-.06l0-.06a2.17,2.17,0,0,0-.83-.73l-28.31-13.94-19.46-9.59c-2.91-1.43-5.83-3.18-8.85-4.36-2.24-.86-5.26.1-7.56.39l-16.73,2-45.23,5.6L23.1,116.94h0a2.55,2.55,0,0,0-1.23.36,2.48,2.48,0,0,0-1.48,2.38v103A2.68,2.68,0,0,0,21.75,225l47.64,25.52,6.88,3.66a2.89,2.89,0,0,0,2.06.25,3.35,3.35,0,0,0,1,0l86.11-12.26,12.24-1.74a2.76,2.76,0,0,0,2-2.65V135.64A2.63,2.63,0,0,0,179.26,134.12ZM92,114l18.3-2.24,6.28-.77a15.8,15.8,0,0,0,3.28-.39c1.52.87,3.18,1.56,4.74,2.33l17.83,8.76,25.48,12.55L89.05,145.64l-10.88,1.58L31.76,121.38ZM31.38,224l-5.49-3V124.37L50,137.83l18.84,10.5c1.66.93,3.83,2.57,6,3.56v95.37Zm58.67,23.46-9.67,1.38V152.51c7.42-.73,14.88-2.26,22.23-3.33l45.68-6.62,25.92-3.76v96.68Z" transform="translate(-7.07 -6.02)" style="fill:#a2cb82"/><path d="M72,159.24c-.11-1.83-1.17-2.24-2.66-3.19l-12.43-7.93L30.33,131.21a1.35,1.35,0,0,0-2,.8c-.42,1.83-.14,4-.16,5.85v13.81q0,19,.06,38L28.32,216c0,1.78.41,2.36,2,3.25l12,6.86,21.12,12.15a1,1,0,0,0,1.1.61L70,241.94a1.37,1.37,0,0,0,1.85-.58,1.42,1.42,0,0,0,.15-.56V184.18C72,175.94,72.44,167.5,72,159.24ZM65.61,236.4,35.22,166.14Q33,161.09,30.85,156h0v-16.9q16.82,39.27,33.62,78.52l4.77,11.17v9.69Zm3.66-77.18v62.66q-16.19-37.83-32.4-75.7l-4.43-10.47ZM31,216.6q-.11-26.83-.16-53.73l28.21,65.22,2.62,6Z" transform="translate(-7.07 -6.02)" style="fill:#a2cb82"/><path d="M169.73,144.67,96.24,155.94l-10.4,1.6a1.08,1.08,0,0,0-1,1.12v87.1a1.39,1.39,0,0,0,1.42,1.36h0a.86.86,0,0,0,.32,0l10.86-1.74a1,1,0,0,0,.77-.11l61.85-9.49,10.38-1.6a1.38,1.38,0,0,0,1-1.32V146a1.4,1.4,0,0,0-1.42-1.37Zm-11,4.44a3.39,3.39,0,0,1-.33.42c-1.83,2.12-3.6,4.27-5.39,6.4q-8.94,10.63-17.81,21.32-20.34,24.45-40.63,49l-7,8.49V160Zm-71.17,95v-5.17q12.28-14.85,24.58-29.67,20.11-24.18,40.3-48.33c2.28-2.72,4.56-5.45,6.86-8.16l2.07-2.44c.58-.65,1.22-.89.29-.61a1.23,1.23,0,0,0,1-1.22l6.1-.94v9.21a7.92,7.92,0,0,0-.69.61c-1.62,1.63-3.1,3.41-4.6,5.14-5.75,6.62-11.36,13.35-17,20.08q-20.28,24.3-40.33,48.81l-9.26,11.3-.61.1Zm13.36-2q10.6-12.93,21.23-25.85c12.81-15.51,25.57-31,38.6-46.37,2.31-2.71,4.63-5.43,7-8.1l1-1.1v71Z" transform="translate(-7.07 -6.02)" style="fill:#a2cb82"/><path d="M41.57,125.17l22.31,11.51,12.71,6.55c1.47.76,2.59,1.6,4.27,1.43,7.19-.74,14.36-2,21.51-3l34.37-4.89,20.94-3c1.18-.16,1.32-2,.33-2.51l-22.23-11.27-12.87-6.52c-1.44-.73-2.45-1.43-4.06-1.27-2.44.25-4.92.56-7.38.89a1.3,1.3,0,0,0-1.15.16c-4.42.61-8.84,1.33-13.24,1.93l-34.17,4.68-21,2.87a1.07,1.07,0,0,0-1,1.14h0A1.17,1.17,0,0,0,41.57,125.17ZM131,120.56l21.79,11.08-46.12,6.58-11.59,1.65,2.26-2.07,10.31-9.32q7-6.3,14-12.57C124.74,117.55,127.93,119,131,120.56Zm-12.38-5.62q-6.7,6-13.34,12-5.21,4.68-10.37,9.39a45.08,45.08,0,0,0-4.54,4.2l-8.24,1.18c.93-.83,1.83-1.73,2.61-2.44,3.71-3.17,7.38-6.39,11-9.61q7.83-6.87,15.6-13.81l6.51-.89A6.6,6.6,0,0,0,118.63,114.94Zm-25.9,3.48,13.76-1.88q-5.85,5.24-11.72,10.4c-3.59,3.19-7.25,6.36-10.91,9.52-1.36,1.17-2.73,2.34-4.12,3.48-.42.34-.83.7-1.27,1l-.17.11-9.66-5L46.73,124.74Z" transform="translate(-7.07 -6.02)" style="fill:#a2cb82"/></g><g id="صندوق"><path d="M189.71,70.13a4.06,4.06,0,0,0-.22-1.25,5.17,5.17,0,0,0-.18-.51l-6.2-15.21-9.87-24.22q-1.14-2.76-2.26-5.52a3.45,3.45,0,0,0-.43-.71,2.23,2.23,0,0,0-1.29-.9h-.13l-.22,0-6.57-1.46-16.62-3.71-20-4.46L108.41,8.28C105.6,7.65,102.8,7,100,6.4h0a2.05,2.05,0,0,0-.88-.16,2.64,2.64,0,0,0-1,.26,3,3,0,0,0-1.73-.14L89.63,7.68l-16.2,3.16L53.76,14.65,36.83,17.94c-2.73.53-5.51.94-8.21,1.6a.24.24,0,0,1-.12,0,1.91,1.91,0,0,0-1,.53,2.51,2.51,0,0,0-.76,1.09v.07a2.19,2.19,0,0,0-.12.33l-1.74,4.49L20.3,37.88,14.79,52.09Q12.44,58.24,10,64.38c-.77,2-1.56,4-2.32,6v.07a3.61,3.61,0,0,0-.41,1.8,4.53,4.53,0,0,0,.12.9,3.08,3.08,0,0,0,1.31,2.11h0a2.41,2.41,0,0,0,1.42.46l7-.14c3.09-.06,6.17-.12,9.26-.2v48.29c0,2.3-.05,4.59,0,6.88v.11a3.8,3.8,0,0,0,.18,1.16,1.57,1.57,0,0,1-.08.33c-.32,1.69.43,4,2,4.3l7,1.49,16.7,3.54,20.13,4.27,17.41,3.7c2.84.6,5.66,1.23,8.5,1.8h0a2.26,2.26,0,0,0,.89.16,2.43,2.43,0,0,0,.47-.08l.3-.06q3.61-.87,7.23-1.71l17.37-4.12,21-5,18.09-4.28c2.21-.53,4.44-1,6.66-1.53a2,2,0,0,0,1.1.25,3,3,0,0,0,2.54-1.86,4.15,4.15,0,0,0,.64-3.28,4.4,4.4,0,0,0-.29-.79V81.23c0-2.31,0-4.64,0-7v-.09a4.51,4.51,0,0,0-.07-.73l4.2.07c2.81,0,5.62.19,8.43.16h.11a1.09,1.09,0,0,0,.36,0,2.36,2.36,0,0,0,1.11-.45,2.44,2.44,0,0,0,.29-.27A3.86,3.86,0,0,0,189.71,70.13Zm-175-1.54L19.1,57.28l5.52-14.22,4.82-12.28c.6-1.57,1.23-3.14,1.84-4.71l5.51-1.13L53,21.79,72.6,18c5.64-1.11,11.29-2.19,16.93-3.3,1.8-.34,3.61-.63,5.4-1-.17.56-.35,1.13-.53,1.69-1.53,4.8-3.06,9.62-4.57,14.42C88,35.59,86.15,41.41,84.3,47.22c-1.59,5-3.2,10.06-4.79,15.09-.51,1.63-1.07,3.26-1.6,4.91-1.64,0-3.28.06-4.93.11l-16.69.35-20.12.42-17.39.38c-1.34.06-2.71.08-4.06.11Zm61.47,70.85-20.13-4.27c-5.8-1.23-11.61-2.45-17.41-3.7l-6.49-1.38V75.22h1.64l20.12-.42,17.4-.38c2.82-.06,5.65-.06,8.48-.18h.12a3.21,3.21,0,0,0,2.83-2.71c.61-2,1.24-3.91,1.86-5.87,1.52-4.8,3-9.62,4.56-14.42q2.78-8.72,5.53-17.44l1.47-4.63v114.5l-3.3-.7C87.3,141.81,81.75,140.62,76.18,139.44ZM168.37,74.1v53.75l-4.7,1.12-17.36,4.12-21,5-18.09,4.28c-1.74.42-3.51.8-5.27,1.2V29.35q.27.86.54,1.74,2.64,8.4,5.28,16.84l4.6,14.62c.74,2.36,1.47,4.73,2.23,7.09v.1a1.77,1.77,0,0,0,.12.37,3.39,3.39,0,0,0,1.51,1.9,2.09,2.09,0,0,0,1.42.31l6.66.12,16.54.31c6.71.13,13.4.27,20.11.39l7.46.14A7.52,7.52,0,0,0,168.37,74.1Zm-5-7.92c-6.71-.12-13.4-.26-20.11-.39L126,65.47c-2.18,0-4.38-.14-6.57-.16-.35-1.09-.68-2.17-1-3.26q-2.19-7-4.39-14-2.62-8.41-5.28-16.84c-1.53-4.88-3-9.74-4.59-14.62l-.75-2.39,1.86.41c5.54,1.25,11.09,2.47,16.63,3.72l20,4.46,17.3,3.85c2.45.54,4.92,1.12,7.37,1.65,1.88,4.61,3.77,9.24,5.64,13.85l9.88,24.21.08.17H179.9l-16.56-.34Z" transform="translate(-7.07 -6.02)" style="fill:#a2cb82"/><path d="M99,151.62a2.2,2.2,0,0,1-.84-.16h0c-2.08-.42-4.18-.88-6.21-1.31l-2.29-.49q-7.78-1.68-15.58-3.31l-1.83-.41L62.16,143.8l-10.07-2.13-16.65-3.53-3.57-.75-3.43-.72c-1.67-.36-2.53-2.7-2.18-4.55a.48.48,0,0,1,.06-.24h0a4.19,4.19,0,0,1-.17-1.17V75.61l-9,.2-7,.13a2.55,2.55,0,0,1-1.53-.5h0a3.21,3.21,0,0,1-1.4-2.25,4.86,4.86,0,0,1-.14-.93,4,4,0,0,1,.36-1.92v-.06q.66-1.74,1.35-3.48c.32-.83.65-1.66,1-2.5C11.38,60.22,13,56.11,14.56,52q2.8-7.07,5.55-14.21L24.69,26q.86-2.25,1.73-4.49a1.66,1.66,0,0,1,.12-.31v-.08a2.86,2.86,0,0,1,.9-1.17,2.17,2.17,0,0,1,1-.59l.12.2v-.2c1.87-.47,3.77-.8,5.61-1.13l2.64-.48,8.63-1.69,8.29-1.61,17-3.31,2.59-.51,8.12-1.57,8.13-1.58c1.93-.39,3.86-.77,5.81-1.14l.94-.18a3.23,3.23,0,0,1,1.77.11,2.87,2.87,0,0,1,1-.24,2.45,2.45,0,0,1,1,.17c1.64.35,3.31.71,5,1.1l3.42.77q8.3,1.83,16.61,3.7l.69.15,20,4.46,8.32,1.86,8.31,1.85,3,.67,3.57.79h.21V22h-.29l-3.57-.8-3-.66c-2.77-.63-5.55-1.24-8.32-1.86l-8.31-1.86-20-4.46-.69-.15-16.61-3.7L105,7.71c-1.66-.37-3.32-.75-5-1.11a2,2,0,0,0-.83-.15,2.87,2.87,0,0,0-1,.24H98a2.77,2.77,0,0,0-1.61-.13l-1,.18c-1.94.38-3.88.75-5.81,1.14L81.44,9.46l-8,1.58-2.59.5-17,3.32-8.29,1.61-8.64,1.68-2.65.49c-1.83.32-3.72.66-5.55,1.11a.49.49,0,0,1-.17,0,1.82,1.82,0,0,0-.83.47,2.34,2.34,0,0,0-.7,1v.05h0a1.66,1.66,0,0,0-.12.31l-1.82,4.56L20.5,37.94Q17.76,45.05,15,52.16L10.21,64.44c-.32.84-.64,1.67-1,2.51-.45,1.16-.91,2.32-1.35,3.49v.06a3.71,3.71,0,0,0-.42,1.73,3.49,3.49,0,0,0,.12.85,2.88,2.88,0,0,0,1.17,2h0l.09.09a2.18,2.18,0,0,0,1.26.39l7-.14c3.09-.06,6.17-.12,9.26-.2h.22v55.49a3.77,3.77,0,0,0,.17,1.1h0V132a.37.37,0,0,1-.05.22c-.31,1.62.43,3.75,1.85,4.05l3.39.72,3.56.76,16.71,3.54,10.06,2.14,10.07,2.13,1.83.39,15.58,3.31,2.28.49c2,.44,4.14.89,6.21,1.31a2.06,2.06,0,0,0,.85.15,1.52,1.52,0,0,0,.42-.06l.29-.07,7.25-1.71,8.53-2,8.83-2.1,39.05-9.3c1-.25,2.06-.47,3.09-.7s2.38-.53,3.57-.82h.15a2,2,0,0,0,1,.22,2.81,2.81,0,0,0,2.36-1.74A3.7,3.7,0,0,0,174,129V74.17a4.14,4.14,0,0,0-.06-.7v-.25h4.45l3,.07c1.79,0,3.64.11,5.46.09h.11a.81.81,0,0,0,.31,0,2.15,2.15,0,0,0,1-.41,2.91,2.91,0,0,0,.27-.24,3.64,3.64,0,0,0,1.06-2.65h0a4,4,0,0,0-.21-1.18,4,4,0,0,0-.17-.49L183,53.19q-2.46-6-4.91-12t-5-12.17l-1.15-2.8c-.36-.91-.74-1.81-1.11-2.72a2.73,2.73,0,0,0-.39-.66,2.08,2.08,0,0,0-1.18-.83v-.43h.11a2.42,2.42,0,0,1,1.38,1,2.83,2.83,0,0,1,.45.77c.38.9.75,1.8,1.12,2.71l1.14,2.8,5,12.17,4.91,12,6.2,15.21a4.72,4.72,0,0,1,.18.53,4.44,4.44,0,0,1,.23,1.3h0a4,4,0,0,1-1.18,3,2.21,2.21,0,0,1-.32.29,2.49,2.49,0,0,1-1.2.49,1.28,1.28,0,0,1-.39,0h-.11c-1.82,0-3.68,0-5.47-.08l-3-.08h-3.95a4.51,4.51,0,0,1,0,.52v54.78a4.12,4.12,0,0,1-.38,4.24,3.2,3.2,0,0,1-2.71,1.95,2.36,2.36,0,0,1-1.14-.23c-1.16.28-2.35.54-3.49.8l-3.09.7-39.09,9.25-8.83,2.09-8.53,2-7.23,1.71-.32.07a2.67,2.67,0,0,1-.48.08Zm-2.59-7.68-3.55-.75q-7.24-1.51-14.47-3.06l-2.23-.47-10.28-2.18L56,135.39l-2.23-.45-15.18-3.23-6.49-1.38h-.17V75h1.85l37.52-.79h2.84c1.85,0,3.76,0,5.64-.14h.13a3,3,0,0,0,2.62-2.53c.31-1,.61-1.94.92-2.9s.63-2,1-3C86,60.84,87.45,56,89,51.22c.93-2.91,1.85-5.81,2.77-8.72l2.76-8.73,1.88-5.93Zm-20.16-4.7,2.23.47,14.46,3,3,.65V30.5l-1,3.32c-.93,2.91-1.85,5.81-2.77,8.72l-2.76,8.73q-2.28,7.2-4.57,14.41c-.32,1-.63,2-1,3s-.61,1.92-.91,2.88a3.38,3.38,0,0,1-3,2.85h-.13c-1.88.08-3.79.11-5.64.14H71.29l-37.51.8H32.37v54.59l6.32,1.35,15.18,3.22,2.23.47,9.85,2.1,10.28,2.18Zm25.51,4.59V27.94l.46,1.48c.16.52.33,1,.49,1.58.76,2.41,1.51,4.82,2.27,7.23q1.51,4.8,3,9.61c1.52,4.88,3,9.74,4.59,14.62.27.87.55,1.74.82,2.61.47,1.5.93,3,1.41,4.49a.24.24,0,0,1,0,.12v.15a.24.24,0,0,0,.07.2,3.12,3.12,0,0,0,1.4,1.77,1.84,1.84,0,0,0,1.29.29l3.36.06,3.33.06c5.52.11,11,.22,16.54.31l9.89.19,10.23.2,7.68.14v.38c0,.21-.05.43-.05.65V128l-4.86,1.16L155,131.22l-8.68,2.06-39.08,9.27c-1.06.26-2.13.49-3.2.73l-2.07.47Zm.42-113.09V143.3l1.82-.41,3.19-.73,39.08-9.28,8.68-2,8.68-2.06,4.54-1.08V74.1c0-.2,0-.41,0-.61l-7.22-.14-10.23-.2-9.83-.21q-8.27-.14-16.54-.31L121,72.57l-3.33-.06a2.26,2.26,0,0,1-1.52-.34,3.58,3.58,0,0,1-1.6-2l-.06-.18c0-.07,0-.13-.07-.2v-.05c-.49-1.52-1-3-1.43-4.52l-.81-2.61c-1.54-4.88-3.07-9.74-4.6-14.62l-3-9.62q-1.14-3.6-2.27-7.22ZM14.44,68.81l4.5-11.61q2.73-7.11,5.5-14.21L29.21,30.7c.3-.79.61-1.57.92-2.36s.62-1.56.92-2.35v-.11h.12c1.84-.36,3.69-.71,5.55-1.09l8.07-1.57,8.13-1.58,19.61-3.82c2.83-.56,5.66-1.1,8.5-1.65l8.43-1.65,2.34-.42q1.55-.27,3.06-.57l.36-.07-.65,2Q92.28,22.66,90,29.87c-.91,2.86-1.81,5.72-2.72,8.59s-1.84,5.93-2.78,8.88c-.79,2.5-1.59,5-2.38,7.5s-1.61,5-2.4,7.58c-.28.88-.57,1.77-.87,2.65s-.5,1.51-.74,2.26v.15H77.8c-1.59,0-3.17.06-4.76.11l-8.28.17-8.46.18-37.52.79c-1.37,0-2.71,0-4.05.06Zm17-42.56c-.29.75-.58,1.5-.88,2.25l-.91,2.35q-2.43,6.09-4.83,12.29-2.76,7.11-5.51,14.22L15,68.36c1.25,0,2.48,0,3.75-.06l37.51-.79,8.41-.18L73,67.16c1.59,0,3.17-.08,4.76-.11h0c.23-.71.47-1.42.7-2.12.29-.89.59-1.77.86-2.64q1.2-3.8,2.41-7.58c.79-2.5,1.59-5,2.38-7.51.94-3,1.87-5.91,2.81-8.86s1.81-5.73,2.72-8.59q2.26-7.2,4.56-14.41L94.61,14c-.9.18-1.81.34-2.71.5l-2.33.46-8.43,1.62-8.5,1.65L53,22,44.9,23.62l-8.07,1.57Zm151,40.51-2.6-.06q-8.25-.14-16.52-.31l-10.23-.2L143.2,66l-17.27-.32-2.43-.07c-1.36,0-2.76-.08-4.13-.09h-.16v-.15c-.18-.54-.35-1.08-.52-1.63l-.51-1.63-4.39-14c-.72-2.31-1.44-4.61-2.17-6.92q-1.56-5-3.11-9.92c-1.53-4.88-3.06-9.74-4.6-14.62l-.36-1.18c-.13-.41-.26-.81-.38-1.21l-.13-.32,2.22.5,8.31,1.85,8.32,1.86,20,4.46,17.31,3.85,2.89.65,4.47,1h.11v.11c1.89,4.61,3.78,9.24,5.65,13.85l3.27,7.87c2.23,5.44,4.44,10.88,6.67,16.32v.07a.47.47,0,0,1,.05.1Zm-62.9-1.66c1.33,0,2.68,0,4,.09l2.43.06,17.27.33,9.89.19,10.23.2h0l16.52.31h1.94q-3.3-8.1-6.61-16.19L172,42.2q-2.79-6.87-5.61-13.75l-4.36-1-2.89-.65-17.31-3.86q-10-2.21-20-4.46l-8.39-1.78-8.31-1.86-1.51-.34.27.86.37,1.19q2.31,7.31,4.59,14.61,1.56,5,3.11,9.92c.73,2.31,1.45,4.62,2.18,6.92l4.38,14c.18.55.35,1.09.52,1.64Z" transform="translate(-7.07 -6.02)" style="fill:#a2cb82"/></g><path d="M96.17,29.13V143.67c-3.75,0-64-13.58-64-13.58V75.33l47.72-.86a3.12,3.12,0,0,0,2.92-2.19Z" transform="translate(-7.07 -6.02)" style="fill:#fff"/><path d="M96.38,143.88h-.21c-3.73,0-61.61-13-64.07-13.58h-.17V75.12l47.94-.86a2.89,2.89,0,0,0,2.72-2L96.38,27.73Zm-64-14c3.45.78,58.43,13.14,63.6,13.53V30.53L83,72.34a3.31,3.31,0,0,1-3.12,2.34l-47.52.86Z" transform="translate(-7.07 -6.02)" style="fill:#fff"/><path d="M101.94,29.35" transform="translate(-7.07 -6.02)" style="fill:#a2cb82"/><path d="M101.94,29.35,114.8,70.53A2.34,2.34,0,0,0,117,72.17l51.46,1.11-.53,54.52s-62.66,15.71-66.4,15.71l.43-114.16" transform="translate(-7.07 -6.02)" style="fill:#fff"/><path d="M101.51,143.72h-.21v-.21l.43-115.57L115,70.43a2.11,2.11,0,0,0,2,1.49L168.67,73v.21l-.55,54.7H168C165.44,128.65,105.24,143.72,101.51,143.72Zm.64-113-.43,112.56c5.24-.45,62.53-14.78,66-15.64l.51-54.15L117,72.38a2.53,2.53,0,0,1-2.37-1.78Z" transform="translate(-7.07 -6.02)" style="fill:#a2cb82"/><g id="كيس"><path d="M292.22,95.15l.32-.1h0C292,95.2,292,95.2,292.22,95.15Z" transform="translate(-7.07 -6.02)" style="fill:#a2cb82"/><path d="M194.91,97.94h-.06l.27-.18A.91.91,0,0,0,194.91,97.94Z" transform="translate(-7.07 -6.02)" style="fill:#a2cb82"/><path d="M193.85,99h0V99a1.34,1.34,0,0,1-.07.18C193.69,99.4,193.78,99.39,193.85,99Z" transform="translate(-7.07 -6.02)" style="fill:#a2cb82"/><path d="M193.87,98.86Z" transform="translate(-7.07 -6.02)" style="fill:#a2cb82"/><path d="M304.75,87.07Z" transform="translate(-7.07 -6.02)" style="fill:#a2cb82"/><path d="M318.51,99.55a.45.45,0,0,1,.05-.26h0C318.44,99.85,318.44,99.77,318.51,99.55Z" transform="translate(-7.07 -6.02)" style="fill:#a2cb82"/><path d="M304.52,88.34h0l.16-.25S304.59,88.22,304.52,88.34Z" transform="translate(-7.07 -6.02)" style="fill:#a2cb82"/><path d="M304.73,88a.29.29,0,0,0,0,.13C304.81,88.07,304.81,88,304.73,88Z" transform="translate(-7.07 -6.02)" style="fill:#a2cb82"/><path d="M202.81,96.94l.15.11L202.9,97a.7.7,0,0,0-.19-.15Z" transform="translate(-7.07 -6.02)" style="fill:#a2cb82"/><path d="M304.86,87.82" transform="translate(-7.07 -6.02)" style="fill:#a2cb82"/><path d="M313.44,108.25l.2-.12h0A1.85,1.85,0,0,1,313.44,108.25Z" transform="translate(-7.07 -6.02)" style="fill:#a2cb82"/><path d="M304.73,88a1.37,1.37,0,0,1,.13-.2l-.18.25Z" transform="translate(-7.07 -6.02)" style="fill:#a2cb82"/><path d="M175.65,237.66l.21.09H176l-.46-.2A.36.36,0,0,0,175.65,237.66Z" transform="translate(-7.07 -6.02)" style="fill:#a2cb82"/><path d="M170.86,230.78c.16-.21.21-.43-.16.19h0A1.46,1.46,0,0,0,170.86,230.78Z" transform="translate(-7.07 -6.02)" style="fill:#a2cb82"/><path d="M336.09,230.09c-.78-7.45-3.79-14.53-7.3-21.21.48-1.41.91-2.84,1.31-4.27a132.62,132.62,0,0,0,3.36-15,147.67,147.67,0,0,0,2.08-22.51,130.83,130.83,0,0,0-2.45-27,115.32,115.32,0,0,0-9.86-28.88l-.64-1.26a16.14,16.14,0,0,0,1.46-2.29,25.53,25.53,0,0,0-.94-24.41,20.42,20.42,0,0,0-10.6-8.61,17.31,17.31,0,0,0-6.46-1c-1.12,0-2.24.2-3.38.23a5.75,5.75,0,0,1-.83,0h-.37a9.59,9.59,0,0,1-1.48-.42l-.37-.13c-.16-.07-.37-.15-.39-.17q-.72-.31-1.38-.66c-1-.5-2-1-3-1.55-1.92-1-3.84-2.06-5.75-3.09a129.71,129.71,0,0,0-12.32-6,51.39,51.39,0,0,0-13.67-4.12,35.87,35.87,0,0,0-13,1.2,80.69,80.69,0,0,0-12.41,4.5,81.88,81.88,0,0,0-11.45,6.15,181.18,181.18,0,0,0-15.7,11.75c-1.88,1.51-3.76,3-5.59,4.62a37.31,37.31,0,0,0-16.3,7.2,9.57,9.57,0,0,0-2.18,10.9c1.79,4.28,5.29,7.36,9.44,9.69.22.11.41.23.63.33a108,108,0,0,1,3.53,12.63q.72,3.24,1.22,6.49c.5,3.25,0,.07,0,.1l.11.8c.07.57.14,1.15.19,1.71.13,1.15.22,2.3.29,3.44a49.49,49.49,0,0,1-.07,6.78c-.06.55-.11,1.1-.18,1.63v.05a3.11,3.11,0,0,1-.13.73q-.28,1.55-.72,3.06c-.15.48-.3,1-.48,1.45l-.27.66a.61.61,0,0,0,0,.12c-.43.85-.89,1.66-1.4,2.46-1.23,1.84-2.44,3.69-3.64,5.53-2.76,4.24-5.4,8.54-7.8,13-5.82,10.8-10,22.24-11.45,34.3a72.71,72.71,0,0,0-.48,9.56c0,.81.06,1.64.09,2.46,0,.39.05.78.07,1.16V223a1.73,1.73,0,0,0-.11.32c-.11.27-.23.55-.36.81.55-1.29.07-.16-.14.29-.42.88-.9,1.76-1.4,2.6a29.62,29.62,0,0,1-2,3l-.54.72-.09.11-.07.1a.12.12,0,0,1-.07.07v.08h0c-.41.47-.82.92-1.27,1.35s-.95.91-1.47,1.35l-.57.44-.44.29c-1.67,1.08-2.73,3.35-1.44,5.11a14.83,14.83,0,0,0,5.4,4.28c5,2.45,10.79,3.07,16.35,2.64a66.92,66.92,0,0,0,14.49-2.88q3.24.45,6.51.85,9,1.09,18,1.84,12.21,1,24.45,1.35a263.27,263.27,0,0,0,26.65-.56,131.88,131.88,0,0,0,25.12-4l1.56-.44a93.58,93.58,0,0,0,9.36,2.22,54.49,54.49,0,0,0,9.18,1.07,17.11,17.11,0,0,0,8.25-1.55,8.87,8.87,0,0,0,3.59-3.74A18.61,18.61,0,0,0,336.09,230.09ZM211.69,90.38c3.25-2.77,6.6-5.47,10-8.14.8-.63,1.6-1.26,2.41-1.88l1.23-.91c.16-.12.32-.25.5-.37-.79.53.16-.1.3-.21,1.67-1.18,3.35-2.33,5.09-3.41A84.82,84.82,0,0,1,242,69.78l2.46-1c.2-.08.39-.17.61-.25h.07c.51-.2,1-.39,1.53-.57a60.77,60.77,0,0,1,5.89-1.83c.87-.21,1.76-.41,2.64-.58.5-.1,1-.18,1.48-.25.05,0,.82-.08.51-.06h.48a25.58,25.58,0,0,1,2.63-.1,13.48,13.48,0,0,1,1.44,0,2.84,2.84,0,0,1,.71.06h.19a45.59,45.59,0,0,1,5.78,1.43c.89.3,1.77.62,2.64,1a4.13,4.13,0,0,1,.45.17l-.22-.09c.2.07.4.17.59.24.59.23,1.17.48,1.76.75,3.92,1.71,7.7,3.67,11.45,5.68a117.94,117.94,0,0,0,10.94,5.67c.47.19.95.36,1.43.53a4.58,4.58,0,0,0,.82.63c.55.31,1.08.66,1.62,1l.63.45a5.45,5.45,0,0,1,.47.37,19.52,19.52,0,0,1,1.68,1.46c.27.25.54.51.78.78a3.57,3.57,0,0,0,.27.28c.34.48.6,1,.94,1.48-.34-.51-.16-.48-.05-.21l.09.24a.47.47,0,0,0,.09.12l-.09-.12a1.22,1.22,0,0,0,.09.27,1.21,1.21,0,0,0,.05.18v.17a.24.24,0,0,0,0,.12h0V88c0,.15-.11.22-.13.18l-.05,0-.11.1a1.64,1.64,0,0,1-.07.15l.05-.13c-.16.15-.32.32-.49.47l-.87.69-.2.15c-.07,0-.12.1-.16.12h0c-.75.52-1.51,1-2.31,1.47-1.57.9-3.18,1.73-4.83,2.47-.8.37-1.61.71-2.43,1l-.62.25h0l-.3.1c-.37.13-.73.3-1.08.43-1.73.67-3.46,1.27-5.21,1.81a163.42,163.42,0,0,1-22.92,5.93c-2,.35-4.1.73-6.16,1,.22,0,.75-.1.07,0l-.78.1-1.42.15c-1.15.12-2.3.24-3.46.32a120.42,120.42,0,0,1-12.6.35c-2.08,0-4.18-.17-6.25-.33l-2.93-.29a5.51,5.51,0,0,1-.57-.06h0c-.61-.09-1.23-.17-1.83-.27A79.16,79.16,0,0,1,215,101.48c-1.07-.33-2.11-.68-3.16-1.06l-1.4-.52-.78-.3h-.11l-.18-.07c-1.61-.64-3.26-1.26-4.93-1.77h0c.67.2.37.1,0,0,.13-.2.27-.38.41-.58h0l.41-.48c.37-.42.74-.82,1.13-1.22a48.25,48.25,0,0,1,5.32-5.1Zm91.48-.88a1,1,0,0,1-.34.23,1.56,1.56,0,0,0,.34-.23ZM202.9,96.94l.11.1H203a.21.21,0,0,1-.1-.06c-.18-.1-.23-.2-.14-.15C202.55,96.65,202.49,96.41,202.9,96.94ZM206,93.38h0Zm-2.37,5.3a.33.33,0,0,1,0,.14v.06h0v-.2Zm-.05.2h0s-.07.25-.13.4a1.35,1.35,0,0,0,.13-.34ZM194,101.62s.09.19.14.34c-.1-.15-.17-.28-.14-.3Zm.62,1.1c-.05-.08-.3-.46-.46-.75a.69.69,0,0,1,0-.13l-.21-.56a4.88,4.88,0,0,0-.25-1v-.5a4,4,0,0,1,.09-.5h0a.3.3,0,0,1,.07-.19l.06-.15c-.09.12-.16.2-.16.17a1.11,1.11,0,0,1,.25-.3l-.09.13V99a1.1,1.1,0,0,1,.2-.28,2.75,2.75,0,0,0,.26-.22c.18-.15.36-.28.53-.43l-.28.2c.12-.08.23-.16.36-.23h0l.18-.12c.19-.13.41-.27.6-.38a5,5,0,0,0,.68,3.84c1.29,1.79,3.39,2.7,5.45,3.5.76.3,1.52.55,2.3.82.36.11.71.23,1.07.36l.48.17h.07c2.38,1,4.79,1.84,7.24,2.61a82.11,82.11,0,0,0,12.77,2.77c18,2.54,36.67.57,54-4.42,7.62-2.18,15.38-4.62,22.39-8.21a39.73,39.73,0,0,0,4.74-2.82c1.78-1.25,3.69-2.58,4.78-4.44,1.86-3.26,1.08-6.6-.86-9.47a8.77,8.77,0,0,1,1.76,1,.86.86,0,0,0,.18.2c.24.14.47.29.7.45s.6.53.89.81a4.56,4.56,0,0,1,.82.88h0l.1.16c.18.23.34.47.5.7a10,10,0,0,1,1.38,2.45c-.06-.17-.29-.69-.06-.09l.27.65c.18.48.35,1,.5,1.46.26.9.46,1.83.64,2.74a.33.33,0,0,0,0,.14v.4c0,.48.08,1,.1,1.44a22.38,22.38,0,0,1,0,2.59,10.59,10.59,0,0,1-.1,1.12h0v.06h0v.23a3,3,0,0,1-.08.43,18.08,18.08,0,0,1-.67,2.5c-.12.36-.27.69-.41,1.06-.11.21-.21.43-.32.63a12.47,12.47,0,0,1-.66,1.11c-.15.25-.49,1-.74,1,0,0,.62-.7.12-.15a5,5,0,0,1-.44.48,10.25,10.25,0,0,1-1.1,1l-.55.45h0c-.37.28-.32.2-.2.12-.33.2-.92.61-1,.65-.82.48-1.69.91-2.56,1.31-.16.07-1.24.38-1.33.56h0l-.68.25c-.94.34-1.88.65-2.82,1q-3,1-6,1.83-6,1.7-12.23,2.89c-2.06.4-4.14.74-6.21,1.06-1.05.15-2.08.3-3.13.43a.09.09,0,0,0-.07,0c-.25,0-.5.07-.75.08l-1.72.2c-4.19.45-8.38.73-12.6.83s-8.44,0-12.63-.18c-2.09-.12-4.2-.27-6.3-.47l-3-.31a8.85,8.85,0,0,1-1.35-.15h-.25l-1.1-.15a150.21,150.21,0,0,1-24.53-5.49c-2-.63-4-1.29-5.95-2l-1.42-.53-.57-.22a.21.21,0,0,0-.11,0c-.92-.39-1.84-.77-2.77-1.2a4.26,4.26,0,0,0-2.16-1.1l-.46-.25c-.39-.21-.78-.44-1.16-.68l-.74-.48c-.09,0-.16-.12-.25-.16-.36-.25-.32-.24.09.06a7,7,0,0,1-1.94-1.66c-.16-.15-.3-.32-.44-.47-.48-.49.07.14.12.17a10.06,10.06,0,0,1-.82-1.42Zm-19,119.78a.56.56,0,0,0-.09.17c.06,0,.1-.13.13-.13Zm151.17,15.41.09,0h0a.27.27,0,0,1-.07.08Zm.23-.13h0l.27-.17a2.2,2.2,0,0,0-.25.17Zm1.14-3.42v.21a8.52,8.52,0,0,1-.23,1c-.12.44-.28.89-.44,1.33v0c-.11.18-.21.38-.32.56a1.64,1.64,0,0,0-.14.22l-.25.2h0c-.41.13-.82.24-1.24.33h-.21a1.13,1.13,0,0,0,.26,0l-.81.08c-.64,0-1.3,0-1.94,0a35.76,35.76,0,0,1-3.87-.26h-.09l-.37,0-.73-.1c-.74-.11-1.49-.25-2.23-.38-3.52-.65-6.89-1.66-10.34-2.53-1.74-.43-3.81.54-5.5,1-1.37.37-2.75.7-4.15,1-3,.65-6.06,1.16-9.09,1.58l-1,.13-.38.05-2.47.29c-1.63.16-3.26.31-4.91.44-3.3.25-6.62.44-9.93.54-6.64.21-13.29.16-19.93,0-11.28-.37-22.53-1.22-33.75-2.45q-2.82-.3-5.61-.64l-1-.12H207l-1.82-.23c-.76-.1-1.52-.2-2.29-.32a2.66,2.66,0,0,1-.39-.07,6.53,6.53,0,0,0-3.1.3c-1.12.35-2.26.67-3.39,1-2,.5-4,.93-6,1.24-.41.07-.82.1-1.22.17a5.17,5.17,0,0,0-.55.07c-.84.08-1.67.13-2.51.16a39.58,39.58,0,0,1-4.22-.06,7,7,0,0,1-.91-.09h0c-.57-.08-1.13-.18-1.7-.3a21.53,21.53,0,0,1-2.95-.83l.25.12a1.4,1.4,0,0,0-.34-.13c-.26-.1-.64-.27-.39-.17l-.27-.12a33.74,33.74,0,0,0,6.34-8.87,32.47,32.47,0,0,0,1.78-4c.42-1.3,0-3,0-4.29-.07-1.63-.09-3.26,0-4.88s.14-3.28.3-4.91c.07-.78.16-1.56.26-2.32,0-.27.11-1.38.06-.37a9.83,9.83,0,0,1,.19-1.21,75.1,75.1,0,0,1,2-9,88.72,88.72,0,0,1,2.89-8.41c.27-.66.53-1.33.82-2,.12-.3.26-.62.39-.92a3.23,3.23,0,0,0,.14-.51,1.47,1.47,0,0,1,.11-.34,15.63,15.63,0,0,1,.73-1.48c.32-.66.63-1.32,1-2a154.43,154.43,0,0,1,7.85-13.76c1.26-2,2.54-4,3.84-5.92a40.64,40.64,0,0,0,3.23-5.33.87.87,0,0,1,.07-.17c7.13-11.27,14.52-13.89,17.38-14.92a8.83,8.83,0,0,0,.9-.35l-.39-.75c-.17.09-.46.18-.81.32-2.68.94-9.16,3.27-15.79,12.26,2.49-8.11,1.55-17,0-25.19q-.93-5.11-2.36-10.19c.76.27,1.54.53,2.31.78,4.17,1.4,8.39,2.6,12.67,3.63a162.33,162.33,0,0,0,27.22,4,159.43,159.43,0,0,0,53.49-5.7c4.9-1.39,10.24-2.92,14.66-5.53.39.8.78,1.6,1.16,2.41.09.18.17.38.26.57-.33-.85.06.11.11.23.21.46.41,1,.6,1.41.45,1,.85,2.06,1.26,3.11a108.13,108.13,0,0,1,3.87,11.91,116.07,116.07,0,0,1,2.45,11.69c.07.44.16.89.22,1.34-.13-1.1,0,.33.09.62.14,1,.24,2,.37,3,.19,1.86.35,3.74.48,5.62a136.35,136.35,0,0,1-.3,20.41c-.13,1.49-.29,3-.47,4.48l-.26,2.15c0,.31-.25,1.64,0,.3-.05.38-.1.78-.18,1.16-.39,2.51-.83,5-1.34,7.49-.77,3.68-1.67,7.32-2.77,10.92-.31,1-.63,2-1,3a5.18,5.18,0,0,0-.5,2c.07,1.5,1.08,2.88,1.78,4.2q.76,1.5,1.47,3c.09.19.76,1.6.3.67.2.4.37.83.55,1.24.37.87.71,1.73,1,2.61a45.27,45.27,0,0,1,2.38,8.46v.13c0,.22.05.42.07.64.05.53.08,1.06.1,1.59a24,24,0,0,1-.1,2.7Z" transform="translate(-7.07 -6.02)" style="fill:#a2cb82"/><path d="M325.22,238.33C324.32,238.33,324.81,238.38,325.22,238.33Z" transform="translate(-7.07 -6.02)" style="fill:#a2cb82"/><path d="M318.35,238.11h.41a.21.21,0,0,1,.11,0Z" transform="translate(-7.07 -6.02)" style="fill:#a2cb82"/></g></g></svg>