<svg id="Layer_1" data-name="Layer 1" xmlns="http://www.w3.org/2000/svg" viewBox="0 0 137.14 300"><g id="Group_68" data-name="Group 68"><g id="airport"><g id="Group_42" data-name="Group 42"><g id="Group_41" data-name="Group 41"><g id="Path_58" data-name="Path 58"><path d="M194.79,81a4.55,4.55,0,0,0-3.59-1.79H145.54l-1-13.74A4.66,4.66,0,0,0,140,61.1H114.51a4.67,4.67,0,0,0-4.6,4.4l-1,13.74H63.26A4.55,4.55,0,0,0,59.67,81a4.91,4.91,0,0,0-.91,4l6,27.72,10.83,49.91L82,191.92a4.63,4.63,0,0,0,4.49,3.72H105v99.6a4.69,4.69,0,0,0,4.6,4.76H144.8a4.69,4.69,0,0,0,4.6-4.76v-99.6H168a4.64,4.64,0,0,0,4.5-3.72l6.34-29.24,10.83-49.91,6-27.72A4.85,4.85,0,0,0,194.79,81Zm-76-10.42h16.87l.63,8.63H118.16ZM75,116.5H99.18v40.38H83.8Zm65.16,174H114.26V195.64H140.2Zm24.11-104.38H90.15l78.44,5.8V166.4Zm6.34-29.24H108.4V116.5h37.66V132a4.61,4.61,0,1,0,9.22.28V116.5h24.14ZM181.48,107H73L69,88.75V107Z" transform="translate(-58.65)"/></g></g></g><g id="Group_44" data-name="Group 44"><g id="Group_43" data-name="Group 43"><g id="Path_59" data-name="Path 59"><path d="M150.69,141.69a4.54,4.54,0,0,0-4.54,4.54h0v.84a4.55,4.55,0,0,0,9.09,0v-.86A4.55,4.55,0,0,0,150.69,141.69Z" transform="translate(-58.65)"/></g></g></g></g><g id="Path_60" data-name="Path 60"><rect x="66.48" width="4.18" height="68.06"/></g></g></svg>