<svg id="Layer_1" data-name="Layer 1" xmlns="http://www.w3.org/2000/svg" viewBox="0 0 232.34 208.7"><path d="M242,79a10.79,10.79,0,0,0-8.74-4.09H71.42a2.15,2.15,0,0,0,.09-.59V61.71c0-1.77,0-3.54,0-5.3a7.25,7.25,0,0,0-6.8-7.23c-3.1-.19-6.25,0-9.35,0H32.7a18.3,18.3,0,0,0-4.11.27A10.61,10.61,0,0,0,20.5,60c0,3.92,0,7.84,0,11.76V232.08a1.94,1.94,0,0,0,.13.7,15.24,15.24,0,0,0-8.81,13.82v11.2H80.2V246.6a15.27,15.27,0,0,0-9.19-14,1.74,1.74,0,0,0,.5-1.27V128.8c0-4.17.13-8.37,0-12.54H235.92a8.62,8.62,0,0,0,4.86-1.09,7.41,7.41,0,0,0,3.35-6.4c0-1.43,0-2.86,0-4.3V90.2C244.13,86.29,244.52,82.33,242,79ZM120.8,78.68l10.79,31.65c.24.73.49,1.45.74,2.18H119.82Q114.45,97.24,109.06,82l-1.16-3.29h12.9ZM24.25,172.32V62.46c0-.93,0-1.87,0-2.8a6.8,6.8,0,0,1,3.36-5.86,8.51,8.51,0,0,1,4.49-.88H60.59c1.21,0,2.41,0,3.62,0a3.49,3.49,0,0,1,3.55,3.64c0,4.61,0,9.22,0,13.83v4a1.82,1.82,0,0,0,.1.59H46a1.9,1.9,0,0,0-1.88,1.88v37.57a1.74,1.74,0,0,0,.5,1.27l.06.06,0,0a1.75,1.75,0,0,0,1.28.51H67.76v91H24.25v-35Zm40.68,59H27.08a14.68,14.68,0,0,0-2.83.28V220.37H67.74c0,3.59-.11,7.19,0,10.76v.2a2.4,2.4,0,0,0,0,.28A15.85,15.85,0,0,0,64.93,231.33Zm-6.4-118.82H47.88V78.68h31.9l10.78,31.65c.25.73.5,1.45.74,2.18H58.53Zm102.32,0L150.08,82c-.38-1.1-.77-2.19-1.16-3.29h8.46l10.79,31.65c.24.73.49,1.45.74,2.18h-8.06Zm36.58,0L186.66,82l-1.16-3.29h11.26l10.79,31.65.74,2.18Zm39.55,0h-.17Q231.43,97.24,226.05,82l-1.16-3.29h8.05a7.33,7.33,0,0,1,5.71,2.19c2.37,2.58,1.73,6.63,1.73,9.85v14C240.38,107.6,241.14,112.38,237,112.51Z" transform="translate(-11.82 -49.09)"/><path d="M63.45,86.84a9,9,0,0,0-7.18,8.75,3,3,0,0,0,0,.44,9,9,0,0,0,5.87,8A8.93,8.93,0,0,0,72,101.36a8.92,8.92,0,0,0-8.56-14.52Z" transform="translate(-11.82 -49.09)"/></svg>