<svg id="Layer_1" data-name="Layer 1" xmlns="http://www.w3.org/2000/svg" viewBox="0 0 214.29 267.69"><path d="M220.89,192.43a14.69,14.69,0,0,0,.44-5.4,13.06,13.06,0,0,0-1.57-4.94,11.88,11.88,0,0,0-3.48-3.88,12.16,12.16,0,0,0-4.82-2,13.29,13.29,0,0,0-5.22.1,14.72,14.72,0,0,0-5,2.14c-.33.22-.64.45-.95.69L194,164.26l6.46-9a15.64,15.64,0,0,0,2.66-5.12,13.85,13.85,0,0,0,.51-5.28,12.42,12.42,0,0,0-1.52-4.82,11.57,11.57,0,0,0-8.15-5.67,12.88,12.88,0,0,0-5.1.18,14.68,14.68,0,0,0-4.91,2.15,13.44,13.44,0,0,0-1.28,1l-9.54-22.42L202.66,74q3.15-4.58,5.87-9.4t4.92-9.79a103.19,103.19,0,0,0,3.86-10A94.54,94.54,0,0,0,220,34.72a20.8,20.8,0,0,0,.74-4.37,17.94,17.94,0,0,0-.25-4.2,16.53,16.53,0,0,0-3.34-7.44,14,14,0,0,0-4.56-3.55,15.69,15.69,0,0,0-5.6-1.54,18.31,18.31,0,0,0-6.08.51,21.32,21.32,0,0,0-6,2.55q-4.78,3-9.29,6.48c-3,2.31-5.88,4.76-8.62,7.33s-5.37,5.29-7.84,8.11a106.63,106.63,0,0,0-6.92,8.8L133.4,87.54l-23.86-1c.21-.5.41-1,.57-1.52a13.59,13.59,0,0,0,.57-5,11,11,0,0,0-1.26-4.44,9.62,9.62,0,0,0-3-3.4,10.1,10.1,0,0,0-4.25-1.66,11.72,11.72,0,0,0-4.68.29A14.08,14.08,0,0,0,93,73a16,16,0,0,0-3.87,3.83l-6.16,8.59-14.13-.61c.15-.37.29-.75.41-1.14a13.11,13.11,0,0,0,.57-4.82,10.93,10.93,0,0,0-1.2-4.37,9.37,9.37,0,0,0-7-5,11.34,11.34,0,0,0-4.53.29,14,14,0,0,0-4.43,2.08,15.92,15.92,0,0,0-3.77,3.78l-5.8,8.07-15-.64a3.14,3.14,0,0,0-1,.11,4.45,4.45,0,0,0-1,.41,5.61,5.61,0,0,0-.94.68,5.13,5.13,0,0,0-.8.88L8.87,106.64A5.19,5.19,0,0,0,8,108.56a4.85,4.85,0,0,0-.1,1,3.69,3.69,0,0,0,.15.94,3.18,3.18,0,0,0,.19.57,3.43,3.43,0,0,0,.28.49,2.93,2.93,0,0,0,.37.42,3.7,3.7,0,0,0,.42.37l.24.18a2.61,2.61,0,0,0,.28.17,1.73,1.73,0,0,0,.32.11,1.36,1.36,0,0,0,.35,0l90.59,19.7L78,164.7l-.15.2-.11.19a.72.72,0,0,0-.09.2,2.34,2.34,0,0,0-.09.24L66.64,187.59,22.36,186a2.92,2.92,0,0,0-1,.08,3.91,3.91,0,0,0-1,.41,5,5,0,0,0-1.65,1.48L8.15,202.64a5.73,5.73,0,0,0-.48.84,5,5,0,0,0-.33.91,5.14,5.14,0,0,0-.18,1,7.6,7.6,0,0,0,0,.95,3.57,3.57,0,0,0,.79,2,3.78,3.78,0,0,0,.49.49l.14.11.11.1.12.1.14.11,37.62,20c-.06.24-.13.49-.18.74a16.94,16.94,0,0,0-.19,5.27A14.43,14.43,0,0,0,47.64,240a12.22,12.22,0,0,0,3,3.8A10.87,10.87,0,0,0,54.94,246a12.28,12.28,0,0,0,4.75.29,14.58,14.58,0,0,0,4.76-1.53l.43-.25,29.71,35.46.15.12.12.11.13.1.15.13a4.31,4.31,0,0,0,.63.42,3.48,3.48,0,0,0,.69.29,3.12,3.12,0,0,0,.74.14,3.23,3.23,0,0,0,.76,0,4,4,0,0,0,1-.23,4,4,0,0,0,.88-.44,5.17,5.17,0,0,0,.77-.63,5.22,5.22,0,0,0,.65-.76l11.17-15.56a6.1,6.1,0,0,0,.63-1.11,5.35,5.35,0,0,0,.46-2.4,4.94,4.94,0,0,0-.2-1.22L98.06,212.37l17.79-17.64a1,1,0,0,1,.17-.19c0-.06.11-.1.16-.15l.17-.15a1.54,1.54,0,0,0,.17-.19L140,161.32l53.71,91.32.21.34a4.15,4.15,0,0,0,.24.34,4,4,0,0,0,.26.32l.28.25a5.72,5.72,0,0,0,.57.39c.2.11.41.21.62.3a3.58,3.58,0,0,0,.66.19,4,4,0,0,0,.7.06,6.39,6.39,0,0,0,1.14-.16,4.91,4.91,0,0,0,1-.39,4.73,4.73,0,0,0,1.73-1.47l17.31-24.12a7.87,7.87,0,0,0,.68-1.4,5.57,5.57,0,0,0,.34-1.35,4.91,4.91,0,0,0,0-1.27,4,4,0,0,0-.33-1.17l-7.23-17,6.39-8.9A15.64,15.64,0,0,0,220.89,192.43ZM95.22,81.12a5.45,5.45,0,0,1,1.29-1.29,4.81,4.81,0,0,1,1.5-.71,3.88,3.88,0,0,1,1.55-.1,3.15,3.15,0,0,1,1.41.56,3.2,3.2,0,0,1,1,1.13,3.87,3.87,0,0,1,.42,1.49,4.55,4.55,0,0,1-.18,1.64,5.58,5.58,0,0,1-.81,1.64l-.48.67-9-.39ZM54.84,79.71a5.58,5.58,0,0,1,1.26-1.26,4.43,4.43,0,0,1,1.47-.7,3.62,3.62,0,0,1,1.5-.1,3.05,3.05,0,0,1,2.31,1.66,3.69,3.69,0,0,1,.39,1.46,4.65,4.65,0,0,1-.19,1.62,5.64,5.64,0,0,1-.8,1.61l.63.46L51.73,84ZM28.52,91.54,127.32,96l-20.59,28.68L18.32,105.75Zm158.09,54a5.53,5.53,0,0,1,1.38-1.35,5,5,0,0,1,1.62-.73,4.38,4.38,0,0,1,1.69-.06,3.75,3.75,0,0,1,1.56.64,3.61,3.61,0,0,1,1.12,1.24,4.1,4.1,0,0,1,.5,1.6,4.8,4.8,0,0,1-.15,1.77,5.56,5.56,0,0,1-.84,1.73l-3.43,4.77-3.85-9ZM23,194.93l39.23,1.57-12,24.28L17,203.28Zm81.26,65.57L98,269.27l-26.14-30.9,19.15-19ZM110,188.63h0L63.3,235.19a7.07,7.07,0,0,1-1.71,1.31,5.86,5.86,0,0,1-1.88.62,4.91,4.91,0,0,1-1.87-.1,4.41,4.41,0,0,1-1.68-.86,4.84,4.84,0,0,1-1.22-1.51,5.66,5.66,0,0,1-.57-2,6.39,6.39,0,0,1,.13-2.18,7.46,7.46,0,0,1,.9-2.23l29.27-59L169,51.85q3-4.14,6.34-8t7.1-7.37a100,100,0,0,1,7.78-6.62,92.47,92.47,0,0,1,8.41-5.75,11.86,11.86,0,0,1,3.2-1.34,10.61,10.61,0,0,1,3.23-.29,8,8,0,0,1,2.92.76,6.54,6.54,0,0,1,2.3,1.81,9.32,9.32,0,0,1,1.11,2,10.71,10.71,0,0,1,.63,2.23,11.3,11.3,0,0,1,.11,2.4,12,12,0,0,1-.42,2.52,89.52,89.52,0,0,1-2.57,9.23,96,96,0,0,1-3.58,9.1A98.57,98.57,0,0,1,201,61.28q-2.51,4.31-5.39,8.35L165.2,111.94a4.19,4.19,0,0,0-.49.54l-27.5,38.31-.2.34Zm88.18,52.72-52.4-88.13,21-29.3L209.68,225.4ZM212,190.86a5.9,5.9,0,0,1-.85,1.77l-3.19,4.43-4.12-9.69.25.18a5.48,5.48,0,0,1,1.39-1.37,5.07,5.07,0,0,1,1.67-.72,4.38,4.38,0,0,1,1.73-.05,3.93,3.93,0,0,1,2.75,2,4.36,4.36,0,0,1,.52,1.65A5.07,5.07,0,0,1,212,190.86Z" transform="translate(-7.13 -13.56)"/></svg>