<svg id="Layer_1" data-name="Layer 1" xmlns="http://www.w3.org/2000/svg" viewBox="0 0 228.74 286"><g id="مرساة"><path id="Path_24" data-name="Path 24" d="M117.37,8.47a13,13,0,0,0-4.81,2.44,13.78,13.78,0,0,0-5.69,10.3,6.27,6.27,0,0,0,1,3.71L109,27l0,2.57a22.92,22.92,0,0,1-2.39,10.32c-.85,1.28-2.62,1.9-9,3.2a219.47,219.47,0,0,1-23.68,3.39,10.11,10.11,0,0,1-7.42-1.63c-2.9-1.81-3.82-2.21-5.14-2.21a2,2,0,0,0-1.74.56C58,44.73,57.49,47.1,57.33,53.85c-.18,7.64.52,11.83,2.19,13.52a2,2,0,0,0,1.85.67,6.32,6.32,0,0,0,3.18-1,17.34,17.34,0,0,1,3.19-1.22A80.63,80.63,0,0,1,86.42,67c10,1.25,14.88,2.5,17.32,4.43a8.87,8.87,0,0,1,2.5,5.05c.49,3.25.22,41.51-.49,69.58-1.23,46.76-2.66,64.91-6.06,75.86a11.34,11.34,0,0,1-8,8.93,49.59,49.59,0,0,1-17.12,4.36c-10,0-22-7.15-36.1-21.61a115.33,115.33,0,0,1-9.14-10.25c0-.56,6.32-2.19,12.71-3.33a28.44,28.44,0,0,0,3.33-.67c.07-.05-.33-.3-.87-.54s-8.78-3.95-18.3-8.28-17.51-7.93-17.74-8-.4,0-.3.54c.09.36.4,5.23.69,10.81,1.44,25.81,1.88,32.85,2.62,40.07.47,4.33.65,3.93,3.46-6.89a56.66,56.66,0,0,1,3.22-10.83,21.23,21.23,0,0,1,2,3.57c12,24,23.93,38.12,37.76,44.74a56.32,56.32,0,0,0,16.86,4.75c14.12,2,26.88,5,32.06,7.6,2.3,1.16,4.34,3.75,7.49,9.5a30.12,30.12,0,0,0,4.54,6.8l.88.85,1-1a26.45,26.45,0,0,0,4.44-6.68c3.64-6.53,5.27-8.51,7.89-9.72a134.8,134.8,0,0,1,30.81-7.26,53,53,0,0,0,18.39-5.25,48.91,48.91,0,0,0,9.58-6.1,85.33,85.33,0,0,0,9.66-9.54,178.21,178.21,0,0,0,22.79-38.88,12.44,12.44,0,0,1,1.68-3.13A58.44,58.44,0,0,1,229.9,219c2.34,9.09,2.83,10.64,3.21,10a301.34,301.34,0,0,0,2.35-30.46c1-17.76,1.23-22.1,1.36-22.73.09-.38.05-.62-.09-.62s-35.66,16-36.75,16.58c-.23.11-.38.24-.34.29s1.59.34,3.42.67A69.36,69.36,0,0,1,216.31,196c.25.23-.63,1.34-4.54,5.84a183.12,183.12,0,0,1-19.66,20.22c-10,8.62-19.3,13.16-27,13.16a48.91,48.91,0,0,1-18.39-4.92c-3.53-1.72-4.33-2.41-5.58-5-3.53-7.22-5.45-22.79-6.6-53.34q-1.23-33.78-1.47-69.82c-.16-23.6-.07-26,.91-28.22,1.28-2.84,3.62-4.2,9.27-5.39A189,189,0,0,1,168,65.61a12.65,12.65,0,0,1,6.88,1.46c4.5,2.21,6.19,1,7-5.21a92.66,92.66,0,0,0,0-13.12c-.78-6.12-2.73-7.41-7.17-4.78-1,.59-2.53,1.43-3.33,1.84l-1.45.71-3.58,0a62.66,62.66,0,0,1-9.38-.85c-12.18-1.72-20.54-3.4-22.86-4.58-1.17-.59-2.1-2.42-2.89-5.52a19.75,19.75,0,0,1-.59-5.68c0-2.95,0-3.3.49-4.14a7.34,7.34,0,0,0,1.5-4.58A14.58,14.58,0,0,0,121.75,8.38,5.82,5.82,0,0,0,117.37,8.47ZM122,16.72a3.09,3.09,0,0,1,2,2.82,3.27,3.27,0,0,1-.88,3,5.29,5.29,0,0,1-5.3,1.68A4.21,4.21,0,0,1,115.1,19a4.84,4.84,0,0,1,.28-.66,4.94,4.94,0,0,1,6.65-1.6Z" transform="translate(-8.13 -8)"/></g></svg>