<svg id="Layer_1" data-name="Layer 1" xmlns="http://www.w3.org/2000/svg" viewBox="0 0 239.57 142.22"><g id="Group_31" data-name="Group 31"><g id="Path_47" data-name="Path 47"><path d="M238.7,162.1H221.19v-35a3.35,3.35,0,0,0-3.3-3.3H106.5a3.36,3.36,0,0,0-3.3,3.3V178.9l-9.66.11V116.4a3.35,3.35,0,0,0-3.3-3.3H86.85V94.7A3.05,3.05,0,0,0,86,92.46l-.11-.11-.06-.06a3.07,3.07,0,0,0-2.25-.9H57.45a3.05,3.05,0,0,0-2.23.89l-.11.1-.06.06a3.07,3.07,0,0,0-.9,2.25V113.1H43.05a3.35,3.35,0,0,0-3.31,3.3V127H32.6a3.35,3.35,0,0,0-3.3,3.3V164.1H8.13a3.34,3.34,0,0,0-3.3,3.3c.72,20.39,5.43,41.19,8.44,61.35a3.31,3.31,0,0,0,3.19,2.42h168.6c6.82,0,13.58.43,20.19-1.64,26.67-8.38,34.45-39.64,36.75-64.13A3.34,3.34,0,0,0,238.7,162.1Zm-50.56,0c-1.28,0-2.7-.1-4.16-.18V149.71h30.61V162.1Zm-29.46,16.16-12.15.14v-9.7h20.59C164.13,171.86,161.3,175.47,158.68,178.26Zm-48.87-28.55h30.11V162.1H109.81Zm104.78-6.6H184V130.38h30.61Zm-37.21,0H146.53V130.38h30.85Zm-37.45,0H109.81V130.38h30.12Zm6.6,6.6h30.84V162a11.4,11.4,0,0,0-1.19.25,3.51,3.51,0,0,0-1-.16H146.53Zm-36.72,19h30.11v9.77l-30.11.35ZM60.76,98H80.25v15.1H60.76ZM46.35,119.7H86.93V127H46.35ZM35.91,133.62h51v45.46l-21,.24V167.4a3.35,3.35,0,0,0-3.3-3.3H35.91ZM200.52,224c-5.8,1.23-12.27.6-18.14.6H19.26c-2.76-17.74-6.63-35.94-7.63-53.86H59.37v12a3.35,3.35,0,0,0,3.31,3.3l43.15-.49a3.77,3.77,0,0,0,1.42,0l34.18-.39a3.7,3.7,0,0,0,3.67,0l15-.17h.08a3,3,0,0,0,1.28-.28l.12-.06a3.45,3.45,0,0,0,.41-.25l.16-.13.29-.24C167,179.34,171.72,173,177,169c-.06.24,1.77-.42,3.71-.28,3.66.27,7.46,0,11.12,0h43.24c-2.48,21.73-10.2,50.09-34.53,55.26Z" transform="translate(-3.63 -90.19)"/><path d="M191,232.41l-3,0-3,0H16.46a4.52,4.52,0,0,1-4.34-3.3l0-.15c-.87-5.82-1.91-11.82-2.9-17.61-2.48-14.41-5-29.3-5.56-43.87a4.53,4.53,0,0,1,4.49-4.54h20V130.32a4.53,4.53,0,0,1,4.49-4.5h5.95V116.4A4.53,4.53,0,0,1,43,111.9H53V94.69a4.26,4.26,0,0,1,1.25-3.1l.1-.1.14-.13a4.24,4.24,0,0,1,3.05-1.17H83.55a4.24,4.24,0,0,1,3.07,1.22l.14.15.09.09a4.26,4.26,0,0,1,1.2,3.08V111.9h2.19a4.53,4.53,0,0,1,4.5,4.48v61.41l7.26-.08V127.07a4.54,4.54,0,0,1,4.49-4.5h111.4a4.53,4.53,0,0,1,4.5,4.49V160.9h16.32a4.56,4.56,0,0,1,4.49,4.49v.12c-3.42,36.48-16.07,58.41-37.58,65.16A47.8,47.8,0,0,1,191,232.41ZM14.45,228.49a2.12,2.12,0,0,0,2,1.48h168.6l3,0c5.84,0,11.35.1,16.8-1.61,20.49-6.43,32.57-27.64,35.91-63a2.15,2.15,0,0,0-2.11-2.06H220V127.07a2.13,2.13,0,0,0-2.12-2.1H106.5a2.14,2.14,0,0,0-2.1,2.12v53l-12.06.14V116.4a2.13,2.13,0,0,0-2.12-2.1H85.65V94.7a1.86,1.86,0,0,0-.53-1.39L85,93.22h0L85,93.14a1.85,1.85,0,0,0-1.37-.55H57.45a1.86,1.86,0,0,0-1.38.54l-.16.14a1.9,1.9,0,0,0-.56,1.39V114.3H43.05a2.13,2.13,0,0,0-2.11,2.12v11.8H32.6a2.13,2.13,0,0,0-2.1,2.12v35H8.13A2.12,2.12,0,0,0,6,167.42c.5,14.34,3.05,29.15,5.52,43.48C12.55,216.68,13.58,222.66,14.45,228.49Zm177.16-2.57c-1.59,0-3.18,0-4.76-.08s-3-.08-4.47-.08H18.23l-.16-1c-.73-4.74-1.57-9.6-2.37-14.31-2.23-13-4.53-26.47-5.27-39.66l-.07-1.27H60.57v13.16a2.14,2.14,0,0,0,2.12,2.1l43.12-.49h.12l.11,0a2.63,2.63,0,0,0,1,0l.23,0,34.49-.39.28.15a2.49,2.49,0,0,0,2.48,0l.27-.16,15.44-.18a2.1,2.1,0,0,0,.76-.16l.14-.07.22-.14.08-.07a2.8,2.8,0,0,0,.26-.21c1.53-1.54,3.12-3.33,4.8-5.22a72.08,72.08,0,0,1,9.79-9.75l2.65-2-.37,1.57a10.82,10.82,0,0,1,2.25-.09c2.39.18,4.9.12,7.32.06,1.25,0,2.49-.06,3.71-.06h44.58l-.15,1.33c-3.73,32.69-16,52.16-35.48,56.31l-3.13.66.14-.18A54.65,54.65,0,0,1,191.61,225.92ZM20.29,223.36H182.38c1.48,0,3,0,4.54.08,4.49.12,9.14.24,13.35-.65l.45-.1c22.4-5.09,30.32-31.17,33-52.79H191.81c-1.2,0-2.43,0-3.65.06-2.48.06-5,.12-7.55-.07a10.91,10.91,0,0,0-2.67.23l-.6.09a74.15,74.15,0,0,0-9.08,9.15c-1.71,1.92-3.32,3.74-4.95,5.37a4.1,4.1,0,0,1-.43.36l-.16.13a5.26,5.26,0,0,1-.58.35l-.17.08a4,4,0,0,1-1.68.39h-.17l-14.72.16a4.88,4.88,0,0,1-4.25,0l-33.78.39a5,5,0,0,1-1.64,0l-43,.49a4.53,4.53,0,0,1-4.52-4.49V171.9H12.9c.8,12.65,3,25.6,5.16,38.12C18.81,214.41,19.59,218.92,20.29,223.36Zm44.48-42.82V167.4a2.13,2.13,0,0,0-2.12-2.1H34.71V132.42H88.13v47.85ZM37.11,162.9H62.67a4.53,4.53,0,0,1,4.5,4.48v10.73l18.56-.21V134.82H37.11ZM108.61,180V167.5h32.51v12.16ZM111,169.9v7.7l27.71-.31V169.9Zm34.32,9.72V167.5H169.9l-1.91,2c-1.53,1.63-3,3.38-4.48,5.08s-2.68,3.13-3.95,4.49l-.35.37Zm2.4-9.72v7.29l10.42-.12c1.14-1.23,2.31-2.59,3.53-4,.89-1,1.8-2.1,2.72-3.14Zm28.42-6.4-.34-.1a2.07,2.07,0,0,0-.66-.1H145.33V148.51h33.24V163l-1,.16c-.36.05-.71.14-1.06.22Zm-28.42-2.6h27.43a4.23,4.23,0,0,1,1,.12V150.91H147.73Zm68.06,2.4H188.14c-1.11,0-2.29-.07-3.54-.14l-1.81-.11V148.51h33Zm-30.6-2.51c1,.06,2,.11,2.95.11h25.25v-10h-28.2Zm-44.07,2.51H108.61V148.51h32.51ZM111,160.9h27.71v-10H111Zm104.78-16.59h-33V129.18h33Zm-30.6-2.4h28.2V131.58h-28.2Zm-6.61,2.4H145.33V129.18h33.25Zm-30.85-2.4h28.45V131.58H147.73Zm-6.6,2.4H108.61V129.18h32.52ZM111,141.91h27.72V131.58H111ZM88.13,128.22h-43V118.5h43Zm-40.58-2.4H85.73V120.9H47.55Zm33.9-11.52H59.56V96.8H81.45ZM62,111.9H79.05V99.2H62Z" transform="translate(-3.63 -90.19)"/></g></g></svg>