<svg id="Layer_1" data-name="Layer 1" xmlns="http://www.w3.org/2000/svg" viewBox="0 0 234 242.08"><g id="warehouse"><g id="Group_18" data-name="Group 18"><g id="Group_17" data-name="Group 17"><path id="Path_40" data-name="Path 40" d="M238.34,107.09,125.13,30.27a3.79,3.79,0,0,0-4.25,0L7.67,107.09A3.8,3.8,0,0,0,6,110.23V267.91a3.79,3.79,0,0,0,3.79,3.79H236.21a3.79,3.79,0,0,0,3.79-3.79V110.23A3.79,3.79,0,0,0,238.34,107.09ZM95,264.12H54V223.18h8.59v20.47a3.79,3.79,0,0,0,3.79,3.79H82.57a3.78,3.78,0,0,0,3.79-3.79V223.18H95v40.94Zm-49-137.46v-8.6H200.07v8.6Zm24.26,113.2V223.19h8.59v16.67ZM95,215.6H54V174.67h8.59v20.46a3.79,3.79,0,0,0,3.79,3.8H82.57a3.8,3.8,0,0,0,3.79-3.8h0V174.67H95ZM70.19,191.35V174.68h8.59v16.67Zm73.28,72.77H102.53V223.18h8.59v20.47a3.79,3.79,0,0,0,3.79,3.79h16.17a3.78,3.78,0,0,0,3.79-3.79V223.18h8.6v40.94ZM118.7,239.86V223.2h8.59v16.66Zm77.08,24.26h3.79V183a3.79,3.79,0,0,0-7.58,0v81.11H151.05V219.4a3.79,3.79,0,0,0-3.79-3.8H102.53V170.88a3.79,3.79,0,0,0-3.79-3.79H54V134.24H192V183c0,2.1,5.49,15.42,7.58,15.42s.51-13.33.51-15.42l-.51-48.76h4.3a3.79,3.79,0,0,0,3.79-3.79V114.27a3.79,3.79,0,0,0-3.79-3.79H42.14a3.79,3.79,0,0,0-3.78,3.79v16.18a3.79,3.79,0,0,0,3.79,3.79H33.56L46.45,264.12h2.07L48,114.54l66.94-2.3,85.16,2Z" transform="translate(-6 -29.62)"/></g></g><g id="Group_20" data-name="Group 20"><g id="Group_19" data-name="Group 19"><path id="Path_41" data-name="Path 41" d="M139.17,62H106.83a3.79,3.79,0,0,0,0,7.58h32.34a3.79,3.79,0,0,0,0-7.58Z" transform="translate(-6 -29.62)"/></g></g><g id="Group_22" data-name="Group 22"><g id="Group_21" data-name="Group 21"><path id="Path_42" data-name="Path 42" d="M139.17,78.14H106.83a3.79,3.79,0,0,0,0,7.58h32.34a3.79,3.79,0,0,0,0-7.58Z" transform="translate(-6 -29.62)"/></g></g><g id="Group_24" data-name="Group 24"><g id="Group_23" data-name="Group 23"><path id="Path_43" data-name="Path 43" d="M139.17,94.31H106.83a3.79,3.79,0,0,0,0,7.58h32.34a3.79,3.79,0,0,0,0-7.58Z" transform="translate(-6 -29.62)"/></g></g><g id="Group_26" data-name="Group 26"><g id="Group_25" data-name="Group 25"><path id="Path_44" data-name="Path 44" d="M82.57,203.47H66.4a3.79,3.79,0,0,0-.21,7.58H82.57a3.79,3.79,0,0,0,.21-7.58Z" transform="translate(-6 -29.62)"/></g></g><g id="Group_28" data-name="Group 28"><g id="Group_27" data-name="Group 27"><path id="Path_45" data-name="Path 45" d="M82.57,252H66.4a3.79,3.79,0,0,0-.21,7.58H82.57a3.79,3.79,0,0,0,.21-7.58Z" transform="translate(-6 -29.62)"/></g></g><g id="Group_30" data-name="Group 30"><g id="Group_29" data-name="Group 29"><path id="Path_46" data-name="Path 46" d="M131.09,252H114.92a3.79,3.79,0,1,0-.21,7.58h16.38a3.79,3.79,0,1,0,.2-7.58Z" transform="translate(-6 -29.62)"/></g></g></g></svg>