<svg id="Layer_1" data-name="Layer 1" xmlns="http://www.w3.org/2000/svg" viewBox="0 0 234.82 138.61"><g id="Path_49" data-name="Path 49"><path d="M238.27,131.58c-2.92-6.86-7.65-13.39-11.35-19.87-3.43-6-5.82-12.22-13.46-13.4-12.23-1.87-25.87-.14-38.28-.11-.08-1.29-.17-2.57-.31-3.85-1.1-10.47-8.76-13.26-18-13.26H33.78c-8.51,0-17.92-.55-22.43,8.48-4,8-1.69,20.91-1.69,29.4v50.29c0,4.54-.42,9.26,1.69,13.46,3.65,7.31,10.58,8.33,17.7,8.46,2,13.46,12.6,24.3,27,24.3A27.68,27.68,0,0,0,83.21,191.2h61.6c2.05,13.45,12.61,24.28,27,24.28A27.68,27.68,0,0,0,199,191.2h19.69c6.8,0,15.33,1.14,17.47-7.25,1.56-6.11.17-13.81.08-20l-.3-20.74C239.34,141.26,240.92,137.79,238.27,131.58Zm-28.45-27.27c7.08.9,8.61,4.85,11.82,10.49s8.25,11.73,10.17,17.79c2,6.3-2,6.8-6.95,6.79H205.3l-30.43,0V129.07c0-8.09.6-16.51.51-24.77,11.24,0,23.34-1.4,34.44,0Zm-194,70.29c-.72-3.87,0-8.52,0-12.44V120.89c0-7.57-1.51-16.86,0-24.31C18.26,84.33,31.84,87.2,39.9,87.2H152c7.31,0,15.06-1.54,16.81,7.8,2.09,11.2,0,24.79,0,36.16v29.9a27.64,27.64,0,0,0-24,24H83.18a27.57,27.57,0,0,0-25.8-24.2c-14.9-.71-26.19,10.24-28.32,24.17C22.89,184.87,17.45,183.56,15.77,174.6Zm19.07,13.55c1.46-27.17,42.44-27.42,42.44,0s-41,27.19-42.44,0Zm115.76,0c1.46-27.17,42.44-27.42,42.44,0S152.06,215.34,150.6,188.15ZM230,159.46c.09,6.34,1.78,14.69.3,20.87-1.62,6.79-9.38,4.76-15.08,4.76H198.94a27.6,27.6,0,0,0-24.07-24V145.43l40.37,0a97.34,97.34,0,0,0,14.59-.41l.21,14.39Z" transform="translate(-6.89 -78.98)"/><path d="M171.84,217.59c-14.23,0-25.83-9.89-28.79-24.28H85a29.91,29.91,0,0,1-28.92,24.28c-14.27,0-25.88-9.93-28.81-24.36-7.13-.32-14-2-17.82-9.57-2-4.06-2-8.34-1.92-12.48,0-.64,0-1.28,0-1.92V119c0-2.09-.14-4.49-.3-7-.48-7.89-1-16.84,2.21-23.31,4.85-9.71,14.45-9.69,22.93-9.65H156.92c12.24,0,19,5.1,20.05,15.15.06.61.12,1.25.18,2,3.25-.06,6.56-.2,10-.36,8.87-.39,18-.8,26.59.51,7.7,1.19,10.77,6.79,13.73,12.2l1.24,2.24c1.21,2.11,2.5,4.19,3.87,6.39a104.21,104.21,0,0,1,7.59,13.69c3.16,7.4.81,11.43-2.17,13.59l.28,19.58c0,1.77.16,3.68.31,5.7.36,5,.73,10.22-.45,14.85-2.33,9.12-11,9-17.36,8.87l-2.16,0H200.77A29.91,29.91,0,0,1,171.84,217.59ZM81.34,189.1h65.28l.28,1.79c2,13.23,12.26,22.48,24.92,22.48a25.67,25.67,0,0,0,25.06-22.43l.23-1.84h21.55l2.23,0c7.28.13,11.8-.2,13.2-5.69,1-4,.67-8.82.33-13.51-.15-2.08-.29-4-.32-5.94L233.79,142l1.09-.66c2-1.12,3.93-3.16,1.45-9h0A99.5,99.5,0,0,0,229,119.29c-1.33-2.14-2.71-4.35-3.95-6.53-.44-.77-.86-1.54-1.28-2.3-2.81-5.14-5-9.19-10.67-10.06-8.14-1.25-17.1-.85-25.77-.47-4,.18-8.2.37-12.18.38h-2l-.12-2c-.09-1.47-.19-2.66-.3-3.75-.83-7.87-5.73-11.38-15.86-11.38H32.37c-7.95,0-15.45-.06-19.14,7.31C10.51,96,11,104.32,11.46,111.69c.16,2.6.31,5.07.31,7.28v50.29c0,.66,0,1.32,0,2-.05,3.8-.09,7.39,1.48,10.54,2.94,5.88,8.25,7.15,15.86,7.29l1.78,0,.27,1.76c2,13.25,12.25,22.5,24.92,22.5a25.67,25.67,0,0,0,25.06-22.43ZM56.68,210.74c-11.41,0-23.15-7.62-24-22.48V188c.82-15.16,13-22.76,24.65-22.46,10.6.29,22,7.47,22,22.57s-11.41,22.29-22,22.58ZM37,188.15c.75,13,11,18.6,20.31,18.36,8.91-.24,17.91-6,17.91-18.36s-9-18.12-17.91-18.36C48,169.57,37.7,175.18,37,188.15Zm135.49,22.59c-11.41,0-23.15-7.62-23.95-22.48V188c.8-14.86,12.54-22.47,24-22.47h.69c10.6.29,22,7.47,22,22.57s-11.41,22.29-22,22.58Zm-19.73-22.59c.76,13,11,18.6,20.31,18.36,8.92-.24,17.91-6,17.91-18.36s-9-18.12-17.9-18.36C163.72,169.56,153.46,175.18,152.71,188.15Zm69.28-.67c-1.22,0-2.43-.08-3.55-.15s-2.19-.13-3.18-.13H197.08l-.23-1.85a25.44,25.44,0,0,0-22.23-22.19l-1.85-.23V143.32l42.47.05a98.25,98.25,0,0,0,14.38-.39l2.29-.24.24,16.69c0,2,.22,4.16.42,6.49.44,5.1.9,10.39-.17,14.9C231,186.51,226.41,187.48,222,187.48ZM200.75,183h14.51c1.12,0,2.3.07,3.44.14,5.9.36,8.77.16,9.59-3.29.92-3.85.49-8.79.08-13.56-.21-2.4-.4-4.66-.43-6.79l-.18-12.11a100.3,100.3,0,0,1-12.62.2l-38.16,0v11.72A29.64,29.64,0,0,1,200.75,183ZM30.86,187.24,29,187.18C22.52,187,15.65,185.36,13.7,175h0a37.81,37.81,0,0,1-.19-8.91c.08-1.38.16-2.69.16-3.91V120.89c0-2.4-.16-5-.33-7.7-.35-5.77-.71-11.74.37-17C16.18,84,28.12,84.57,36,85c1.39.06,2.71.13,3.88.13H152c.89,0,1.79,0,2.68,0,6.39-.16,14.34-.37,16.2,9.57,1.45,7.79,1,16.52.48,25-.23,4.08-.44,7.93-.44,11.58v31.76l-1.85.23a25.51,25.51,0,0,0-22.12,22.21l-.23,1.85H81.32l-.23-1.85A25.47,25.47,0,0,0,57.26,163c-13-.62-24,8.8-26.12,22.39ZM85,183h58a29.72,29.72,0,0,1,23.65-23.73v-28.1c0-3.77.22-7.68.46-11.82.46-8.19.94-16.67-.42-24-1.15-6.12-4.88-6.31-11.95-6.12-.93,0-1.86,0-2.79,0H39.9c-1.27,0-2.64-.06-4.08-.13-9.5-.47-16.35-.18-18,7.83-1,4.75-.62,10.44-.29,15.94.17,2.79.33,5.42.33,8v41.27c0,1.34-.08,2.77-.16,4.15a35.59,35.59,0,0,0,.12,7.9h0c1.2,6.39,4.29,8.21,9.48,8.65,3.11-14.74,15.54-24.75,30.16-24.07A29.68,29.68,0,0,1,85,183Zm140-41.5h-.1l-52.09-.06V129.07c0-3.79.13-7.71.25-11.51.15-4.35.3-8.86.26-13.23l0-2.13h2.13c3.55,0,7.3-.17,10.92-.31,7.9-.32,16.07-.65,23.79.33h0c7.47,1,9.81,5.15,12.53,10l.85,1.52c1,1.74,2.19,3.55,3.46,5.47,2.71,4.11,5.51,8.36,6.89,12.73.94,3,.81,5.26-.4,6.92C231.66,141.27,228.28,141.49,225,141.49Zm-48-4.27,47.89.05c1.23,0,4.49,0,5.15-.89.34-.47.26-1.65-.22-3.16-1.21-3.81-3.84-7.81-6.39-11.68-1.31-2-2.53-3.84-3.6-5.7l-.87-1.55c-2.6-4.65-4-7.21-9.39-7.89h0c-7.37-.93-15.36-.61-23.08-.3-3,.12-6,.24-9,.29,0,3.79-.14,7.6-.26,11.32s-.26,7.64-.26,11.36Z" transform="translate(-6.89 -78.98)"/></g></svg>