<svg id="Layer_1" data-name="Layer 1" xmlns="http://www.w3.org/2000/svg" viewBox="0 0 479 459.72"><path d="M478,147.74a149,149,0,0,0-23.85-60.06,33.11,33.11,0,0,0,6.95-46.31,33.51,33.51,0,0,0-5.28-5.63A44,44,0,0,0,428,26.18,26,26,0,0,0,424.09,16,26.46,26.46,0,0,0,402.4,4h-.3c-7.52,0-15.38,3-21.89,6.84A33.42,33.42,0,0,0,353.09.12C342,1.06,330.78,8.37,325,17.65a69.81,69.81,0,0,0-15-1c-9.37.52-17.67,3.87-23.36,9.44-7.25,7.16-10.68,18.16-9.25,30.09a123,123,0,0,0,2.4,14A34.15,34.15,0,0,0,260.5,79a37.43,37.43,0,0,0-10.78,16.54,42.53,42.53,0,0,0-20.2-1.16,43.68,43.68,0,0,0-21.67,11.48A34.27,34.27,0,0,0,155,119.06a26.37,26.37,0,0,0-18.25-1.48,33.94,33.94,0,0,0-17.35,11.67,39.42,39.42,0,0,0-13.13-5.17,32.71,32.71,0,0,0-25.94,5.6,25.46,25.46,0,0,0-9.24,13.45,42.69,42.69,0,0,0-6.78-.47c-7.7.09-14.54,2.72-19.26,7.38a28.63,28.63,0,0,0-6.44,10.25,49,49,0,0,0-2.73,23.64A27.49,27.49,0,0,0,24,190.8a27.84,27.84,0,0,0-7.76,23.84,36.29,36.29,0,0,0,2.69,8.88A34.87,34.87,0,0,0,3.07,240.25c-3.4,7.72-4,17.1-1.68,26.43a52.55,52.55,0,0,0,22.06,30.57,40.2,40.2,0,0,0,38,58,69.59,69.59,0,0,0,20.45-4.37,44.82,44.82,0,0,0,29,13.66c1.51.11,3,.13,4.55.1v56a8.11,8.11,0,0,1,0,2.78v26.85a8.51,8.51,0,0,0,8.5,8.5h32a8.51,8.51,0,0,0,8.5-8.5h0v-26.8a8.11,8.11,0,0,1,0-2.78V364.3a38.35,38.35,0,0,0,5.36-.12,41.23,41.23,0,0,0,24.93-11.76,41.74,41.74,0,0,0,43.1,2.92A56,56,0,0,0,274,368.9c1.15,0,2.3,0,3.44-.11a48.58,48.58,0,0,0,6-.81v83.27a8.52,8.52,0,0,0,8.5,8.5h32a8.52,8.52,0,0,0,8.5-8.5V362.53a51.66,51.66,0,0,0,7,2.09c15.24,3.39,30.89-1.2,39.86-11.69,8.45-9.89,9.53-23.16,9.28-35.27a39.6,39.6,0,0,0,28.93-21.52,42.59,42.59,0,0,0,.23-35.87,43.15,43.15,0,0,0,3.67-68.52,37.08,37.08,0,0,0,3.74-13.88L437,182.79c4.27,1.77,10.57,4.39,17.4,4.39a23.35,23.35,0,0,0,8.67-1.6c7.24-2.87,12.81-9.69,14.89-18.25C479.67,160.43,479,153.56,478,147.74ZM147.48,412.19h-15V368.75h15Zm0,29.63h-15V432h15Zm168-25.92h-15V368.75h15Zm0,26.85h-15V432.9h15Zm-2.8-91c.14-.15.3-.3.44-.46l.6.46Zm106.9-125.33a26.65,26.65,0,0,1-17,22.74,8.5,8.5,0,0,0-3.2,13.89c5.59,5.79,6.87,17.34,2.84,25.75a22.48,22.48,0,0,1-21.63,12.31,8.49,8.49,0,0,0-9.23,7.67,7.89,7.89,0,0,0,0,1.19v.2c.54,11.54,1.15,24.62-4.91,31.71-4.86,5.69-14.21,8.15-23.25,6.14-8.09-1.8-16.41-6.75-25.41-15.15a8.52,8.52,0,0,0-12,.43,9.23,9.23,0,0,0-.87,1.11c-6.59,10-17.52,16.68-28.52,17.42A38.3,38.3,0,0,1,245.52,339a8.5,8.5,0,0,0-11.45-1.25A25.15,25.15,0,0,1,200,334.53a8.5,8.5,0,0,0-13.62,1.34A23.54,23.54,0,0,1,154.08,344a24.09,24.09,0,0,1-5.6-4.66,8.5,8.5,0,0,0-6.28-2.89h-.1a8.49,8.49,0,0,0-6.25,2.74c-5.12,5.55-14.86,9-23.7,8.37a28,28,0,0,1-20.63-11.76A8.5,8.5,0,0,0,81,332.92a57.27,57.27,0,0,1-20.38,5.33A23.29,23.29,0,0,1,42,299.72a8.5,8.5,0,0,0-3.18-13.47C28.47,282,20.46,272.88,17.89,262.54c-1.41-5.69-1.15-11.2.74-15.49a18,18,0,0,1,13.87-10.3,8.49,8.49,0,0,0,6-13.25c-2.18-3.17-4.77-7.36-5.46-11.61A10.42,10.42,0,0,1,41.68,200,10.24,10.24,0,0,1,45,200a8.51,8.51,0,0,0,9.81-7,8.64,8.64,0,0,0-.47-4.53,32.23,32.23,0,0,1,0-22,12.43,12.43,0,0,1,2.6-4.33c1.56-1.54,4.3-2.44,7.53-2.48,3.82-.09,7.92,1,12.26,2a8.5,8.5,0,0,0,10.3-6.2,8.64,8.64,0,0,0,.15-3.32,8.94,8.94,0,0,1,3.33-8.93A16,16,0,0,1,103,140.74a25.65,25.65,0,0,1,13,7.36,8.51,8.51,0,0,0,12,.05,8.42,8.42,0,0,0,2.13-3.51,16.73,16.73,0,0,1,11.23-10.75c1.41-.4,5.7-1.61,13.55,5.21a8.5,8.5,0,0,0,14-6.34,17.52,17.52,0,0,1,32.2-9.51,8.5,8.5,0,0,0,14.37-.2,27,27,0,0,1,17.13-12,25.5,25.5,0,0,1,19.82,4.61,8.5,8.5,0,0,0,13.33-9c-1.82-6.92,3.73-13,6.2-15.27a17.61,17.61,0,0,1,17.08-3.57,8.5,8.5,0,0,0,10.54-11.51c-2.54-5.68-4.3-12.91-5.37-22.11-.77-6.59.85-12.56,4.34-16,2.74-2.69,7.14-4.33,12.4-4.62,5.54-.3,11.59.82,17.45,1.91a8.5,8.5,0,0,0,9.77-6.16c1.53-5.74,9.46-11.72,16.31-12.3a16.54,16.54,0,0,1,15.77,9.27,8.5,8.5,0,0,0,11.29,4.13,8.64,8.64,0,0,0,1.8-1.13c6-4.87,13.66-8.25,18.72-8.25h.13a9.2,9.2,0,0,1,8.33,12.86A8.51,8.51,0,0,0,423,44.44c4.67-3,15.95-.74,21.95,4.31a16.87,16.87,0,0,1,4.5,18.44,17,17,0,0,1-7.16,8.07,17.32,17.32,0,0,1-23.65-6.37c-.12-.2-.24-.42-.35-.63a8.5,8.5,0,0,0-11.46-3.63,8.59,8.59,0,0,0-2.54,2c-4.48,5.22-13.62,8.45-21.11,8A68.52,68.52,0,0,0,377,49.09a8.5,8.5,0,0,0-13.73-2.44l-78.12,78.12a8.5,8.5,0,0,0,0,12c.13.13.26.26.4.38,14.18,12.4,34.6,17,53.3,12.07a58.73,58.73,0,0,0,34-24.87c2.56,6.68,3,14.3.62,20.3a8.5,8.5,0,0,0,10.33,11.25c7.41-2.19,17.15,2,21.72,9.26a20,20,0,0,1-2.06,23.11,8.49,8.49,0,0,0,.55,12,8.31,8.31,0,0,0,1.84,1.28C414.57,206.08,420.22,216.25,419.58,226.42ZM363.44,105.11a8.83,8.83,0,0,0-.72,1.56,42,42,0,0,1-28.2,26.15,43,43,0,0,1-30.09-3.28l61-61C367.47,80.33,365.55,92.47,363.44,105.11Zm98,58.21c-.76,3.11-2.57,5.64-4.63,6.45-3.23,1.28-8.33-.62-13.29-2.68l-22.79-9.47c-.28-.49-.55-1-.85-1.46a38.81,38.81,0,0,0-28-17.58,48.88,48.88,0,0,0-11.19-33.86c.7-4.27,1.36-8.65,1.83-13.11a46.65,46.65,0,0,0,26.73-7.19A34.12,34.12,0,0,0,438,94.25a131.68,131.68,0,0,1,23.21,56.17c.79,4.36,1.25,8.94.29,12.9Z" transform="translate(0 -0.03)"/><path d="M417,106.75a15.5,15.5,0,1,0,15.5,15.5A15.5,15.5,0,0,0,417,106.75Zm0,17a1.5,1.5,0,1,1,1.5-1.5A1.5,1.5,0,0,1,417,123.75Z" transform="translate(0 -0.03)"/></svg>