<svg id="Layer_1" data-name="Layer 1" xmlns="http://www.w3.org/2000/svg" viewBox="0 0 473.47 393.75"><path d="M349,405.43a2.53,2.53,0,0,0,.33-.48l-.11.15C349.07,405.21,349.07,405.32,349,405.43Z" transform="translate(-5.53 -16.83)"/><path d="M465.81,242.11l.53,0C466.79,241.9,466.85,241.63,465.81,242.11Z" transform="translate(-5.53 -16.83)"/><path d="M348.78,405.61l.53-.72-.49.66Z" transform="translate(-5.53 -16.83)"/><path d="M171.26,283.27l.09-.19c-.13.27-.42.9-.54,1.2C170.92,283.94,171.15,283.61,171.26,283.27Z" transform="translate(-5.53 -16.83)"/><path d="M96.8,304.47l0,0-1-.84C96.16,303.93,96.46,304.2,96.8,304.47Z" transform="translate(-5.53 -16.83)"/><path d="M43.7,232.75Z" transform="translate(-5.53 -16.83)"/><path d="M79.52,205.52l-.21.1.3-.13Z" transform="translate(-5.53 -16.83)"/><path d="M474.14,243.19a9,9,0,0,0-7.35-1.12l-.45,0-.26.09a.88.88,0,0,0-.45.11l.69-.08a12.37,12.37,0,0,0-4.61,2.66l-.11.11a8.92,8.92,0,0,1,2.24-1.79,22.26,22.26,0,0,1,2-1.08c-1.33.06-2.66.09-4,.18-5.83.11-11.65.11-17.47.11-18.14-.11-36.39-.33-54.53-.67-20.38-.34-40.76-.67-61.14-1.12-14.78-.34-29.67-.56-44.45-.9-2.91-.11-5.82-.11-8.73-.22h0c-2-.51-3.92-1.09-5.79-1.68-4.92-1.68-9.74-3.58-14.55-5.6-.67-.22-1.35-.56-2-.78-1.68-.67,2.8,1.23,1.46.67-.67-.29-1.32-.55-2-.76l11.71-11.89c9.18-9.41,18.47-18.81,27.66-28.22,8.06-8.17,16.12-16.35,24.18-24.63l16.91-17.25c2.35-2.35,4.81-4.7,7.05-7.27a82.46,82.46,0,0,0,14.45-23.85,66.17,66.17,0,0,0,4.36-22.85,72.94,72.94,0,0,0-13.1-42.21,83.22,83.22,0,0,0-34.15-29,106.93,106.93,0,0,0-11.87-4.48,81.2,81.2,0,0,0-12.65-2.35,74.07,74.07,0,0,0-23.85,1.12c-17.69,3.58-33,13.77-45.57,26.42-2.8,2.8-5.6,5.49-8.51,8.29-6.27,6-12.54,12-18.81,18-8.4,8.06-16.8,16.12-25.31,24.18-9.4,9-18.7,17.92-28.1,26.88-9.18,8.73-18.25,17.46-27.44,26.09-7.61,7.27-15.22,14.44-23,21.72C81.73,174.61,77,179.16,72,183.59a8.36,8.36,0,0,0-3,2.15,23.61,23.61,0,0,0-2.13,2.69c-.08.15-.14.29-.21.44A112.88,112.88,0,0,0,24.8,224.15C11.59,242.51,5.21,265.58,5.54,288.09A126.31,126.31,0,0,0,25,353.14C37.79,373.3,56.27,390,78.21,399.61a126.91,126.91,0,0,0,18.93,6.83c4.7,1.23,10,2.8,14.89,2.91,2.35.11,4.81,0,7.28.11l39.75.34,59.12.34,61.24.33c15.46.11,30.8.11,46.25.11h14.44a11.43,11.43,0,0,0,2.8-.33,9.76,9.76,0,0,0,5.87-4.64c-.17.24-.13.17,0-.06a13.82,13.82,0,0,0,1.48-5,15.37,15.37,0,0,1-1,4.37h0l0,.07.2-.29.36-.46c1.35-1.68,2.69-3.36,4-4.93,4.14-5,8.39-10.07,12.65-15.11q18.48-21.84,37.17-43.34c13.33-15.34,26.54-30.68,40-46,9.18-10.52,18.36-21.05,27.77-31.35.85-.95,1.72-1.89,2.64-2.84A10.22,10.22,0,0,0,474.14,243.19ZM128.6,157.86c7.5-7.16,15-14.33,22.51-21.38,7.72-7.39,15.45-14.78,23.17-22.06,7.28-6.94,14.45-13.89,21.73-20.72,6-5.82,12.09-11.64,18.25-17.46,4.25-4,8.51-8.18,12.76-12.21,2.47-2.35,4.82-4.81,7.28-7.16a87.53,87.53,0,0,1,7-6.28,82.77,82.77,0,0,1,15.58-9.27,71.1,71.1,0,0,1,15.47-4.2,65.13,65.13,0,0,1,13.17,0,67.53,67.53,0,0,1,16.34,4.52,71.53,71.53,0,0,1,13.69,8.13,73.58,73.58,0,0,1,11.35,11.38A68.47,68.47,0,0,1,334.53,74a66.94,66.94,0,0,1,4,14.46,58.86,58.86,0,0,1,0,11.57,58.48,58.48,0,0,1-3.77,13.57,65,65,0,0,1-7.12,12c-1.82,2.25-3.65,4.2-5.67,6.32-3.36,3.47-6.83,6.94-10.19,10.41l-15.56,15.9c-6.49,6.61-13,13.21-19.37,19.82l-21.5,21.83c-7.28,7.39-14.56,14.78-21.72,22.17L213,243c-5.57,5.67-11.23,11.34-16.8,17a72.64,72.64,0,0,0-1.9-15,78.4,78.4,0,0,0-14.11-29.1,9.43,9.43,0,0,0-1-1.28q-2.42-3.06-5.07-5.9a94.36,94.36,0,0,0-36.28-23.63,89,89,0,0,0-32.39-5.32l3.06-2.85C115.27,170.63,122,164.25,128.6,157.86Zm43.59,123.07c-.05.11-.09.22-.15.33l-.15.47c-.19.48-.4,1-.54,1.35.11-.22.11-.19-.2.53a54.42,54.42,0,0,1-3.81,7.16l-2,3-.2.27-1,1.29a45.13,45.13,0,0,1-5.26,5.27c-.45.33-.78.67-1.23,1-.22.22-.45.33-.67.55-1.12,1,1-.78,1-.78-.56.9-2.24,1.68-3.14,2.24a46.93,46.93,0,0,1-6.05,3.47c-.79.35-1.52.71-2.28,1.06l-.18.06c-.56.23-1.23.45-1.79.67q-3.19,1.18-6.38,2a63.16,63.16,0,0,1-6.39,1.34,3.75,3.75,0,0,1-.67.11c-1,.12-2,.23-3.13.34a66.39,66.39,0,0,1-11.54-.11,4.38,4.38,0,0,1-.51,0,16,16,0,0,1-2.17-.41c-1.46-.34-2.91-.67-4.37-1.12-.51-.17-1.38-.56-1.65-.69a2.52,2.52,0,0,0-.59-.32c-.54-.31-2.67-1.25-2.74-1.26-.62-.28-1.23-.56-1.85-.86a47.65,47.65,0,0,1-5.69-3.42,1.51,1.51,0,0,1,.2.17l-.22-.19-.22-.15c-.52-.34-1.57-1.28-.78-.67h0a19.6,19.6,0,0,1-2.24-2.13c-.66-.66-1.32-1.43-2-2.21-.16-.22-.33-.44-.44-.56l.23.33c-.33-.41-.79-1.07-.31-.43a30.18,30.18,0,0,1-2.56-4.46c0,.13.09.25.15.39-.06-.16-.14-.34-.21-.52l-.13-.26c-.34-.6-.68-1.76-.29-.84-.27-.76-.53-1.56-.72-2.3a19.8,19.8,0,0,1-.56-2.46,8,8,0,0,1-.14-.83,46.94,46.94,0,0,1-.19-5.22c0-.87.1-1.64.11-2.52,0-.23.08-.47.11-.61A48,48,0,0,1,88,273.64c.2-.67.46-1.42.68-2.12h0a.9.9,0,0,1,.12-.35A4.07,4.07,0,0,1,89.3,270c.18-.44,0,.16-.28.74l0-.07c.79-1.68,1.68-3.25,2.58-4.82a14.41,14.41,0,0,1,1.45-2.12l.21-.31.24-.25c1.12-1.46,2.47-2.69,3.7-4,.67-.56,1.23-1.12,1.9-1.68l0,0c-.42.34-.87.7-.82.6.08-.25.57-.49.92-.69l.13-.1-.08.07a1.63,1.63,0,0,0,.26-.18,47,47,0,0,1,4.7-2.8l.35-.16c.85-.32,1.71-.64,2.67-1l2.47-.67.44-.1h.12a32.07,32.07,0,0,1,5.71-.23,24.2,24.2,0,0,1,2.8.23c-4.15-.34-.23,0,.89.33a40,40,0,0,1,6.16,2h0l.9.45c1.12.56,2.24,1.23,3.36,1.9,3.58,2.13,6.49,4.93,11.08,4.26,3.7-.45,6.16-2.8,8.85-5.16,2.46-2,4.81-4.14,7.16-6.27,4.26-3.83,8.51-7.67,12.62-11.64.23.45.48.89.71,1.34s.45,1,.67,1.46a1.6,1.6,0,0,0,.08.2c-.29-.64.29.76.48,1.14a17.06,17.06,0,0,1,.78,2.24,53.36,53.36,0,0,1,2,7.28c.22,1.12.45,2.35.67,3.47a3.09,3.09,0,0,0,.09.53,4.62,4.62,0,0,1-.09-1.09,5.39,5.39,0,0,1,.23,2.35c.22,2.47.22,4.93.22,7.39,0,1.23-.11,2.58-.22,3.81a1.33,1.33,0,0,1-.12.67c0,.24,0,.36,0,.43l-.09.47a65.81,65.81,0,0,1-1.9,7.72c-.4,1.1-.72,2.19-1.18,3.21C172.3,280.65,172.27,280.71,172.19,280.93Zm-62.63,30.33c-.56-.22-1.12-.56-1.68-.78l-.17-.11ZM86.55,279c.07-.59.18-1.23,0,0Zm88.92-10c.07-.51.16-1.2.16-1.2A5.74,5.74,0,0,1,175.47,269Zm-12.61-53.6a.65.65,0,0,0-.21.2C164.14,213.15,163.7,214.48,162.86,215.42ZM70.48,185l.07,0-.07,0Zm-.79.62c-.33.27-.66.53-1,.77C69,186.14,69.35,185.89,69.69,185.65ZM58.56,217.94c-.58.46-.38.29,0,0ZM34.1,327.84a.26.26,0,0,1,0-.08C34.21,328.11,34.29,328.31,34.1,327.84Zm55.53,55.31a2.21,2.21,0,0,1-.78-.34l-.08,0A3.52,3.52,0,0,1,89.63,383.15Zm242,12.85,0-.09.07-.06Zm8.31-5h-.36a3.73,3.73,0,0,1,.58,0Zm88.68-109.06q-19.49,22.17-38.63,44.56-18.13,21-36.17,42.22c-6.2,7.36-12.65,14.64-18.56,22.28h-9.43c-11.76,0-23.63,0-35.38-.11-15.9-.12-31.8-.12-47.7-.23l-50.5-.33L147.63,390c-9.74-.11-19.48-.11-29.22-.22-2,0-4.14-.12-6.16-.12h-.06c-.91-.16-1.82-.33-2.74-.56a129.31,129.31,0,0,1-14.33-3.91c-2.24-.79-4.48-1.68-6.83-2.58l-1.12-.45c-1.12-.56-2.24-1-3.36-1.57a111.09,111.09,0,0,1-11.87-6.83c-1.72-1.11-3.44-2.32-5.08-3.54l-.18-.15a11.2,11.2,0,0,1-1.34-1.12c-.9-.67-1.8-1.46-2.58-2.13a108,108,0,0,1-9.63-9.4l-4.37-5-1-1.35h0c-.56-.74-1.11-1.49-1.67-2.24A103.94,103.94,0,0,1,39,337.58c-1.12-1.91-2.13-3.92-3-5.82-.45-.9-.9-1.91-1.34-2.8-.23-.45-.45-1-.68-1.46l-.28-.66a99.39,99.39,0,0,1-3.86-11.32,121.34,121.34,0,0,1-2.91-12.65c-.14-.63-.23-1.26-.31-1.89,0,.16,0,.09,0-.46s-.11-1.24-.22-1.8a62,62,0,0,1-.45-6.38A123.44,123.44,0,0,1,26,279.58c.12-1,.12-2,.23-3s.78-5.15.11-1.12c.34-2,.67-4,1-6a94.66,94.66,0,0,1,3.24-12.32c.56-1.66,1.19-3.31,1.84-4.91,0-.09.08-.2.12-.31l.08-.21c.21-.43.33-.85.54-1.18.45-1,1-2,1.46-3.13a86.12,86.12,0,0,1,6.6-11.2c.55-.88,1.21-1.65,1.76-2.42a10.45,10.45,0,0,0,.68-1l-.21.26h0l.2-.25c0-.07.09-.14.14-.2,1.45-1.79,2.91-3.47,4.36-5a92.21,92.21,0,0,1,10.19-9.41c.23-.17.43-.34.64-.51l.37-.27c1-.67,1.9-1.46,2.91-2.13,2-1.34,4.15-2.68,6.16-3.92,2.24-1.34,4.59-2.57,6.83-3.8l4-1.85-.33.13.54-.23.15-.07-.06,0a2.62,2.62,0,0,1,.39-.15,15.72,15.72,0,0,1,2.13-.78A84.77,84.77,0,0,1,90.86,202c1.46-.34,2.92-.67,4.37-.9l2.13-.33a78.85,78.85,0,0,1,17-.23c.59.1,1.19.12,1.86.2l.15,0c1.35.22,2.69.45,4.15.78a63.8,63.8,0,0,1,8,2.13c1.34.45,2.57.9,3.92,1.34l1.68.68.44.15c2.36,1.07,4.7,2.15,6.95,3.43s4.59,2.69,6.83,4.25c.66.45,1.33,1,2,1.46l.12.11c.23.23.56.45.79.67a19.89,19.89,0,0,1,1.68,1.46c1.51,1.26,2.94,2.6,4.34,4-1,.94-1.92,1.88-2.89,2.85-5,4.8-10.11,9.5-15.3,14-.64-.37-1.29-.72-1.94-1a62.3,62.3,0,0,0-9.85-4,44.84,44.84,0,0,0-16.8-1.79,47.46,47.46,0,0,0-29.78,14.55c-15,16-20.05,41.77-8,60.91a49.61,49.61,0,0,0,13.66,14.11,48.8,48.8,0,0,0,7.39,4.37c.67.33,1.23.56,1.9.89.11.12.34.12.45.23q4.53,1.85.67.33c.11.12.22.12.34.23a17.17,17.17,0,0,0,2,1c9.18,4.14,19.6,5.15,29.56,4.36,12.43-1,24.86-4.59,35.5-11.31a62.41,62.41,0,0,0,15.34-13.32,76.37,76.37,0,0,0,6.83-9.74c.23-.4.44-.8.65-1.2a13.64,13.64,0,0,0,2.93-2.05c.45-.34.78-.78,1.23-1.12,1.57-1.57,3.14-3.13,4.7-4.59,5.71-5.71,11.31-11.42,16.91-17.13,8.06-8.06,16-16.24,24-24.3,1.09-1.09,2.17-2.2,3.25-3.3a7.89,7.89,0,0,0,4.37,5.32c8.28,3.58,16.91,7.5,25.75,9.63a43,43,0,0,0,10,.78c12.76.22,25.64.56,38.4.78,19.49.45,39,.79,58.45,1.12,18.93.34,37.85.67,56.77.79,3.91,0,7.82.12,11.72.17C439.79,269.12,434.2,275.54,428.57,281.93Zm-350-76Zm396,54.3.12-.13a6.9,6.9,0,0,0,.9-.89c.11-.11.22-.11.33-.23A4.77,4.77,0,0,1,474.47,260.22Z" transform="translate(-5.53 -16.83)"/><path d="M89,270.69a2.44,2.44,0,0,0-.27.47s0,0,0,0-.08.23-.11.34A4.24,4.24,0,0,0,89,270.69Z" transform="translate(-5.53 -16.83)"/><path d="M175.4,256.06a.78.78,0,0,0,0-.14C175.45,256.48,175.52,256.88,175.4,256.06Z" transform="translate(-5.53 -16.83)"/><path d="M91.09,298.72l0,0-.08-.1Z" transform="translate(-5.53 -16.83)"/><path d="M88.18,293.46c.06.18.15.39.24.6l.06.13c-.22-.59-.38-1-.48-1.23Z" transform="translate(-5.53 -16.83)"/><path d="M99.29,257.28l-.1.09.15-.12Z" transform="translate(-5.53 -16.83)"/></svg>