<svg id="Layer_1" data-name="Layer 1" xmlns="http://www.w3.org/2000/svg" viewBox="0 0 435.9 455.64"><path d="M460,202.51a91.74,91.74,0,0,0-25.12-45.7,94.71,94.71,0,0,0-48.14-25.47A105.75,105.75,0,0,0,373,129.65,186.57,186.57,0,0,0,363.11,89C358,75.64,351.6,62.85,342.87,51.45a135.58,135.58,0,0,0-13.6-15.82,128.68,128.68,0,0,0-15.59-13A125.5,125.5,0,0,0,281.24,6.1a118.81,118.81,0,0,0-34.89-6,121.32,121.32,0,0,0-34.89,4.19A120,120,0,0,0,178.9,18.66,123.82,123.82,0,0,0,151,43a134.34,134.34,0,0,0-20.93,34,157.13,157.13,0,0,0-7.56,21.86A193.88,193.88,0,0,0,118,123.09c-.11.82-.18,1.67-.28,2.5a127.47,127.47,0,0,0-17.17,1.68,99.31,99.31,0,0,0-31.16,10.82,82.73,82.73,0,0,0-26.87,23.84C33.42,174.25,29,189.14,27.14,204.14c.12-.93.23-1.86.35-2.79a90.82,90.82,0,0,0,4,47.56,100.62,100.62,0,0,0,27.22,40.24,104.63,104.63,0,0,0,17.59,12.68,16.08,16.08,0,0,0-2.71,8.49A11.88,11.88,0,0,0,77,318.69a13,13,0,0,0,8.72,3.49c3.08.22,6.16-.5,9.14-1a72.94,72.94,0,0,1,17-.08l-2.79-.35a34.76,34.76,0,0,1,10,2l1.71.6a43.73,43.73,0,0,1,6.83,3.88c3.52,3.06,6.31,6.72,9.83,9.82A51.36,51.36,0,0,0,157,347.88a122.7,122.7,0,0,0,36.05,5.93,86.27,86.27,0,0,0,13.37-1.16l1.22-.25a18.13,18.13,0,0,0,1.23,8.39,17.07,17.07,0,0,0,8.88,8.91v73.62a18.22,18.22,0,0,0,3.72,9.18,10.82,10.82,0,0,0,7.56,3.14h30.36a10.57,10.57,0,0,0,10.46-10.46V370a15.68,15.68,0,0,0,1.7-1.41c4-3.84,4.39-9.43,4.52-14.64a53.51,53.51,0,0,0,8.15,1.73,80.4,80.4,0,0,0,25.35-.35,91.17,91.17,0,0,0,36.75-14.65c6.13-4.16,11.64-9.13,17.4-13.77a64.13,64.13,0,0,1,9.87-6.24,30.32,30.32,0,0,1,5.57-1.41,40.55,40.55,0,0,1,8,0,46.2,46.2,0,0,1,9.5,2.79,38.18,38.18,0,0,0,8,2.68,12,12,0,0,0,13.84-12,19.62,19.62,0,0,0-2.33-8.76c15.66-11.88,29.28-26.87,37.22-45a105.69,105.69,0,0,0,5.35-14.65,107.81,107.81,0,0,0,2.67-14.89A91.59,91.59,0,0,0,460,202.51ZM146.11,93.32c.79-2.29,1.69-4.57,2.65-6.85A128.44,128.44,0,0,1,164,60.23a114.09,114.09,0,0,1,18.31-18.38A109.24,109.24,0,0,1,204.17,29a111.31,111.31,0,0,1,26.37-7.22,112.67,112.67,0,0,1,25.5,0A111.61,111.61,0,0,1,282.56,29,115.57,115.57,0,0,1,305.3,42.34a123,123,0,0,1,19.49,19.55A136.85,136.85,0,0,1,341.12,90.1,167.57,167.57,0,0,1,351,123.67c.44,2.23.81,4.5,1.15,6.76a120.77,120.77,0,0,0-28.24,7.31c-.56.21-1.11.45-1.66.67a75.59,75.59,0,0,0-8.34-11.25c-10.93-12.1-25.82-20.35-41.4-24.66a109.24,109.24,0,0,0-49.78-1.86,88.73,88.73,0,0,0-43.61,21.75,73.92,73.92,0,0,0-12.49,15,89.64,89.64,0,0,0-13.55-6.55,73.75,73.75,0,0,0-14.7-3.82c.19-1.68.39-3.35.62-5-.11.93-.23,1.86-.34,2.79A154.45,154.45,0,0,1,146.11,93.32Zm166,77.58-.27-2.11C311.93,169.49,312,170.2,312.09,170.9ZM121.28,323.53c.49.19,1,.38,1.45.62Zm155.25,19.79v0c.05-.47.11-.93.18-1.39Zm-.71,1.66h0s0-.05,0-.07Zm-1.34,1.72h0l.05,0ZM249,434.48v.23H238.61v-61.5c3,.11,6,.14,9,.14H249v61.14Zm-30.39,12-.12-1c.06.42.13.83.21,1.22ZM353.8,308.11c-5,3.74-9.66,7.77-14.53,11.65a87.64,87.64,0,0,1-16.82,9.87,85.38,85.38,0,0,1-20.25,5.51,63.34,63.34,0,0,1-12.91.1,53,53,0,0,1-10.46-2.6,52.78,52.78,0,0,0-7.94-3.72,11.82,11.82,0,0,0-14.77,8A38.27,38.27,0,0,0,255,347.88c-.05,1.47-.06,3-.08,4.47-3.59.07-7.21-.09-10.74-.17-4.88-.1-9.84-.23-14.66-.75-.25,0-.5-.09-.74-.15a30.87,30.87,0,0,0,1-3.75,18,18,0,0,0-.11-8.26,15.11,15.11,0,0,0-6.4-8.25c-4.77-2.91-10.58-2.45-15.7-.59a46.59,46.59,0,0,1-8.22,2.11,79.3,79.3,0,0,1-16.16-.27c-8.27-1.1-16.82-2.83-24.54-5.92a41.08,41.08,0,0,1-5.9-3.42c-3.23-2.82-5.95-6.15-9-9.13A49.78,49.78,0,0,0,125.93,303a12.93,12.93,0,0,0-1.22-.49,69.24,69.24,0,0,0-14.13-2.82c1.68-.89,3.39-1.73,5.13-2.5a68.1,68.1,0,0,1,15.14-4.31,76.92,76.92,0,0,1,11,0c5.94.35,12-.35,17.33-3.25,11.28-6.05,13.72-20.12,10.35-31.52-.46-1.51-1-3-1.61-4.43,1.31,1.54,2.58,3.12,3.84,4.71,14.78,19.4,28,41.55,50.92,52.17a60.36,60.36,0,0,0,20.58,5.7A46.76,46.76,0,0,0,261.93,314c12-4,22.22-11.87,30.59-21.05,8.84-9.75,15.93-20.94,23.82-31.3a118.58,118.58,0,0,1,8.48-9.71c-.14.34-.29.67-.44,1a65.75,65.75,0,0,0-5.46,20.59,22.72,22.72,0,0,0,2.32,12.67c2.1,3.72,5.7,6.05,9.66,7.45,4.88,1.74,10.46,1.27,15.46.81a82.41,82.41,0,0,1,16.4.19,77.89,77.89,0,0,1,14.88,3.55,41.55,41.55,0,0,0-9.41,2A56,56,0,0,0,353.8,308.11Zm86.68-79A88.29,88.29,0,0,1,435,249.23,91.52,91.52,0,0,1,424.4,267.1,121.74,121.74,0,0,1,405,286.34l-2.53,1.88a53.43,53.43,0,0,0-11.1-6.51,94.68,94.68,0,0,0-28.73-7.56,84.71,84.71,0,0,0-14.42-.23c-2.8.17-5.59.52-8.39.52,0-.33,0-.65.07-1a57.62,57.62,0,0,1,3.78-12.53c3.12-7.1,6.71-14,9.31-21.2,2.44-6.63.81-14.42-5.81-17.91-5.82-3-11.75-1.4-17.33,1.16-13.72,6.4-24,18.26-32.8,30.24-4.73,6.23-9.12,12.8-13.84,19a99.53,99.53,0,0,1-15.14,15.64,56.43,56.43,0,0,1-9.6,5.74,43.34,43.34,0,0,1-8.42,2.28,38.61,38.61,0,0,1-6.8,0A50.18,50.18,0,0,1,233,293a72.66,72.66,0,0,1-11.86-7.17,110.81,110.81,0,0,1-16.95-17.61C196,257.41,188.56,246,179.37,235.89c-4.89-5.47-10.59-11.4-17.45-14.3-5.93-2.45-12.79-1.87-17.44,2.67A17.16,17.16,0,0,0,139.71,238c.75,8.46,4.95,15.54,8.33,23.06a32.67,32.67,0,0,1,1.81,6.12,23.82,23.82,0,0,1,0,2.39c-.08.37-.17.73-.27,1.09s-.28.54-.44.79l-.06.06-.79.46c-.6.19-1.21.35-1.81.48-3.24.19-6.41-.16-9.68-.26a63.26,63.26,0,0,0-14.07,1.4A82.65,82.65,0,0,0,99,282.52c-2.38,1.31-4.73,2.73-7,4.28a97.65,97.65,0,0,1-15.22-9.39,93.46,93.46,0,0,1-14-14,91.74,91.74,0,0,1-10.23-17.35,89.35,89.35,0,0,1-5.36-19.76,82.46,82.46,0,0,1,0-17c.31-2.19.66-4.38.95-6.57-.12.93-.23,1.86-.35,2.79a84,84,0,0,1,5.28-20.15,73.78,73.78,0,0,1,7.81-13.34,72.1,72.1,0,0,1,10.28-10.24,79.67,79.67,0,0,1,14.92-8.69,96.43,96.43,0,0,1,22.3-6,106.16,106.16,0,0,1,23.64,0,72.92,72.92,0,0,1,16.69,4.42,72.33,72.33,0,0,1,9.18,5,78,78,0,0,0-2.53,11.19q-.69,4.55-1,9.07a10.33,10.33,0,0,0,10.47,10.47,11.22,11.22,0,0,0,7.44-3,16.36,16.36,0,0,0,2.68-7.68c.08-1.15.21-2.3.33-3.45a76.18,76.18,0,0,1,4.6-16.95,66.66,66.66,0,0,1,7-11.87,68.86,68.86,0,0,1,10.76-10.76,73.42,73.42,0,0,1,13.26-7.75,91.63,91.63,0,0,1,22-6,95.44,95.44,0,0,1,21.37,0,88.53,88.53,0,0,1,21.7,5.8,79.53,79.53,0,0,1,15.47,9,66.69,66.69,0,0,1,9.62,9.46,63,63,0,0,1,7.06,12,69.08,69.08,0,0,1,4,15.17c.13,1.4.21,2.82.28,4.28a11,11,0,0,0,3,7.45,10.45,10.45,0,0,0,7.44,3c5.47-.23,10.7-4.65,10.47-10.47a79.84,79.84,0,0,0-2.73-18.07A116.93,116.93,0,0,1,356,150.81a96.72,96.72,0,0,1,21,0,89,89,0,0,1,20.6,5.61,82.13,82.13,0,0,1,15.84,9.37,87.73,87.73,0,0,1,12.94,13,88.35,88.35,0,0,1,9.28,15.85,76.41,76.41,0,0,1,4.86,18A78.55,78.55,0,0,1,440.48,229.14Z" transform="translate(-26 0)"/></svg>