<svg id="Layer_1" data-name="Layer 1" xmlns="http://www.w3.org/2000/svg" viewBox="0 0 479 360.96"><path d="M292.13,128.2a.79.79,0,0,0,.12-.36,1.26,1.26,0,0,1-.12.34Z" transform="translate(0 -49.31)"/><path d="M133,98.81Z" transform="translate(0 -49.31)"/><path d="M478.41,344.77c-2.83-14.93-17.19-25.45-29.51-32.34-8-4.52-17.07-7.46-24.76-12.55-1.36-.91-2.83-1.92-4.19-2.94-.67-.57-1.47-1-2.14-1.59a6.77,6.77,0,0,1-1-.73c.46.35.82.61.28.17-3.62-2.83-7.13-5.65-10.52-8.59-8.37-7.24-16.51-14.82-24.42-22.62q-6.49-6.42-12.82-13l1.74-1.12a10.25,10.25,0,0,0,3.62-13.91c-2.83-4.41-9.16-6.67-13.91-3.62-1.82,1.16-3.61,2.33-5.41,3.49-2-2.23-3.94-4.46-5.89-6.71l4.63-3a10.23,10.23,0,0,0,3.62-13.9c-2.83-4.41-9.16-6.67-13.91-3.62-2.5,1.59-5,3.19-7.44,4.79l-.59-.72c-1-1.24-2-2.6-3.05-3.84a6.72,6.72,0,0,0-.72-.94c-.44-.56-.88-1.14-1.32-1.67h0l4.19-2.71a10.24,10.24,0,0,0,3.62-13.91c-2.83-4.41-9.16-6.67-13.91-3.61-2,1.25-3.9,2.5-5.84,3.76-3.52-5.15-6.91-10.38-10.1-15.75-3.06-5.2-6-10.51-8.71-15.94-1.24-2.6-2.49-5.09-3.62-7.8a3.38,3.38,0,0,0-.29-.64,7.9,7.9,0,0,0-.5-1.06c-.45-1.24-1-2.6-1.47-3.84a45.75,45.75,0,0,1-1.81-6.45c0-.13,0-.23-.06-.32-.05-.51-.08-1-.17-1.6-.11-1.47-.11-3.05-.11-4.64,0-.79.11-1.69.11-2.48a4.07,4.07,0,0,1,.06-.61l-.06,0a.17.17,0,0,0,.06-.06,5.15,5.15,0,0,0,.06-.62c.08-1.17.16-.29.06.28.34-1.18.77-4.67.95-5.14a46.19,46.19,0,0,1,1.7-5.54c.34-1,.79-2,1.13-3.17.34-.67.57-1.35.91-2,2.26-4.75,1.47-11.2-3.62-13.91-4.07-2.26-11-1.36-13.46,3.85-6,12.64-9.84,27.7-6.76,41.72-5.42,1.57-10.87,3-16.42,4.18-3.84.79-7.68,1.58-11.53,2.15-.9.11-1.81.34-2.71.45a4,4,0,0,1-.68.11h0c-1.92.23-3.73.46-5.65.68a176.17,176.17,0,0,1-20.58.79c-3.06-.11-6.22-.33-9.27-.56-.8-.11-1.47-.11-2.27-.23l-.34,0c-1.4-.22-2.9-.43-4.4-.65a104.93,104.93,0,0,1-16.63-4.29l-3.73-1.36c-.3-.12-.57-.24-.83-.36a3,3,0,0,0,.38.14c-.45-.23-.9-.34-1.36-.57-2.37-1-4.74-2.26-7-3.51s-4.41-2.6-6.55-3.95c-.91-.68-1.93-1.25-2.83-1.92a12.17,12.17,0,0,1-1.47-1.14l-.12-.08a102,102,0,0,1-10.62-10c-.79-.9-1.58-1.81-2.38-2.71-.28-.38-.64-.77-.95-1.15a.44.44,0,0,1-.06-.1c-1.47-2-2.94-4-4.19-6a96.53,96.53,0,0,1-7.12-13,11.76,11.76,0,0,0-.79-1.7l0,0c.2.47.39.94.13.37l-1.36-3.39c-.9-2.49-1.69-4.86-2.48-7.35a111.75,111.75,0,0,1-3.4-14.7c-.22-1.24-.45-2.49-.56-3.73-.34-2.26.34,2.6,0,.34a14.27,14.27,0,0,1-.23-2.15c-.34-2.6-.45-5.2-.68-7.91a11.8,11.8,0,0,0-1.47-5.88,10.27,10.27,0,0,0-8.81-5.09,11.73,11.73,0,0,0-7.58,3.16,52.25,52.25,0,0,0-6.22,7c-10,12-19.45,24.42-28.94,36.86Q53.55,119.6,36.2,143.17c-9.5,12.88-19,25.77-27.81,39a100.39,100.39,0,0,0-6.45,10.41c-1.58,3.16-2.49,6.1-1.58,9.72.79,3.39,4,5.88,6.33,8.14A181,181,0,0,0,28.51,228c10.29,7.23,21.15,13.79,31.89,20.35,18.32,11.19,36.63,22.16,55,33.35,29.74,18.09,59.13,37,89,54.73,28.72,17.07,58.23,33.13,89,46.24,24.08,10.29,49,19.34,74.85,24.09,20.92,3.84,42.17,5,63.2,1.35,5-.9,9.95-1.81,14.48-4.07,5.76-2.94,10.74-7.8,14.92-12.66a84.41,84.41,0,0,0,13.23-21C477.62,362,480.22,353.81,478.41,344.77ZM332,207.44l0-.05C331.67,207,331.81,207.15,332,207.44Zm-128.61-56.3a4,4,0,0,0-.56-.06C201.63,150.92,202.73,151.05,203.42,151.14ZM120.25,67.49l.07-.08C121.17,66.56,121.78,66.5,120.25,67.49Zm-16.09-7v0ZM96.69,96.58c2.38-3.16,4.87-6.22,7.24-9.27l3.21-4.08c.3,1.4.62,2.8,1,4.19a127.8,127.8,0,0,0,11.31,29.74c10.06,18.54,25.78,34.15,44.89,43.19,23.29,11.2,49.52,13.8,75.07,10.74a257.91,257.91,0,0,0,40.76-8.3c2.76,6,5.88,11.81,9.11,17.46,3.94,6.85,8.18,13.54,12.65,20.1-6.07,3.94-12.13,7.88-18.19,11.9L277.94,216a10.25,10.25,0,0,0-3.62,13.91c2.83,4.41,9.16,6.78,13.91,3.62,5.31-3.4,10.52-6.79,15.83-10.29l9.76-6.35q2.76,3.63,5.6,7.19c-5.5,3.58-11,7.16-16.49,10.8l-5.77,3.73a10.25,10.25,0,0,0-3.62,13.91c2.83,4.41,9.16,6.79,13.91,3.62,5.32-3.39,10.52-6.78,15.83-10.29l9.19-6q2.23,2.59,4.49,5.18l1.35,1.51c-6.14,4-12.28,8-18.42,12.06l-5.77,3.73a10.24,10.24,0,0,0-3.62,13.91c2.83,4.41,9.16,6.78,13.91,3.61,5.32-3.39,10.52-6.78,15.83-10.28l11.95-7.77c11.53,12.26,23.54,24.08,36.11,35.24,7.12,6.22,14.35,12.32,22,17.87a81.5,81.5,0,0,0,7.58,5c3.62,2,7.57,3.51,11.31,5.2A106.28,106.28,0,0,1,448,336c.25.16.49.37.73.56.56.46,1.07.87,1.65,1.36,1.24,1.13,2.49,2.26,3.73,3.5.43.43.8.86,1.19,1.28l-.17-.26a3.58,3.58,0,0,0,.28.37c.09.1.18.21.28.31.25.31.47.69.38.63a27.42,27.42,0,0,1,2,3.33,13.62,13.62,0,0,1,.56,2,6.24,6.24,0,0,1,.23,1v1.24c0,.34,0,.65,0,.95a2.7,2.7,0,0,0-.11.53c-9.8.75-19.56,1.51-29.39,1.69-6.33.11-12.55.11-18.88-.23-3.28-.22-6.45-.45-9.73-.79-1.35-.11-2.71-.22-4.07-.45,2.6.45-.11,0-.56-.11-1.13-.12-2.15-.34-3.28-.57-16.85-2.83-33.36-7.8-49.3-13.45-8.14-2.94-16.28-6.11-24.31-9.39-.56-.23-1-.45-1.58-.68l1.31.56-1-.44-3.06-1.36-6.1-2.71-12.55-5.77c-16.85-7.92-33.24-16.62-49.53-25.67-32-17.86-63-37.54-93.28-58.11q-21.78-14.83-43.16-30.25A93.74,93.74,0,0,0,119,168.15a91.74,91.74,0,0,0-14.25-51.56,99.75,99.75,0,0,0-11.31-14.47,7.15,7.15,0,0,0-.57-.53c.45-.57.9-1.15,1.37-1.73.56-.79,1.24-1.58,1.8-2.37C93.53,100.65,96,97.37,96.69,96.58Zm-24,31.55c2.57-3.37,5.13-6.77,7.7-10.16q1.53,1.71,3,3.49A87.17,87.17,0,0,1,93,137.79a87.28,87.28,0,0,1,5.24,19.09,85.52,85.52,0,0,1,0,17.74,84.57,84.57,0,0,1-4.75,18.24c-4.07-3-8.14-6-12.18-9-8-5.88-15.95-11.87-24-17.87-2.74-2-5.48-4.1-8.27-6.1C56.86,149.26,64.76,138.72,72.72,128.13ZM17.89,193c.08.08.15.17.23.26h0A2.46,2.46,0,0,1,17.89,193ZM20,202.34c-.67,2.14-.62,1.14,0,0ZM447.77,375.75A70.55,70.55,0,0,1,441,383.1a15.93,15.93,0,0,1-1.47,1.24,30.76,30.76,0,0,1-3.19,2.09c-.29.1-.69.24-.88.28a29.78,29.78,0,0,1-3.16.79c-2,.46-4.19.91-6.22,1.25a22.16,22.16,0,0,1-2.33.35c.17,0,.18,0-.16,0-.56.11-1.24.11-1.81.22-2.26.23-4.41.46-6.67.57-4.75.34-9.38.34-14.13.23q-7.47-.18-14.93-1c-1.24-.12-2.48-.34-3.84-.45s2.49.33,1.24.22c-.34,0-.68-.11-1-.11l-2.15-.34-7.92-1.36a272.76,272.76,0,0,1-34.26-8.93c-6.22-2-12.43-4.18-18.54-6.56-3.28-1.24-6.56-2.49-9.84-3.84-1.58-.68-3.28-1.36-4.86-2-.69-.27-.48-.17-.15,0l-.19-.08a29.61,29.61,0,0,1-2.71-1.24c-14.36-6.22-28.38-13-42.18-20.24-32.45-17-63.43-36.64-94.63-55.86-23.3-14.47-46.81-28.72-70.22-42.85-13.91-8.48-27.93-16.85-41.72-25.55-4.64-2.94-9.16-5.88-13.68-8.94-1.92-1.35-3.73-2.6-5.66-4.07-.9-.68-1.8-1.35-2.6-2,3.28,2.48.68.45-.56-.45-2.7-2.12-5.31-4.41-7.84-6.71,1.42-2.25,2.91-4.47,4.33-6.64,3.39-5,6.79-9.83,10.25-14.7,2,1.42,3.85,3,5.7,4.3,7.23,5.31,14.47,10.74,21.71,16.17,22.83,17.07,45.9,33.81,69.31,49.86,29.85,20.58,60.26,40.25,91.69,58.23,32.57,18.77,66.15,35.84,101.2,49.41a370.47,370.47,0,0,0,47.83,15,198.11,198.11,0,0,0,36.4,5.2c12.44.68,24.77.11,37.2-.68l.79-.06c-.26.39-.52.75-.79,1.08a11.54,11.54,0,0,0-.79,1.13C446.75,377,448.9,374.28,447.77,375.75Z" transform="translate(0 -49.31)"/><path d="M456.06,343.7c-.09-.13-.17-.28-.26-.4s-.27-.37-.4-.54l-.11-.11A8.75,8.75,0,0,0,456.06,343.7Z" transform="translate(0 -49.31)"/><path d="M318.94,329.38Z" transform="translate(0 -49.31)"/></svg>