<!-- Generator: Adobe Illustrator 24.3.0, SVG Export Plug-In  -->
<svg version="1.1" xmlns="http://www.w3.org/2000/svg" xmlns:xlink="http://www.w3.org/1999/xlink" x="0px" y="0px" width="374.8px"
	 height="397.4px" viewBox="0 0 374.8 397.4" style="overflow:visible;enable-background:new 0 0 374.8 397.4;"
	 xml:space="preserve">
<style type="text/css">
	.st0{fill:#1E1112;}
</style>
<defs>
</defs>
<g id="الايقونة_النهائية_1_">
	<g>
		<g>
			<g>
				<path class="st0" d="M80.1,277.5c1.1,0.4,2.1,0.7,3.1,1.2c-0.7-0.3-1.4-0.6-2.1-0.9c2.5,1.1,4.8,2.4,7,4
					c-0.6-0.5-1.2-0.9-1.8-1.4c3.6,2.8,6.2,6.4,9.6,9.4c4.9,4.4,10.6,7.4,16.8,9.3c9.9,3.1,20.6,5.1,31,5.1c3.9,0,7.7-0.4,11.5-1
					c1.5-0.3,3-0.6,4.4-1.1c1.7-0.5,3.3-1.3,5.1-1.5c-0.8,0.1-1.6,0.2-2.4,0.3c0.5-0.1,1.1-0.1,1.6,0c-0.8-0.1-1.6-0.2-2.4-0.3
					c0.3,0,0.5,0.1,0.8,0.2c-0.7-0.3-1.4-0.6-2.1-0.9c0.4,0.2,0.7,0.3,1,0.6c-0.6-0.5-1.2-0.9-1.8-1.4c0.2,0.2,0.4,0.4,0.6,0.7
					c-0.5-0.6-0.9-1.2-1.4-1.8c0.1,0.2,0.2,0.3,0.3,0.5c-0.3-0.7-0.6-1.4-0.9-2.1c0.1,0.4,0.2,0.7,0.3,1.1c-0.1-0.8-0.2-1.6-0.3-2.4
					c0,0.5,0,1,0,1.5c0.1-0.8,0.2-1.6,0.3-2.4c-0.3,1.9-1,3.6-1.5,5.4c-0.9,3.6-0.9,7.1,0.5,10.6c2.8,6.7,9.7,9.2,16.4,10
					c5.6,0.7,11.3,0.8,16.9,0.8c2.9,0,5.9,0,8.8-0.1c4.4-0.1,8.5-0.8,11.8-4c3.5-3.4,3.8-8.4,3.9-13c0.1-3.3,0-6.6,0.5-9.9
					c-0.1,0.8-0.2,1.6-0.3,2.4c0.1-0.6,0.2-1.2,0.4-1.8c-0.3,0.7-0.6,1.4-0.9,2.1c0-0.1,0.1-0.2,0.2-0.3c-0.5,0.6-0.9,1.2-1.4,1.8
					c0.1-0.1,0.1-0.2,0.2-0.2c-0.6,0.5-1.2,0.9-1.8,1.4c0,0,0.1,0,0.1-0.1c-0.7,0.3-1.4,0.6-2.1,0.9h0.1c-0.8,0.1-1.6,0.2-2.4,0.3
					c0.1,0,0.2,0,0.3,0c-0.8-0.1-1.6-0.2-2.4-0.3c0.4,0.1,0.8,0.2,1.2,0.4c-0.7-0.3-1.4-0.6-2.1-0.9c3,1.3,5.7,3,8.8,4.1
					c2.8,1,5.7,1.6,8.6,2c7.4,1.1,14.5,0.9,21.8-0.3c11.2-1.8,22.3-6.2,31.6-12.6c5.6-3.8,10.6-8.4,15.9-12.6
					c-0.6,0.5-1.2,0.9-1.8,1.4c3.3-2.5,6.8-4.9,10.6-6.6c-0.7,0.3-1.4,0.6-2.1,0.9c2.2-0.9,4.5-1.4,6.8-1.7
					c-0.8,0.1-1.6,0.2-2.4,0.3c3.1-0.4,6.1-0.4,9.2,0c-0.8-0.1-1.6-0.2-2.4-0.3c3.3,0.4,6.5,1.4,9.5,2.6c2.3,0.9,4.4,1.9,6.9,2.3
					c6.3,0.9,11.9-3.8,11.9-10.3c0-4.4-2.3-8.7-4.9-12.1c-4.8-6.4-11.1-11.4-18.5-14.6c-7.9-3.5-16.1-5.6-24.7-6.5
					c-4.1-0.4-8.3-0.5-12.4-0.2c-3.3,0.2-6.6,0.7-9.9,0.3c0.8,0.1,1.6,0.2,2.4,0.3c-0.9-0.1-1.9-0.3-2.8-0.7
					c0.7,0.3,1.4,0.6,2.1,0.9c-0.5-0.2-1-0.5-1.5-0.8c0.6,0.5,1.2,0.9,1.8,1.4c-0.3-0.2-0.5-0.5-0.8-0.8c0.5,0.6,0.9,1.2,1.4,1.8
					c-0.3-0.4-0.5-0.7-0.6-1.1c0.3,0.7,0.6,1.4,0.9,2.1c-0.3-0.7-0.4-1.4-0.5-2.2c0.1,0.8,0.2,1.6,0.3,2.4c-0.2-1.8,0-3.7,0.2-5.5
					c-0.1,0.8-0.2,1.6-0.3,2.4c0.6-4.3,2-8.4,3.7-12.4c-0.3,0.7-0.6,1.4-0.9,2.1c2.8-6.6,6.2-12.9,8.6-19.6c2.1-5.7,0.7-12.4-5-15.4
					c-5-2.6-10.1-1.2-14.9,1c-11.8,5.5-20.6,15.7-28.2,26c-4.1,5.4-7.9,11.1-12,16.5c0.5-0.6,0.9-1.2,1.4-1.8
					c-4.5,5.9-9.5,11.4-15.4,16c0.6-0.5,1.2-0.9,1.8-1.4c-3.1,2.4-6.5,4.4-10.1,6c0.7-0.3,1.4-0.6,2.1-0.9c-3,1.2-6.1,2.1-9.3,2.5
					c0.8-0.1,1.6-0.2,2.4-0.3c-3,0.4-6,0.3-9-0.1c0.8,0.1,1.6,0.2,2.4,0.3c-3.4-0.5-6.7-1.5-9.9-2.8c0.7,0.3,1.4,0.6,2.1,0.9
					c-4.5-1.9-8.6-4.5-12.5-7.4c0.6,0.5,1.2,0.9,1.8,1.4c-6.3-4.9-11.6-10.8-16.5-17.1c0.5,0.6,0.9,1.2,1.4,1.8
					c-7.3-9.5-13.8-19.6-21.9-28.5c-4.2-4.7-9.1-9.8-15-12.3c-5.1-2.1-11-1.6-15,2.3c-3.1,3-4.5,7.6-4.1,11.8
					c0.7,7.9,4.9,14.4,7.9,21.5c-0.3-0.7-0.6-1.4-0.9-2.1c0.9,2.1,1.5,4.3,1.9,6.6c-0.1-0.8-0.2-1.6-0.3-2.4c0.2,1.7,0.2,3.3,0,5
					c0.1-0.8,0.2-1.6,0.3-2.4c-0.2,1.1-0.4,2.2-0.9,3.2c0.3-0.7,0.6-1.4,0.9-2.1c-0.4,0.9-0.9,1.7-1.5,2.5c0.5-0.6,0.9-1.2,1.4-1.8
					c-0.5,0.6-1,1.1-1.6,1.6c0.6-0.5,1.2-0.9,1.8-1.4c-0.8,0.6-1.7,1.1-2.6,1.5c0.7-0.3,1.4-0.6,2.1-0.9c-1.2,0.5-2.4,0.8-3.6,1
					c0.8-0.1,1.6-0.2,2.4-0.3c-3.3,0.4-6.5,0-9.8-0.1c-4.1-0.1-8.2,0.4-12.1,1.2c-7.1,1.4-14.1,4.2-20.4,7.7
					c-5.3,2.9-10.4,6.5-14.7,10.8c-3.5,3.4-7.2,7.9-7.2,13.1c0,2.7,1.1,5.3,3,7.2c2.1,2,4.7,2.9,7.5,3c2.8,0.2,5.6-0.5,8.3-0.9
					c-0.8,0.1-1.6,0.2-2.4,0.3c5.5-0.7,11.1-1,16.6-0.3c-0.8-0.1-1.6-0.2-2.4-0.3C74.6,275.9,77.4,276.6,80.1,277.5
					c4.5,1.5,10-1.7,11.1-6.3c1.1-4.9-1.5-9.5-6.3-11.1c-5.7-1.8-11.8-2.7-17.8-2.7c-4.6,0-9.1,0.7-13.6,1.3
					c0.8-0.1,1.6-0.2,2.4-0.3c-1.4,0.2-2.9,0.5-4.4,0.3c0.8,0.1,1.6,0.2,2.4,0.3c-0.2,0-0.5-0.1-0.7-0.2c0.7,0.3,1.4,0.6,2.1,0.9
					c-0.1,0-0.2-0.1-0.3-0.1c0.6,0.5,1.2,0.9,1.8,1.4c-0.1-0.1-0.1-0.1-0.2-0.2c0.5,0.6,0.9,1.2,1.4,1.8c-0.1-0.1-0.1-0.2-0.1-0.2
					c0.3,0.7,0.6,1.4,0.9,2.1c0-0.1-0.1-0.2-0.1-0.3c0.1,0.8,0.2,1.6,0.3,2.4c0-0.2,0-0.3,0-0.5c-0.1,0.8-0.2,1.6-0.3,2.4
					c0-0.3,0.1-0.6,0.3-0.9c-0.3,0.7-0.6,1.4-0.9,2.1c0.4-0.9,0.9-1.7,1.5-2.5c-0.5,0.6-0.9,1.2-1.4,1.8c2-2.5,4.5-4.7,7-6.7
					c-0.6,0.5-1.2,0.9-1.8,1.4c4.7-3.6,9.9-6.6,15.4-8.9c-0.7,0.3-1.4,0.6-2.1,0.9c4.6-1.9,9.3-3.3,14.2-4c-0.8,0.1-1.6,0.2-2.4,0.3
					c3.7-0.5,7.3-0.4,11.1-0.2c5.1,0.3,10.3-0.3,14.9-2.8c9.7-5.2,11.8-17.3,8.9-27.1c-1.6-5.3-4.5-10-6.7-15
					c0.3,0.7,0.6,1.4,0.9,2.1c-0.9-2.2-1.6-4.4-2-6.7c0.1,0.8,0.2,1.6,0.3,2.4c-0.1-0.9-0.1-1.8,0-2.7c-0.1,0.8-0.2,1.6-0.3,2.4
					c0.1-0.5,0.2-1,0.4-1.5c-0.3,0.7-0.6,1.4-0.9,2.1c0.2-0.5,0.4-0.9,0.7-1.3c-0.5,0.6-0.9,1.2-1.4,1.8c0.2-0.2,0.3-0.4,0.5-0.5
					c-0.6,0.5-1.2,0.9-1.8,1.4c0.3-0.3,0.7-0.4,1-0.6c-0.7,0.3-1.4,0.6-2.1,0.9c0.2-0.1,0.5-0.2,0.8-0.2c-0.8,0.1-1.6,0.2-2.4,0.3
					c0.6-0.1,1.1-0.1,1.6,0c-0.8-0.1-1.6-0.2-2.4-0.3c0.6,0.1,1.1,0.3,1.6,0.5c-0.7-0.3-1.4-0.6-2.1-0.9c1.1,0.5,2.1,1.1,3.1,1.8
					c-0.6-0.5-1.2-0.9-1.8-1.4c5.9,4.7,10.9,10.5,15.6,16.5c-0.5-0.6-0.9-1.2-1.4-1.8c13,16.9,24.4,36.5,44.5,45.8
					c5.7,2.7,11.4,4.3,17.7,4.9c5.3,0.5,11-0.2,16.1-1.9c10.3-3.4,19.1-10.2,26.3-18.1c7.8-8.6,14-18.5,21-27.6
					c-0.5,0.6-0.9,1.2-1.4,1.8c4.3-5.5,8.9-10.8,14.5-15.1c-0.6,0.5-1.2,0.9-1.8,1.4c3.1-2.4,6.5-4.5,10.1-6
					c-0.7,0.3-1.4,0.6-2.1,0.9c0.8-0.3,1.6-0.5,2.4-0.7c-0.8,0.1-1.6,0.2-2.4,0.3c0.5,0,0.9-0.1,1.4,0c-0.8-0.1-1.6-0.2-2.4-0.3
					c0.3,0,0.6,0.1,0.9,0.2c-0.7-0.3-1.4-0.6-2.1-0.9c0.2,0.1,0.4,0.2,0.5,0.3c-0.6-0.5-1.2-0.9-1.8-1.4c0.2,0.1,0.3,0.3,0.4,0.4
					c-0.5-0.6-0.9-1.2-1.4-1.8c0.1,0.2,0.3,0.3,0.3,0.5c-0.3-0.7-0.6-1.4-0.9-2.1c0.1,0.3,0.2,0.5,0.2,0.8c-0.1-0.8-0.2-1.6-0.3-2.4
					c0,0.3,0,0.6,0,0.9c0.1-0.8,0.2-1.6,0.3-2.4c-0.3,1.9-1.2,3.8-2,5.6c0.3-0.7,0.6-1.4,0.9-2.1c-2.2,5.1-4.7,10.1-6.9,15.3
					c-2.4,5.7-4.2,11.4-4.7,17.7c-0.3,3.7,0.2,7.6,2,10.9c1.8,3.2,4.9,5.2,8.3,6.4c4.2,1.5,9,1.1,13.3,0.7
					c5.4-0.5,10.8-0.3,16.1,0.4c-0.8-0.1-1.6-0.2-2.4-0.3c5.8,0.8,11.4,2.2,16.8,4.5c-0.7-0.3-1.4-0.6-2.1-0.9
					c3.7,1.6,7.2,3.5,10.4,5.9c-0.6-0.5-1.2-0.9-1.8-1.4c2.2,1.7,4.2,3.6,5.9,5.8c-0.5-0.6-0.9-1.2-1.4-1.8c1.2,1.6,2.3,3.3,3.1,5.1
					c-0.3-0.7-0.6-1.4-0.9-2.1c0.3,0.8,0.6,1.5,0.7,2.3c-0.1-0.8-0.2-1.6-0.3-2.4c0,0.2,0,0.5,0,0.7c0.1-0.8,0.2-1.6,0.3-2.4
					c0,0.2-0.1,0.4-0.1,0.5c0.3-0.7,0.6-1.4,0.9-2.1c0,0.1-0.1,0.2-0.2,0.3c0.5-0.6,0.9-1.2,1.4-1.8c0,0.1-0.1,0.1-0.2,0.1
					c0.6-0.5,1.2-0.9,1.8-1.4c-0.1,0-0.1,0.1-0.2,0.1c0.7-0.3,1.4-0.6,2.1-0.9c-0.1,0-0.2,0.1-0.3,0.1c0.8-0.1,1.6-0.2,2.4-0.3
					c-0.2,0-0.4,0-0.7,0c0.8,0.1,1.6,0.2,2.4,0.3c-2.4-0.4-4.7-1.8-7-2.6c-4.5-1.6-9.3-2.5-14.1-2.7c-4.6-0.1-9.4,0.4-13.8,1.9
					c-4.5,1.6-8.6,4-12.4,6.8c-4.7,3.5-9,7.3-13.6,10.9c0.6-0.5,1.2-0.9,1.8-1.4c-5.1,3.9-10.6,7.1-16.5,9.6
					c0.7-0.3,1.4-0.6,2.1-0.9c-5.9,2.5-12.1,4.2-18.5,5.1c0.8-0.1,1.6-0.2,2.4-0.3c-5.1,0.7-10.2,0.8-15.2,0.1
					c0.8,0.1,1.6,0.2,2.4,0.3c-3.5-0.5-6.9-1.3-10.2-2.6c0.7,0.3,1.4,0.6,2.1,0.9c-2.7-1.2-5.2-2.9-8.1-3.8
					c-5.4-1.7-11.1,1.5-12.7,6.9c-0.9,3-1,6.3-1,9.4c-0.1,2.9,0,5.9-0.3,8.8c0.1-0.8,0.2-1.6,0.3-2.4c-0.1,0.6-0.2,1.1-0.4,1.6
					c0.3-0.7,0.6-1.4,0.9-2.1c-0.1,0.2-0.3,0.5-0.4,0.7c0.5-0.6,0.9-1.2,1.4-1.8c-0.2,0.2-0.4,0.4-0.6,0.5c0.6-0.5,1.2-0.9,1.8-1.4
					c-0.2,0.2-0.4,0.3-0.7,0.4c0.7-0.3,1.4-0.6,2.1-0.9c-0.5,0.2-1,0.3-1.5,0.4c0.8-0.1,1.6-0.2,2.4-0.3c-4.7,0.6-9.6,0.3-14.3,0.2
					c-4.7-0.1-9.5-0.2-14.1-0.8c0.8,0.1,1.6,0.2,2.4,0.3c-1.6-0.2-3.1-0.6-4.6-1.2c0.7,0.3,1.4,0.6,2.1,0.9c-0.6-0.3-1.2-0.6-1.8-1
					c0.6,0.5,1.2,0.9,1.8,1.4c-0.4-0.3-0.8-0.7-1.2-1.1c0.5,0.6,0.9,1.2,1.4,1.8c-0.3-0.4-0.5-0.7-0.7-1.1c0.3,0.7,0.6,1.4,0.9,2.1
					c-0.2-0.4-0.3-0.8-0.4-1.3c0.1,0.8,0.2,1.6,0.3,2.4c-0.1-0.7-0.1-1.3,0-2c-0.1,0.8-0.2,1.6-0.3,2.4c0.4-2.3,1.4-4.5,1.8-6.8
					c0.4-2.4,0.6-4.7-0.1-7.1c-0.9-2.9-2.9-5.5-5.5-7.1c-4.1-2.5-9.1-2.1-13.5-0.5c-2.5,0.9-5,1.5-7.6,1.9c0.8-0.1,1.6-0.2,2.4-0.3
					c-6,0.8-12.1,0.5-18-0.3c0.8,0.1,1.6,0.2,2.4,0.3c-7.6-1-15.5-2.6-22.5-5.6c0.7,0.3,1.4,0.6,2.1,0.9c-2.3-1-4.5-2.3-6.6-3.8
					c0.6,0.5,1.2,0.9,1.8,1.4c-3.3-2.6-5.9-5.9-8.9-8.8c-4.8-4.6-10.4-7.7-16.7-9.8c-4.5-1.5-10,1.7-11.1,6.3
					C72.7,271.4,75.3,275.9,80.1,277.5z"/>
			</g>
		</g>
		<g>
			<g>
				<path class="st0" d="M57.6,247c-5.2-2.5-10-5.5-14.6-9c0.6,0.5,1.2,0.9,1.8,1.4c-5.2-4.1-9.9-8.7-14-14c0.5,0.6,0.9,1.2,1.4,1.8
					c-4-5.2-7.3-10.9-9.9-16.9c0.3,0.7,0.6,1.4,0.9,2.1c-2.4-5.8-4.1-12-5-18.2c0.1,0.8,0.2,1.6,0.3,2.4c-0.8-5.9-0.8-11.9-0.1-17.8
					c-0.1,0.8-0.2,1.6-0.3,2.4c0.3-2.3,0.7-4.6,1-6.9c-0.1,0.8-0.2,1.6-0.3,2.4c0.9-6.3,2.4-12.4,4.9-18.2c-0.3,0.7-0.6,1.4-0.9,2.1
					c2-4.7,4.6-9.2,7.7-13.3c-0.5,0.6-0.9,1.2-1.4,1.8c3.1-4,6.8-7.7,10.8-10.8c-0.6,0.5-1.2,0.9-1.8,1.4c4.5-3.5,9.5-6.3,14.8-8.6
					c-0.7,0.3-1.4,0.6-2.1,0.9c6.6-2.8,13.6-4.6,20.7-5.6c-0.8,0.1-1.6,0.2-2.4,0.3c7.7-1,15.6-1.1,23.4-0.1
					c-0.8-0.1-1.6-0.2-2.4-0.3c5.6,0.7,11,2.1,16.1,4.2c-0.7-0.3-1.4-0.6-2.1-0.9c4.7,2,9.2,4.6,13.3,7.7c1.8,1.3,4.9,1.5,6.9,0.9
					c2.1-0.6,4.4-2.2,5.4-4.1c1.1-2.1,1.7-4.6,0.9-6.9c-0.8-2.4-2.2-3.9-4.1-5.4c-5.3-3.9-11-6.9-17.2-9.3c-5.7-2.2-11.7-3.3-17.8-4
					c-9.1-1.1-18.3-0.6-27.4,0.9c-9.3,1.6-18.5,4.7-26.8,9.3c-9.2,5.1-17,12.1-23.1,20.5C6.4,149.8,2.6,162.6,1,175.5
					c0.1-0.8,0.2-1.6,0.3-2.4c-2.4,13.7-1.5,27.8,3.4,40.9c4.9,13.2,12.9,25.3,23.4,34.6c6.1,5.4,12.9,10.1,20.3,13.6
					c2.2,1.1,4.5,1.6,6.9,0.9c2.1-0.6,4.4-2.2,5.4-4.1c1.1-2.1,1.7-4.6,0.9-6.9C61.1,250.3,59.7,248,57.6,247L57.6,247z"/>
			</g>
		</g>
		<g>
			<g>
				<path class="st0" d="M128.1,151.8c0.1-1.4,0.3-2.8,0.4-4.2c-0.1,0.8-0.2,1.6-0.3,2.4c0.8-5.6,2.2-11.2,4.4-16.4
					c-0.3,0.7-0.6,1.4-0.9,2.1c1.9-4.5,4.4-8.8,7.4-12.7c-0.5,0.6-0.9,1.2-1.4,1.8c3.1-4,6.6-7.5,10.6-10.6
					c-0.6,0.5-1.2,0.9-1.8,1.4c4.4-3.4,9.3-6.2,14.4-8.3c-0.7,0.3-1.4,0.6-2.1,0.9c6.3-2.6,12.9-4.4,19.6-5.3
					c-0.8,0.1-1.6,0.2-2.4,0.3c7.4-1,14.9-1,22.2,0c-0.8-0.1-1.6-0.2-2.4-0.3c6.9,0.9,13.7,2.7,20.2,5.5c-0.7-0.3-1.4-0.6-2.1-0.9
					c5.3,2.3,10.4,5.1,15,8.7c-0.6-0.5-1.2-0.9-1.8-1.4c3.9,3,7.5,6.5,10.5,10.4c-0.5-0.6-0.9-1.2-1.4-1.8c2.8,3.7,5.1,7.6,6.9,11.9
					c-0.3-0.7-0.6-1.4-0.9-2.1c1.9,4.6,3.2,9.4,3.9,14.3c-0.1-0.8-0.2-1.6-0.3-2.4c0.3,1.9,0.4,3.8,0.5,5.8c0.1,2.4,0.9,4.7,2.6,6.4
					c1.6,1.6,4.1,2.7,6.4,2.6c4.7-0.2,9.2-4,9-9c-0.3-7.6-1.7-15.2-4.6-22.2c-3-7.2-6.9-13.6-12.1-19.4
					c-9.4-10.4-22.2-17.5-35.6-21.2c-13.9-3.9-28.7-4.3-42.8-1.6c-13.9,2.7-27.1,9-37.5,18.7c-11,10.1-18.2,24.2-20.4,39
					c-0.4,2.6-0.7,5.2-0.9,7.8c-0.2,2.2,1.1,4.9,2.6,6.4c1.6,1.6,4.1,2.7,6.4,2.6s4.7-0.9,6.4-2.6
					C127.1,156.3,127.9,154.3,128.1,151.8L128.1,151.8z"/>
			</g>
		</g>
		<g>
			<g>
				<path class="st0" d="M256.6,137.6c1.4-0.6,2.7-1.2,4.1-1.8c-0.7,0.3-1.4,0.6-2.1,0.9c8.1-3.4,16.7-5.9,25.4-7.1
					c-0.8,0.1-1.6,0.2-2.4,0.3c7.2-1,14.5-1,21.7-0.1c-0.8-0.1-1.6-0.2-2.4-0.3c6.6,0.9,13,2.6,19.2,5.2c-0.7-0.3-1.4-0.6-2.1-0.9
					c5.7,2.4,11,5.5,15.9,9.3c-0.6-0.5-1.2-0.9-1.8-1.4c4.8,3.7,9.1,8.1,12.9,12.9c-0.5-0.6-0.9-1.2-1.4-1.8c3.6,4.7,6.6,9.9,9,15.3
					c-0.3-0.7-0.6-1.4-0.9-2.1c2.4,5.6,4,11.4,4.8,17.4c-0.1-0.8-0.2-1.6-0.3-2.4c0.8,6,0.8,12.1,0,18c0.1-0.8,0.2-1.6,0.3-2.4
					c-0.9,6.3-2.6,12.5-5,18.3c0.3-0.7,0.6-1.4,0.9-2.1c-2.7,6.4-6.3,12.4-10.6,17.9c0.5-0.6,0.9-1.2,1.4-1.8
					c-5.3,6.8-11.5,12.8-18.3,18.1c0.6-0.5,1.2-0.9,1.8-1.4c-2,1.5-4,3-6.1,4.5c-2,1.3-3.5,3-4.1,5.4c-0.6,2.2-0.3,5,0.9,6.9
					c2.5,3.9,8.2,6.1,12.3,3.2c15.9-10.8,30.1-25.1,37.9-42.9c1.8-4.1,3.4-8.2,4.6-12.6c1.1-4.2,1.8-8.5,2.3-12.8
					c0.8-7.7,0.2-15.6-1.3-23.2c-3.1-14.8-10.9-28.7-21.6-39.3c-11.2-11.1-25.9-18.9-41.4-21.9c-18.1-3.5-36.9-1.2-54,5.5
					c-2.9,1.1-5.7,2.3-8.5,3.6c-1.9,0.9-3.6,3.4-4.1,5.4c-0.6,2.2-0.3,5,0.9,6.9c1.2,1.9,3.1,3.6,5.4,4.1
					C252.2,139,254.3,138.6,256.6,137.6L256.6,137.6z"/>
			</g>
		</g>
		<g>
			<g>
				<path class="st0" d="M96.1,115.8c0.2-3.7,0.6-7.3,1.1-10.9c-0.1,0.8-0.2,1.6-0.3,2.4c1.2-9.2,3.3-18.3,6.4-27.1
					c0.8-2.3,1.7-4.6,2.7-6.9c-0.3,0.7-0.6,1.4-0.9,2.1c3.7-8.7,8.4-16.9,14.1-24.3c-0.5,0.6-0.9,1.2-1.4,1.8
					c5.1-6.6,11-12.6,17.6-17.7c-0.6,0.5-1.2,0.9-1.8,1.4c6.4-5,13.5-9.1,21-12.3c-0.7,0.3-1.4,0.6-2.1,0.9
					c7.7-3.2,15.8-5.5,24.1-6.6c-0.8,0.1-1.6,0.2-2.4,0.3c8.4-1.1,16.9-1.1,25.3,0c-0.8-0.1-1.6-0.2-2.4-0.3
					c8.4,1.1,16.6,3.4,24.3,6.6c-0.7-0.3-1.4-0.6-2.1-0.9c7.7,3.3,15,7.5,21.6,12.6c-0.6-0.5-1.2-0.9-1.8-1.4
					c7,5.4,13.2,11.7,18.6,18.6c-0.5-0.6-0.9-1.2-1.4-1.8c6.3,8.1,11.3,17.1,15.3,26.5c-0.3-0.7-0.6-1.4-0.9-2.1
					c4,9.5,6.9,19.4,8.8,29.6c0.6,3.1,1.1,6.3,1.5,9.4c-0.1-0.8-0.2-1.6-0.3-2.4c0.2,1.5,0.4,2.9,0.5,4.4c0.3,2.5,0.8,4.6,2.6,6.4
					c1.6,1.6,4.1,2.7,6.4,2.6c2.3-0.1,4.7-0.9,6.4-2.6c1.5-1.6,2.9-4,2.6-6.4c-1.5-14-4.3-27.9-9.3-41.2C285.5,65,280,54,272.5,44.2
					c-3.6-4.8-7.4-9.4-11.7-13.6c-4.1-4.1-8.7-7.8-13.4-11.2c-8.5-6.1-18-10.8-27.9-14.2c-9.6-3.2-19.9-5-30-5.2
					c-10.1-0.3-20.3,1-30,3.6c-9.8,2.7-19.4,6.9-28,12.4c-9,5.7-17.1,12.8-24,20.9c-7.4,8.8-13.5,18.6-18,29.2
					c-2.6,6.1-4.8,12.3-6.5,18.8c-1.8,6.9-3,13.9-3.9,20.9c-0.4,3.2-0.7,6.5-0.9,9.8c-0.3,4.7,4.4,9.2,9,9
					C92.2,124.6,95.8,120.8,96.1,115.8L96.1,115.8z"/>
			</g>
		</g>
		<g>
			<g>
				<path class="st0" d="M165.2,312.5c0,8.4,0,16.7,0,25.1c0,13.3,0,26.7,0,40c0,3.1,0,6.1,0,9.2c0,3,1.7,6.4,4.5,7.8h0.1
					c-1.1-1.1-2.2-2.2-3.2-3.2c0,0,0,0.1,0.1,0.1c-0.3-0.7-0.6-1.4-0.9-2.1c0,0.1,0.1,0.3,0.1,0.4c-0.1-0.8-0.2-1.6-0.3-2.4
					c0.3,2.9,0.8,5.1,2.8,7.3c1.6,1.8,4.2,2.6,6.5,2.7c0.4,0,0.8,0,1.2,0c1.9,0,3.9,0,5.8,0c5.1,0,10.3,0,15.4,0c1.2,0,2.5,0,3.7,0
					c4.9,0,9-4.1,9-9c0-8.4,0-16.7,0-25.1c0-13.3,0-26.7,0-40c0-3.1,0-6.1,0-9.2c0-4.7-4.1-9.2-9-9s-9,4-9,9c0,8.4,0,16.7,0,25.1
					c0,13.3,0,26.7,0,40c0,3.1,0,6.1,0,9.2c3-3,6-6,9-9c-7.6,0-15.3,0-22.9,0c-1.1,0-2.2,0-3.3,0c1.5,0.4,3,0.8,4.5,1.2h-0.1
					c1.1,1.1,2.2,2.2,3.2,3.2c0,0,0-0.1-0.1-0.1c0.3,0.7,0.6,1.4,0.9,2.1c0-0.1-0.1-0.3-0.1-0.4c0.1,0.8,0.2,1.6,0.3,2.4
					c-0.1-1.1-0.1-2.2-0.5-3.3c-0.7-2.2-2.2-4.5-4.3-5.5c1.5,2.6,3,5.2,4.5,7.8c0-8.4,0-16.7,0-25.1c0-13.3,0-26.7,0-40
					c0-3.1,0-6.1,0-9.2c0-4.7-4.1-9.2-9-9C169.3,303.7,165.2,307.4,165.2,312.5L165.2,312.5z"/>
			</g>
		</g>
	</g>
</g>
</svg>

<svg id="Layer_1" data-name="Layer 1" xmlns="http://www.w3.org/2000/svg" viewBox="0 0 353.11 453.03"><path d="M349.73,404c.21,0,.42,0,.6,0a2.89,2.89,0,0,1,.39-.15l0,0C350.09,403.85,349.79,403.93,349.73,404Z" transform="translate(-69.9 -5.72)"/><path d="M370.53,379.43c.08.63.16,1.27.25,1.9A16.23,16.23,0,0,0,370.53,379.43Z" transform="translate(-69.9 -5.72)"/><path d="M401.74,265.05c0-.32.07-.64.1-1C401.41,266.89,401.63,265.7,401.74,265.05Z" transform="translate(-69.9 -5.72)"/><path d="M352,385.88l0-.19C351.92,385.51,351.94,385.64,352,385.88Z" transform="translate(-69.9 -5.72)"/><path d="M311.28,419.65a5.66,5.66,0,0,1-.73.44A2.27,2.27,0,0,0,311.28,419.65Z" transform="translate(-69.9 -5.72)"/><path d="M308.21,422.65a5.17,5.17,0,0,0,.64-.92l-.13.14Z" transform="translate(-69.9 -5.72)"/><path d="M419.77,194.64A226.48,226.48,0,0,0,374.52,90.42c-2-2.52-4-5-6.06-7.39.31-5.68,1.22-11.3-.74-16.91-3.24-9.18-11.23-15.34-20.41-18-8.54-2.48-17.61-1.84-26.14-.22A98.37,98.37,0,0,0,309,51.1c-.89.28-1.82.63-2.73,1q-.15-.24-.27-.48a7.31,7.31,0,0,1-.35-1.13c-.43-1.41-.87-2.92-1.19-4.43s-.65-3.13-1-4.75c-.11-.87-.33-1.84-.43-2.7,0-.21-.12-.52-.17-.7-.05-.38-.1-.76-.16-1.14-1-8.53-3.67-16.74-10.47-22.47a31.55,31.55,0,0,0-22.47-7.45,40.84,40.84,0,0,0-21.95,7.41A41,41,0,0,0,231.2,6.71c-8.42-1.72-16.95-1.4-24.73,2.6-7.23,3.67-12.53,10.8-14.79,18.57a54,54,0,0,0-1.3,7.35c-.11.54-.11,1.08-.22,1.51s-.21,1.94-.1.54v-.11c0,.23-.09.5-.12.65a8.25,8.25,0,0,0-.22,1.73,69.83,69.83,0,0,1-2.16,9.39c-.2.62-.41,1.24-.62,1.86l-.26.49c-2.84-.9-5.68-2-8.51-2.78-8.1-2.16-16.85-3.67-25.17-2.7C142.86,47,132,51.54,127,61A28.21,28.21,0,0,0,124,75c.07,2.38.38,4.75.55,7.13A224.38,224.38,0,0,0,75.57,181a247.9,247.9,0,0,0,.65,108.32c7.13,30.68,20.85,61,43.09,83.71l3.48,3.47c0,.07,0,.13,0,.2a9.31,9.31,0,0,1-.22,1.73c0,.32-.1.75-.1,1.08-.33,2.26.32-2.27.1-.65-1.18,8.64-2.48,17.17-.75,25.7,2,9.83,10.15,17.93,20.52,18.15,8.86.1,17-4.76,25.49-6.59l1.73-.33.13,0c.82-.06,1.64-.07,2.46-.07a11.17,11.17,0,0,1,1.83.1h.19c.46.12,1.2.13,1.54.22a21.49,21.49,0,0,1,2.49.76c.21.1.43.1.64.21l.23.1a9.13,9.13,0,0,0,.85.44,23,23,0,0,1,2.2,1.33c.32.31.73.63,1,.94a10.53,10.53,0,0,1,.83.9.25.25,0,0,0,0,.07,20.39,20.39,0,0,1,1.19,1.95c.2.41.56,1.31.75,1.76.46,1.32.88,2.64,1.3,4a84.71,84.71,0,0,0,4.21,12.1,29.31,29.31,0,0,0,24,17.17c9,1,18.36-2.81,25.92-7.45,1.44-.92,2.85-1.9,4.24-2.91a60.57,60.57,0,0,0,18.76,9.82c8.75,2.59,19,2.27,26.68-3.35a31.46,31.46,0,0,0,10.26-12.31,99.7,99.7,0,0,0,4.32-12.31c.43-1.52,1-3.14,1.51-4.65l.06-.16c.06-.13.12-.27.16-.38a16,16,0,0,1,.86-1.38c-.19.17-.1-.14.22-.45l.29-.33c.12-.18.24-.36.35-.54l-.22.4a8.18,8.18,0,0,1,.55-.61l.94-.94.21-.09-.21.08.14-.13c.58-.52,1-.57.8-.39a14.73,14.73,0,0,1,1.79-1.13l.5-.28h0a4,4,0,0,1,1.12-.47l-.42.18.85-.29c1.08-.32,2.27-.65,3.35-.86h0c.59,0,1.1-.1,1.7-.1,1.06,0,2.12.08,3.19.09l.05,0c.54.1,1.19.21,1.73.32A106.07,106.07,0,0,1,337.91,421c4.1,1.4,8.42,2.7,12.85,2.7A20.33,20.33,0,0,0,365,417.55c6.48-6.8,7.67-16.41,7-25.38-.28-3.58-.78-7.23-1.26-10.84,0-.24-.2-1.18-.25-1.58-.11-.65-.11-1.4-.22-2.05,0-.07,0-.13,0-.19,1.21-1.13,2.34-2.25,3.47-3.37a98.25,98.25,0,0,0,7-7.89,154.75,154.75,0,0,0,13.82-19.55,191.2,191.2,0,0,0,19.22-45.14C423.88,267,425.39,230.17,419.77,194.64ZM347.1,68.24c.67.42.38.25,0,0Zm-.59-.43-.07-.07A.46.46,0,0,1,346.51,67.81Zm-2.8-1.46c.71.31,1.31.74,0,0ZM338.06,65l0,0Zm.75.09c.83.06.47,0,0,0ZM307.56,54a3,3,0,0,0-.32-.28q.11.18.21.39a4.1,4.1,0,0,0-.22-.41,2.46,2.46,0,0,1-.31-.33.83.83,0,0,0-.11-.13,1.79,1.79,0,0,1-.22-.28,4.41,4.41,0,0,1,.47.44c-.13-.22-.27-.44-.41-.66.11.15.25.38.43.68A6.44,6.44,0,0,1,307.56,54ZM258,27.52a8.43,8.43,0,0,0-.06-1C258,25.94,258.45,25.54,258,27.52Zm-20.51,2.61v0a2.17,2.17,0,0,0,.1.21,3.9,3.9,0,0,1-.71-.87Zm.15.28a1.6,1.6,0,0,0-.07-.19l.14.15c.22.21.44.54.65.75Zm-1.87-1.77c.2,0,.55.29.9.64a.64.64,0,0,1,0,.07C236.23,29.06,235.63,28.64,235.74,28.64ZM213.82,26.8l.24-.15C213.57,27,213,27.38,213.82,26.8ZM154.28,64.51l-.41,0A2,2,0,0,1,154.28,64.51Zm-4.72,1.07-.32.15A3.13,3.13,0,0,0,149.56,65.58Zm-6.16,5.29a.23.23,0,0,1,0,.07S143.4,70.89,143.4,70.87Zm-11.33,32a4.84,4.84,0,0,1-.34.43C131.85,103.13,132,103,132.07,102.84ZM91,203.17l0-.27C90.82,204.9,90.92,203.77,91,203.17Zm31.86,171v.53c-.06,0-.07.09,0,.32,0,.07,0,.13,0,.19C122.18,373.27,122.88,373.15,122.88,374.14ZM140.05,398s0,.18,0,.42A1.15,1.15,0,0,1,140.05,398Zm1.61,5.05c-.4-.16-.62-.27-.09-.07Zm.94.27h0Zm-1.43-1s0-.1,0-.17l.32.49A2.07,2.07,0,0,1,141.17,402.28Zm-.58-1.36a1.46,1.46,0,0,1,.12.32A1,1,0,0,1,140.59,400.92Zm34.2,14.92c.6.07.59.08,0,0Zm3.49,1c.05-.05.35.09.68.26Zm30,13.93,0,.07C208.11,430.36,207.83,429.48,208.31,430.73Zm8.42,7.75a2.54,2.54,0,0,1,.65.13ZM267,437.6l.08,0Zm9.65,1.47c.27,0,.47-.06.47,0ZM351.22,404a.35.35,0,0,0,.11-.08l.4,0A5,5,0,0,0,351.22,404Zm17.33-53.62.37-.5-.12.19Zm1.65,25.5h0C370.2,374.29,370.52,374.54,370.2,375.86Zm18-59.61a2.5,2.5,0,0,1-.32.68C388.17,316.34,388.66,315.16,388.24,316.25Zm15-67.94c-.31,5.3-.81,10.5-1.41,15.78h0c0,.33-.11.76-.11,1.08a10.5,10.5,0,0,0-.22,1.84c-.21,1.4-.43,2.81-.65,4.21-.43,2.7-1,5.4-1.51,8.1a212.34,212.34,0,0,1-8.75,30.78c-.83,2.28-1.76,4.56-2.69,6.85,0,.05-.07.12-.11.17l-.65,1.62-1.62,3.56c-2.16,4.43-4.43,8.86-6.91,13.07s-5.08,8.21-8,12.21l-1.29,1.73a2.67,2.67,0,0,0-.38.49l-.27.37-.21.29-1,1.22q-2.1,2.59-4.53,5.19c-1.52,1.62-3.14,3.24-4.65,4.86-1.94,1.94-4.53,3.67-5.83,6-2.27,4-1.84,8.86-1.19,13.18.22,1.84.54,3.67.76,5.4.23,1.48,0,.15-.08-.46a11.81,11.81,0,0,1,.19,1.86,53.6,53.6,0,0,1,.54,7.13v3.46c0,.43-.06.86-.09,1.29,0,0,0,.07,0,.11a20.62,20.62,0,0,1-.67,2.41,14.18,14.18,0,0,0-.71,1.32c-.15.13-.31.26-.47.41h.14l-.17,0-.14.13-.25,0a.75.75,0,0,1-.23.07c.08,0,.12,0,.12,0l-.15,0a.43.43,0,0,1-.34-.06l.17,0-.18,0a.06.06,0,0,1,0,0l-.38,0-.21,0c-5.4-1.18-10.37-3.45-15.66-5-7.23-2-14.79-2.6-22.14-.76A33.27,33.27,0,0,0,292.44,411c-3.13,4.22-4.75,9.51-6.26,14.58-.33,1-.54,2.06-.87,3a31.73,31.73,0,0,0-1.14,3.25,3.73,3.73,0,0,1-.26.53c-.33.54-.65,1.19-1,1.73a12.81,12.81,0,0,1-.88,1.38l.1-.09a7.32,7.32,0,0,0-.52.76,13.35,13.35,0,0,1-1.19,1.19l0,0,.26-.14-.28.16c-.68.57-1.57.93-.73.41l-1.26.72a1.73,1.73,0,0,0-.32.11,8.09,8.09,0,0,1-1.62.43,1.43,1.43,0,0,0-.35.06l-.95,0c-.76,0-2.81.22-3.35-.21-.11,0,2.7.43,1.19.1-.22,0-.43-.1-.65-.1-.65-.11-1.4-.33-2.05-.44a29.75,29.75,0,0,1-3.46-1.08l-.47-.15c-.46-.22-.93-.39-1.36-.6a53.3,53.3,0,0,1-6.81-4.11,14.83,14.83,0,0,1-1.36-1l-.36-.21c-.2-.18-.41-.34-.61-.51l0,0h0l-1.31-1.1a8.05,8.05,0,0,0-1.63-2.05,9.91,9.91,0,0,0-13.71,0,36.63,36.63,0,0,1-3.14,2.7l-.37.34c-.51.39-1.08.78-1.57,1.18a67.53,67.53,0,0,1-7,4.21c-.4.2-.78.36-1.16.53l-.68.22a21.87,21.87,0,0,1-3.67,1.08l-1.62.33-.35.07a18.52,18.52,0,0,1-2.89,0h-.46l-.62-.11c-.35-.09-.76-.24-1.13-.35l-.16-.08c-.44-.22-.87-.54-1.3-.76h0c-.8-.79-1.67-1.58-2.47-2.46h0c-.44-.65-.76-1.19-1.19-1.84s-.65-1.19-1-1.84l0,0c-.08-.22-.16-.47-.2-.61-.76-2.06-1.3-4.11-1.94-6.27a44.31,44.31,0,0,0-7.67-16.09c-4.43-5.62-11.56-9.4-18.47-10.8a46.14,46.14,0,0,0-22,1.3c-4.94,1.47-9.77,3.44-14.8,4.64h-1.18l-.28-.14-.22-.19a1.45,1.45,0,0,1-.26-.43l-.27-.45a.94.94,0,0,0-.16-.3c-.08-.23-.53-1.84-.75-2.82v-.1c0-.54-.11-1.08-.11-1.62v-3.67c.11-2.48.33-4.86.65-7.34.11-.44.32-2.49.11-.44s0,0,.11-.43c.21-1.83.54-3.78.75-5.61.65-4.65.87-9.83-2.16-13.72-1.51-2.05-3.67-3.56-5.51-5.4-1.62-1.62-3.13-3.24-4.64-4.86s-3-3.46-4.43-5.29c-.14-.19-.3-.4-.47-.61a2.5,2.5,0,0,0-.29-.47c-.75-1.08-1.51-2.06-2.26-3.14a150.11,150.11,0,0,1-14.69-25.27c-.54-1.08-1-2.27-1.51-3.35l-.57-1.41-.19-.42c-1-2.38-1.94-4.75-2.81-7.24-1.83-5-3.45-9.93-4.86-15s-2.7-10.48-3.78-15.66c-.54-2.81-1.08-5.51-1.51-8.32-.22-1.18-.43-2.48-.54-3.67-.11-.75-.22-1.4-.32-2.16,0,.11.32,2.59.1,1-.1-.43-.1-.86-.21-1.29a252,252,0,0,1-1.84-33.81c.11-5.83.43-11.77,1-17.6.22-2.81.54-5.62.87-8.42a6.64,6.64,0,0,1,.07-.73c.08-.58.17-1.17.25-1.76.22-1.51.43-3,.76-4.43a218.18,218.18,0,0,1,8.53-34.34c1-2.81,1.94-5.62,3-8.43.54-1.4,1.08-2.7,1.62-4.1.33-.76.54-1.4.87-2.16.11-.22.21-.54.32-.76.43-1.08-.86,2.06-.21.44,2.37-5.51,5-11,7.88-16.31,2.92-5.51,6.05-10.8,9.5-16,1.73-2.59,3.46-5.07,5.3-7.66.86-1.19,1.72-2.38,2.7-3.68a5.05,5.05,0,0,0,.54-.75l.07-.1c.38-.49.77-1,1.22-1.52,1.95-2.49,4-4.86,6-7.24,2.38-2.7,4.32-5.07,4.43-9,0-1.51-.11-2.92-.22-4.43a57.36,57.36,0,0,1-.43-8.53,1,1,0,0,1,0-.17,11.12,11.12,0,0,0,.38-1.62,3.27,3.27,0,0,0,.25-.37c.11-.22.32-.54.43-.76.38-.38.81-.76,1.22-1.15l.08,0a2.93,2.93,0,0,0,.75-.54,19.69,19.69,0,0,1,2.06-1.18,2.48,2.48,0,0,1,.43-.22,33.93,33.93,0,0,1,4.68-1.28l.29,0c1-.1,1.94-.1,2.91-.21,1.51,0,3.13,0,4.65.11a24.35,24.35,0,0,0,2.7.21,2.13,2.13,0,0,0,.43,0c.26.07.52.16.75.21a98.6,98.6,0,0,1,11.13,2.7c5.29,1.62,10.15,3.89,15.87,2.37,4.86-1.29,8.86-5.18,11.13-9.5a57.89,57.89,0,0,0,5.07-17c.44-2.48.76-5.07,1.08-7.66,0-.43.1-.75.11-1.16a18.16,18.16,0,0,1,.54-2.3c.07-.27.43-1.18.54-1.47s.36-.69.43-.8l.74-1.22c-.1.08-.18.16-.3.25a2.24,2.24,0,0,0,.48-.56l.06-.09c.17-.31.34-.43.39-.4l1.23-1.22c.17-.18.49-.35.66-.53s.54-.37.85-.55a3.18,3.18,0,0,1,.51-.27,1.25,1.25,0,0,1-.3.05l.36-.08.29-.13c1.11-.6.4-.12-.22.11,1.05-.25,2.11-.69,3.25-1h.06c.84,0,1.69-.09,2.53-.09a17.32,17.32,0,0,1,2.27.1l.08,0c-.09-.06,0-.09.46,0l.62.14a.19.19,0,0,0,.13,0l-.07,0c1.31.28,2.67.57,4,.93a12.09,12.09,0,0,1,2.05.76l.27.08c1,.51,2,1.07,3.08,1.65.54.32,1,.65,1.51,1,.2.1.31.2.49.3a8.54,8.54,0,0,0,2.54,4.35,10.85,10.85,0,0,0,3.51,2.46c3.63,2.9,9.62,2.63,12.79-.84a14.67,14.67,0,0,0,2.35-5.91l.18-.18-.17.1h0l.17-.1.17-.18a3.74,3.74,0,0,1,.84-.54l.14-.11c1-.61,2.05-1.14,3.08-1.74.74-.22,1.48-.53,2.32-.74,1.29-.33,2.7-.54,4-.87-2.7.65-.43.11.54,0a15.34,15.34,0,0,1,3,0l.34,0c-.11-.07.19-.13.63,0a1.63,1.63,0,0,0,.3.07c.27,0,.53,0,.78,0l-.53,0a2.1,2.1,0,0,1,.42.09c.54.11,1.19.32,1.73.43l.87.29c.43.23.84.46,1.29.68a11.42,11.42,0,0,0,1.2.83l.2.15c.42.41.83.88,1.25,1.33a2,2,0,0,1,.26.4A15,15,0,0,1,282,31.34a2.18,2.18,0,0,1,.22.43,15,15,0,0,1,.65,2.38c0,.25.2.82.33,1.25.1.7.13,1.43.21,2.1.32,2.48.65,5,1.08,7.45,1.62,9.72,5.18,23.11,16.42,25.59,6,1.41,11.23-1.18,16.84-2.91a94.61,94.61,0,0,1,10.49-2.37h.1c.43,0,1-.11,1.4-.11.76-.1,1.62-.1,2.38-.21a42.44,42.44,0,0,1,5.29,0,7,7,0,0,1,.79.06,11.87,11.87,0,0,0,2.34.37,13.77,13.77,0,0,1,2.05.54c.33.11.54.22.87.32l.25.11c1,.58,2,1.06,3,1.64.26.25.63.49.87.74s.65.65,1,1l0,0c.17.33.41.83.63,1.16a1.76,1.76,0,0,1-.22-.85s0,0,0,0,.1,0,.2.46c.07.21.14.43.21.67a.28.28,0,0,0,.12.08l-.12-.07c0,.12.08.25.12.4s.08.41.13.69c0,.53.08,1.36.08,1.57,0,2.81-.32,5.73-.54,8.54a19.44,19.44,0,0,0,.22,6.15c.75,2.81,3,4.86,5,7,2.05,2.38,4,4.75,5.94,7.24.21.32.54.65.75,1,.76,1-1.19-1.51-.43-.54.43.54.86,1.08,1.3,1.73,1,1.29,1.94,2.59,2.8,3.89,1.84,2.59,3.68,5.18,5.4,7.88a174.54,174.54,0,0,1,9.18,15.77c1.41,2.7,2.81,5.4,4,8.1.65,1.29,1.19,2.59,1.84,4,.32.65.54,1.19.86,1.84.11.32.32.76.43,1.08.65,1.4.11.32-.21-.43,2.05,5.61,4.42,11.12,6.26,16.74s3.56,11.55,5,17.39,2.48,11.45,3.45,17.28c.22,1.4.44,2.81.65,4.21.11.43.33,2.7.11,1s.11,1.08.22,1.51c.32,2.92.64,5.73.86,8.64A245.92,245.92,0,0,1,403.25,248.31Z" transform="translate(-69.9 -5.72)"/><path d="M281.75,435.91l.31-.45C280.89,436.54,281.35,436.51,281.75,435.91Z" transform="translate(-69.9 -5.72)"/><path d="M313.57,418.24h0l.7-.29-.12,0Z" transform="translate(-69.9 -5.72)"/><path d="M259,28.53c-.32.24-.68.51-1,.72h0C259.34,28.5,259.38,28.36,259,28.53Z" transform="translate(-69.9 -5.72)"/><path d="M349.34,71.1h0Z" transform="translate(-69.9 -5.72)"/><path d="M273.66,25.2l-.25-.06-.93-.05A3.12,3.12,0,0,0,273.66,25.2Z" transform="translate(-69.9 -5.72)"/><path d="M255.85,430.85l0,0c.3.2.51.41.82.61l.15.11C257.25,431.84,257.43,431.94,255.85,430.85Z" transform="translate(-69.9 -5.72)"/><path d="M349.15,70.86a.84.84,0,0,0,.18.23A1.54,1.54,0,0,1,349.15,70.86Z" transform="translate(-69.9 -5.72)"/><path d="M349.35,71.12h0a0,0,0,0,1,0,0Z" transform="translate(-69.9 -5.72)"/><path d="M307.23,53.72v0l-.16-.3,0,0Z" transform="translate(-69.9 -5.72)"/><path d="M350.07,404.13h0l-.2,0Z" transform="translate(-69.9 -5.72)"/><path d="M280.39,437.37l0,0-.75.43Z" transform="translate(-69.9 -5.72)"/><path d="M190.07,37.17c.08-.45.12-.78,0,0Z" transform="translate(-69.9 -5.72)"/><path d="M215.9,25.53l-.06,0,.13,0Z" transform="translate(-69.9 -5.72)"/><path d="M225.3,24.68h-.06a7,7,0,0,1-1.08-.12A1.74,1.74,0,0,0,225.3,24.68Z" transform="translate(-69.9 -5.72)"/><path d="M105.06,315.81l.08.21C105.47,316.73,104.19,313.69,105.06,315.81Z" transform="translate(-69.9 -5.72)"/><path d="M212.59,28.13l-.07.08a1.68,1.68,0,0,0-.38.41l-.18.31C212.51,28.45,212.65,28.17,212.59,28.13Z" transform="translate(-69.9 -5.72)"/><path d="M358.32,148a157,157,0,0,0-24.62-37,129.87,129.87,0,0,0-32.4-26.57,105.83,105.83,0,0,0-38-13.39,109.27,109.27,0,0,0-43.09,2A111,111,0,0,0,183.47,90.2a143.64,143.64,0,0,0-31.86,31.32c-9.18,12.1-16.2,25.6-21.82,39.64-6,15.22-9.61,31.1-11.66,47.3a157.1,157.1,0,0,0-1.62,23.65,200.93,200.93,0,0,0,6.26,50,180.63,180.63,0,0,0,17.39,43.52,149.39,149.39,0,0,0,26.68,34.89,122.84,122.84,0,0,0,33.8,23.65,110.24,110.24,0,0,0,41.47,10.37,104,104,0,0,0,40.18-6.05,124.93,124.93,0,0,0,37.26-21.6A145.39,145.39,0,0,0,348,334.5a178.07,178.07,0,0,0,19.77-41.8,195.16,195.16,0,0,0,9-48.49,205.51,205.51,0,0,0-3.35-50.87A186.3,186.3,0,0,0,358.32,148Zm-2.15,108A180.7,180.7,0,0,1,344,300.83a162.3,162.3,0,0,1-19.1,32.86,133.23,133.23,0,0,1-21.3,21.36,113.63,113.63,0,0,1-22.38,13.25,101.92,101.92,0,0,1-23.56,6.47,100.37,100.37,0,0,1-21.78,0,98,98,0,0,1-23.38-6.39,109.31,109.31,0,0,1-22.32-13.16,132.79,132.79,0,0,1-21.66-21.71,155.1,155.1,0,0,1-18.94-32.62,181.15,181.15,0,0,1-12.26-45.56l.33,2.6A187.17,187.17,0,0,1,136,232.11h0a186.92,186.92,0,0,1,1.73-25.81l-.33,2.59a181.13,181.13,0,0,1,12.24-45.49,162,162,0,0,1,19.1-32.86A133.64,133.64,0,0,1,190,109.18a113.68,113.68,0,0,1,22.38-13.26,102.4,102.4,0,0,1,23.56-6.46,99.22,99.22,0,0,1,21.79,0,98.1,98.1,0,0,1,23.37,6.39A109.54,109.54,0,0,1,303.41,109a133.18,133.18,0,0,1,21.66,21.71A155.42,155.42,0,0,1,344,163.34a181,181,0,0,1,12.16,44.9A196.85,196.85,0,0,1,356.17,256Z" transform="translate(-69.9 -5.72)"/><path d="M346.23,221.31a6.59,6.59,0,0,0-9.18,0l-13,13L293.2,265.16l-37.26,37.26-32.19,32.19c-5.18,5.18-10.47,10.36-15.66,15.66l-.21.21c-2.38,2.38-2.6,6.81,0,9.18a6.57,6.57,0,0,0,9.18,0l13-13,30.88-30.89,37.27-37.26,32.18-32.18c5.18-5.18,10.48-10.37,15.66-15.66l.22-.22C348.6,228.12,348.82,223.69,346.23,221.31Z" transform="translate(-69.9 -5.72)"/><path d="M326.68,278.66l-7.89,7.89-18.14,18.14-22.14,22.14L259.39,346c-3.13,3.13-6.26,6.15-9.29,9.29l-.1.1c-2.38,2.38-2.6,6.81,0,9.18a6.57,6.57,0,0,0,9.18,0l7.66-7.66L285.1,338.6l22.14-22.14,19-19,9.07-9.07.54-.54c2.37-2.37,2.59-6.8,0-9.18A6.59,6.59,0,0,0,326.68,278.66Z" transform="translate(-69.9 -5.72)"/></svg>