<svg id="Layer_2" data-name="Layer 2" xmlns="http://www.w3.org/2000/svg" viewBox="0 0 304.74 456.72"><path d="M362.37,101.35c-14.94-22.28-35.83-40.92-61.87-48.71V48c0-5.82.61-12.12-.65-17.86-2.93-13.47-16.55-17.21-28.48-14.72-12-9.93-27-15.08-42.61-10.31a54.2,54.2,0,0,0-18.54,10c-12.32-1.5-23.55,4.1-28,16.74-1,2.88-.95,5.78-.95,8.79v12c-50.14,14.93-79.37,67.13-88.68,115.6-10.68,55.59-.77,118.17,35.47,162.93,14.87,18.36,35.32,33.14,58.58,38.25v9.19A9.09,9.09,0,0,0,195,387.5V452a8.07,8.07,0,0,0,8.07,8.07H281.6c4.91,0,7.5-3.6,7.77-7.4a8.61,8.61,0,0,0,.31-2.28v-63.8a9.34,9.34,0,0,0,4.94-8l.28-9.14c47.29-10.08,78.09-57,90.41-101C400.63,213.74,394.41,149.13,362.37,101.35ZM211.14,387.53h62.39v56.35H211.14Zm-11.95-327V44.87c0-2.33.14-4.71,0-7,.36-.81.84-2.07.4-1.3.24-.47.49-.93.74-1.4.1-.16.22-.32.33-.48s.22-.23.44-.49c1.21-1.19,1.09-1.11,2.44-1.44,1.64-.4,4.46-.07,7,.64a9,9,0,0,0,8.71-2.3,31.41,31.41,0,0,1,12.21-8c11.75-4.39,22.33-.05,31.24,8.66,2.15,2.1,5.75,3.38,8.71,2.3a26.39,26.39,0,0,1,3-.88c.82-.2,1.64-.37,2.47-.51-.31.1,2.16-.08,2.76-.09a7.48,7.48,0,0,1,.82,0,5.37,5.37,0,0,1,1,.26c.9.54-1.13-.76.33.12L282,33l.13.15s.21.2.36,1.08c0,.22.06,1.14.09,1.68.46,9.15,0,18.42,0,27.58a8.28,8.28,0,0,0,7.22,8.5,8.68,8.68,0,0,0,2.16.89c24.66,6.44,43.57,25.28,56.23,46.79,16.06,27.3,23,59.16,23.09,90.63-.18,46.33-16,101.41-57.34,127.77-9.08,5.79-19.69,10-30,11.21-6.42.73-11.56,7.13-7.72,13.47.31.52.64,1,1,1.56,0,1.77-.11,3.53-.16,5.29H204.57v-5.34l.93-1.51c3.84-6.34-1.3-12.74-7.73-13.47-44.61-5.09-72-52.39-81.84-92.28a197.44,197.44,0,0,1-5.54-46.7c.12-31.47,7-63.33,23.09-90.63,12.66-21.51,31.57-40.35,56.23-46.79a8.45,8.45,0,0,0,5.84-5.26A8.13,8.13,0,0,0,199.19,60.54Z" transform="translate(-88.56 -3.3)"/><path d="M131.57,185.49a162.29,162.29,0,0,0-1.43,20.78c.25,50.22,25.07,104.1,73.16,125,22,9.54,47,11.12,69.75,3.34,23.14-7.9,42.25-23.84,56.17-43.72,30.89-44.12,33.38-105.89,9.34-153.56-22-43.62-68.95-73.41-118.44-61.78C169.76,87.38,138.05,136.66,131.57,185.49Zm79.06-88a79.31,79.31,0,0,1,57.66-2.29c19.13,6.53,35.39,20.54,46.61,37.14C341,171,344.1,224.53,323.1,266.19c-18.47,36.67-57.2,63.82-99.43,53.26-49.56-12.4-75.4-65.54-75.63-113.18C148.25,162.76,169,116,210.63,97.49Z" transform="translate(-88.56 -3.3)"/><path d="M192.45,198.79c-3.86,4.26,2.45,10.61,6.33,6.33l69.37-76.49q4.94-5.41,9.85-10.85c3.86-4.26-2.45-10.61-6.33-6.33L202.3,187.94Z" transform="translate(-88.56 -3.3)"/><path d="M164.87,210.46l63-69.5q4.56-5,9.11-10c3.86-4.26-2.45-10.61-6.33-6.33l-63,69.5-9.1,10C154.68,208.39,161,214.73,164.87,210.46Z" transform="translate(-88.56 -3.3)"/></svg>