<svg id="Layer_1" data-name="Layer 1" xmlns="http://www.w3.org/2000/svg" viewBox="0 0 475.43 407.45"><path d="M474.48,156.38a9.25,9.25,0,0,0,2.73-6.79,10.85,10.85,0,0,0-1.48-5,9,9,0,0,0-1.52-2.09h0c-2.56-3.22-5.11-6.33-7.78-9.55-6.22-7.56-12.32-15.22-18.54-22.77-7.44-9.22-15-18.43-22.43-27.54-6.45-8-13-15.88-19.44-23.88-3.11-3.88-6.22-7.88-9.44-11.55l-.11-.11a6.26,6.26,0,0,0-1.5-1.28,9.74,9.74,0,0,0-7.83-3.94H97.3a9.69,9.69,0,0,0-1.2.09,8.82,8.82,0,0,0-5.91,2.8L81.75,54.2c-6.66,7.55-13.44,15-20.1,22.54C53.54,85.85,45.44,94.85,37.33,104c-7,7.89-14.1,15.77-21.1,23.66C12.79,131.38,9.35,135.16,6,139l-.11.11a11,11,0,0,0-2.72,5.34,9.33,9.33,0,0,0-1.39,5.1c.12.89.23,1.78.34,2.67a10.55,10.55,0,0,0,2.55,4.44c2,2.56,4.11,5.22,6.11,7.77,5.55,7,11,14.11,16.55,21.1,8.1,10.44,16.32,20.77,24.43,31.21,10,12.66,19.88,25.32,29.87,38l32.87,41.87,33,42c10.22,13.11,20.55,26.1,30.77,39.2,8.66,11,17.32,22.1,26,33.1,6.22,8,12.55,16,18.77,23.87,3,3.78,5.88,7.44,8.88,11.22.11.11.22.33.34.44a8.77,8.77,0,0,0,5.26,2.71,8.13,8.13,0,0,0,1.71.17h.36l.51,0,.26,0c2.28-.23,4.84-1,6.33-2.83l6.11-7.77c5.55-7,11-14.1,16.55-21.1,8.1-10.44,16.32-20.77,24.43-31.2,10-12.66,19.88-25.32,29.87-38,11-14,21.88-27.88,32.87-41.87s22-28,33-42c10.22-13.1,20.55-26.1,30.77-39.2,8.66-11,17.32-22.1,26-33.09,6.22-8,12.55-16,18.77-23.88,3-3.77,5.89-7.44,8.88-11.21.11-.12.23-.34.34-.45h0Zm-65.9-62.76c7.44,9.22,15,18.44,22.43,27.54,5,6.18,10,12.3,15,18.44H345.58c3.19-6.2,6.39-12.47,9.58-18.66,4.22-8.33,8.55-16.66,12.77-25,3.67-7.22,7.44-14.44,11.11-21.66,1.74-3.49,3.59-6.87,5.34-10.36,1.85,2.3,3.72,4.59,5.65,6.92C396.25,78.41,402.36,86.07,408.58,93.62ZM250.88,365.26c-3.55,10.77-7.22,21.54-10.77,32.31l-.58,1.74c-2.83-9-5.72-18.14-8.53-27.17-3.88-12.21-7.66-24.54-11.54-36.76L206.8,295.07c-4.22-13.55-8.44-27.1-12.78-40.64-4-12.55-7.88-25.21-11.88-37.76-3.33-10.66-6.66-21.43-10.1-32.09-2.45-7.67-4.78-15.33-7.22-23-.2-.67-.41-1.33-.61-2h83.86a10,10,0,0,0,1.48.11l.89-.11h69.47c-2.11,6.2-4.15,12.47-6.28,18.65-3.45,10.11-6.78,20.22-10.22,30.32-4.11,12.33-8.22,24.66-12.44,37.09-4.55,13.44-9,27-13.55,40.43-4.55,13.66-9.21,27.43-13.77,41.08C259.43,339.82,255.21,352.6,250.88,365.26Zm-9.23-296.9,1.79,1.83c7.11,7.22,14.33,14.44,21.44,21.77l26,26.32,21,21.32H172c5.45-5.59,10.9-11.15,16.35-16.77,8.77-9,17.55-18,26.43-27,7.55-7.77,15.1-15.54,22.77-23.32C238.91,71.13,240.28,69.75,241.65,68.36Zm76.64-6.5h44.76l-.12.23C359.38,69,355.83,76,352.27,82.85c-4.22,8.33-8.55,16.66-12.77,25-3.49,6.87-7.07,13.75-10.57,20.62-6.89-7-13.87-14-20.74-21.07q-13-13.15-26-26.32L263.27,61.86h55Zm-160.91,0H220c-5.42,5.55-10.83,11.08-16.24,16.66-8.78,9-17.55,18-26.43,27-7.55,7.77-15.11,15.54-22.77,23.32q-1,1-2.07,2.1c-3.53-6.22-7.06-12.4-10.59-18.65-5.22-9.22-10.44-18.43-15.77-27.65-4.36-7.55-8.62-15.21-13-22.77h44.19ZM48.55,121.39c8.1-9.11,16.21-18.1,24.32-27.21,7-7.89,14.1-15.77,21.1-23.65l.72-.81C98.82,77,103,84.21,107.07,91.51c5.22,9.22,10.44,18.44,15.77,27.66,3.92,6.77,7.76,13.63,11.65,20.43H32.32C37.73,133.52,43.17,127.48,48.55,121.39Zm150.8,250.75c-10-12.66-19.87-25.32-29.87-38l-32.87-41.87-33-42c-10.22-13.11-20.55-26.1-30.76-39.2-8.66-11-17.33-22.1-26-33.1-4.8-6.16-9.65-12.32-14.47-18.43H143.29c.36,1.17.73,2.35,1.09,3.55l6.33,20.32c3.11,10,6.33,20.1,9.44,30.1,3.89,12.21,7.67,24.54,11.55,36.76l12.66,40.31c4.22,13.55,8.44,27.1,12.77,40.64,4,12.55,7.89,25.21,11.89,37.76,2.68,8.57,5.37,17.21,8.11,25.81C211.2,387.28,205.25,379.73,199.35,372.14Zm238-200.78c-8.11,10.44-16.33,20.77-24.43,31.21-10,12.66-19.88,25.32-29.88,38-11,14-21.87,27.88-32.87,41.87l-33,42c-10.22,13.1-20.54,26.1-30.76,39.2-7.94,10.08-15.89,20.25-23.83,30.35q2.46-7.35,5-14.69c4.11-12.33,8.22-24.66,12.44-37.09,4.55-13.44,9-27,13.55-40.43,4.55-13.66,9.21-27.43,13.77-41.08,4.22-12.66,8.44-25.44,12.77-38.1,3.55-10.77,7.22-21.54,10.77-32.31,2.55-7.78,5.22-15.44,7.77-23.21.83-2.48,1.7-5,2.53-7.44H446.57C443.5,163.52,440.44,167.46,437.34,171.36Z" transform="translate(-1.79 -41.87)"/></svg>