<svg id="Layer_1" data-name="Layer 1" xmlns="http://www.w3.org/2000/svg" viewBox="0 0 451.38 452.87"><path d="M479,186.45a12.64,12.64,0,0,0,0-1.39c0-6.69-5.84-13.11-12.82-12.82a13.83,13.83,0,0,0-4.95,1.14,30.2,30.2,0,0,1-5.89,1.11c-16.53,2.2-33.19,3.47-49.72,4.59-1.51.1-3,.26-4.47.25a35.15,35.15,0,0,1-4.68-1.35,35,35,0,0,1-4.77-2.89,27,27,0,0,1-2.39-2.39c-.5-.72-1-1.48-1.4-2.23q-.24-.81-.42-1.65a13.58,13.58,0,0,0-3-7.65l22.11-22.84c8-8.27,15.95-16.53,23.93-24.66,6.7-7,13.54-14,20.24-20.94l14.53-15c2.28-2.43,4.56-4.71,6.84-7.13l.29-.28A13.53,13.53,0,0,0,476,59.26a14,14,0,0,0,.71-3.87q.63-15.6,1.28-31.2c0-1.43.14-3,.14-4.42C478.44,13.07,472,6.66,465.33,7a14.28,14.28,0,0,0-3,.44A12.68,12.68,0,0,0,459.07,7H261.72c-9.12,0-18.24-.15-27.36,0h-.43a12.24,12.24,0,0,0-3.6.56,12.37,12.37,0,0,0-12.62,3.12l-4.7,4.7c-4.27,4.27-8.4,8.55-12.68,12.82-6.27,6.41-12.54,12.68-19,19.1-7.7,7.69-15.25,15.39-22.94,23.08-8.41,8.55-16.82,17-25.22,25.51s-17,17.1-25.51,25.65c-7.84,8-15.82,16-23.65,23.79-6.7,6.7-13.4,13.54-20.1,20.24-4.84,4.84-9.54,9.69-14.39,14.53-2.28,2.28-4.56,4.56-6.84,7l-.28.29a10.44,10.44,0,0,0-1,1.13,14,14,0,0,0-5.6,9c-.43,2.85-.72,5.7-1,8.55-.43,5.56-.57,11-.71,16.53-.15,4.84-.29,9.69-.15,14.53a26.81,26.81,0,0,0,.72,6.7c1.71,5.84,6.55,9.26,12.54,9.55,2.42.14,4.7.14,7.12.14,10.17,0,20.48-.11,30.66,1.1a78.08,78.08,0,0,1,17.06,4,35.45,35.45,0,0,1,4.57,2.65,43.18,43.18,0,0,1,4.68,4.69,59.77,59.77,0,0,1,6,10.45,97.93,97.93,0,0,1,4.17,13.08l-.75.66q-34.83,33.56-69.68,67C44.56,363.32,38,369.59,31.45,376a13.24,13.24,0,0,0-2.83,13.89c0,.12,0,.24,0,.36-.71,9.41-.43,19-.43,28.36,0,5.56,0,11.11.29,16.81,0,1.71.14,3.42.28,5.13a26.11,26.11,0,0,0,.57,4.71,13.62,13.62,0,0,0,1,2.63,13,13,0,0,0,12.74,11.86c30.07-.14,60.13-.43,90.2-.57,29.92-.14,59.85-.43,89.91-.57,17-.14,33.92-.14,50.73-.29a13.23,13.23,0,0,0,12.5-9.74c1-1.07,2.06-2.15,3.1-3.18,4.7-4.85,9.26-9.69,14-14.39,6.84-7.13,13.68-14.25,20.52-21.23,8.41-8.7,16.67-17.39,25.08-25.94,9.12-9.55,18.24-18.95,27.36-28.5s18.52-19.23,27.78-28.78c8.55-9,17.24-17.81,25.79-26.79l21.81-22.66c5.27-5.41,10.4-10.83,15.67-16.24,2.42-2.56,5-5.13,7.41-7.69.14-.15.14-.29.28-.29a13.54,13.54,0,0,0,3.63-10.56,12.77,12.77,0,0,0,.35-2.93v-51A11.36,11.36,0,0,0,479,186.45Zm-22.3-9.84c.11-.14.22-.29.35-.44s.35-.28.52-.41C457.24,176,457,176.32,456.67,176.61Zm3.47-2.69c-.35.19-.69.39-1,.61l.38-.3a.5.5,0,0,1-.43.15Zm-4.85,4.47c-.1.15-.2.29-.29.45l.08-.19Zm-1.44,3.15c0,.08,0,.16-.07.24l0-.14Zm-63.17,21.62A30.7,30.7,0,0,0,401.93,205l6.42-.42c10.35-.76,20.64-1.61,30.9-2.62q-28.56,29.6-57.12,59.19c-24.94,25.93-50,51.72-75,77.65C293.07,353.49,279,368,264.85,382.7a11.91,11.91,0,0,0-1.06,1.29c-9.74,0-19.58.05-29.31-1.11a77.92,77.92,0,0,1-17.06-4,35.52,35.52,0,0,1-4.57-2.66,43.08,43.08,0,0,1-4.68-4.68,59.77,59.77,0,0,1-6-10.45,108.28,108.28,0,0,1-6.42-24.69,148.91,148.91,0,0,1,0-34.09,106.7,106.7,0,0,1,6.49-25.15,59.88,59.88,0,0,1,5.39-9.67,43.55,43.55,0,0,1,4.22-4.37c.55-.38,1.11-.75,1.71-1.13l.54-.3c2.15-.12,4.29-.13,6.44-.13h15.39c10.83.14,21.51.29,32.34.57,2.85.14,5.7.14,8.7.29a13.3,13.3,0,0,0,11.85-6.34,11.88,11.88,0,0,0,7-3.49c1.56-1.57,3.13-3.28,4.7-4.85l12.82-13.25c6.41-6.56,12.68-13.11,19.1-19.67,7.69-8,15.53-16,23.22-23.93l9.26-9.57C369.59,191.74,379.82,199.36,390.68,203.16Zm-170.31,53,.06-.12,0,.08Zm.76-1.75a23.13,23.13,0,0,0,1-4.7c-.15,1.14-.29,2.28-.43,3.42C221.5,253.6,221.31,254,221.13,254.46ZM449.67,57.1,436.84,70.36c-6.41,6.55-12.68,13.11-19.09,19.66-7.69,8-15.53,16-23.23,23.94-8.4,8.69-16.81,17.38-25.36,26.08l-25.65,26.5c-8,8.26-16,16.53-23.94,24.65-6.7,7-13.53,14-20.23,20.95l-8,8.21v-1.52c0-5.55,0-11.11-.29-16.81,0-.18,0-.35,0-.53,3.57-3.53,7.14-7,10.71-10.58,6.41-6.27,12.68-12.54,19.09-19,7.7-7.69,15.39-15.24,23.09-22.94,8.55-8.4,17-16.81,25.5-25.22s17.1-17,25.65-25.51c8-7.83,16-15.81,23.8-23.65,6.7-6.7,13.54-13.39,20.23-20.09,4.16-4.15,8.31-8.21,12.46-12.33L451.22,51c0,1.42-.14,3-.14,4.41a2.26,2.26,0,0,0,0,.26C450.61,56.14,450.14,56.63,449.67,57.1ZM96.88,168.79c7.69-7.69,15.25-15.39,22.94-23.08,8.41-8.55,16.82-17,25.22-25.51,8.55-8.55,17-17.1,25.51-25.65,7.84-8,15.82-16,23.65-23.79,6.7-6.7,13.4-13.54,20.09-20.24,4.85-4.84,9.55-9.69,14.4-14.53,1.17-1.17,2.33-2.34,3.5-3.53a12.5,12.5,0,0,0,1.74.14H425c-6.31,6.17-12.49,12.35-18.8,18.66-7.7,7.7-15.39,15.25-23.09,22.94-8.55,8.41-16.95,16.82-25.5,25.22s-17.1,17-25.65,25.51c-8,7.84-16,15.82-23.8,23.66-6.69,6.69-13.53,13.39-20.23,20.09-4.57,4.57-9.14,9-13.71,13.57-5.59,0-11.15.11-16.79.11-17.66.14-35.19.28-52.86.28l-63.55.43-55.29.43H82.26C87.09,178.6,91.94,173.73,96.88,168.79Zm27.84,153.07q-.16,6.64-.94,13.26a106.82,106.82,0,0,1-6.49,25.15,60.74,60.74,0,0,1-5.39,9.67,43.55,43.55,0,0,1-4.22,4.37c-.54.37-1.1.75-1.7,1.12h0l-.56.3c-3.2.18-6.4.09-9.6.14l-13.91,0-13.18-.19Q94,351.34,119.23,327.13ZM99.17,381.24l-.07.11,0-.07ZM98.4,383a23.23,23.23,0,0,0-1,4.71c.15-1.14.29-2.28.43-3.42Zm85.31,50.27c-29.92.14-59.84.42-89.91.57-13.4.11-26.78.15-40.11.22-.12-3.85,0-7.74,0-11.58,0-7.23,0-14.44.1-21.58,4.24.13,8.48.27,12.72.35,12.12.28,24.37.57,36.48.14,1.85,0,3.71-.14,5.56-.29a26.32,26.32,0,0,0,4.7-.71,11.1,11.1,0,0,0,3.75-1.8,38.66,38.66,0,0,0,13.21-10.88,77.56,77.56,0,0,0,11.54-20.38c5.56-13.82,7.84-29.35,8.26-44.17.57-15.39-1-31.35-5.55-46.17a84.86,84.86,0,0,0-9-20.52,58.43,58.43,0,0,0-15.53-16.81c-8-5.84-18.24-8.12-27.79-9.55-10.81-1.63-21.62-1.94-32.53-2,0-.44,0-.87,0-1.3.14-5.84.28-11.69.67-17.53,6.78,0,13.48-.14,20.28-.14,17.67-.14,35.2-.28,52.87-.28l63.55-.43,55.28-.43h13.53l.06,0c0,2.32,0,4.64,0,7,0,7.22,0,14.43-.1,21.58-4.24-.13-8.48-.28-12.72-.35-12.11-.29-24.37-.57-36.48-.14-1.85,0-3.71.14-5.56.28a27.25,27.25,0,0,0-4.7.71,11.11,11.11,0,0,0-3.75,1.81,38.55,38.55,0,0,0-13.21,10.88,77.78,77.78,0,0,0-11.54,20.37c-5.56,13.82-7.84,29.36-8.26,44.18-.57,15.38,1,31.34,5.55,46.16a84.69,84.69,0,0,0,9,20.52,58.34,58.34,0,0,0,15.53,16.82c8,5.84,18.24,8.12,27.79,9.54,10.81,1.64,21.62,1.94,32.53,2,0,.43,0,.86,0,1.29-.15,6.13-.29,12.26-.72,18.38-.07,1.26-.15,2.51-.24,3.76C233.85,432.92,208.78,433.13,183.71,433.25ZM438,254.46c-6.84,7.12-13.68,14.25-20.51,21.23-8.41,8.69-16.68,17.38-25.08,25.93-9.12,9.55-18.24,18.95-27.36,28.5s-18.53,19.24-27.79,28.79c-8.55,9-17.24,17.81-25.79,26.78l-21.8,22.66c-1.42,1.46-2.81,2.91-4.21,4.37.11-4.12.2-8.23.08-12.35,0-.69,0-1.42-.07-2.16q36.38-37.62,72.74-75.36c24.93-25.93,50-51.72,74.95-77.65q10.19-10.6,20.36-21.12v14.39c-.52.54-1,1.08-1.55,1.6C447.25,244.91,442.69,249.76,438,254.46Z" transform="translate(-27.77 -6.88)"/><path d="M454.92,174.54l.44,0,.86-.11Z" transform="translate(-27.77 -6.88)"/><path d="M454.92,174.54l-2.12.26Z" transform="translate(-27.77 -6.88)"/><path d="M221.11,347.51a4.07,4.07,0,0,0-3,1.28l-6.27,6.27-.86.85a4.79,4.79,0,0,0-1.28,3,4.12,4.12,0,0,0,1.28,3,4.76,4.76,0,0,0,3,1.28,4.14,4.14,0,0,0,3-1.28l6.27-6.27.85-.86a4.74,4.74,0,0,0,1.28-3,4.07,4.07,0,0,0-1.28-3A4.74,4.74,0,0,0,221.11,347.51Z" transform="translate(-27.77 -6.88)"/><path d="M249.47,316l-16.25,16.24-2.28,2.28a4.23,4.23,0,0,0,6,6l16.24-16.24,2.28-2.28a4.23,4.23,0,0,0-6-6Z" transform="translate(-27.77 -6.88)"/><path d="M279.53,286.23l-16.24,16.25L261,304.76a4.23,4.23,0,0,0,6,6l16.25-16.24,2.28-2.28a4.24,4.24,0,0,0-6-6Z" transform="translate(-27.77 -6.88)"/><path d="M312.3,253.46,296.06,269.7,293.78,272a4.24,4.24,0,0,0,6,6L316,261.72l2.28-2.27a4.24,4.24,0,1,0-6-6Z" transform="translate(-27.77 -6.88)"/><path d="M338,223.54l-16.24,16.24-2.28,2.28a4.23,4.23,0,0,0,6,6l16.25-16.25,2.28-2.28a4.23,4.23,0,0,0-6-6Z" transform="translate(-27.77 -6.88)"/><path d="M362.32,204.73a4.74,4.74,0,0,0-3-1.28,4.07,4.07,0,0,0-3,1.28l-5,5-.71.72a4.7,4.7,0,0,0-1.29,3,3.86,3.86,0,0,0,.43,1.71,2.88,2.88,0,0,0,.86,1.42,4.7,4.7,0,0,0,3,1.29,4.08,4.08,0,0,0,3-1.29l5-5,.71-.72a4.74,4.74,0,0,0,1.28-3,3.73,3.73,0,0,0-.43-1.71A2.86,2.86,0,0,0,362.32,204.73Z" transform="translate(-27.77 -6.88)"/></svg>