<svg id="Layer_1" data-name="Layer 1" xmlns="http://www.w3.org/2000/svg" viewBox="0 0 468.32 446.63"><path d="M456.22,174.38l-1.3.16.44,0Z" transform="translate(-9.24 -9.66)"/><path d="M476.07,201.81a11,11,0,0,0-6.69-5.08,15,15,0,0,0-3.53-.37l-14.69-2.11-3.49-.5a6.2,6.2,0,0,0,0-1.61c-2.23-17.85-6.07-35.32-12.52-52.18a193.57,193.57,0,0,0-55.28-78.83A205.31,205.31,0,0,0,341.1,34.86a222,222,0,0,0-43.87-17.11,237.59,237.59,0,0,0-46.61-7.68A234.94,234.94,0,0,0,203,12.18,219.68,219.68,0,0,0,115.77,44.4,210.27,210.27,0,0,0,77.6,75.63c-2.73,2.86-5.45,5.83-7.93,8.8a11.7,11.7,0,0,0-3.22,7.94,11.9,11.9,0,0,0,3.22,7.93c3.84,3.59,11.28,4.58,15.37-.25a208,208,0,0,1,28.55-27.43A198.62,198.62,0,0,1,147.13,52c2.93-1.36,5.85-2.7,8.78-4a219.43,219.43,0,0,1,41.42-12.5c3.65-.67,7.41-1.32,11.08-1.81a227.89,227.89,0,0,1,44.32-1.17c4.34.37,8.68.75,13,1.37l-3-.38a221.45,221.45,0,0,1,42.88,10.29c4,1.36,7.94,2.85,11.78,4.59l-2.61-1.12A200.25,200.25,0,0,1,349.9,66.34c2.83,1.85,5.57,3.89,8.21,5.88a192.17,192.17,0,0,1,31.26,31.13A184.87,184.87,0,0,1,411.7,141.4a208.65,208.65,0,0,1,13.38,49.15l-2.8-.39c-2.23-.38-4.46-.62-6.69-1h0a11.35,11.35,0,0,0-8.55,1.11h0A11.07,11.07,0,0,0,402,197a8.52,8.52,0,0,0-.16.88,10.27,10.27,0,0,0,.72,6.68,8.13,8.13,0,0,0,.55,1h0c6.08,9.29,12,18.71,18.1,28l2.6,4.09a11.45,11.45,0,0,0,6.69,5.08,11.93,11.93,0,0,0,6.64-.22c.23-.08.46-.18.68-.27l.35-.15.21-.11a7.19,7.19,0,0,0,.67-.37,11.11,11.11,0,0,0,1.35-1c9.25-6.78,18.4-13.65,27.66-20.42,1.28-.94,2.57-1.88,3.86-2.92l.1,0a11.48,11.48,0,0,0,3.87-3.82,9.41,9.41,0,0,0,1.34-3A11.39,11.39,0,0,0,476.07,201.81ZM425,189.54l.15,1h0Z" transform="translate(-9.24 -9.66)"/><path d="M430,253.37a11.93,11.93,0,0,0-7.94,3.22,12.61,12.61,0,0,0-3.22,7.93c-.16,1.39-.32,2.81-.49,4.23A189.32,189.32,0,0,1,406,314.52a175.52,175.52,0,0,1-20.94,35.69A176.41,176.41,0,0,1,356,379.13a179.94,179.94,0,0,1-30.87,19c-2.75,1.38-5.59,2.66-8.45,3.93a220.4,220.4,0,0,1-41.25,12.31c-4.09.82-8.19,1.41-12.28,2a257.65,257.65,0,0,1-51.18,1.1c-5.33-.38-10.66-1-16-1.74l3,.37c-7.36-.94-14.63-2.26-21.89-3.85.64-1.19,1.3-2.39,1.93-3.58,1-1.72,1.92-3.44,2.81-5.16a9.25,9.25,0,0,0,.54-.79,11.52,11.52,0,0,0,1.12-8.55,13,13,0,0,0-.78-1.9l-.09-.18a.54.54,0,0,0-.07-.13,9.7,9.7,0,0,0-4.27-4.49,12,12,0,0,0-8.46-1.13l-.09,0c-11.53,2.35-23.18,4.58-34.7,6.94-.79.18-1.58.33-2.36.48a8.09,8.09,0,0,0-2.35.39,7.36,7.36,0,0,0-.93.34,12,12,0,0,0-5.89,4.86,11.52,11.52,0,0,0-1.12,8.55,13.56,13.56,0,0,0,.68,1.65c3.77,11.21,7.44,22.33,11.22,33.55.5,1.61,1.12,3.35,1.61,5,.07.21.15.41.22.61a10.29,10.29,0,0,0,3.24,4.87,10.67,10.67,0,0,0,1.62,1.21,9.95,9.95,0,0,0,10.29.36,9.94,9.94,0,0,0,5-4.45c3-5.45,5.95-10.78,8.8-16.23l1-1.76a8.9,8.9,0,0,0,1.27.39c25.9,5.83,52.8,8.68,79.45,7.19,23.92-1.36,47.84-5.82,70.27-14.38a206.34,206.34,0,0,0,59.74-34.82,180.6,180.6,0,0,0,41.52-50.82,189,189,0,0,0,21.57-64.7c.49-3.72,1-7.31,1.36-11,.25-2.72-1.49-6.07-3.22-7.93A11.13,11.13,0,0,0,430,253.37Z" transform="translate(-9.24 -9.66)"/><path d="M87,344.7a200.94,200.94,0,0,1-24.93-42.5,213.64,213.64,0,0,1-12.74-42.64c-.82-4.23-1.52-8.36-2.12-12.58a267.62,267.62,0,0,1-1.1-52.24c.37-5.45,1-11,1.73-16.48-.12,1-.24,2-.37,3C48.19,176,49,170.86,50,165.78q4.35,1.89,8.69,3.8c2.1.87,4.21,1.86,6.19,2.73l.43.17a10.28,10.28,0,0,0,8.13.94,11.53,11.53,0,0,0,6.69-5.08c.18-.35.36-.72.52-1.09a10.31,10.31,0,0,0,1-5.13v-.18c0-.14,0-.28-.06-.43a5,5,0,0,0-.09-.66,8.46,8.46,0,0,0-.29-1.18c-3.34-11.28-6.56-22.68-9.91-34-.5-1.61-.87-3.23-1.36-4.84,0-.13-.1-.26-.14-.39a8.84,8.84,0,0,0-1-2.21,12.34,12.34,0,0,0-4.17-4.08l0,0c-.2-.12-.4-.23-.61-.33a10.24,10.24,0,0,0-7.82-.78,12.91,12.91,0,0,0-2.78,1.32c-11.22,4.93-22.57,9.74-33.78,14.67-1,.45-1.92.85-2.88,1.26a11.74,11.74,0,0,0-1.28.55l-.68.3A7.51,7.51,0,0,0,12,133.41a8,8,0,0,0-1.23,1.72,13.94,13.94,0,0,0-.63,1.36,10.28,10.28,0,0,0-.49,1.36c0,.06,0,.12,0,.17a11.24,11.24,0,0,0,1.16,8.39c.12.2.27.4.41.6a8.09,8.09,0,0,0,3.55,3.36h0a9.28,9.28,0,0,0,2.21,1c4.22,1.84,8.41,3.69,12.64,5.53a8.53,8.53,0,0,0-1,2.43,315.17,315.17,0,0,0-5.57,55,260.87,260.87,0,0,0,4.71,51.06,226.54,226.54,0,0,0,13.13,43.88A215.29,215.29,0,0,0,63.1,349.92,211.59,211.59,0,0,0,93,384c1.36,1.24,2.73,2.48,4.09,3.6a11.7,11.7,0,0,0,7.93,3.22,11.93,11.93,0,0,0,7.93-3.22,11.16,11.16,0,0,0,3.23-7.94c-.13-2.85-1-6-3.23-7.93A194.75,194.75,0,0,1,87,344.7Z" transform="translate(-9.24 -9.66)"/><path d="M229.62,89.69c0-.1,0-.2-.07-.3a11.53,11.53,0,0,0-5.08-6.69c-2.6-1.36-5.7-2.11-8.55-1.12-2.6.87-5.45,2.48-6.69,5.09-2.48,5.45-4.84,10.9-7.32,16.36-5.7,13-11.52,25.9-17.22,38.91Q174.46,165,164.24,188.05c-5.58,12.64-11.16,25.28-16.86,37.93-2.36,5.33-4.59,10.78-7.19,16.11-.74,1.36-1.36,2.73-2.11,4.09a11.45,11.45,0,0,0,0,11.28,11.15,11.15,0,0,0,9.67,5.57l30.12-1.11c15.3-.6,30.48-1.08,45.77-1.67l-.78,6.26c-1.74,13.38-3.35,26.77-5.08,40.15-1.74,14.13-3.6,28.26-5.33,42.51-1.12,8.43-2.11,16.86-3.22,25.29,0,.37-.13.87-.13,1.36-.37,8.43,8.06,14.75,16.11,12.77a12.72,12.72,0,0,0,8.06-6.2c.74-1.36,1.36-2.73,2-4.09,4-7.93,7.94-16,11.78-23.92q9.1-18.4,18.22-36.81c6.57-13.39,13.14-26.65,19.7-40,5.46-11,10.91-22.07,16.37-33.22,2.72-5.45,5.45-11,8.18-16.48a16.55,16.55,0,0,0,2.35-7.57,11.34,11.34,0,0,0-11.15-11.15l-27.52-.37c-14.29-.24-28.59-.37-42.88-.61V108.85c0-5.08.12-10.16,0-15.24v-.25A10.7,10.7,0,0,0,229.62,89.69Zm-9.81,276.8h0l-.05,0Z" transform="translate(-9.24 -9.66)"/></svg>