<svg id="Layer_1" data-name="Layer 1" xmlns="http://www.w3.org/2000/svg" viewBox="0 0 478.75 194.23"><path d="M107.2,235.49a34.29,34.29,0,0,0-10.08-3.4A41.86,41.86,0,0,0,84,232.2a34.52,34.52,0,0,0-19.53,11,37.67,37.67,0,0,0-9.34,23.46,7.38,7.38,0,0,0,0,.94,35.16,35.16,0,0,0,5.82,19.44,36.93,36.93,0,0,0,6.9,7.75,38.5,38.5,0,0,0,10.93,6.26c13.17,5.2,29.73.85,38.85-9.87a35.17,35.17,0,0,0,5.63-8.6,40.41,40.41,0,0,0,3.29-12.31,35.48,35.48,0,0,0-19.32-34.82Zm-6,45.12a25.72,25.72,0,0,1-3.48,2.07,27.51,27.51,0,0,1-4.9,1.38,28.78,28.78,0,0,1-3.94,0,29,29,0,0,1-4.86-1.33,26.74,26.74,0,0,1-3.52-2.15,26.54,26.54,0,0,1-2.86-2.85,24.17,24.17,0,0,1-2.07-3.48,27.51,27.51,0,0,1-1.42-5.07,19.22,19.22,0,0,1,0-2.4s0,0,0-.08c0-.44,0-.9.06-1.37a28,28,0,0,1,1.32-4.78A26.74,26.74,0,0,1,77.72,257a27.39,27.39,0,0,1,2.84-2.86A25.72,25.72,0,0,1,84,252.1,28.26,28.26,0,0,1,89,250.71a27.27,27.27,0,0,1,3.94,0,28.58,28.58,0,0,1,4.85,1.33,26.85,26.85,0,0,1,3.53,2.15,27.29,27.29,0,0,1,2.85,2.84,24.8,24.8,0,0,1,2.08,3.48,28.48,28.48,0,0,1,1.38,4.91,28.78,28.78,0,0,1,0,3.94,29.54,29.54,0,0,1-1.33,4.85,26.92,26.92,0,0,1-2.16,3.53A27.38,27.38,0,0,1,101.25,280.61Z" transform="translate(-0.25 -111.18)"/><path d="M401.25,237.61a34.59,34.59,0,0,0-10.08-3.4,42.46,42.46,0,0,0-13.17.11,34.52,34.52,0,0,0-19.53,11,37.67,37.67,0,0,0-9.34,23.46,7.53,7.53,0,0,0,0,.95A35.15,35.15,0,0,0,355,289.2a36.65,36.65,0,0,0,6.9,7.75,38.63,38.63,0,0,0,10.93,6.27c13.16,5.2,29.72.84,38.85-9.88a35.17,35.17,0,0,0,5.63-8.6,40.7,40.7,0,0,0,3.29-12.31,35.48,35.48,0,0,0-19.32-34.82Zm-5.95,45.12a25.72,25.72,0,0,1-3.48,2.07,27.51,27.51,0,0,1-4.9,1.38,25.91,25.91,0,0,1-3.94,0,28.44,28.44,0,0,1-4.86-1.33,26.1,26.1,0,0,1-3.52-2.15,26.45,26.45,0,0,1-2.86-2.84,25.8,25.8,0,0,1-2.08-3.48,28.62,28.62,0,0,1-1.41-5.08,19.22,19.22,0,0,1,0-2.4s0,0,0-.08c0-.44,0-.9.06-1.36a28.15,28.15,0,0,1,1.32-4.79,17.5,17.5,0,0,1,5-6.38,25.72,25.72,0,0,1,3.48-2.07,27.38,27.38,0,0,1,4.91-1.38,16.81,16.81,0,0,1,8.79,1.33,26.85,26.85,0,0,1,3.53,2.15,26.45,26.45,0,0,1,2.85,2.85,24.24,24.24,0,0,1,2.08,3.48,28.38,28.38,0,0,1,1.38,4.9,28.78,28.78,0,0,1,0,3.94,29,29,0,0,1-1.34,4.86,26.74,26.74,0,0,1-2.15,3.52A26.44,26.44,0,0,1,395.3,282.73Z" transform="translate(-0.25 -111.18)"/><path d="M368.73,233.33l.06,0h0Z" transform="translate(-0.25 -111.18)"/><path d="M402.88,233.08c-.23-.08,0,0,1.22.45l-.13-.05Z" transform="translate(-0.25 -111.18)"/><path d="M479,268.5c-.85-7.64-1-15.5-1.38-23.25-.75-11.35-1.38-22.71-3.29-34-.74-4.66-2.55-9.87-6.78-12-4.29-2.92-9.61-4.48-14.35-6.18-8.28-3-16.67-5.62-25.05-8.17-9.24-2.76-18.58-5.31-27.92-7.43-7.64-1.81-15.61-3.61-23.57-3.93a21.44,21.44,0,0,0-8,1A80.69,80.69,0,0,0,357,161.71a142.79,142.79,0,0,0-23.56-17,208.81,208.81,0,0,0-29.51-14,259.19,259.19,0,0,0-31.85-10.29,302.51,302.51,0,0,0-36.52-6.9,276.85,276.85,0,0,0-35.13-2.34,238.42,238.42,0,0,0-36.84,3,167.4,167.4,0,0,0-32.06,8.18,132.55,132.55,0,0,0-30.15,15.28A113,113,0,0,0,76,161.92c-1.34,1.7-2.58,3.49-3.77,5.33l-1.38-.3,0,0a10.92,10.92,0,0,0-7.32-.95c-5.84.85-11.57,1.8-17.31,2.76-8.81,1.59-17.83,3-26.32,6.05-4,1.47-7.67,3.53-9.6,6.72-3.35,3.87-5,8.89-6.22,14A147.86,147.86,0,0,0,.94,219.35c-1.06,15.71-1.17,32,1.7,47.45a30.77,30.77,0,0,0,2.87,9c1.91,3.71,6.15,7.11,10.5,6.69a13.46,13.46,0,0,0,1.9-.32H39.37a10.2,10.2,0,0,0,6.79-2.76,9.55,9.55,0,0,0,2.76-6.8c.08-2.27.22-4.54.46-6.77a64.34,64.34,0,0,1,4.14-15.77,51.52,51.52,0,0,1,5.1-8.78A51.88,51.88,0,0,1,65.87,234a46.83,46.83,0,0,1,8.89-5.19,50.34,50.34,0,0,1,9.91-2.66,53.35,53.35,0,0,1,10.42,0,51.31,51.31,0,0,1,10.08,2.68,53.51,53.51,0,0,1,9.21,5.37A49.46,49.46,0,0,1,121.2,241a55,55,0,0,1,5.8,9.9,69.38,69.38,0,0,1,3.88,14.64,58.68,58.68,0,0,1,.42,6.34c.11,2.65-.11,5.2,1.38,7.64a10,10,0,0,0,5.73,4.46,20.58,20.58,0,0,0,4.46.53c3.72.21,7.43.21,11.15.32,14.54.21,29.08.32,43.63.43,18.79.1,37.68.1,56.47.21h76.66a7.59,7.59,0,0,0,1.58.1,9.79,9.79,0,0,0,9.55-9.55c.1-1.66.28-3.3.39-4.88a8.17,8.17,0,0,1,.14-1c.11-.85.32-1.7.43-2.44a72.42,72.42,0,0,1,2.54-9.45,15.09,15.09,0,0,1,.75-1.91h0l.1-.2c.64-1.38,1.28-2.76,2-4.14a34.61,34.61,0,0,1,2-3.4,15.55,15.55,0,0,1,1.16-1.7c.15-.21.42-.53.68-.82l-.46.5c.23-.24.44-.49.67-.74l.37-.41c1.4-1.59,2.73-3.24,4.26-4.68.77-.67,1.55-1.34,2.39-2l.16-.11,1.91-1.27a58.46,58.46,0,0,1,6.48-3.72l.81-.35c-.58.23-1.11.44-.39.14a3.54,3.54,0,0,0,.43-.16l.85-.37a7.29,7.29,0,0,1-.83.36l.4-.15c1.17-.42,2.44-.85,3.72-1.27a53.91,53.91,0,0,1,7.22-1.59c2.23-.32-2.66.32-.32,0,.63-.11,1.17-.11,1.8-.22,1.17-.1,2.44-.1,3.61-.21a56.42,56.42,0,0,1,7.33.43,2.46,2.46,0,0,0,.36,0l1.12.2c1.17.21,2.34.53,3.61.85,1.78.48,3.49,1.09,5.24,1.73.19.06.71.25,1.09.4l.57.2-.44-.15.12.05c.53.21,1.06.53,1.6.74,1.06.53,2.12,1.17,3.18,1.81s2,1.27,3.08,2l.22.16c-.5-.37.08,0,.63.45a4.89,4.89,0,0,0,.64.45l-.58-.4c.18.14.35.29.47.4a60.91,60.91,0,0,1,5.31,5.1l.93,1.17.45.63a32.54,32.54,0,0,1,2.23,3.51,39.82,39.82,0,0,1,2,3.71c.06.13.12.28.18.44a1.55,1.55,0,0,1-.07-.23c.21.75.53,1.38.74,2a53.75,53.75,0,0,1,2.34,9,3.59,3.59,0,0,1,.12.62c.08.68.1,1.35.2,2a48.39,48.39,0,0,1,.1,5.52c-.1,4.67,4.46,10.19,9.56,9.55,10.61-1.27,21.23-2.86,31.84-4.24,2.55-.32,4.89-.85,6.8-2.76C477.79,273.6,479.28,271.05,479,268.5ZM463,217.44a11,11,0,0,1-5-1.71A13.25,13.25,0,0,0,463,217.44ZM379,188.78l-.09.14,0,0Zm-2.53,3.11-.05,0Zm-1.55.61-.17,0,.11,0Zm-.07,0-.11,0-.41.07a1.54,1.54,0,0,0,.39-.07c-2.21.68-1.78.06-.82,0h.95Zm-85.34-46.92c4.54,1.65,9.07,3.3,13.61,5.24a181.33,181.33,0,0,1,28.75,15.35c2.05,1.34,4.1,2.83,6.09,4.34,2.66,2.11,5.25,4.34,7.7,6.7l-9.44.11c-15,.1-30,0-45-.22-18.26-.32-36.41-.74-54.67-1.16l-5.42-.17c-.22-3.29-.44-6.57-.63-9.81-.53-8.81-1.17-17.52-1.7-26.33-.11-2-.21-4-.43-6a14.27,14.27,0,0,0-.26-1.87c2.23.24,4.47.5,6.7.77A280.64,280.64,0,0,1,289.47,145.58Zm-182,11.32a118.27,118.27,0,0,1,24.23-14.1,161.74,161.74,0,0,1,31.88-9.33c3-.58,6.07-1.07,9.11-1.48a238.2,238.2,0,0,1,37-1.57,7.91,7.91,0,0,0-.46,3.16c.32,5.52.74,11,1.06,16.45.51,8.42,1.1,16.74,1.62,25.15q-16.2-.52-32.41-1.16c-17.3-.63-34.6-1.48-51.8-2.33-11.1-.62-22.26-1.26-33.38-2.13A96.05,96.05,0,0,1,107.46,156.9ZM27.42,185c0-.4-.08-.8-.15-1.22C27.34,184.19,27.39,184.6,27.42,185Zm-.35,4a1,1,0,0,1-.05.16A1,1,0,0,0,27.07,189Zm-3.27,4.86a.52.52,0,0,0-.09.15l-.8.58C23.23,194.38,23.51,194.13,23.8,193.89Zm-2.9,14,0-.22C20.7,209.94,20.8,208.57,20.9,207.89ZM141,265.32l.85.1A2.18,2.18,0,0,1,141,265.32Zm2.45.3h0l-.09,0Zm198.9,5.4a2.64,2.64,0,0,0,0-.29C342.47,269.71,342.39,270.4,342.31,271Zm49-40.95c.32,0,.64.11,1,.11l.39.07C392,230.16,390.51,230,391.27,230.07Zm44.8,5.63a61.42,61.42,0,0,0-29.72-21.65c-22.61-7.75-49.68-1.7-65.93,16.24-9.24,10.19-14.34,22.79-16.53,36.09H267.5c-17.73,0-35.35,0-53.08-.11-15.71-.1-31.42-.1-47.13-.31-5.88-.08-11.75,0-17.63-.16-1.09-11.45-4.39-22.82-10.72-32.43a60.19,60.19,0,0,0-29.3-23.25,59,59,0,0,0-34.28-1.7,56.54,56.54,0,0,0-29.62,18.36A67.55,67.55,0,0,0,34.8,245.47a70.18,70.18,0,0,0-4.25,17.62H21.4c-.1-.49-.2-1-.29-1.49-.21-1.27-.42-2.54-.64-3.82.64,3.93.11,1.06,0,.11s-.21-1.7-.32-2.66c-.31-3.39-.53-6.9-.63-10.29-.32-7.65-.21-15.4.21-23,.21-3.71.53-7.43.85-11.15.11-.84.21-1.69.32-2.54a5.51,5.51,0,0,1,.06-.7c.21-1.55.49-3,.79-4.61A47.91,47.91,0,0,1,24,194.3a1.38,1.38,0,0,0,.06-.16,6.32,6.32,0,0,1,.33-.56c.44-.35.74-.56,0,0a1.32,1.32,0,0,1,.12-.2,2.41,2.41,0,0,1,.19-.33c.14-.15.29-.29.42-.45.4-.14.8-.28,1.19-.39,3.72-1.17,7.54-2,11.36-2.87,8.28-1.8,16.56-3.18,24.95-4.56l1.71-.28a24.17,24.17,0,0,0,3.28.81c4.88.85,9.87,1.38,14.86,1.8,14.54,1.38,29.08,2.23,43.63,3.08,20.06,1.06,40.12,2,60.29,2.76q32.66,1.28,65.39,2c20,.53,39.81.85,59.77,1.06,14.44.11,28.77.21,43.21-.32,4-.11,8.06-.32,12-.74a44.25,44.25,0,0,0,5.41-.85,14.32,14.32,0,0,0,3-1.28c.16-.09.31-.21.47-.31h1.12a16.67,16.67,0,0,1,2.33.21c.37,0,.67.07,1,.09,1.9.29,3.75.58,5.67,1,10.41,2,20.7,4.67,30.89,7.64,10,2.87,20,6,29.73,9.45,1.91.64,3.71,1.38,5.62,2.12.36.16.75.31,1.13.47l.15.06a4.29,4.29,0,0,0,1.06.43c.38.17.77.37,1.15.56.29,1.41.48,2.83.65,4.32-.53-3.5-.1-.53.11.85s.32,2.44.42,3.72c.32,2.54.53,5.2.75,7.85.8,9.69,1.42,19.38,1.93,29.06q-6.45.9-12.89,1.76A57.3,57.3,0,0,0,436.07,235.7Z" transform="translate(-0.25 -111.18)"/><path d="M424.57,253.76c.73,2.44.38,1,0,0Z" transform="translate(-0.25 -111.18)"/><path d="M352.14,246.13c.62-.68.72-.8.58-.65l-.37.41Z" transform="translate(-0.25 -111.18)"/><path d="M412.3,238.3l.69.5-.06-.05C412.73,238.59,412.51,238.45,412.3,238.3Z" transform="translate(-0.25 -111.18)"/></svg>