<svg id="Layer_1" data-name="Layer 1" xmlns="http://www.w3.org/2000/svg" viewBox="0 0 402.82 459.75"><path d="M207.16,443c-.64.47-.9.78,0,0Z" transform="translate(-39.01 0)"/><path d="M401.77,37.34l-.23-.3h0C401.84,37.43,402.28,38,401.77,37.34Z" transform="translate(-39.01 0)"/><path d="M95.16,296.76s0,0,0,0a5.25,5.25,0,0,0,.65.62C95.55,297.15,95.36,297,95.16,296.76Z" transform="translate(-39.01 0)"/><path d="M437.22,53.52C434.94,49.65,432.2,46,430,42c-3.88-7.18-8.78-13.67-13.91-20.17-4.21-5.47-8.32-11.29-13.79-15.5C399,3.72,395.39,1.21,391.17.41A19,19,0,0,0,376.93,3c-14.82,9-29.52,18-44.34,27q-44.44,27.2-89,54.26c-29.63,18.12-59.38,36.24-89,54.25-29.41,17.89-59.16,35.56-88.33,53.91-7,4.45-13.57,9.35-18.58,15.84s-9.35,14.36-8.55,22.8c.46,4.67,2.51,8.43,4.33,12.65,1.26,3,2.51,5.93,3.88,8.89,2.5,5.81,5,11.74,8,17.32,5.58,10.49,13.67,20.63,26.1,22.57a64.57,64.57,0,0,1,6.49,1.26c1.14.34,2.4.68,3.54,1l.11,0c.28.14,1.14.52,1.48.66.57.34,1,.57,1.6.91l.5.31-.39-.43c.14.16.3.31.44.47a2.91,2.91,0,0,1,.36.22c.44.29.59.63.24.36.6.57,1.22,1.13,1.83,1.72l.21.31a10.87,10.87,0,0,1,1.14,1.94c.2.4.4.84.6,1.28s.26.69.42,1.11c.46,1,.8,2.05,1.26,3.19,1,2.74,2,5.59,3.07,8.32,2.63,7.41,5.13,14.93,7.64,22.46,5.81,17.43,11.4,34.87,17.1,52.31,3.51,10.87,6.82,21.83,10.62,32.6a7.4,7.4,0,0,0,.55,2.85c3,7.18,5,15,9.46,21.43,4.78,7.06,11.39,12.42,20.17,12.87,6.38.23,12.54-2.16,18.24-4.78a92.55,92.55,0,0,0,13-7.64c2.74-1.9,5.61-3.72,7.64-6.05l-.12.47L207.16,443a7.91,7.91,0,0,1,.74-.5c1.14-.68,2.16-1.25,3.3-1.82,3.65-2.05,7.18-4.1,10.83-6.15,8.09-4.68,16.3-9.35,24.51-14,1.36-.8,2.85-1.6,4.21-2.4A2.29,2.29,0,0,0,251,418l-1,.26a7.12,7.12,0,0,0,1-.29c.31-.17.6-.34.94-.51s.59-.29.63-.25c3.72-2.3,6.2-7.48,4.61-11.6a304.59,304.59,0,0,1-10.6-32.83A265.17,265.17,0,0,1,240.38,343c0-.23,0-.31,0-.31-.06-.47-.09-1-.18-1.4-.11-1.25-.22-2.62-.34-3.87-.23-2.39-.34-4.9-.45-7.3s0-4.9.11-7.29a30.68,30.68,0,0,1,.23-3.31c0-.57.11-1,.11-1.59,0-.21,0-.34,0-.46a47.12,47.12,0,0,1,1.1-5.13,22.09,22.09,0,0,1,.91-2.85h0c.1-.17.19-.3.22-.34.46-.8.91-1.37,1.37-2.16,0,0,0,0,0,0l.46-.56a59.28,59.28,0,0,1,4.78-4.56,10.33,10.33,0,0,1,1.14-.91c.23-.21.24-.23.16-.18.87-.67,1.69-1.28,2.58-1.88,2-1.36,4.1-2.73,6.15-4,4.11-2.51,8.32-4.79,12.54-7q5-2.57,9.92-4.78c.73-.33,1.42-.66,2.12-1,.43-.18.85-.36,1.26-.56l.38-.16c.55-.24.28-.13-.23.08,3.18-1.53,6.15-3.49,9.12-5.21s6.15-3.65,9.23-5.47a204.44,204.44,0,0,0,18.58-12.43c6.49-4.9,12.76-9.91,17.32-16.75a31.73,31.73,0,0,0,5-19.49c-.69-7.64-3.54-14.48-6.73-21.31-1.37-2.85-2.73-5.7-4.21-8.55-.69-1.48-1.37-2.85-2.06-4.33-.34-.69-.57-1.26-.91-1.94-.23-.46-.34-.91-.57-1.26,0-.13-.19-.51-.33-.84,0,0,0,0,0-.07-.23-.45-.34-.91-.57-1.37-.11-.25-.21-.52-.31-.78,16.92-9.87,33.71-20,50.57-30.1,9.24-5.47,18.47-10.94,27.81-16.19,8.89-4.9,18-10.83,22.91-20.17C435,105,433,94.44,428.68,84.55c1.14-.86,2.28-1.73,3.41-2.65,3-2.28,6.27-5.13,8.09-8.43C443.83,66.86,440.75,59.45,437.22,53.52Zm-108,130.7c.28.64.12.32,0,0Zm93-121.35-.2.21C422.87,61.67,422.89,62.27,422.29,62.87ZM59.72,227.72c-.06.17-.1.3-.1.3A.93.93,0,0,1,59.72,227.72Zm-.67,2.47v0a1,1,0,0,0-.07-.15C59,230.11,59,230.15,59.05,230.19Zm.16.35v-.07c.11.19.15.21,0-.23s0-.58,0-.74c0-.34.11-.68.11-.91,0,.29,0,.52,0,.72l.56-1.89a4.23,4.23,0,0,0,.33-.65c.45-.8.91-1.71,1.36-2.51l1.37-2a2.48,2.48,0,0,0,.37-.47l-.14.13.17-.18c.06-.1.13-.2.17-.28.26-.39.59-.58.55-.45.88-1,1.7-2.11,2.64-3,.57-.57,1.26-1.14,1.94-1.71.23-.23.57-.45.8-.68s1.59-1.14.34-.34-.11,0,.11-.12c.35-.34.8-.57,1.14-.91l2.4-1.71C80,208.08,87,204.2,93.7,200c14.24-8.66,28.6-17.44,42.85-26.1q43.26-26.32,86.51-52.77,43.08-26.33,86.05-52.54C323.47,59.79,338,51,352.31,42.24,359.49,37.8,366.67,33.46,374,29c3.65-2.17,7.18-4.45,10.83-6.61.77-.48,1.47-.9,2.22-1.35.43.25.87.53,1.38.86l.16.15c.69.57,1.26,1.14,1.94,1.71a69.43,69.43,0,0,1,6,7c1.14,1.48,2.39,3,3.53,4.44.5.59,1,1.26,1.48,1.87a10.46,10.46,0,0,1,.92,1.33c2.16,3,4.33,5.92,6.27,9,2.62,4.22,5,8.66,7.75,12.88,1.08,1.77,2.23,3.47,3.19,5.29-.61.54-1.23,1.06-1.83,1.55-.22.23-1.36,1.36-.45.34s0,0-.23.11c-.8.57-1.48,1.14-2.28,1.6-1.71,1.14-3.31,2.28-5,3.42a13,13,0,0,0-1.12.83c-2.59,1.46-5.18,3-7.77,4.41-8.32,4.67-16.64,9.46-24.84,14.13-12.31,7-24.51,14-36.82,21-15,8.54-30,17.09-45,25.64-16.3,9.35-32.71,18.58-49,27.92-16.64,9.46-33.16,18.92-49.8,28.38l-46.16,26.33c-13.11,7.41-26.11,14.93-39.21,22.34-9.35,5.36-18.69,10.72-28.15,16.07q-3.69,2.09-7.37,4.18a120.59,120.59,0,0,1-6.43-12.61c-2.5-5.7-4.9-11.51-7.4-17.21C60.27,232.78,59.77,231.68,59.21,230.54Zm33.16,64.61c.43.16.68.27,0,0Zm101,132.42c-.71.75-2.38,1.77,0,0Zm48-117.09a.67.67,0,0,1,0-.19ZM409.64,108c-.1.14-.21.25-.31.37a.32.32,0,0,0,0,.09s0,0,0-.08c-.25.28-.51.56-.83.88-.69.68-1.37,1.37-2.17,2-.45.34-.8.68-1.25,1A112.9,112.9,0,0,1,394,119c-18.12,10-35.79,21-53.57,31.57-10.14,6-20.28,12.08-30.54,18a10.45,10.45,0,0,0-4.68,11.62,175.81,175.81,0,0,0,9,22c1.37,2.85,2.73,5.58,4.1,8.43.57,1.26,1.26,2.51,1.83,3.88.11.34.34.8.45,1.14l-.08-.14c.21.54.41,1,.65,1.62a32.78,32.78,0,0,1,1.37,4.44,18.56,18.56,0,0,0,.43,2.06c0,.12,0,.24,0,.34v1.94c0,.1,0,.3,0,.53-.07.38-.16.87-.2,1.06l-.69,2.05-.07.26c-.23.43-.52.93-.72,1.34s-.6.85-.89,1.26a11.05,11.05,0,0,0-.82,1,71.85,71.85,0,0,1-7.53,7,5.2,5.2,0,0,1-.57.46,4.18,4.18,0,0,0-.57.45c-.91.69.57-.45.57-.45-.68.57-1.36,1-2.16,1.59-1.48,1.14-3.08,2.17-4.68,3.31q-4.79,3.24-9.57,6.15c-6,3.76-12.19,7.3-18.24,10.83a17.21,17.21,0,0,0-1.54,1c-.3.11-.59.22-.85.34s-.34.11-.57.23l-2.39,1q-4.62,2.06-9.23,4.45c-8.55,4.33-17,9-24.62,14.93a63.09,63.09,0,0,0-12.2,11.85,33.18,33.18,0,0,0-5.36,12.31c-2.39,9.69-2.39,19.95-1.48,29.86a228.89,228.89,0,0,0,5.7,32.71,288,288,0,0,0,9.58,32.51c-2.92,1.67-5.83,3.36-8.67,5-8.32,4.79-16.64,9.58-25,14.25-1.25.68-2.5,1.48-3.76,2.16a12.62,12.62,0,0,0-3.05,2.39l.06-.24-.07.05.07-.05,0-.09-.17.2c-.9.65-1.79,1.34-2.68,2a106.58,106.58,0,0,1-10.83,6.61c-1,.57-2.16,1-3.19,1.6l-1.14.45a28.71,28.71,0,0,1-3,.92l-1,.22H170l-.53-.38c-.37-.33-.77-.68-1.18-1.1a6.14,6.14,0,0,0-.63-.71c-.85-1.29-1.7-2.57-2.45-4-.46-.8-.8-1.71-1.26-2.51a.14.14,0,0,0,0-.06c.08.12.08.05-.09-.51-1.25-3.42-2.51-6.72-3.87-10.14a17,17,0,0,0-1.7-3.38c-.35-1-.7-2-1-3-1.94-5.69-3.76-11.51-5.59-17.32q-7.86-24.62-16-49.24c-4.79-14.47-9.46-28.95-14.7-43.31-2.51-6.95-5.13-13.9-10.38-19.37a35.37,35.37,0,0,0-14.83-8.91l16.77-9.56c12.31-6.95,24.51-14,36.82-21,15-8.55,30-17.1,45-25.64,16.29-9.35,32.71-18.58,49-27.93,16.64-9.46,33.16-18.92,49.8-28.38l46.16-26.33c13.11-7.41,26.1-14.93,39.21-22.34,9.35-5.35,18.69-10.71,28.15-16.07L410.6,96c.18.57.35,1.15.52,1.77.14.43.52,1.52.72,2.4a2.86,2.86,0,0,0,0,.56v1.82c0,.1,0,.42,0,.76,0,.12-.08.28-.14.5-.12.45-.23.91-.34,1.37l-.11.31c-.08.12-.15.25-.24.37-.29.51-.82,1.12-1.22,1.7C410,107.34,410.12,107.52,409.64,108Zm2.19-4.51a1.66,1.66,0,0,1-.14.87A3.85,3.85,0,0,1,411.83,103.49Z" transform="translate(-39.01 0)"/><path d="M64,221a9.93,9.93,0,0,1-.72.73l0,.05A3.18,3.18,0,0,0,64,221Z" transform="translate(-39.01 0)"/><path d="M251,418c1.22-.38,1.69-.73,1.62-.79a8.4,8.4,0,0,1-1.57.76Z" transform="translate(-39.01 0)"/><path d="M401.54,37l-.22-.27C401.4,36.85,401.46,37,401.54,37Z" transform="translate(-39.01 0)"/><path d="M409.33,108.38h0a3.61,3.61,0,0,1,.45-.83A1.9,1.9,0,0,0,409.33,108.38Z" transform="translate(-39.01 0)"/><path d="M320.54,215.46c-.08-.22-.16-.43-.26-.66C319.68,213.41,320.3,215,320.54,215.46Z" transform="translate(-39.01 0)"/><path d="M193.51,427.46h0l.6-.44Z" transform="translate(-39.01 0)"/><path d="M59.3,229.31l0,.08C59.08,230.18,59.31,230.63,59.3,229.31Z" transform="translate(-39.01 0)"/><path d="M221.92,256.52l.05.11C221.77,255.59,221.61,256,221.92,256.52Z" transform="translate(-39.01 0)"/><path d="M286.09,195c-3-1.6-5.82-1.26-9-.57a49.52,49.52,0,0,0-9.8,3.42,139.16,139.16,0,0,0-15.73,8.55,190.73,190.73,0,0,0-16.41,10.71q-5.08,3.63-9.85,7.69a4.9,4.9,0,0,0-1.93,1.65c-1.38,1.22-2.74,2.48-4.06,3.77-4.79,4.78-9.12,10.37-11,17a23,23,0,0,0,2.74,18.12c3.08,4.56,8.32,8.78,14.13,8.66a13.77,13.77,0,0,0,5.13-1.36c2.51-1,4.9-2.17,7.41-3.31,12.54-6,24.73-12.88,36.82-19.6,9.46-5.25,18.92-10.6,28.49-15.73h0a5.4,5.4,0,0,0,.9-.45,7.08,7.08,0,0,0,3.06-8.13,5.54,5.54,0,0,0-.55-1.21c-4.1-6.84-7.75-14-12.31-20.52C292,200.55,289.51,196.91,286.09,195Zm-4.17,12.43-.24,0-.11,0Zm-2.73-.61c-.14,0-.14,0,.17.15a3.73,3.73,0,0,1,.41.39,3.94,3.94,0,0,1-1.09-1A6.28,6.28,0,0,0,279.19,206.79Zm-56.82,41.52-.2.42A.93.93,0,0,1,222.37,248.31Zm.8,10.26-.06-.12C223.33,258.76,223.5,259,223.17,258.57Zm51.06-24.28c-12.19,6.72-24.39,13.45-36.7,19.83-2.39,1.26-4.78,2.51-7.29,3.65-1,.46-1.94.91-3,1.37-.46.23-.8.34-1.26.57a4.34,4.34,0,0,0-.5.2h0l.64-.32c1.36-.57.45-.22.11-.11l-1,.38-.11,0,.05,0-.07,0-.25-.13a.48.48,0,0,1-.19-.1,2.43,2.43,0,0,1-.36-.2,3.18,3.18,0,0,1-.38-.27l-.07-.07c-.35-.34-.69-.91-1.14-1.14a.37.37,0,0,1,.11.1s-.07-.08-.11-.1a5.85,5.85,0,0,1-.75-1.37c0,.11,0,.21.06.34l-.34-1c-.11-.46-.23-.92-.34-1.49h0v-.1a8.14,8.14,0,0,1,0-1.71v-.86a10.19,10.19,0,0,1,.34-1.31c.07-.14.24-.95.41-1.53l.16-.29a2.74,2.74,0,0,1,.46-.8,10.54,10.54,0,0,1,1.14-1.93c.34-.57.79-1.14,1.14-1.71.05-.08.1-.16.14-.24s.25-.27.31-.33a28.39,28.39,0,0,1,2.75-3,18.41,18.41,0,0,0,6.6,3.09A33.17,33.17,0,0,0,254,242.38a32.51,32.51,0,0,0,9.34-5.13c2-1.71,1.94-5.47,0-7.29-2.16-2.05-5-1.82-7.29,0-.12.08-.23.17-.34.23-.46.34-.92.57-1.49.91s-1,.57-1.48.8l-.68.34c-.69.34,1.14-.46.11,0a56.8,56.8,0,0,1-7.52,2s-.06,0,0,0a6.31,6.31,0,0,1-.76.08c-.57,0-1.25.12-1.94.12H240a1.86,1.86,0,0,1-.8-.12h-.33c-.45-.11-1-.13-1.38-.22a9.15,9.15,0,0,1-1.53-.51h0c.14.05.24.09.17.05l-.15-.07,2.77-2.21c.22-.23.57-.46.79-.68.69-.57,1.37-1,2.06-1.6,2.5-1.82,5.13-3.65,7.75-5.36,5-3.3,10.14-6.38,15.27-9.23a69.44,69.44,0,0,1,7.64-4c.68-.34,1.36-.57,1.93-.91.16-.08.21-.11.2-.12.19-.07.38-.15.6-.22a38.77,38.77,0,0,1,4-1.25c.37-.13.78-.22,1.19-.32.2.23.39.47.58.71s.53.59.74.86c.57.8,1,1.48,1.59,2.28,1.14,1.71,2.28,3.53,3.31,5.24,1.6,2.67,3.18,5.4,4.73,8.09l-1.43.8C284.61,228.59,279.48,231.44,274.23,234.29Zm-35.39.11h-.17C238.24,234.33,238.54,234.35,238.84,234.4Zm.15,0a.73.73,0,0,1,.25.09A1.45,1.45,0,0,0,239,234.43Z" transform="translate(-39.01 0)"/><path d="M281.53,209.33c-.23-.23-.46-.57-.69-.8l0-.06C280.61,208.26,280.68,208.36,281.53,209.33Z" transform="translate(-39.01 0)"/><path d="M238.79,231.44c.34-.23,1.25-1,0,0Z" transform="translate(-39.01 0)"/><path d="M224.67,259.68l.19.1.14,0,.13,0C224.67,259.54,224.55,259.59,224.67,259.68Z" transform="translate(-39.01 0)"/><path d="M181,271.22c-1.14-3.42-4.79-5.93-8.43-4.79a7.85,7.85,0,0,0-1.91,1c-12.43,7.47-24.87,14.93-37.42,22.27a7.06,7.06,0,0,0-3.19,7.75c7.41,22.23,14.14,44.8,21.09,67.14,3.42,11.28,7,22.45,10.6,33.73,1.82,5.47,3.19,11.29,5.7,16.53A14.52,14.52,0,0,0,173,421c3.76,2,8,1.6,11.63-.34,2.85-1.59,5.47-3.65,8.2-5.47s5.48-3.65,8.1-5.58c5.47-3.77,11.05-7.53,16.52-11.29,2.4-1.59,4.11-4.78,3.19-7.75-10.48-30.89-20.63-62-30.88-93C186.81,288.77,184,280,181,271.22Zm-3.1,137.51h0c-.23.1-.23.11-.12.08C177.44,409,176.79,409.2,177.9,408.73Zm1.22-1.14.13.26-.07-.09Zm1,1.77-.17-.12h0l.18.12,0-.06h0l0-.05-.09-.18a1.06,1.06,0,0,1,.33.42h0C180.34,409.57,180.25,409.54,180.15,409.36Zm25.78-19.7-23.22,15.82-3.42,2.4h0l-.18-.33c-.13-.39-.29-.77-.39-1.16-.45-1.36-.91-2.62-1.37-4-.91-2.63-1.71-5.36-2.62-8-6.84-21.32-13.33-42.86-19.94-64.29-3.26-10.55-6.53-21-10-31.49q12.89-7.72,25.83-15.38c9.48,28.13,18.73,56.41,28.06,84.6C201.12,375.13,203.5,382.39,205.93,389.66Z" transform="translate(-39.01 0)"/><path d="M180.14,409.35h0l.18.12h0Z" transform="translate(-39.01 0)"/><path d="M106.23,233.49c.46,2.62,3.88,4.33,6.27,3.54a5.13,5.13,0,0,0,3.53-6.27c-1.59-9.12-3.3-18.13-4.9-27.24-.45-2.62-3.87-4.33-6.27-3.54a5.14,5.14,0,0,0-3.53,6.27C102.93,215.37,104.64,224.37,106.23,233.49Z" transform="translate(-39.01 0)"/><path d="M124.47,223.23c.45,2.63,3.87,4.34,6.27,3.54a5.13,5.13,0,0,0,3.53-6.27c-1.6-9.12-3.3-18.12-4.9-27.24-.46-2.62-3.88-4.33-6.27-3.53a5.12,5.12,0,0,0-3.53,6.26C121.16,205.11,122.87,214.12,124.47,223.23Z" transform="translate(-39.01 0)"/><path d="M147.26,209.56c.46,2.62,3.88,4.33,6.27,3.53a5.13,5.13,0,0,0,3.54-6.27c-1.6-9.12-3.31-18.12-4.91-27.24-.45-2.62-3.87-4.33-6.26-3.53a5.13,5.13,0,0,0-3.54,6.27C144,191.44,145.67,200.44,147.26,209.56Z" transform="translate(-39.01 0)"/><path d="M167.78,195.88c.46,2.62,3.87,4.33,6.27,3.53a5.13,5.13,0,0,0,3.53-6.27c-1.59-9.11-3.3-18.12-4.9-27.24-.46-2.62-3.87-4.33-6.27-3.53a5.13,5.13,0,0,0-3.53,6.27C164.47,177.76,166.18,186.76,167.78,195.88Z" transform="translate(-39.01 0)"/></svg>