<svg id="Layer_1" data-name="Layer 1" xmlns="http://www.w3.org/2000/svg" viewBox="0 0 426.72 444.21"><path d="M464.54,215.34A140.83,140.83,0,0,0,455.2,179a133.66,133.66,0,0,0-21.68-35.23,144.57,144.57,0,0,0-67.34-44,114.13,114.13,0,0,0-41.28-4.51,105.38,105.38,0,0,0-30.84,7.33c-7.47,3-15.17,6-23.1,8-1-14.93-.59-62.88,3.45-80.13a9.59,9.59,0,0,0-3.49-9.61c-4.45-3.76-14.9-7.21-24.19-3.14-3.1,1.36-10.74,4.72-16.07,33.9-.34-1-.7-1.87-.95-2.5a82.53,82.53,0,0,0-12.48-20.63c-6.39-8.07-12.79-13.71-19.56-17.23-4.57-2.34-9.35-3.25-14.25-4A125.11,125.11,0,0,0,163.13,5.8,109.12,109.12,0,0,0,146,7.31a38.19,38.19,0,0,0-11.55,3.56c-3.05,1.69-4.35,3.69-3.74,5.76A8.11,8.11,0,0,0,132,19.16c.22.31.43.61.61.91,1,1.58,2,3.21,3.1,4.8,5.32,8.29,10.6,16.33,16.74,23.66A64.18,64.18,0,0,0,162,58a27.85,27.85,0,0,0,10.68,4.79,87.61,87.61,0,0,0,21.07,2.26c3.12,0,6.08-.11,8.78-.25a148.14,148.14,0,0,0,24-2.81l.42-.09c.59-.13,1.2-.26,1.79-.43a1.51,1.51,0,0,0,.35-.06c-.14,1-.27,2-.4,3-2.2,17.36-2.83,35.31-1.75,46.78A169.8,169.8,0,0,1,203.81,104c-8.25-3-18.15-6.33-29-7.63-22.1-2.78-45.69,2.9-66.43,16a158.86,158.86,0,0,0-39.82,36.31c-3.65,4.6-6.46,8.46-8.83,12.14a126.12,126.12,0,0,0-15.36,34.54c-6.59,23.19-7,49.78-1.11,79,1.88,9.5,4.43,19.53,8,31.55a283.65,283.65,0,0,0,12.92,36,228.68,228.68,0,0,0,37.89,58.83,177.57,177.57,0,0,0,38.6,33.39,80.77,80.77,0,0,0,15.6,7.84,97,97,0,0,0,16.08,4,118.3,118.3,0,0,0,16.87,1.91,69.78,69.78,0,0,0,7.86-.21c7.62-.56,14.3-1.18,20.42-1.9a83.61,83.61,0,0,0,17.81-3.93c1.86-.68,3.78-1.39,5.65-1.88l.64-.15.17,0h2.31a3.07,3.07,0,0,1,.88.32l.11.05c1.9.7,3.8,1.4,5.8,2.11,5,1.79,10.62,3.51,16.68,5.13a7.78,7.78,0,0,0,1.08.28,8.69,8.69,0,0,0,1.44.26A132.6,132.6,0,0,0,292.59,450q4.07,0,8-.3c10.31-.7,21.21-1.82,31-5.22,10.82-3.79,21.94-9.6,34-17.76A223.19,223.19,0,0,0,408.72,389a218.46,218.46,0,0,0,37.88-61A264.82,264.82,0,0,0,461,280C465.9,256.64,467.08,234.88,464.54,215.34Zm-19.61,43.72c-.07.55-.14,1.08-.19,1.64a2.21,2.21,0,0,1,0,.37,3.41,3.41,0,0,0-.06.49,2.14,2.14,0,0,0,0,.36l-.09.71c-.66,4.34-1.45,8.81-2.4,13.67-1.58,7.43-3.44,14.71-5.69,22.26-2.77,9.19-5.25,16.87-8.4,24.52a3.41,3.41,0,0,1-.18.48c0,.11-.09.22-.13.34-.13.28-.25.57-.37.87l-.29.72c-.29.62-.56,1.24-.83,1.86-.39.88-.76,1.72-1.17,2.54-1.19,2.58-2.5,5.2-3.89,7.79a168.8,168.8,0,0,1-8.58,14.76c-3.11,4.86-6.21,9.33-9.47,13.65-.2.25-.38.48-.55.71l-.55.7-.12.15,0,0h0a1.51,1.51,0,0,0-.09.18l-1.12,1.38-1.24,1.54-1.68,2c-1.09,1.31-2.22,2.66-3.41,4a199.29,199.29,0,0,1-20.65,20.34c-.85.7-1.68,1.41-2.51,2.11s-1.64,1.39-2.47,2.07c-.41.31-.82.64-1.22,1l-1,.76,0,0-.06.05c-.16.13-.31.24-.47.35a8.34,8.34,0,0,0-.86.69c-3.81,2.86-6.91,5.08-9.78,7a196.47,196.47,0,0,1-17.65,10.47c-2.27,1.18-4.56,2.29-6.85,3.31l-.2.07c-.24.1-.51.19-.78.29l-.82.31c-.42.17-.84.32-1.26.47s-1.13.4-1.62.62a69.58,69.58,0,0,1-8.84,2.29c-1.87.39-3.78.69-5.66,1-.65.08-1.32.16-2,.3h-.07c-.23.05-.48.07-.74.1a5.78,5.78,0,0,0-.81.1l-.75.08c-2.67.27-5.19.53-7.83.72-3.82.22-7,.29-10.05.2-3.65-.12-6.75-.34-9.76-.7l-1.1-.15-.52-.06a3.5,3.5,0,0,0-.52-.09c-.16,0-.33-.05-.54-.1l-.22,0-1.15-.18a9.49,9.49,0,0,0-2-.78c-6.62-1.71-12.59-3.5-18.26-5.49l-1.56-.55a34,34,0,0,0-9.25-2.37c-4.46-.49-8.59.54-13.43,2.23a65.48,65.48,0,0,1-7.35,2.28l-.82.21c-1.31.33-2.54.64-3.84.88l-.86.15-.69.13-.12,0a.88.88,0,0,0-.24,0l-.76.12L216,427h0l-2.22.27c-7.94,1-16.16,2-24.14,1.79-1.24,0-2.41-.08-3.66-.17-.63,0-1.26-.09-1.9-.12-1.1-.1-2.23-.19-3.35-.37l-.07,0a9.91,9.91,0,0,0-1.31-.21,10.17,10.17,0,0,1-1.23-.2,94.94,94.94,0,0,1-16.59-4l-.73-.26-.15,0-.73-.32-.86-.4-1.6-.76a72.7,72.7,0,0,1-7.16-4.07c-3-1.82-5.88-3.88-8.07-5.48l-1.09-.8-1.12-.81-.54-.39-.23-.17h0c-1.55-1.17-3-2.46-4.48-3.71a183.12,183.12,0,0,1-18.95-18.55c-1.68-1.88-3.29-3.79-4.89-5.7-.4-.44-.77-.91-1.14-1.37s-.76-1-1.18-1.45a4.9,4.9,0,0,1-.51-.6c-.19-.24-.38-.48-.59-.7a5.25,5.25,0,0,1-.46-.55l-.3-.4-.31-.39v0h0l-.07-.07c-.14-.19-.27-.35-.32-.43l-.54-.69-.55-.7c-.74-1-1.61-2.16-2.49-3.49-1.5-2.06-3-4.24-4.59-6.68A218.19,218.19,0,0,1,80.8,333.91c-.3-.71-.6-1.38-.9-2.06s-.6-1.34-.89-2c-.1-.23-.16-.4-.22-.52v-.05h0a.72.72,0,0,0-.14-.24c-.13-.34-.28-.7-.43-1s-.34-.85-.49-1.25c-1.2-3-2.32-6-3.4-9-1.9-5.42-3.49-10.79-5.09-16.28-3.35-11.15-5.89-21-7.79-30.26-.61-3-1.13-5.88-1.59-8.57-.2-1.4-.4-2.8-.61-4.15a3.31,3.31,0,0,1-.09-.5c0-.19-.06-.38-.1-.53s0-.1,0-.16v-.09h0l0-.09c-.06-.5-.14-1-.24-1.46a181.53,181.53,0,0,1-1.2-18.15,148.06,148.06,0,0,1,.9-18.82c0-.15.05-.37.09-.6h0c.06-.43.11-.73.13-.94a1.7,1.7,0,0,1,0-.19h0l.13-1c.15-.85.3-1.72.45-2.6s.3-1.75.45-2.59c.62-3.27,1.46-6.6,2.19-9.46.84-3.07,1.91-6.35,3.19-9.75.22-.55.43-1.12.64-1.69s.47-1.31.74-2c.07-.13.16-.32.3-.61a6.47,6.47,0,0,0,.52-1.25c.2-.39.37-.78.54-1.18s.34-.78.54-1.18a125.56,125.56,0,0,1,7.06-12.83c.3-.43.59-.87.88-1.3.57-.85,1.15-1.73,1.82-2.6l.88-1.21c.4-.55.78-1.07,1.13-1.6.19-.29.39-.56.59-.83l.58-.82a4.44,4.44,0,0,0,.79-1.09,165.76,165.76,0,0,1,14.57-16c3.27-3.17,6.69-6.19,10.16-9,.17-.13.32-.26.47-.39l.16-.14.16-.09h0a2.86,2.86,0,0,0,.41-.29,37.58,37.58,0,0,1,3.18-2.28c2-1.37,4-2.79,6.08-4.08a95.32,95.32,0,0,1,13.46-7.18l.38-.18a1.93,1.93,0,0,0,.48-.16c.33-.14.83-.35,1.1-.44,1.41-.59,2.64-1,3.78-1.39a74.42,74.42,0,0,1,7.76-2.29,72,72,0,0,1,8.06-1.58c.21,0,.35,0,.51-.06l.09,0,.17,0h.12l.14,0a10.34,10.34,0,0,1,1.11-.07l4.39-.3c2.84-.09,5.78-.19,8.64,0,.43,0,.85.06,1.27.08.85,0,1.65.09,2.49.22.31,0,.65.08,1,.1l.46,0h0l.33,0c9.19,1.41,18,4.52,26.2,7.57s18,6.35,28.4,7.83a134.84,134.84,0,0,0,42.06-.6c9.53-1.62,18.61-5.06,27.09-8.43l1-.4c3.81-1.5,7.41-2.9,11.33-4.09,2.2-.67,4.58-1.27,7-1.78l1.71-.3,1.76-.32a2.48,2.48,0,0,1,.41-.08h.09a4,4,0,0,0,.89-.15l1.11-.14a94.56,94.56,0,0,1,19.08-.2c.42,0,.85.08,1.28.11s.8,0,1.21.09l.87.13c.74.14,1.51.25,2.28.37s1.64.25,2.43.4c3.19.59,6.44,1.41,9.55,2.18s5.93,1.84,9.07,3c1.3.46,2.78,1,4.29,1.69l.48.19a1.51,1.51,0,0,1,.18.09,24.89,24.89,0,0,0,2.51,1.11,140.44,140.44,0,0,1,16.84,9.36c2,1.37,4.7,3.18,7.42,5.24.11.11.25.22.39.34a2.78,2.78,0,0,1,.34.29c.3.25.63.5,1,.76s.65.49.94.74c1.18,1,2.39,2,3.59,3.09a131.18,131.18,0,0,1,12.86,12.86c.5.55,1,1.11,1.44,1.68s1,1.16,1.44,1.7c.16.19.47.62.71,1l.28.37h0l.19.19.06.07c.24.32.49.64.74,1,1.88,2.58,3.69,5.29,5.38,8.07,1.62,2.58,3.12,5.25,4.58,8.17.7,1.3,1.3,2.61,1.9,3.9a14.08,14.08,0,0,1,.77,1.72l.06.12a4.43,4.43,0,0,1,.24.52,3.85,3.85,0,0,0,.22.52l.11.24a121.34,121.34,0,0,1,5.26,16.07c.64,2.58,1.37,5.57,1.89,8.45.1.66.22,1.34.35,2s.25,1.33.35,2l.21,1.48h0a.63.63,0,0,1,0,.13c0,.17,0,.39.08.66V217q0,.25.09.57h0a164.57,164.57,0,0,1,.66,31.9c-.19,2.55-.4,5.18-.7,7.69C445.09,257.8,445,258.44,444.93,259.06Z" transform="translate(-39.13 -5.79)"/><path d="M214.06,254.69c-1,.64-4.78,2.32-7.81,3.67-11.3,5-26.78,11.91-34.44,20.47l-.31.37c-3.34,4.17-2.69,14.5-2.66,14.94.57,8.69,4,15.9,9.82,20.86a31,31,0,0,0,19.78,7.16c5.81,0,11.34-1.73,15.29-5.25,7.08-6.18,11.26-20.14,13.52-30.77,5-23.57,1.19-28.25-.25-30A9.26,9.26,0,0,0,214.06,254.69Z" transform="translate(-39.13 -5.79)"/><path d="M299,263.75c-20.27-13.08-26-11.13-28.16-10.39A9.25,9.25,0,0,0,265,265c.24,1.19.47,5.34.65,8.69.67,12.32,1.58,29.2,6.88,39.39h0c2.49,4.72,11.36,7.66,13.13,8.21a33.56,33.56,0,0,0,9.93,1.57,26.87,26.87,0,0,0,13.21-3.37c11.77-6.54,18.29-21.24,14.24-32.1C319.72,278.51,308.15,269.64,299,263.75Z" transform="translate(-39.13 -5.79)"/></svg>