<svg id="Layer_1" data-name="Layer 1" xmlns="http://www.w3.org/2000/svg" viewBox="0 0 363.2 451.29"><path d="M418.61,288.14C415,273.32,408,259,399.71,245.91a204.77,204.77,0,0,0-84.33-73.56,186.72,186.72,0,0,0-38.13-12.88,38.94,38.94,0,0,0,1-8.93,40.21,40.21,0,0,0-5-18.84,42.14,42.14,0,0,0-23.13-20V29.35c0-4.13.12-8.36,0-12.59v-.22c0-5-4.72-9.73-10.36-9.52s-10.49,4.34-10.49,9.63v90.5c0,1.22,0,2.45,0,3.69-.62.17-1.25.34-1.86.54a43.22,43.22,0,0,0-14.74,8.26,53.93,53.93,0,0,0-8,8.89,29.26,29.26,0,0,0-2.53,3.91A37.66,37.66,0,0,0,198,155c.22,1.62.51,3.18.86,4.71q-6.33,1.45-12.49,3.33a198.55,198.55,0,0,0-99.31,70.18A156.3,156.3,0,0,0,63,278.09c-4.49,13.65-6.56,28.36-3.57,42.44a49.75,49.75,0,0,0,2.42,7.62,10.43,10.43,0,0,0,10,7c3,0,6,0,9.11-.11,8.18,0,16.24-.1,24.42-.1,12.1-.11,24.19-.11,36.29-.21l32.53-.24a57.15,57.15,0,0,0,10.55,32.41,61.76,61.76,0,0,0,12.91,13.44,69.09,69.09,0,0,0,18.2,9.85A61.79,61.79,0,0,0,254,391a62.48,62.48,0,0,0,17.17-7.94,72.2,72.2,0,0,0,15.09-13.76,56,56,0,0,0,12.48-35.68l29.68-.2c12.79-.11,25.58-.22,38.37-.22,9.21-.1,18.54-.1,27.76-.21,4.38,0,8.76,0,13-.1h.17a10.13,10.13,0,0,0,9.38-4.76,8.4,8.4,0,0,0,1-2l.06-.13C422.75,314,421.49,300.42,418.61,288.14ZM223.71,136.57a38,38,0,0,1,5-4.63,28.35,28.35,0,0,1,3.59-2,26,26,0,0,1,3.89-1.05c.11,0,.23.06.34.07a4.67,4.67,0,0,1,.58.11,12.25,12.25,0,0,0,4.63.15c.72.17,1.42.37,2.11.6a29.81,29.81,0,0,1,3.86,2.1,39.91,39.91,0,0,1,4.34,4l.68.9H223.54ZM218.39,148c.11-.58.23-1.15.37-1.72h38.45c.14.57.25,1.14.36,1.72a28.31,28.31,0,0,1,0,4.87c-.2,1.09-.43,2.18-.71,3.24-1.45-.15-2.9-.29-4.35-.41a175,175,0,0,0-33.47.55c-.23-.94-.43-1.89-.59-2.84A29.63,29.63,0,0,1,218.39,148Zm59.34,190.91a50.23,50.23,0,0,1-3.48,11.73,53.38,53.38,0,0,1-5.59,8.7,56.8,56.8,0,0,1-8.27,7.61,56.3,56.3,0,0,1-9.45,5.1,51.9,51.9,0,0,1-10.52,2.61,50.65,50.65,0,0,1-8.88,0A53.82,53.82,0,0,1,220.73,372a58.4,58.4,0,0,1-8.83-4.86,50.64,50.64,0,0,1-7.7-7.1,46.89,46.89,0,0,1-5.9-9.14,49.73,49.73,0,0,1-3.39-11.41c-.18-1.7-.27-3.42-.29-5.13l39.55-.26,43.78-.29A44.27,44.27,0,0,1,277.73,338.94Zm122.67-25.7-.12.7L399,314c-8.18,0-16.24.11-24.42.11-12.1.1-24.19.1-36.29.21l-44,.31-48.5.32-48.61.32-45.62.32c-12.79.1-25.58.21-38.37.21-9.21.1-18.54.1-27.76.21H79.58c-.21-.92-.4-1.85-.56-2.79a63.83,63.83,0,0,1,.11-14.09,106.32,106.32,0,0,1,8.54-27.81,166.88,166.88,0,0,1,22.7-35.18,196.13,196.13,0,0,1,33.51-30.85,180.92,180.92,0,0,1,37-20.07,175.66,175.66,0,0,1,39.73-10,166.7,166.7,0,0,1,36.69,0,170,170,0,0,1,38.9,9.76,187.51,187.51,0,0,1,37.91,20.56,195,195,0,0,1,28.39,25c2.2,2.41,4.4,4.81,6.51,7.22a174,174,0,0,1,19.3,28.45c1.2,2.2,2.3,4.46,3.35,6.69a107.78,107.78,0,0,1,8.56,27.55A58.93,58.93,0,0,1,400.4,313.24Z" transform="translate(-58 -7.01)"/><path d="M196.5,398.33a11.27,11.27,0,0,0-14.64,0l-12.44,11.11c-6.56,5.93-13.25,11.75-19.81,17.68-1.5,1.37-3,2.75-4.61,4-3.92,3.49-4,10.06,0,13.44a11.25,11.25,0,0,0,14.63,0l12.44-11.11c6.57-5.93,13.25-11.75,19.82-17.68,1.49-1.37,3-2.75,4.61-4C200.41,408.28,200.53,401.72,196.5,398.33Z" transform="translate(-58 -7.01)"/><path d="M237.62,398.7c-5.64.32-10.37,4.24-10.37,9.53-.11,11.85-.23,23.6-.34,35.46v5.08c0,5,4.84,9.73,10.37,9.52s10.37-4.23,10.37-9.52c.11-11.86.23-23.61.34-35.46v-5.08C248,403.25,243.15,398.49,237.62,398.7Z" transform="translate(-58 -7.01)"/><path d="M330.13,429.13c-10.14-9-20.16-18-30.3-26.89-1.38-1.27-2.88-2.54-4.26-3.81-3.92-3.49-10.83-3.81-14.63,0s-4.15,9.74,0,13.45c10.14,9,20.16,18,30.3,26.88,1.38,1.27,2.88,2.54,4.26,3.81,3.92,3.5,10.83,3.81,14.63,0S334.28,432.83,330.13,429.13Z" transform="translate(-58 -7.01)"/><path d="M169,208.65c-10.37,4-19.93,9-28.45,15.77a85.64,85.64,0,0,0-19.36,21.7,91.88,91.88,0,0,0-7.72,15.67c-1.26,3.17,1.39,7.09,4.84,7.83A7.45,7.45,0,0,0,126.8,265c.46-1.06.8-2.11,1.26-3.17.19-.42.37-.84.55-1.26-.17.35-.4.75-.08.09.11-.31.34-.74.46-1.06a56.13,56.13,0,0,1,3.11-5.82,51,51,0,0,1,3.8-5.71c.57-.85,1.15-1.59,1.84-2.44a13.44,13.44,0,0,1,.92-1.16c.06-.06.1-.13.15-.19l.2-.23a75.9,75.9,0,0,1,9.56-9.32l2.77-2.22c.46-.32.8-.64,1.26-.95.23-.11.46-.32.69-.43l-.67.49c.17-.12.42-.3.56-.38a63.68,63.68,0,0,1,5.76-3.6,73.2,73.2,0,0,1,7.26-3.81c1.26-.64,2.53-1.17,3.8-1.69.57-.22,1.15-.53,1.73-.75s3-1.16.92-.42a7.55,7.55,0,0,0,4.15-3,5.69,5.69,0,0,0,.69-4.87C176.45,210.13,172.53,207.28,169,208.65Z" transform="translate(-58 -7.01)"/><path d="M128.61,260.53a1.73,1.73,0,0,0,.15-.33Z" transform="translate(-58 -7.01)"/><path d="M152.62,231.58Z" transform="translate(-58 -7.01)"/></svg>