<svg id="Layer_1" data-name="Layer 1" xmlns="http://www.w3.org/2000/svg" viewBox="0 0 386.11 457.94"><path d="M246.7,133.24l-.17.35C246.26,134.14,246.24,134.77,246.7,133.24Z" transform="translate(-46.44 -1.68)"/><path d="M236.13,98.49c.4.5.47.58.38.45l-.71-.87Z" transform="translate(-46.44 -1.68)"/><path d="M231.73,440.39a2.33,2.33,0,0,0,.46-.08C231.85,440.35,231.6,440.39,231.73,440.39Z" transform="translate(-46.44 -1.68)"/><path d="M193.43,440.15h0C193.34,440.14,193.32,440.13,193.43,440.15Z" transform="translate(-46.44 -1.68)"/><path d="M235.8,98.07Z" transform="translate(-46.44 -1.68)"/><path d="M65.73,276.59v0C65.78,276.3,65.8,276.16,65.73,276.59Z" transform="translate(-46.44 -1.68)"/><path d="M432.23,155.59a95.49,95.49,0,0,0-2.7-16c-2.8-10.8-7.6-21.1-13-30.9-6.9-12.5-14.9-24.5-23-36.3q-12.75-18.6-27.2-36c-6.4-7.7-13-15.1-20-22.2-3.2-3.3-6.5-6.5-9.9-9.5l-.4-.4a9.44,9.44,0,0,0-6.4-2.6,9,9,0,0,0-6.4,2.6c-5.5,6.2-10.7,12.7-16,19.1-14.1,17.3-27.7,35.1-41.9,52.3-4.09,5-8.24,9.94-12.34,14.93-1.29-1.74-2.62-3.45-4-5.13-6.1-7.7-12.7-14.9-19.5-22-3.3-3.5-6.7-6.9-10.1-10.3a10.82,10.82,0,0,0-6.85-2.64,7.63,7.63,0,0,0-6.35,2.54c-1.1,1.3-2.2,2.5-3.2,3.8l-13.5,15.9q-14.7,17.4-29.4,35c-17,20.3-34.1,40.6-51.1,60.9-17.7,21.1-36,42.4-48.4,67.2a130.31,130.31,0,0,0-9.5,24,122.32,122.32,0,0,0-3.6,20.8c-1.6,16.3-1.6,32.4,1.1,48.6a150.6,150.6,0,0,0,38.3,77.9c15.8,16.9,35.6,29.4,57,38.1a202.59,202.59,0,0,0,50.2,12.9,141.65,141.65,0,0,0,21.6,1.4,189.79,189.79,0,0,0,40.3-5.5c21-5.1,41.4-13.7,59.1-26.2a152.9,152.9,0,0,0,53.5-67.5c8.8-21.6,11.9-45.3,11.3-68.5a101.76,101.76,0,0,0-.9-12.3,94,94,0,0,0-3.4-13.9c-1.5-5-3.3-9.9-5.2-14.7-.62-1.55-1.26-3.11-1.92-4.65,2.4-1,4.72-2.07,6.92-3.15a116.54,116.54,0,0,0,23.5-15.8,108.23,108.23,0,0,0,21.3-24,83.35,83.35,0,0,0,7.8-15.5,68.46,68.46,0,0,0,4.1-17.2A76.2,76.2,0,0,0,432.23,155.59ZM243.54,144.44c0-.47.17-1.27,0,0Zm-168.71,212c-.28-.67-.06-.16.1.21A1.36,1.36,0,0,0,74.83,356.39Zm201.9,72c-.32.13-.2.08,0,0Zm83.56-108.7a1.87,1.87,0,0,0-.06.4l-.3,2.1c-.2,1.4-.5,2.8-.7,4.2-.5,2.9-1.1,5.7-1.8,8.5a154.5,154.5,0,0,1-5.5,17.9c-.3.7-.5,1.4-.8,2.1s-1.5,2.8-.3.8a41,41,0,0,0-2.1,4.8q-2.25,4.8-4.8,9.3c-1.8,3.2-3.7,6.3-5.8,9.4-1,1.4-1.9,2.8-3,4.2l-1.5,2.1-.12.21c-.16.2-.33.39-.48.59a138.26,138.26,0,0,1-12.1,13.3c-2.1,2-4.2,3.9-6.4,5.8-1,.9-2.1,1.8-3.1,2.6l-1.5,1.2a4,4,0,0,0-.56.44,150.86,150.86,0,0,1-26.94,16.16l-3.3,1.5a10.24,10.24,0,0,0-1.44.66l-.36.14c-2.2.9-4.4,1.8-6.7,2.6-4.3,1.6-8.6,2.9-12.9,4.2a196,196,0,0,1-23,5,20,20,0,0,0-2.4.4l-.14,0,1.14-.12c-.5.1-.9.1-1.4.2-1.5.2-3,.4-4.5.5l-7.5.6c-2.7.2-5.4.2-8.1.2-3,0-6.1-.2-9.1-.5-2.5-.2-5-.5-7.5-.8l-.22,0a13.06,13.06,0,0,0-1.57-.21l.94.15h-.15a1.27,1.27,0,0,1-.6-.1l-.2,0-.6-.06c-1.6-.2-3.2-.5-4.8-.8a206.34,206.34,0,0,1-22-5.1c-4.1-1.2-8.2-2.6-12.2-4.1-1.85-.71-3.7-1.42-5.55-2.2l-.65-.3c-.5-.2-1-.4-1.4-.6l-3.3-1.5a166.55,166.55,0,0,1-25.5-14.9c-1-.7-2-1.5-3-2.2.1.1,1.8,1.4.6.5-.3-.2-.5-.4-.8-.6a18.26,18.26,0,0,1-1.6-1.3c-2.1-1.7-4.1-3.4-6-5.2a128.18,128.18,0,0,1-11.4-11.9,40.31,40.31,0,0,1-2.6-3.2c-.3-.36-.56-.71-.84-1.05a7.69,7.69,0,0,1-.76-1.05c-1.8-2.4-3.4-4.8-5-7.2a133.37,133.37,0,0,1-10.6-19.7c-.14-.29-.28-.62-.43-.93l-.07-.17c-.3-.7-.6-1.5-.9-2.2-.7-1.7-1.3-3.3-1.9-5-1.1-3.1-2.1-6.3-3-9.5a150.24,150.24,0,0,1-3.7-17.7c0-.3-.4-2.9-.2-1.2s-.1-.4-.1-.9c-.2-1.3-.3-2.7-.4-4-.2-2.4-.4-4.7-.5-7.1-.2-3.8-.2-7.7-.1-11.5.2-5.3.6-10.6,1.1-15.9.1-1.3.3-2.6.4-3.9,0-.39.09-.68.1-1.06-.1.68-.33,2.17-.2,1.16.1-.8.2-1.5.3-2.3q.75-4.35,1.8-8.7c.8-3.2,1.8-6.4,2.9-9.5.6-1.7,1.2-3.3,1.9-4.9.39-.91.22-.56,0-.09.09-.23.18-.47.3-.71.4-1,.9-2,1.4-3a191.86,191.86,0,0,1,14.6-25.2c3.5-5.2,7.2-10.2,11-15.2.1-.15.49-.66.79-1-.16.23,0,.08.15-.2l.16-.2a6.53,6.53,0,0,1,.8-1l3.5-4.4c2.5-3.1,5-6.2,7.6-9.3q25.5-30.45,51-60.8l31.6-37.6c5.5-6.6,11.1-13.2,16.7-19.7l1.09-1.28c1.54,1.58,3.08,3.16,4.61,4.78,3.5,3.7,7,7.4,10.3,11.3,1.8,2,3.6,4.1,5.3,6.2.7.9,1.5,1.8,2.2,2.7.19.19.83,1,1,1.25l.22.25c1.5,2,3,4.1,4.3,6.2l.29.46c-4.79,7.48-9.73,15-12.79,23.34-4.3,11.6-4.3,24.3-2.6,36.4,3.6,25.1,17.1,49.1,37.2,64.5,19.8,15.2,45.5,19.8,69.8,21.3a55.65,55.65,0,0,0,12.2-.8c1.4-.2,2.8-.5,4.2-.7a6,6,0,0,1,.7-.12c0,.07.07.14.1.22.76,1.43,1.38,2.94,2,4.46.05.14.11.27.16.44.2.5.4.9.6,1.4.4,1.1.9,2.2,1.3,3.3,1.7,4.6,3.3,9.2,4.6,13.9.6,2.3,1.2,4.5,1.7,6.8a25.58,25.58,0,0,1,.5,2.7,2.74,2.74,0,0,1,.05.28s0,.17.05.52c.3,3.1.3,6.2.4,9.4A187.49,187.49,0,0,1,360.29,319.69Zm-99.66-117.2c.06,0,.45.57.64.82C261.06,203,260.86,202.76,260.63,202.49Zm91.4,51.6a.69.69,0,0,1,.05.13C351.94,253.9,351.87,253.71,352,254.09ZM356.46,232l.37,0-.36,0Zm57.93-62a70.12,70.12,0,0,1-4,14.63A83.69,83.69,0,0,1,401,200.27a106.48,106.48,0,0,1-17.35,17.13A102.64,102.64,0,0,1,363,229.85a39.43,39.43,0,0,1-6.8,2.13,24.64,24.64,0,0,0-6.52.11c-2.2.3-4.4.6-6.6,1-.8.1-1.6.3-2.4.4-.4.1-.8.1-1.2.2,1-.2,1.5-.2.2-.1a58.87,58.87,0,0,1-11.1-.3c-1.6-.1-3.3-.3-4.9-.5-.5-.1-5-.9-5.1-.6.1-.1,2,.3.6.1a4.17,4.17,0,0,0-.6-.1c-.2,0-.4-.05-.6-.1a15.72,15.72,0,0,1-2.3-.4l-5.2-.9a112.8,112.8,0,0,1-18.1-5c-.8-.3-1.5-.6-2.3-.9-.2-.07-.45-.18-.68-.28-1.27-.56-2.55-1.18-3.82-1.72a84.6,84.6,0,0,1-7.7-4.4c-1.2-.8-2.4-1.6-3.5-2.4l-1.1-.8c-.9-.7,1.4,1.1.5.4-.6-.5-1.3-1-1.9-1.5a69.62,69.62,0,0,1-6.8-6.5c-1-1.1-2-2.3-3-3.4-.25-.31-.48-.61-.7-.91L261,203c-.3-.5-.7-.9-1-1.4-1.9-2.6-3.6-5.3-5.2-8s-3.1-5.7-4.4-8.6c-.2-.4-.3-.7-.5-1.1s-.17-.41-.21-.49c-.2-.47-.41-.94-.59-1.41-.6-1.5-1.2-3.1-1.7-4.7-1-3.1-1.9-6.3-2.6-9.5l-.9-4.5c-.1-.7-.2-1.5-.3-2.2.5,2.8,0-.2-.1-1-.3-3-.4-6.1-.4-9.1,0-1.4.1-2.9.2-4.3.1-.67.11-1.33.19-2,0-.23.08-.48.11-.61a50.26,50.26,0,0,1,2.1-8.5,14.58,14.58,0,0,1,.7-1.9c.1-.3.3-.6.4-.9l-.13.45c.56-1.2,1.19-2.46,1.83-3.65,3.2-5.5,6.6-11,10-16.4a24.83,24.83,0,0,0,1.38-2.49c5.06-6.45,10.37-12.7,15.62-19,7.7-9.3,15.3-18.6,22.7-28.1,10.54-13.4,21.18-26.79,32.1-39.8l.2.2c6.6,6.5,12.9,13.4,19,20.5,4.55,5.29,8.92,10.67,13.21,16.14,7.64,9.93,14.82,20.14,21.69,30.56,6.1,9.2,12,18.4,17.3,28.1,2.19,4.1,4.28,8.21,6.16,12.47A92.86,92.86,0,0,1,414.13,154,78.27,78.27,0,0,1,414.39,170.07Z" transform="translate(-46.44 -1.68)"/></svg>