<svg id="Layer_1" data-name="Layer 1" xmlns="http://www.w3.org/2000/svg" viewBox="0 0 445.08 445.75"><g id="Layer_3" data-name="Layer 3"><path d="M456.77,401.64a631.64,631.64,0,0,1-83.6,27.24,547.65,547.65,0,0,1-82.43,13.86,542.67,542.67,0,0,1-83.6.81,538.62,538.62,0,0,1-82.44-12.22,611.59,611.59,0,0,1-83.48-25.62c-3.49-1.28-6.87-2.68-10.36-4.07,1.74,2.21,3.37,4.54,5.12,6.75V229.08c0-8.27.47-16.53,0-24.8v-.35l-8.85,6.75a643.6,643.6,0,0,0,84.18,25.85A604.63,604.63,0,0,0,196.54,250a563.13,563.13,0,0,0,84.18.81A599.54,599.54,0,0,0,366,239a641.77,641.77,0,0,0,84.18-24.34c3.5-1.28,7-2.56,10.37-3.84l-8.85-6.75V383.36c0,8.26-.24,16.53,0,24.8v.34c0,3.61,3.26,7.11,7,7a7,7,0,0,0,7-7V229.2c0-8.27.23-16.54,0-24.8v-.35c0-4.19-4.54-8.39-8.85-6.76A655.33,655.33,0,0,1,373.4,223c-14,3.26-27.94,6.05-42,8.26-13.5,2.1-26.55,3.73-40.63,4.89a570.1,570.1,0,0,1-83.37.82,550,550,0,0,1-82.67-11.64,631.33,631.33,0,0,1-83.36-24.11c-3.5-1.28-7-2.56-10.37-3.84-4.31-1.63-8.85,2.56-8.85,6.75V383.47c0,8.27-.35,16.54,0,24.8v.35c0,3.38,2.22,5.59,5.13,6.75a634.2,634.2,0,0,0,84.3,27.48,567.66,567.66,0,0,0,85,14.21,536.84,536.84,0,0,0,84.3.81,551,551,0,0,0,85-12.57,623,623,0,0,0,84.29-25.73c3.5-1.28,6.87-2.68,10.37-4.08s6.17-4.77,4.89-8.62C464.34,403.27,460.38,400.24,456.77,401.64Z" transform="translate(-20.64 -13.41)"/><path d="M58,398.26a631.68,631.68,0,0,0,71.72,19,618.65,618.65,0,0,0,73.24,10,566.48,566.48,0,0,0,71.72.58A573,573,0,0,0,347.91,419a609.26,609.26,0,0,0,71.72-17.81c3-.93,6.05-1.86,9.08-2.91a7.23,7.23,0,0,0,5.12-6.75V272c0-5.47.12-11.06,0-16.53v-.23c0-4.78-4.42-7.69-8.85-6.75-11.87,2.44-23.75,4.77-35.74,6.75-5.94,1-11.88,2-17.93,2.79-2.91.47-5.71.82-8.62,1.28l-2.09.35s-2.33.35-1.05.12c-1.63.23-3.38.46-5,.7-23.52,3-47.15,5-70.91,6.17A872.23,872.23,0,0,1,141,261.57c-3.37-.35-6.75-.82-10-1.29a13.63,13.63,0,0,0-2.1-.23c-.23,0-2.91-.35-1.74-.23l-5-.7c-6.75-.93-13.39-2-20.14-3-13.51-2.21-26.9-4.65-40.17-7.45-4.43-.93-8.85,2-8.85,6.75V374.86c0,5.47-.12,11.06,0,16.53v.23a7.17,7.17,0,0,0,7,7,7,7,0,0,0,7-7V272.16c0-5.47.23-11.06,0-16.53v-.24c-2.91,2.22-5.94,4.55-8.85,6.76,24.22,5,48.67,9.2,73.24,12.34,23.75,3,47.74,5.12,71.72,6.29s48,1.28,72,.35,47.85-2.68,71.6-5.48c24.46-2.91,48.91-6.75,73-11.64,3-.58,5.94-1.16,9-1.86-2.91-2.21-5.93-4.54-8.85-6.76V374.86c0,5.47-.23,11.06,0,16.53v.23c1.75-2.21,3.38-4.54,5.13-6.75a626.14,626.14,0,0,1-71.38,18.86c-11.76,2.33-23.63,4.31-35.51,5.94-.35,0-.7.12-1.05.12.35,0,1.17-.12-.23,0a13.63,13.63,0,0,1-2.09.23c-1.52.23-3,.35-4.55.58l-9.08,1c-5.94.58-11.87,1.16-17.7,1.51a559.14,559.14,0,0,1-71.37.58c-11.88-.69-23.75-1.74-35.51-3.14-1.4-.12-2.8-.35-4.19-.47l-2.45-.34s-1.16-.12-.46-.12-.7-.12-.82-.12c-2.91-.35-5.82-.81-8.73-1.28-6.06-.93-12.11-2-18.05-3a597.17,597.17,0,0,1-71-17.69c-3-.93-6.06-1.87-9.08-2.91A7,7,0,0,0,53,389.53,7.5,7.5,0,0,0,58,398.26Z" transform="translate(-20.64 -13.41)"/><path d="M58.68,36.15a9.53,9.53,0,0,1,.94-1.86,3.18,3.18,0,0,1,.58-.82c.46-.81-1.28,1.52-.58.82l.46-.47a19.54,19.54,0,0,1,1.51-1.51c1-.93-1.63,1.16-.34.23.34-.23.81-.58,1.16-.81.7-.35,1.4-.82,2.1-1.17.46-.23.93-.35,1.28-.58.11,0-1.87.7-.93.46a9.48,9.48,0,0,0,.93-.34,36.66,36.66,0,0,1,5.93-1.63,33.71,33.71,0,0,1,3.38-.59c.7-.11,2.56-.11.12,0a10.05,10.05,0,0,0,2-.23c2.67-.23,5.35-.47,8-.47a176.81,176.81,0,0,1,19.1.7c3.61.35,7.33.7,10.94,1.17.35,0,.7.11,1,.11-2-.35-.12,0,.23,0l2.56.35,6.41,1c8.38,1.4,16.88,3.15,25.15,5,19.56,4.42,38.89,10,58,16.3a864.82,864.82,0,0,1,122.49,50.88c17.23,8.73,34.11,18,50.41,28.29,7.22,4.43,14.33,9.09,21.2,14,3.14,2.21,6.28,4.42,9.31,6.75.7.46,1.4,1,2,1.51.35.35.81.58,1.16.93,1.28,1-.81-.69,0,0,1.4,1.17,2.91,2.22,4.31,3.38a183.29,183.29,0,0,1,14.32,12.69c2,2,4,4,5.94,6.17l2.45,2.8c.35.46.69.81,1,1.28a4.73,4.73,0,0,1,.59.81c.69.93-1.17-1.51-.12-.11a64.65,64.65,0,0,1,3.73,5.47,23.29,23.29,0,0,1,1.28,2.33c.23.46.46.93.7,1.39.34.7.69,2.33,0-.11.46,1.63,1.16,3.14,1.51,4.77.12.35.12.7.23,1-.58-2.68-.11-1.28-.11-.47v2.1c0,1.4-.12.12.11-.7-.11.35-.11.7-.23,1.05s-.12.58-.23.93a.88.88,0,0,1-.24.47c-.23,1,.35-.93.47-.93a14.57,14.57,0,0,1-1.05,1.86c-.12.23-.46.46-.58.81.93-2,.81-1,.12-.23a20.38,20.38,0,0,1-1.64,1.51c-.58.47,1.75-1.16.35-.35-.46.24-.81.59-1.28.82-.7.35-1.39.81-2.09,1.16s-2.21.59.11,0a6.9,6.9,0,0,0-1.39.59,36.58,36.58,0,0,1-6.06,1.63,28.27,28.27,0,0,1-3.26.58c-.23,0-.58.11-.81.11-1.28.24,1.86-.23.58-.11-.7.11-1.4.11-2,.23a141.88,141.88,0,0,1-17.12.47,211.09,211.09,0,0,1-21.07-1.87c-.35,0-1.4-.11.35,0a6.5,6.5,0,0,1-1.51-.23l-2.57-.35-6.4-1.05c-4.08-.69-8.15-1.51-12.23-2.32a572.56,572.56,0,0,1-55.53-14.33c-21.2-6.52-42.15-14-62.76-22.12s-40.64-16.88-61-26.78c-33-16-65.44-33.88-94.78-55.89-.7-.46-1.28-1-2-1.51-.35-.35-.81-.58-1.16-.93,1.28,1,.35.35.11,0C92.92,79.11,91.4,78.07,90,76.9c-2.56-2.09-5.12-4.19-7.56-6.4A153.25,153.25,0,0,1,70.09,58.27c-.81-.93-1.63-1.86-2.44-2.91-.35-.46-.7-.81-1.05-1.28-.23-.23-.35-.58-.58-.81,1.51,1.63.58.69.23.23a66.14,66.14,0,0,1-3.72-5.59,19.86,19.86,0,0,1-1.28-2.33c-.24-.46-.47-.93-.7-1.4-.12-.11-.12-.35-.24-.46-.69-1.4.59,1.51.24.58a21.79,21.79,0,0,1-1.4-4.77c-.23-.93.12-1.52.12.58,0-.35-.12-.82-.12-1.17V37c0-1.4.12-.12-.12.69.12-.35.12-.69.24-1a8.7,8.7,0,0,1,.58-1.87c1.4-3.37-1.52-7.8-4.89-8.61-4.08-.93-7.1,1.28-8.62,4.89-3.14,7.68-.11,16.65,3.84,23.4,5.48,9.66,13.63,17.81,21.89,25.15a328.28,328.28,0,0,0,37.38,28.29c15.83,10.48,32.25,20,49,29a886.91,886.91,0,0,0,125.28,54.6c36.79,12.81,74.75,23.76,113.52,28.41,12.58,1.52,25.39,2.45,38,.82,9-1.17,19.1-3.5,25.27-10.6,13.74-16.18-3.5-36.91-15-48.43-10.25-10.25-21.89-19.22-33.77-27.6a508.14,508.14,0,0,0-46.11-28.76,869.12,869.12,0,0,0-123-56.24c-37.61-14-76.38-26-116.09-32.25-14.2-2.21-28.64-4-43-3.26-9.55.47-20.49,1.63-28.53,7.22a21.49,21.49,0,0,0-7.91,8.85C45.76,33,46,37.31,49.72,39.18,52.16,40.23,57.17,39.64,58.68,36.15Z" transform="translate(-20.64 -13.41)"/><path d="M145.54,95.18a645.57,645.57,0,0,0,77.08,41.34,565.31,565.31,0,0,0,78.48,28.76c14.44,4.07,29,7.45,43.78,10.12,3.61.7,7.68-.93,8.61-4.89.82-3.37-1-7.91-4.89-8.61a512.06,512.06,0,0,1-77.54-20.84c-6.4-2.33-12.81-4.66-19.21-7.22-3.15-1.28-6.29-2.56-9.32-3.84,0,0-1.63-.7-.58-.24s-.58-.23-.58-.23l-2.45-1.05L234,126.39c-12.92-5.71-25.73-11.88-38.19-18.52-14.67-7.68-29-16-43-24.68a6.92,6.92,0,0,0-9.55,2.56,6.74,6.74,0,0,0,2.21,9.43Z" transform="translate(-20.64 -13.41)"/><path d="M345.93,123.94a624.77,624.77,0,0,0-75.34-38.07,496.13,496.13,0,0,0-73.7-24.45,419.29,419.29,0,0,0-41.45-8c-2-.23-3.61-.35-5.36.7a7.91,7.91,0,0,0-3.26,4.19c-.69,3.26,1.05,8,4.89,8.62a452.49,452.49,0,0,1,73.36,17c12.34,4,24.57,8.38,36.56,13.27,1.51.58,3,1.28,4.54,1.86a4.41,4.41,0,0,1,1.05.47c-1.52-.58-.35-.12.11,0,.93.35,1.87.82,2.8,1.16,3,1.29,5.94,2.57,9,4q9.26,4.2,18.52,8.74c14.08,7,27.94,14.55,41.45,22.58a7,7,0,0,0,9.54-2.56,7.32,7.32,0,0,0-2.67-9.43Z" transform="translate(-20.64 -13.41)"/><path d="M35.28,202.18c-.23-.93-.35-2-.58-2.91-.12-.58-.12-1.74.12.94a.87.87,0,0,0-.12-.59c0-.46-.12-.93-.12-1.39a28.25,28.25,0,0,1,.12-5.36c.23-1.63-.35,1.86-.12.35.12-.47.12-.93.24-1.28a17.83,17.83,0,0,1,.58-2.56c.23-.82.58-1.63.81-2.45.35-1.05-.58,1.4-.35.93a1.86,1.86,0,0,0,.24-.58,11.37,11.37,0,0,1,.58-1.16,34.26,34.26,0,0,1,2.79-4.43c.93-1.28-1.16,1.52-.11.24a10,10,0,0,0,.93-1.17c.58-.7,1.28-1.4,2-2.1a18.07,18.07,0,0,1,2.21-2,4.83,4.83,0,0,1,1.16-.94,2.52,2.52,0,0,0,.59-.46c.11-.12.23-.12.23-.23.58-.47-1.52,1.16-.82.69,1.75-1.28,3.61-2.56,5.48-3.72a53.57,53.57,0,0,1,6.28-3.49c1.17-.59,2.33-1.17,3.38-1.63a13.07,13.07,0,0,0,1.75-.82c.23-.12.58-.23.81-.35.7-.23-1.16.47-.93.47s.47-.24.7-.24a135.62,135.62,0,0,1,16.3-5.59A297.13,297.13,0,0,1,121,151.77a22.57,22.57,0,0,0,2.79-.47c.47-.11.93-.11,1.28-.23s2.21-.35,1-.12.35,0,.7-.11c.58-.12,1-.12,1.63-.24l3.14-.34,12.46-1.4c9.08-.93,18.16-1.63,27.36-2.21,2.45-.12,4.78-.35,7.22-.47,3.61-.23,7.22-3,7-7-.12-3.61-3-7.22-7-7-18.75,1-37.37,2.68-55.89,5.24A328.41,328.41,0,0,0,79.06,146c-11.29,3.14-22.7,7.1-32.95,12.92-8,4.66-15.6,10.71-20.38,18.75s-5.93,16.76-4.54,25.73a29.38,29.38,0,0,0,.58,3,7,7,0,0,0,8.62,4.89c3.73-1.75,5.71-5.24,4.89-9.09Z" transform="translate(-20.64 -13.41)"/><path d="M44.94,212.43c1.63-1.51,3.27-2.91,4.9-4.31.46-.35.81-.7,1.28-1.05-2.1,1.63-.35.24.11-.11.93-.7,1.87-1.28,2.8-2a132.19,132.19,0,0,1,12.22-7.34,74.4,74.4,0,0,1,6.87-3.26c1-.46,2.21-.93,3.26-1.39-2.33,1-.11,0,.47-.24s1.39-.58,2.21-.93c5.24-2.09,10.48-3.84,15.83-5.47a309.25,309.25,0,0,1,36.91-8.5c3.38-.58,6.87-1.16,10.37-1.63l4.89-.7c-2.33.35.7-.12,1.28-.12l3.14-.34c7.45-.94,14.91-1.63,22.36-2.33,18.63-1.52,37.26-2.33,55.89-2.56a7.09,7.09,0,0,0,7-7,7,7,0,0,0-7-7c-32.37.47-64.86,2.33-96.88,7.46-24.22,3.84-48.43,9.66-70.56,20.37a107.79,107.79,0,0,0-27.24,18.4,7.09,7.09,0,0,0,0,9.89,7,7,0,0,0,9.89.12Z" transform="translate(-20.64 -13.41)"/><path d="M75.68,222.44a465.73,465.73,0,0,1,83.49-19.67c.93-.12,1.86-.24,2.91-.35.46-.12.93-.12,1.39-.24,1.63-.23-1.63.24.12,0l5.82-.69c3.73-.47,7.45-.82,11.18-1.28,7.57-.82,15.25-1.4,22.94-1.87,16.07-1.05,32.13-1.4,48.2-1.16,19.21.23,38.42,1.16,57.52,2.79,3.61.35,7.1-3.37,7-7-.24-4.08-3-6.64-7-7a737.06,737.06,0,0,0-100.13-2,556.74,556.74,0,0,0-91.05,12.11,443.68,443.68,0,0,0-45.88,12.81c-3.49,1.16-6,4.89-4.89,8.61.93,3.38,4.66,6.17,8.38,4.89Z" transform="translate(-20.64 -13.41)"/></g></svg>