<svg id="Layer_1" data-name="Layer 1" xmlns="http://www.w3.org/2000/svg" viewBox="0 0 364.5 455.33"><path d="M429,227.43a24.41,24.41,0,0,0,.88-6.24c0-5.15-4.6-10.07-9.85-9.86a11.1,11.1,0,0,0-2.9.53q0-14.19-.06-28.33c0-16.74-.11-33.38-.11-50.13,0-14-.11-28-.11-42,0-10.18-.11-20.25-.11-30.43V49a16.62,16.62,0,0,0,3.72-4.56,13.52,13.52,0,0,0-.1-13.35,20.47,20.47,0,0,0-7.34-7c-6.35-3.94-14-5.91-21.12-7.66a297.43,297.43,0,0,0-34.05-5.8c-14-1.75-28-3.07-42.14-3.94C281.47,4.46,247.1,4,212.73,5c-30,.87-60,2.84-89.64,7.33a208.64,208.64,0,0,0-28.57,5.91c-6.57,2-14,4.38-19,9.41a13.53,13.53,0,0,0-4.53,8.83,10.2,10.2,0,0,0-.06,1.24A7.67,7.67,0,0,0,71,39c.52,5,3.65,8.83,7.58,11.59V59c0,8.76,0,17.51.11,26.16,0,13,.11,26.05.11,39,0,15.76.11,31.52.11,47.28,0,13.41,0,26.76.08,40.14a8.11,8.11,0,0,0-1.4-.08,9.79,9.79,0,0,0-10,9.64c.11,8.53,4.71,16.2,11,21.67.15.14.32.26.48.39q0,16.28.07,32.56c0,16.31.1,32.72.1,49,0,13.69.11,27.48.11,41.16,0,9,.09,18.05.1,27a8.63,8.63,0,0,0-4-.84,9.79,9.79,0,0,0-10,9.63c.11,8.54,4.71,16.2,10.95,21.67,7.88,6.9,17.29,11.5,27,15.44a222.93,222.93,0,0,0,35.69,10.51,463.44,463.44,0,0,0,47.61,7.44,586.25,586.25,0,0,0,107.38,1.2,473,473,0,0,0,49.59-6.45,258.1,258.1,0,0,0,38.52-9.86c9.86-3.39,19.93-7.44,28.57-13.57,7.12-5,13.79-11.38,16.09-20a24.41,24.41,0,0,0,.88-6.24c0-5.14-4.6-10.07-9.85-9.85l-.23,0c0-4.61,0-9.23-.1-13.81,0-13.25-.11-26.6-.11-39.84,0-16.09-.11-32.18-.11-48.28,0-15.28-.07-30.56-.09-45.85C422.6,239.72,427.2,234.3,429,227.43Zm-41.26,11.38c-.44.22-.77.33-1.21.55a24.24,24.24,0,0,0-2.62,1.09c-1.76.66-3.62,1.31-5.48,2a245.21,245.21,0,0,1-24.84,6.9c-11.17,2.51-22.55,4.48-33.94,6l2.63-.33a572.18,572.18,0,0,1-116.13,3.17c-10.4-.76-20.69-1.75-31-3.17l2.63.33c-18.94-2.52-37.88-6.13-56-12q-5.58-1.81-10.83-3.94a4.31,4.31,0,0,1-1-.42c.58.23,1.23.47.63.2-.88-.33-1.64-.77-2.52-1.1-1.53-.65-3.06-1.42-4.49-2.19-1.65-.82-3.3-1.74-4.93-2.72,0-16.42-.1-32.85-.1-49.27s-.11-32.73-.11-49c0-13.68-.11-27.47-.11-41.15,0-10-.11-19.92-.11-29.78v-5.4c3.14.84,6.32,1.57,9.52,2.23,26.6,5.36,54,7.55,81,9,34.59,1.86,69.18,2,103.77.54,28.57-1.2,57.24-3.17,85.49-8.1a188.76,188.76,0,0,0,19-4.17c0,8.2,0,16.46.11,24.64,0,13.25.11,26.6.11,39.84,0,16.1.11,32.19.11,48.28,0,17.73.11,35.46.11,53.19,0,3.32,0,6.66,0,10l-1.66,1a98.08,98.08,0,0,1-9,4.27C385.57,239.68,389.51,238,387.76,238.81ZM404.07,33.68l-.1.1C404.83,32.66,404.36,33.39,404.07,33.68Zm-268.88-3.6c27.61-3.58,55.42-5.07,83.24-5.81,32.5-.77,65-.33,97.41,1.75,15,1,29.89,2.3,44.77,4.27L358,30c12.26,1.64,24.52,3.61,36.34,7.12.59.16,1.17.34,1.75.52-8.37,2.84-17.25,4.46-25.83,5.83-4,.65-8.18,1.3-12.32,1.85-27.61,3.58-55.42,5.06-83.23,5.81-32.51.76-65,.33-97.42-1.75-15-1-29.88-2.3-44.77-4.27l2.63.33c-12.26-1.65-24.52-3.62-36.34-7.12-.58-.16-1.17-.34-1.74-.52,8.36-2.84,17.24-4.46,25.82-5.83C126.9,31.28,131.05,30.62,135.19,30.08ZM385.57,419.41c-.44.22-.77.33-1.21.55a26.55,26.55,0,0,0-2.62,1.1c-1.75.65-3.62,1.31-5.48,2a247.06,247.06,0,0,1-24.84,6.89c-11.17,2.52-22.55,4.49-33.94,6l2.63-.33A572.16,572.16,0,0,1,204,438.79c-10.4-.77-20.69-1.75-31-3.18l2.63.33c-18.94-2.52-37.88-6.13-56-12Q114,422.1,108.75,420a4.31,4.31,0,0,1-1-.42c.58.23,1.23.47.63.2-.88-.33-1.64-.76-2.52-1.09-1.53-.66-3.06-1.42-4.49-2.19-1.11-.56-2.23-1.16-3.34-1.79a9.52,9.52,0,0,0,1.05-4.34v-9.74c0-8.76,0-17.52-.11-26.16,0-13-.11-26.05-.11-39,0-15.76-.11-31.52-.11-47.29q0-16.5-.07-32.93,3.39,1.54,6.85,2.94a222.93,222.93,0,0,0,35.69,10.51,463.44,463.44,0,0,0,47.61,7.44,586.25,586.25,0,0,0,107.38,1.21,475.11,475.11,0,0,0,49.58-6.46A257.89,257.89,0,0,0,384.36,261c4.41-1.52,8.86-3.18,13.2-5.09,0,7.1.05,14.21.05,21.29,0,16.75.11,33.38.11,50.13,0,14,.11,28,.11,42,0,10.18.11,20.25.11,30.43v13.1c-1.4.89-2.83,1.74-4.27,2.55a93.09,93.09,0,0,1-9,4.27C383.38,420.29,387.32,418.65,385.57,419.41Z" transform="translate(-65.4 -4.51)"/><path d="M224.6,194s0,.08,0,.12l0-.14Z" transform="translate(-65.4 -4.51)"/><path d="M244,209.2Z" transform="translate(-65.4 -4.51)"/><path d="M248.47,137.7h0C248.93,138.35,248.72,138.05,248.47,137.7Z" transform="translate(-65.4 -4.51)"/><path d="M230.7,203.85Z" transform="translate(-65.4 -4.51)"/><path d="M276.11,155.84a185.07,185.07,0,0,0-22.66-33.17c-.11-.22-.33-.32-.44-.54a6.8,6.8,0,0,0-5.69-1.66,4.91,4.91,0,0,0-3.72,1.88,7.79,7.79,0,0,0-.63.79,200,200,0,0,0-18.09,27,127.33,127.33,0,0,0-10.94,24.74c-2.3,7.88-3.61,16.85-1.1,24.73,3.72,11.61,15.33,19.38,26.93,21.68,14.12,2.84,29.66-2,39-13.25a29,29,0,0,0,6.45-12.81A41.22,41.22,0,0,0,285.3,181C284,172.15,280.27,163.72,276.11,155.84ZM224.7,186.32l0,.14Zm39.83,17.45Zm5-4.84a1.08,1.08,0,0,0-.14.15,3.9,3.9,0,0,0-.65.76,17.84,17.84,0,0,1-1.43,1.53c-.43.44-1,.88-1.42,1.32-.22.22-.44.33-.66.54a4,4,0,0,1-.66.49c-1,.62-2,1.36-3.06,2-.66.33-1.2.66-1.86,1a11.49,11.49,0,0,1-1.2.54c-1.43.55-2.85,1-4.38,1.43-.77.22-1.64.33-2.41.55-.33,0-.55.1-.88.1,1.87-.43,0,0-.54,0a32.1,32.1,0,0,1-4.6,0c-.33,0-.77-.1-1.09-.1h-.22l-.36-.06.79.16c-.32.22-2.18-.43-2.62-.43-1.43-.33-2.85-.77-4.27-1.21a7.82,7.82,0,0,0-.94-.31l-.05,0a1.24,1.24,0,0,1-.2-.1h0c-.69-.31-1.39-.69-2.09-1a43.65,43.65,0,0,1-3.72-2.3l-.2-.15a2.41,2.41,0,0,1,.53.48c-.11-.22-.76-.55-.87-.77-.55-.54-1.21-1.09-1.76-1.64a18.5,18.5,0,0,1-1.31-1.42c-.44-.66-.87-1.32-1.31-2.08a8,8,0,0,1-.44-.88,9,9,0,0,1-.66-2.3c-.11-.38-.19-.77-.26-1.14.1.62,0,.31,0-.12s-.11-.64-.15-.92c.07.4.11.69.15.9,0-.2,0-.41,0-.58,0-.43-.1-1-.1-1.42a27.32,27.32,0,0,1,.19-5s0-.06,0-.11c.11-.44.11-.88.22-1.32.22-1,.33-1.86.55-2.84a71.42,71.42,0,0,1,3.72-11.5l.09-.2c.16-.37.27-.74.46-1.11.44-1,.88-2,1.31-3,.88-2,1.86-3.83,2.85-5.8a215.25,215.25,0,0,1,11.71-19.26c.93-1.4,1.91-2.76,2.89-4.12l-.1-.14s0,0,0,.05l.06.08h0l.17.19A171.84,171.84,0,0,1,261,156.06a121.62,121.62,0,0,1,5.92,11.05c.43,1,.87,1.86,1.31,2.85.11.22.11.33.22.55.44,1.09-.66-1.65-.22-.44l.66,1.64a51.6,51.6,0,0,1,2,5.69,60.35,60.35,0,0,1,1.42,5.91c.11.44.11.88.22,1.32.22,1.53-.22-1.75,0-.22a24.68,24.68,0,0,1,.22,2.84v2.63a5.24,5.24,0,0,1-.11,1.31v.35a41.62,41.62,0,0,1-1.2,4.32c-.15.28-.27.56-.44.92A21.3,21.3,0,0,1,269.57,198.93Zm3.15-7.84v0C272.74,190.84,272.75,190.7,272.72,191.09Z" transform="translate(-65.4 -4.51)"/><path d="M229.24,171a1.21,1.21,0,0,1-.09.2C230,169.2,229.51,170.32,229.24,171Z" transform="translate(-65.4 -4.51)"/><path d="M255.53,186.82a23.74,23.74,0,0,1-2.41,2.4,1.3,1.3,0,0,1-.22.19c.39-.31.43-.3,0,0a8.56,8.56,0,0,1-1.09.77,10.43,10.43,0,0,1-1.09.66l-1.88.51-.59,0a8.52,8.52,0,0,1-1.58-.49c-.33-.22-.77-.44-1.1-.66a6.22,6.22,0,0,1-1.09-.77l-.1-.07.53.4c-.21-.22-.43-.33-.65-.55a24.82,24.82,0,0,1-2.41-2.4,6.67,6.67,0,0,0-9.3,0,6.78,6.78,0,0,0,.1,9.3c4.16,4.6,9.75,8.32,16.1,8.32s11.93-3.72,16.09-8.32c2.29-2.52,2.73-6.79,0-9.3C262.32,184.52,258.05,184.08,255.53,186.82Z" transform="translate(-65.4 -4.51)"/><path d="M252.9,189.41l-.43.36A4.56,4.56,0,0,1,252.9,189.41Z" transform="translate(-65.4 -4.51)"/></svg>