<svg id="Layer_1" data-name="Layer 1" xmlns="http://www.w3.org/2000/svg" viewBox="0 0 352.17 459.24"><path d="M423.86,403.41c-1.73-18.68-10.91-35.1-20.41-50.87Q388.54,327.92,374,303.08q-5.62-9.57-11.19-19.17a9.94,9.94,0,0,0-2.63-5.34c-.3-.27-.61-.51-.92-.74q-21.69-37.39-43-75c-2.48-4.32-4.86-8.53-7.34-12.85-1.08-1.84-2-3.67-3.13-5.62-.54-1-1-1.94-1.41-2.8a4.86,4.86,0,0,0-.27-.49c-.18-.46-.33-1-.48-1.35A37.44,37.44,0,0,1,302,173.7a4.81,4.81,0,0,1-.19-.95,4.37,4.37,0,0,0,0-.67c-.11-1.19-.22-2.37-.22-3.45-.21-4.54,0-9.18,0-13.72.33-19.44.54-39,.87-58.43.1-8.48.2-16.88.38-25.34l1.13,0a37.78,37.78,0,0,0,15.55-4.65A35,35,0,0,0,331,57.28a32.7,32.7,0,0,0,5.83-10.58,31,31,0,0,0,1.41-11.34,42.24,42.24,0,0,0-4.43-15.66,40.1,40.1,0,0,0-14.15-15A27.22,27.22,0,0,0,310.14.8,69.64,69.64,0,0,0,298.47.26H193.39c-3.35,0-6.69-.11-9.93.86a44.41,44.41,0,0,0-7.89,3.14c-12.42,6.26-19.44,20.51-17.82,34.12a40.15,40.15,0,0,0,4,14,39.45,39.45,0,0,0,12,14c6.16,4.64,13.49,4.66,20.71,3.45-.1,18.53-.2,37-.3,55.52,0,9.61-.11,19.22-.11,28.83,0,4.54,0,9.18-.43,13.72a7.37,7.37,0,0,1-.11,1.17c0,.12-.06.3-.11.56-.21,1.08-.32,2.16-.54,3.13a48.32,48.32,0,0,1-2,6.69l0,.09a1.62,1.62,0,0,1,0-.19c-.11.43-.43,1-.54,1.29a22.3,22.3,0,0,1-1.4,2.81c-1.08,2.05-2.16,4.1-3.35,6.16-2.49,4.21-4.86,8.42-7.35,12.74-4.86,8.42-9.72,16.74-14.58,25.16-9.72,16.85-19.54,33.7-29.26,50.54q-8.52,14.78-17.11,29.54a9.32,9.32,0,0,0-2.26,3.91q-5,8.55-9.9,17.1c-4.86,8.42-9.72,16.74-14.58,25.16a204,204,0,0,0-12.85,25.7c-6.7,16.74-8.21,35.75-.65,52.49A46.34,46.34,0,0,0,94.68,451.9c8.43,5.29,18.15,7.13,27.87,7.45,9.5.33,19.11,0,28.61,0,9.83,0,19.66-.1,29.49-.1,19.55-.11,39-.22,58.53-.22,39-.22,78-.32,117.07-.54,9.61,0,19.22.22,28.84-1.3A44.84,44.84,0,0,0,409.17,446C420.4,435.38,425.26,418.53,423.86,403.41ZM198.14,206.64c4.76-8.21,9.83-16.41,12.64-25.49,2.81-9.39,2.59-19.44,2.7-29.16q.17-28.5.32-57c0-9.39.11-18.79.11-28.08V66.8l.1,0,.33.16c4.43,2.59,10.8,1.19,13.29-3.45a9.72,9.72,0,0,0-3.46-13.18c-10.88-6.32-22.75-1-34.09.86a30.16,30.16,0,0,1-3.69.1c-.4-.09-.79-.18-1.17-.3-.21-.12-.42-.24-.62-.38A35.54,35.54,0,0,1,181,47a30.68,30.68,0,0,1-2.64-4.59,25.05,25.05,0,0,1-1.28-4.77,33,33,0,0,1,0-5,28.4,28.4,0,0,1,1.36-4.94,20.11,20.11,0,0,1,1.43-2.41,27.38,27.38,0,0,1,2.44-2.49,33.08,33.08,0,0,1,3.49-2c1.22-.44,2.43-.85,3.65-1.21h105c3.61,0,7.4-.25,11.05,0a19.7,19.7,0,0,1,2.16.6,29.83,29.83,0,0,1,3.2,1.93,33.57,33.57,0,0,1,4,3.95,27.79,27.79,0,0,1,2.4,4.08,33.45,33.45,0,0,1,1.54,5.46,28.58,28.58,0,0,1,0,3.07,25.79,25.79,0,0,1-.89,3.34,25.2,25.2,0,0,1-1.46,2.53,29.7,29.7,0,0,1-2.94,2.89,39.69,39.69,0,0,1-6.15,3.42,25.79,25.79,0,0,1-3.49,1,29.21,29.21,0,0,1-3.5-.07c-4.92-.88-9.53-2.81-14.41-4.21A19.43,19.43,0,0,0,275.9,47a13,13,0,0,0-9.07,9.18c-1.3,4.86,1.62,10.8,6.8,12a10.46,10.46,0,0,0,8.53-1.72l1.12.36a10,10,0,0,0-.14,1.47c-.22,19.22-.54,38.44-.76,57.67-.11,9.39-.22,18.68-.43,28.08-.11,9.61-.65,19.44,2.05,28.72s8.32,17.82,13.07,26.25c4.64,8.2,9.39,16.41,14,24.62q11.7,20.6,23.58,41.1a160,160,0,0,0-20,1.24c-12.31,1.51-24.51,4.1-36,8.85-4.68,2-9.29,4.09-13.95,6.1-8.81,3.65-17.74,6.88-26.66,10-9.39,3.24-18.79,6.37-28.51,8.75-5.29,1.24-10.57,2.28-16,3a148.41,148.41,0,0,1-35.37,0,168.44,168.44,0,0,1-19.33-3.93l1.54-2.66ZM91.44,413.45a5.35,5.35,0,0,1,0-.55C91.49,413.48,91.63,414.94,91.44,413.45Zm-.11-.75a.71.71,0,0,1,0,.17C91.36,412.81,91.35,412.75,91.33,412.7ZM401.5,423c0,.1-.1.22-.15.33l.26-.66C402.26,421,401.61,422.63,401.5,423Zm2.7-10.59a1.36,1.36,0,0,1,0,.2c-.42,1.7-.63,3.51-1.06,5.2-.43,1.52-.86,3.14-1.4,4.54l-.38,1a22.57,22.57,0,0,1-1,2c-.64,1.21-1.37,2.32-2.11,3.44-.23.26-.43.52-.69.78-.65.75-1.3,1.4-1.95,2.05-.54.43-1,1-1.51,1.4a2.21,2.21,0,0,1-.25.22c-.12.09-.22.17-.29.21-.54.44-1.19.76-1.84,1.19s-2.48,1.73-3.24,1.73c.11,0,2.27-.86.54-.22-.43.11-.86.33-1.18.44-1.08.32-2.06.64-3.14.86a21.28,21.28,0,0,1-2.59.54l-1.62.32c-8.75,1-17.71.65-26.57.65-9.72,0-19.33.11-29.05.11-19.11.11-38.23.22-57.34.22-38.56.21-77,.32-115.56.54-9.5,0-19.11.32-28.73.1-2.07,0-4.15-.2-6.23-.4l.19.08c-.33-.11-1.08-.11-1.41-.22a27.68,27.68,0,0,1-4.1-1,18.26,18.26,0,0,1-2.27-.75c-.32-.11-1.94-1-.54-.22s-.22-.11-.54-.22a44.2,44.2,0,0,1-5-2.8c-.24-.18-.47-.33-.69-.48l0,0-.1-.09a3.68,3.68,0,0,1-.44-.34,1.54,1.54,0,0,1-.49-.47l-1-.82-1.94-1.95a5.33,5.33,0,0,1-.76-.86c-.21-.33-.54-.65-.75-1,.21.32.54.64.75,1-.11-.65-1.4-1.95-1.73-2.49a26.68,26.68,0,0,1-1.4-2.37c-.24-.42-.45-.91-.66-1.38a3.49,3.49,0,0,1-.2-.46.08.08,0,0,1,0-.05c-.1-.21-.2-.41-.31-.6l.24.41c-.19-.48-.38-1-.56-1.49a42.77,42.77,0,0,1-1.41-5.29c-.2-.81-.22-2-.49-2.84,0-.41,0-.82,0-1.26-.1-1.84-.1-3.67-.1-5.51,0-1,.1-1.84.1-2.81,0-.54.11-1.08.11-1.51.11-.65.54-2.7,0,.11a117.07,117.07,0,0,1,2.92-12.1c.62-1.86,1.34-3.73,2.07-5.59l-.13.19a2,2,0,0,0,.15-.26c0-.05,0-.11.07-.17a2.52,2.52,0,0,1,.15-.33,4.6,4.6,0,0,0,.17-.53c.54-1.19,1.08-2.38,1.62-3.46,3.89-8,8.43-15.66,12.85-23.33l17.54-30.19A162.38,162.38,0,0,0,184.21,333c25.49-1.41,49.68-9.61,73.44-18.47,8.86-3.29,17.45-7.21,26.1-10.94,10.11-4.3,20.93-6.76,31.77-8.28a164.69,164.69,0,0,1,30.69-.71c7.28,12.51,14.59,25,22,37.43,4.86,8.2,9.83,16.41,14.79,24.62,4.54,7.56,9.18,15,13.18,22.79,1,1.83,1.84,3.67,2.7,5.5.15.31.26.6.38.86a13.89,13.89,0,0,1,1.24,3.36,76.47,76.47,0,0,1,3.35,12c.05.31.12.61.19.93-.06-.42-.08-.64,0,.09a5.27,5.27,0,0,1,.11.81,15.46,15.46,0,0,1,.12,1.63c.11,1.73.11,3.45.11,5.07A22.17,22.17,0,0,1,404.2,412.37Z" transform="translate(-71.92 -0.25)"/><path d="M404.19,403c0-.25-.06-.51-.1-.75v-.15c.05.43.13,1.07.13,1.13S404.19,403.05,404.19,403Z" transform="translate(-71.92 -0.25)"/><path d="M101.64,433.07a11.72,11.72,0,0,1,.93.81l.06.05C101.86,433.1,101.61,433,101.64,433.07Z" transform="translate(-71.92 -0.25)"/><path d="M116.71,439.48l.25,0C115.85,439,115.79,439.38,116.71,439.48Z" transform="translate(-71.92 -0.25)"/><path d="M96.67,383.64a3.78,3.78,0,0,1-.22.5l0,.07C97.13,383.12,96.9,383.23,96.67,383.64Z" transform="translate(-71.92 -0.25)"/><path d="M93.84,422.5a1.07,1.07,0,0,0,.07.19l.22.51C94.29,423.47,94.36,423.42,93.84,422.5Z" transform="translate(-71.92 -0.25)"/><path d="M399.45,386.13a2,2,0,0,1-.16-.33l-.06-.1C399.34,385.92,400.21,387.75,399.45,386.13Z" transform="translate(-71.92 -0.25)"/><path d="M316.51,395.74H196.2c-5.51,0-11.12-.1-16.63,0h-.22c-5.07,0-9.93,4.43-9.72,9.72a9.89,9.89,0,0,0,9.72,9.72H299.66c5.51,0,11.12.11,16.63,0h.22c5.07,0,9.93-4.42,9.72-9.72A9.9,9.9,0,0,0,316.51,395.74Z" transform="translate(-71.92 -0.25)"/><path d="M267.59,229.64a15.85,15.85,0,0,0,2.16,4.54,26.86,26.86,0,0,0,2.16,2.81,18.68,18.68,0,0,0,2.8,2.27,17.66,17.66,0,0,0,9.61,3,5.16,5.16,0,0,0,1.3-.11,20.87,20.87,0,0,0,3.78-.54,17.61,17.61,0,0,0,8.42-5.18,26.86,26.86,0,0,0,2.16-2.81,23.62,23.62,0,0,0,1.52-3.35,20.81,20.81,0,0,0,1-5v-1.51a21.93,21.93,0,0,0-.54-3.78,4.19,4.19,0,0,0-.43-1.19A23.51,23.51,0,0,0,300,215.5a24.91,24.91,0,0,0-2.16-2.81l-1-1a19,19,0,0,0-4.1-2.92,30.56,30.56,0,0,0-3.35-1.4c-1.19-.33-2.48-.43-3.78-.65a16.81,16.81,0,0,0-5.18.43,6.75,6.75,0,0,0-1.52.43,20.42,20.42,0,0,0-3.45,1.52,19.64,19.64,0,0,0-3,2.26,10,10,0,0,0-1.08,1.08,21.19,21.19,0,0,0-3.89,6.59,5.67,5.67,0,0,0-.43,1.51c0,1.3-.22,2.7-.22,4a21.86,21.86,0,0,0,.43,3.67C267.37,228.67,267.48,229.21,267.59,229.64Zm18.69-5.34v-.06h0Zm0-.15c0-.06,0-.11,0-.16h0l0,.17Zm0-.18a2.33,2.33,0,0,1,0-.28h0l0,.3Zm.06-.28h0c0-.07,0-.14,0-.2Z" transform="translate(-71.92 -0.25)"/><path d="M230.87,177.81a15.67,15.67,0,0,0,2.16,4.53,25.85,25.85,0,0,0,2.16,2.81,18.68,18.68,0,0,0,2.8,2.27,17.66,17.66,0,0,0,9.62,3,5.12,5.12,0,0,0,1.29-.11,20,20,0,0,0,3.78-.54,17.64,17.64,0,0,0,8.43-5.18,28.64,28.64,0,0,0,2.16-2.81,23.54,23.54,0,0,0,1.51-3.35,20.25,20.25,0,0,0,1-5V172a21.93,21.93,0,0,0-.54-3.78,4,4,0,0,0-.43-1.18,23.54,23.54,0,0,0-1.51-3.35,28.64,28.64,0,0,0-2.16-2.81l-1-1A18.76,18.76,0,0,0,256,157a30.56,30.56,0,0,0-3.35-1.4c-1.19-.33-2.48-.43-3.78-.65a16.83,16.83,0,0,0-5.18.43,6.52,6.52,0,0,0-1.51.43,20.17,20.17,0,0,0-3.46,1.52,19.64,19.64,0,0,0-3,2.26,10,10,0,0,0-1.08,1.08,21.19,21.19,0,0,0-3.89,6.59,5.67,5.67,0,0,0-.43,1.51c0,1.3-.22,2.7-.22,4a21.86,21.86,0,0,0,.43,3.67C230.65,176.83,230.76,177.37,230.87,177.81Zm18.69-5.35v-.06h0Zm0-.15c0-.06,0-.11,0-.16h0l0,.17Zm0-.18a2.33,2.33,0,0,1,.05-.28h0l0,.29Zm.06-.28h0c0-.07,0-.14,0-.2Z" transform="translate(-71.92 -0.25)"/><path d="M202.68,269a28.12,28.12,0,0,0,30.13-8,30,30,0,0,0,7-17.06,27.72,27.72,0,0,0-3.89-16,27.18,27.18,0,0,0-11.66-10.7A30.3,30.3,0,0,0,205.81,215c-13,2.48-22,14.68-22.14,27.43a28.32,28.32,0,0,0,4.86,15.77A29.83,29.83,0,0,0,202.68,269Zm1.08-29.67a27.57,27.57,0,0,1,1.47-2.58c.42-.45.85-.88,1.31-1.29a14,14,0,0,1,1.55-.88,21.72,21.72,0,0,1,2.86-.82,19.25,19.25,0,0,1,2,0,17.14,17.14,0,0,1,2,.56,27.57,27.57,0,0,1,2.58,1.47,17.56,17.56,0,0,1,1.28,1.31,14.67,14.67,0,0,1,.89,1.54,20.77,20.77,0,0,1,.81,2.87q0,1,0,2a17.14,17.14,0,0,1-.56,2q-.68,1.32-1.47,2.58a17.56,17.56,0,0,1-1.31,1.28,15.91,15.91,0,0,1-1.55.89,20,20,0,0,1-2.87.81c-.66,0-1.33,0-2,0a16.61,16.61,0,0,1-2-.56q-1.32-.68-2.58-1.47a17.56,17.56,0,0,1-1.28-1.31,12.65,12.65,0,0,1-.89-1.55,20.5,20.5,0,0,1-.86-3.09c0-.23,0-.45,0-.68s0-.57,0-.86A15.84,15.84,0,0,1,203.76,239.29Zm4.73-5c.36-.17.73-.33,1.1-.47Zm6.74,16.12c-.37.17-.73.33-1.1.47Zm-11.43-4.69c-.17-.37-.33-.74-.47-1.1ZM219.92,239c.17.36.33.73.47,1.1Z" transform="translate(-71.92 -0.25)"/><path d="M157.86,399.2a22.47,22.47,0,0,0-1.51-3.35,29.89,29.89,0,0,0-2.16-2.81l-1-1a18.69,18.69,0,0,0-4.11-2.91,30.59,30.59,0,0,0-3.35-1.41c-1.18-.32-2.48-.43-3.77-.65a16.91,16.91,0,0,0-5.19.44,5.67,5.67,0,0,0-1.51.43,19.39,19.39,0,0,0-3.46,1.51,19.71,19.71,0,0,0-3,2.27,10,10,0,0,0-1.08,1.08,21.19,21.19,0,0,0-3.89,6.59,6.52,6.52,0,0,0-.43,1.51c0,1.29-.22,2.7-.22,4a21,21,0,0,0,.44,3.68c.1.43.21,1,.32,1.4a15.93,15.93,0,0,0,2.16,4.53,26.14,26.14,0,0,0,2.16,2.81,18.15,18.15,0,0,0,2.81,2.27,16.71,16.71,0,0,0,4.43,2.16,16.5,16.5,0,0,0,5.18.86,5.75,5.75,0,0,0,1.3-.1,21.67,21.67,0,0,0,3.77-.54,17.61,17.61,0,0,0,8.43-5.19,27.5,27.5,0,0,0,2.16-2.81,22.37,22.37,0,0,0,1.51-3.34,19.87,19.87,0,0,0,1-5v-1.51a20.87,20.87,0,0,0-.54-3.78A3.81,3.81,0,0,0,157.86,399.2Zm-15.22,5.45v-.06h0Zm0-.15a.81.81,0,0,0,0-.16l0,0,0,.16Zm0-.18a2.74,2.74,0,0,1,.05-.28h0l0,.29Zm.06-.27h0a1.38,1.38,0,0,1,0-.2Z" transform="translate(-71.92 -0.25)"/></svg>