<svg id="Layer_1" data-name="Layer 1" xmlns="http://www.w3.org/2000/svg" viewBox="0 0 373.76 454.81"><path d="M214.48,142.36a6.39,6.39,0,0,1,1,.13C216.08,142.48,216.2,142.27,214.48,142.36Z" transform="translate(-64.52 -4.94)"/><path d="M437.77,400c-.54-7.71-1.07-15.31-1.61-23-1.07-15.42-2.14-30.94-3.21-46.35-2.14-30.83-4.28-61.55-6.42-92.38s-4.28-61.55-6.42-92.38S415.83,84,413.68,53.08c-.53-7.7-1.07-15.3-1.6-23-.32-4.39-.43-9.1-2.78-12.95-2.47-4.07-6.53-6.43-11-7.71a119.24,119.24,0,0,0-23.76-4.18C368,4.81,360.81,4.48,354.6,7A21.58,21.58,0,0,0,344,15.08c-2.46,3.53-3.21,7.82-3.53,12-.65,7.49-.54,15.2-.75,22.69-.54,15.31-1,30.62-1.5,45.93-.22,7.81-.54,15.62-.75,23.44-.11,3.74-.21,7.49-.32,11.24-.1,1.7-.11,3.41-.2,5.12-2.4-.72-4.72-1.79-7-2.66a180.2,180.2,0,0,0-20.56-7.28,73.55,73.55,0,0,0-22.69-2.78,77.66,77.66,0,0,0-19.05,3.64c-6.32,2-12.42,4.71-18.52,7.28-1.29.53-2.46,1.07-3.75,1.6-.27.14-.52.23-.76.34-.61.22-1.17.55-1.81.73-2.78,1.07-5.46,2.14-8.24,3.11a73.08,73.08,0,0,1-8.24,2.35c-.64.11-1.18.22-1.82.32-.43.11-2.42.32-.9.22-.43,0-1,.1-1.14.1a13.89,13.89,0,0,1-2.14.11H216.3a5.56,5.56,0,0,1-.82-.08l-.36,0a5,5,0,0,0-.64-.1c-.22,0-.43-.06-.65-.11-1.39-.32-2.67-.64-4.06-1.07-.65-.21-1.18-.43-1.82-.64-.31-.11-.62-.21-.83-.31-10.52-5.25-19.9-12.88-31.07-16.61A40,40,0,0,0,166,121.8c-1-.07-1.86,0-2.79,0V120c0-3.85.11-7.81.11-11.66.21-15.42.43-30.83.64-46.35.11-7.6.22-15.31.32-22.91.11-7-.21-14-3.42-20.34-3.75-7.28-11.46-10.7-19.16-12a76.11,76.11,0,0,0-22-.53c-5.89.75-12.21,1.39-17.45,4.39-6.85,4-8.78,11.24-9.1,18.62-.11,2.46,0,5-.11,7.49,0,3.22-.43,6.43-.64,9.64-.54,7.49-1.18,15-1.71,22.48-2.47,30.83-4.82,61.55-7.28,92.38s-4.82,61.55-7.28,92.38-4.82,61.55-7.28,92.27c-1.18,15.41-2.46,30.72-3.64,46.13-1.07,14.13-1.71,29.44,6.32,42,7.7,11.46,19.48,18.63,32.22,22.27,14.88,4,30.5,3.42,45.81,3.42H334.79c15.2,0,30.4.33,45.6-.1,13.6-.43,28.58-2.36,39.82-10.71a43,43,0,0,0,17.45-28.58C438.63,413.39,438.3,406.86,437.77,400ZM393.23,27.16h0Zm-.1-.84a1.2,1.2,0,0,0,0,.2.56.56,0,0,1-.05-.08C393.08,26,393.07,25.74,393.13,26.32Zm-.21-.43s0,.07,0,.16C392.92,26,392.9,25.91,392.92,25.89Zm-32-.51,0-.05h0Zm.07-.1h0C361.1,25.15,361.14,25.11,361,25.28Zm-.47.49h0S360.51,25.8,360.54,25.77Zm-21.28,110.3h.13C339.44,136.08,339.42,136.09,339.26,136.07Zm-2.43,1.68c0-.05,0-.09,0-.14h0A.71.71,0,0,0,336.83,137.75Zm1.74-1.86h0Zm-1.68.58c0,.23-.06.45-.08.67l0,.08C336.76,136.71,336.83,136.48,336.89,136.47Zm-40.72,6.05-.45-.05Zm-72.25-.19ZM113,27h0l0,0h0Zm.5-1.15c.09-.23.16-.39,0,0ZM86.56,420.56l.38,1C86.67,421.06,86.49,420.67,86.56,420.56Zm331.09,2.89.11-.27C417.54,423.75,417.11,424.79,417.65,423.45Zm1.92-7.06a1,1,0,0,0,0,.19l-.22,1.09a25.49,25.49,0,0,1-1,3.75c-.22.54-.33,1.07-.54,1.5v0c-.12.25-.41.86-.53,1-.32.64-.64,1.28-1,1.82-.53,1-1.18,1.71-1.71,2.67s.75-1,.75-.85a5.09,5.09,0,0,0-.64.85c-.43.43-.86,1-1.29,1.4-.75.75-1.5,1.49-2.35,2.24-.54.11-1.18.86-1.61,1.18-1,.64-1.93,1.18-3,1.82l-1.92,1-.16.09-.06,0a59.43,59.43,0,0,1-9.52,2.68c-.75.1-1.5.32-2.36.43a4.88,4.88,0,0,1-1.18.21h.14c-1.69.21-3.37.31-5.06.42-3.43.21-6.85.32-10.38.32-15.1.11-30.08,0-45.18,0H149.5c-7,0-14,.11-21-.21-3.42-.11-6.85-.33-10.17-.75l-.1,0-.54-.09a18.91,18.91,0,0,1-2.46-.43,47.52,47.52,0,0,1-5.57-1.28,9.14,9.14,0,0,0-2.15-.3l-2.88-.88a12.33,12.33,0,0,1-1.44-.57l.37.14a5.57,5.57,0,0,0-1.18-.53A52.37,52.37,0,0,1,94.94,431a1.3,1.3,0,0,1-.14-.12c-.64-.54-1.18-1-1.71-1.5a40.43,40.43,0,0,1-3-3c-.16-.16-.32-.37-.48-.56-.3-.45-.64-.91-.91-1.36-.14-.29-1.15-1.78-1.74-2.83,0-.08-.11-.32-.29-.81a8.5,8.5,0,0,0-.43-1.07c-.22-.75-.43-1.39-.64-2.14-.43-1.5-.75-3.1-1.07-4.7a.68.68,0,0,1,0,.31l-.1-.92c0-.25,0-.27,0-.18-.11-.74-.11-1.48-.22-2.22-.1-1.71-.1-3.53-.1-5.25.1-6.95.85-13.8,1.39-20.76q3.53-45,7.06-89.92,3.54-45.28,7.18-90.56c2.35-30.18,4.71-60.26,7.06-90.45,1.18-15,2.36-29.87,3.53-44.85.54-7.28,1.18-14.67,1.72-21.95.21-3.1.64-6.2.64-9.2,0-2.46-.11-5,.11-7.49,0-.6,0-1.13.08-1.64,0,0,0-.05,0-.08s.06-.21.09-.32l1-.43c1.18-.32,2.36-.64,3.54-.85l1.6-.32c2.78-.32,5.57-.65,8.46-.75h4.92a18.42,18.42,0,0,1,2.46.21c.43,0,.86.11,1.29.11s.34,0,.17,0l.15,0c1.5.21,3,.53,4.49.85l1.55.52a.41.41,0,0,1-.05-.09s.07.07.16.13l.27.09c.7.21.62.26.35.21l.4.21,0,0,.07.09,0,0a5.6,5.6,0,0,0,.25.53c-.08-.28.06-.28.25.29l.09.31.13.2-.12-.15c.08.27.15.52.22.82a9.81,9.81,0,0,1,.43,1.82v0c.11,1.45.21,2.9.21,4.35.1,14.78-.32,29.55-.54,44.32l-.32,22.48c-.11,7.49-.64,15-.21,22.48.21,5.24,1.92,9.85,6.1,13.06,3.42,2.67,7.6,3.32,11.88,3.32,1.28,0,2.46-.11,3.75,0l.87.05c.49.09,1.17.22,1.37.27,1.18.32,2.36.64,3.54,1.07.42.14.85.32,1.31.49.3.17.66.28,1,.47,10.6,5,19.59,12.74,30.83,16.38,11.88,3.75,24.73,1.93,36.29-2.14,6-2.14,11.77-4.71,17.66-7.17.64-.22,1.28-.54,1.82-.75a5.2,5.2,0,0,0,.78-.33c1.28-.49,2.52-1,3.82-1.6,2.68-1.07,5.35-2,8.14-3a73.78,73.78,0,0,1,8.24-2.14l1.93-.32c.1-.32,4.6-.32,5-.32,1.6,0,3.21,0,4.81.11a26.19,26.19,0,0,0,2.79.21l.29,0a3.94,3.94,0,0,0,.67.08A86.3,86.3,0,0,1,307.39,145c6.74,2,13.27,4.61,19.8,7.28,6.85,2.79,14.78,4.82,21.52.54,8-5.25,7.92-14.67,8.13-23.12.22-7.5.54-15,.75-22.59.54-15,1-30.08,1.5-45.07.22-7.49.54-15,.75-22.58.11-3.64.22-7.28.32-10.81a5.92,5.92,0,0,1,0-.71,7.82,7.82,0,0,0,.38-2l.1-.2.22-.24.12-.11a5.63,5.63,0,0,0,.57-.31,6.41,6.41,0,0,1,.92-.33,19.65,19.65,0,0,0,2.46-.53c.64,0,1.28-.11,1.82-.11,1.82,0,3.64,0,5.35.11l5,.32a18.71,18.71,0,0,0,2.47.21h.12a11.29,11.29,0,0,1,1.37.21,92.62,92.62,0,0,1,10.6,2.24l1.54.44c.06.71.08,1.42.17,2.13.11,2,.32,4.07.43,6.11.54,7.49,1.07,15,1.61,22.58,1.07,15,2,30.08,3.1,45.07,2.14,30.18,4.18,60.37,6.32,90.66s4.17,60.38,6.31,90.67c2,30.08,4.18,60.16,6.21,90.13.54,7.49,1.07,15,1.61,22.59.21,3.64.64,7.38.75,11C419.89,411.25,419.57,413.82,419.57,416.39Z" transform="translate(-64.52 -4.94)"/><path d="M284.67,142.45h0Z" transform="translate(-64.52 -4.94)"/><path d="M284.67,142.45Z" transform="translate(-64.52 -4.94)"/><path d="M144.45,28.56c-.11-.18-.23-.39-.34-.6a2.11,2.11,0,0,0,.35.65Z" transform="translate(-64.52 -4.94)"/><path d="M84.42,412.11v.15c0,.13,0,.32.1.6h0c0-.28-.09-.65-.11-.79Z" transform="translate(-64.52 -4.94)"/><path d="M284.58,142.46a2.81,2.81,0,0,0-.95.11A3.22,3.22,0,0,0,284.58,142.46Z" transform="translate(-64.52 -4.94)"/><path d="M143.32,27.07c-.22-.1-.46-.21-.62-.3l-.11,0A1.46,1.46,0,0,0,143.32,27.07Z" transform="translate(-64.52 -4.94)"/><path d="M208.59,281.62a9.83,9.83,0,0,0,13.17-3.42c3.74-6.32,7.49-12.53,11.24-18.84,4.51-7.5,9-15,13.45-22.57,1.3,2.27,2.6,4.54,3.89,6.83q6,10.66,12.1,21.3l-8.36-2c-1.39-.32-2.89-.64-4.28-1.07a9.89,9.89,0,0,0-7.39,1,9.57,9.57,0,0,0-4.38,5.78c-1.07,4.93,1.49,10.6,6.74,11.88,10.17,2.47,20.23,4.93,30.4,7.39,1.11.26,2.28.53,3.41.84a9.64,9.64,0,0,0,4.73.55,9.8,9.8,0,0,0,8-6.85c2.57-10.49,5.14-21.09,7.5-31.58a43.49,43.49,0,0,0,1.39-7.38c.21-5-4.6-9.85-9.64-9.64a9.48,9.48,0,0,0-9.38,7.49c0-.18.05-.35.07-.53-.63,4.44-2,8.78-3,13.12l0-.06c-6.31-11.13-12.63-22.27-18.94-33.29-1.5-2.57-2.89-5.14-4.39-7.71-3.64-6.31-12.95-6.1-16.59,0-3.75,6.32-7.5,12.53-11.24,18.84-6,10-11.88,20-17.88,30-1.39,2.25-2.78,4.61-4.07,6.85C202.59,272.74,204.09,279.27,208.59,281.62Z" transform="translate(-64.52 -4.94)"/><path d="M331.15,332.79c-5.78-10.06-11.56-20.13-17.44-30.19-1.29-2.35-2.68-4.6-4-7-2.57-4.39-8.78-6.31-13.17-3.42a9.82,9.82,0,0,0-3.43,13.16l10.92,18.95q6.57,11.42,13.18,22.84c-2.57,0-5.13,0-7.72.07q-12.42.11-24.9.17,3-3.2,5.95-6.38c1-1.07,2-2.14,3-3.21,3.43-3.64,4-10.06,0-13.6-3.74-3.42-9.95-3.85-13.59,0-7.17,7.6-14.24,15.31-21.41,22.91-1,1.07-2,2.14-3,3.21-3.42,3.64-4,10.06,0,13.6.27.24.56.47.85.69,7.67,7.15,15.35,14.31,23.13,21.36a38.41,38.41,0,0,0,5.57,4.71c4.28,2.57,10.81,1.07,13.16-3.43a9.89,9.89,0,0,0-1.77-11.9l.17.13-.18-.14a8.85,8.85,0,0,0-1.17-.93c-3-2.47-5.71-5.3-8.58-7.92,12.69-.11,25.49-.22,38.19-.22,2.89,0,5.88,0,8.77-.1a9.73,9.73,0,0,0,8.35-14.46Zm-36,41.47-.23-.15a.11.11,0,0,1-.11-.11Z" transform="translate(-64.52 -4.94)"/><path d="M238.24,352.8c-7.28-.21-14.56-.32-21.84-.53-8.75-.16-17.46-.37-26.19-.56,1.35-2.28,2.71-4.55,4-6.83q6.27-10.59,12.58-21.1c.8,2.82,1.59,5.65,2.4,8.47.43,1.39.75,2.79,1.18,4.18,1.39,4.81,6.85,8.35,11.88,6.74A9.77,9.77,0,0,0,229,331.29c-2.89-10.06-5.67-20.13-8.56-30.19-.31-1-.58-2-.86-3a9.65,9.65,0,0,0-1.92-4.45,10,10,0,0,0-5.29-3.46,8.57,8.57,0,0,0-5,0l-.34.13c-10.23,2.95-20.57,5.81-30.81,8.87a31.47,31.47,0,0,0-7,2.46c-4.49,2.35-6.2,9-3.42,13.16A9.61,9.61,0,0,0,177.31,319l-.51.22c1.39-.53,2.78-.85,4.28-1.28l8.3-2.46-.06.1c-6.53,11-13.06,21.95-19.69,33-1.5,2.57-3,5-4.5,7.6-3.85,6.43,1.07,14.35,8.35,14.45s14.56.33,21.84.54c11.66.21,23.22.53,34.89.75,2.68.11,5.35.11,8,.21,5,.11,9.85-4.49,9.63-9.63A9.81,9.81,0,0,0,238.24,352.8Z" transform="translate(-64.52 -4.94)"/></svg>