<svg id="Layer_1" data-name="Layer 1" xmlns="http://www.w3.org/2000/svg" viewBox="0 0 392.36 460.85"><path d="M439.27,350.05c-54.53-34.44-72.12-92-65.37-133.84,6-36.9,28.88-62.88,62.88-71.31l8.35-2.07L424.35,63.1l-6.66.09c-54.07.69-88.28-17.93-104.63-57l-2.12-5.06L195.47-2.13,193.14,3c-18.31,40.58-50,60.4-96.8,60.4-2.91,0-5.9-.08-8.93-.23l-8.93-.45v8.47c-.76,4.7-8.24,36-15.05,63.71l-2,8.16,8.14,2.1c35.06,9,57,33.42,61.71,68.71,6.7,49.82-22.49,107-67.89,132.9L55,351.58,107.81,422l6.29-3c30.22-14.46,56.4-19.44,77.81-14.8s38.62,18.7,52.37,42.94l6.6,11.61,7.73-10.89C293.48,398.68,335,389.45,385.5,419.6l6.31,3.77,55.57-68.2Zm-51.45,51.31c-26.87-14.62-52.31-19.33-75.7-14-21.75,4.94-41.81,18.59-59.77,40.62-15.13-21.94-34.21-35.52-56.84-40.42a93.76,93.76,0,0,0-19.87-2.05c-18.84,0-39.77,5.08-62.53,15.2L80,356.51c22-14.67,40.52-36,52.89-61.07,13.45-27.21,18.87-57,15.26-83.81-5.27-39.2-29.24-68.14-66.25-80.52,7-28.5,10.38-43.09,12-50.7,52.75.66,90.47-21.24,112.3-65.23l93.43,2.65c19.14,40.53,56.64,61.48,111.6,62.35l13.2,50.63c-35.9,12.08-60.8,42.41-67.31,82.68-4.26,26.4-.11,55.28,11.71,81.32a160.47,160.47,0,0,0,53.42,64.29Z" transform="translate(-55.02 2.13)"/><rect x="68.77" y="96.83" width="14.79" height="6"/><path d="M155.26,86.24c-2.38,1-4.76,1.9-7.12,2.87l2.29,5.54c2.33-1,4.69-1.9,7-2.83s4.77-1.9,7.13-2.88l-2.29-5.54C160,84.36,157.62,85.3,155.26,86.24Z" transform="translate(-55.02 2.13)"/><rect x="170.96" y="72.36" width="13.05" height="6" transform="translate(-56.72 148.72) rotate(-44.68)"/><rect x="192.16" y="55.18" width="14.21" height="6" transform="translate(-37.29 160.99) rotate(-45.29)"/><path d="M104.39,97a14.06,14.06,0,0,1-1.6-.29l-3.46-1-1.27,13.07,6,.58.61-6.37H111V97h-6.65Z" transform="translate(-55.02 2.13)"/><rect x="185.13" y="34.11" width="18.76" height="6"/><polygon points="168.3 35.03 155.61 35.03 154.41 46.38 160.37 47.01 161.01 41.03 168.3 41.03 168.3 35.03"/><polygon points="46.78 117.57 40.78 117.57 40.78 127.25 47.69 132.94 51.51 128.31 46.78 124.42 46.78 117.57"/><rect x="116.36" y="133.11" width="6" height="13.2" transform="translate(-118.77 126.45) rotate(-44.69)"/><rect x="137.16" y="150.69" width="6" height="16.8" transform="translate(-126.52 148.74) rotate(-45.24)"/><path d="M157.82,191.41c-1.64-4.49-3.27-8.89-4.9-13.28l-5.63,2.09c1.63,4.38,3.26,8.76,4.89,13.24Z" transform="translate(-55.02 2.13)"/><rect x="100.75" y="206.7" width="6" height="16.83"/><rect x="102.99" y="235.77" width="6" height="17.75"/><rect x="101.26" y="262.59" width="6" height="16.42"/><rect x="141.81" y="292.28" width="15.97" height="6" transform="translate(-234.05 336.23) rotate(-69.83)"/><path d="M142.79,315.48l-4.95-3.38c-1.45,2.11-2.91,4.25-4.38,6.38l-4.29,6.27,5,3.38c1.41-2.07,2.85-4.16,4.29-6.25S141.35,317.6,142.79,315.48Z" transform="translate(-55.02 2.13)"/><path d="M117.59,339.26c-1.66,1.89-3.32,3.79-5,5.68l4.48,4c1.7-1.9,3.37-3.81,5-5.71s3.28-3.74,5-5.61l-4.48-4C120.9,335.5,119.25,337.38,117.59,339.26Z" transform="translate(-55.02 2.13)"/><path d="M119,379.87l-4.46-4.46-4.24,4.24,6,6H117l.26.12a5.39,5.39,0,0,0,2.35.7h1.24l6.19-6.19L122.79,376Z" transform="translate(-55.02 2.13)"/><rect x="81.01" y="376.97" width="14.07" height="6"/><rect x="109.66" y="374.22" width="14.58" height="6"/><path d="M195.68,372.67l-2,5.65c2.14.76,4.25,1.52,6.36,2.29l6.39,2.3,2-5.65-6.37-2.3Z" transform="translate(-55.02 2.13)"/><path d="M251.56,401.16,250,402.51l-1.68-1.28q-1.78-1.38-3.6-2.74l-3.6,4.79,3.55,2.71c1.22.93,2.44,1.87,3.69,2.8l2,1.49,1.84-1.67c1.1-1,2.21-2,3.31-2.91s2.28-2,3.42-3l-4-4.44C253.76,399.26,252.66,400.21,251.56,401.16Z" transform="translate(-55.02 2.13)"/><rect x="307.41" y="96.42" width="14.79" height="6"/><path d="M350.58,94.25l2.29-5.55c-2.37-1-4.75-1.92-7.14-2.87S341,84,338.69,83l-2.29,5.55c2.35,1,4.73,1.91,7.11,2.86S348.24,93.28,350.58,94.25Z" transform="translate(-55.02 2.13)"/><rect x="320.57" y="68.46" width="6" height="12.98" transform="translate(-13.25 252.9) rotate(-45)"/><rect x="298.75" y="50.65" width="6" height="14.13" transform="translate(-7.46 232.41) rotate(-45)"/><path d="M397,108.9l6-.58-1.26-13.07-3.46,1a14.06,14.06,0,0,1-1.6.29H390v6h6.4Z" transform="translate(-55.02 2.13)"/><polygon points="222.66 34.62 222.66 40.62 229.96 40.62 230.59 46.51 236.55 45.87 235.35 34.62 222.66 34.62"/><polygon points="344.18 123.94 339.51 127.94 343.42 132.5 350.18 126.7 350.18 117.17 344.18 117.17 344.18 123.94"/><rect x="375.05" y="136.2" width="13.2" height="6" transform="translate(-40.73 314.78) rotate(-45.31)"/><rect x="352.45" y="155.68" width="16.8" height="6" transform="translate(-62.14 302.2) rotate(-44.76)"/><path d="M343.19,190.9l5.64,2c1.63-4.48,3.26-8.86,4.89-13.24l-5.63-2.09C346.46,182,344.82,186.41,343.19,190.9Z" transform="translate(-55.02 2.13)"/><rect x="284.21" y="206.3" width="6" height="16.83"/><rect x="281.97" y="235.36" width="6" height="17.75"/><rect x="283.8" y="262.18" width="6" height="16.42"/><rect x="348.21" y="286.89" width="6" height="15.97" transform="translate(-135.16 141.32) rotate(-20.17)"/><path d="M363.17,311.59,358.22,315c1.41,2.07,2.85,4.16,4.29,6.26s2.93,4.27,4.38,6.38l4.95-3.38c-1.44-2.12-2.91-4.26-4.38-6.4S364.58,313.66,363.17,311.59Z" transform="translate(-55.02 2.13)"/><path d="M384.05,348.42l4.48-4c-1.68-1.88-3.33-3.76-5-5.64s-3.33-3.79-5-5.68l-4.48,4c1.68,1.89,3.33,3.77,5,5.65S382.37,346.53,384.05,348.42Z" transform="translate(-55.02 2.13)"/><path d="M382.06,381.5l-3.85-3.85L374,381.9l6.18,6.18h1.25a5.39,5.39,0,0,0,2.35-.7l.25-.12h.78l6-6L386.52,377Z" transform="translate(-55.02 2.13)"/><rect x="295.88" y="376.46" width="14.07" height="6"/><rect x="266.71" y="373.71" width="14.58" height="6"/><path d="M299,374.56l-6.37,2.29,2,5.65,6.38-2.3,6.37-2.29-2-5.65C303.18,373,301.07,373.79,299,374.56Z" transform="translate(-55.02 2.13)"/><path d="M218.23,386.88c3.73,2.42,7.58,4.92,11.5,7.29l3.1-5.13c-3.83-2.32-7.65-4.8-11.34-7.19Z" transform="translate(-55.02 2.13)"/><path d="M275.86,385.05c-2.2.49-4.4,1-6.61,1.49l1.36,5.84c2.18-.5,4.36-1,6.55-1.47s4.4-1,6.61-1.48l-1.36-5.85C280.23,384.09,278,384.57,275.86,385.05Z" transform="translate(-55.02 2.13)"/><path d="M105.59,355.4l-6.42,5.69v.78l0,.09a5.33,5.33,0,0,0-.87,2.62v1.14l5.76,6.46,4.48-4-3.66-4.1,4.74-4.2Z" transform="translate(-55.02 2.13)"/><path d="M393.21,359.92l4.13,3.54-4.13,4.76,4.53,3.93,5.42-6.25v-.76l.15-.39a5.84,5.84,0,0,0,.57-2.21v-1.38l-6.76-5.79Z" transform="translate(-55.02 2.13)"/></svg>