<svg id="Layer_1" data-name="Layer 1" xmlns="http://www.w3.org/2000/svg" viewBox="0 0 448.05 455.07"><path d="M142.8,433.12v0l0,0Z" transform="translate(-15.48 -2.34)"/><path d="M128.48,414.78l0,0C127.6,415.57,128.13,415.24,128.48,414.78Z" transform="translate(-15.48 -2.34)"/><path d="M141.44,409.89c.73-6.36-.73-13.08-3.06-19.08A90.15,90.15,0,0,0,127,369.66c-10-14-23.36-26.42-39.26-33.15a47.49,47.49,0,0,0-6.48-2.44,5.46,5.46,0,0,0-2.94,10.52c.86.24,1.72.61,2.57.85.37.12.86.37,1.22.49a1.73,1.73,0,0,1,.3.06,1.76,1.76,0,0,0,.32.19c1.71.73,3.42,1.59,5.13,2.44A85.85,85.85,0,0,1,97.78,355c.33.34.77.58,1.12.9l.35.32c.85.62,1.59,1.35,2.44,2,1.47,1.35,2.94,2.57,4.41,4a111.11,111.11,0,0,1,8.19,8.8c.61.74,1.22,1.47,1.83,2.33.37.48-.24-.37-.24-.37.12.24.37.37.49.61.37.49.73,1,1,1.35,1.1,1.46,2.2,3.05,3.18,4.64a92.75,92.75,0,0,1,5.38,9.54c.36.74.73,1.59,1.1,2.33a1.78,1.78,0,0,1,.1.23c-.1-.23-.32-.7-.1-.11.12.36.36.85.49,1.22.61,1.59,1.1,3.06,1.59,4.65a31.29,31.29,0,0,1,1.1,4.52,2.75,2.75,0,0,1,.12,1,.76.76,0,0,0,0,.21c0,.58.12,1.17.21,1.75a19.65,19.65,0,0,1,0,3.91c0,.37-.12.61-.12,1,0,0,.25-1.59.12-.73v.36l-.36,1.84c-.11.51-.28.95-.41,1.44a2.5,2.5,0,0,1-.45.76,7.32,7.32,0,0,1-.82,1.29l.21-.19c-.24.24-.37.49-.61.73a11.74,11.74,0,0,1-1.22,1.23,2,2,0,0,0-.44.32.44.44,0,0,1-.18,0,7.33,7.33,0,0,1-1.71,1,5.94,5.94,0,0,1-.85.37,24,24,0,0,1-3.92,1.1,2.28,2.28,0,0,1-.53.11c.07,0,.06,0-.11,0h-.34l-.07,0c-.63,0-1.26.1-1.88.1-1.47,0-2.94,0-4.41-.12-.36,0-.85-.12-1.22-.12.12,0,1.47.24.49.12a.75.75,0,0,1-.49-.12,14.63,14.63,0,0,1-2.44-.49c-1.72-.37-3.31-.86-4.9-1.35l-2.2-.73a10.9,10.9,0,0,0-2.45-1,.6.6,0,0,1-.24-.12c-.36-.12-.73-.37-1.1-.49-.85-.37-1.71-.85-2.57-1.22-1.71-.86-3.42-1.84-5-2.81s-3.18-2-4.77-3.06a28.67,28.67,0,0,1-2.32-1.71,6.94,6.94,0,0,1-1.11-.86c-.12-.12-.85-.61-.24-.12s-.24-.12-.37-.25a106,106,0,0,1-8.8-7.82C71.36,396,70,394.48,68.79,393L67,390.81c-.12-.24-.37-.36-.49-.61,0,0,.61.86.25.37a8.83,8.83,0,0,1-1-1.35,76.26,76.26,0,0,1-5.87-9.53c-.37-.86-.74-1.59-1.1-2.45-.13-.12-.13-.37-.25-.49l0,0a8,8,0,0,1-.35-.94c-.61-1.71-1.1-3.3-1.59-5a13.32,13.32,0,0,1-.48-2.33c-.12-.45-.13-.81-.23-1.24,0-.07,0-.14,0-.22-.37-2.82-2.32-5.63-5.5-5.51-2.57.61-5.75,2.94-5.38,6,1.95,16.75,12.23,31.43,24.58,42.43,12,10.64,27,19.57,43.17,21,6.6.61,13.7-.61,19.2-4.41C137.65,422.61,140.58,416.74,141.44,409.89ZM98.71,355.71Zm31.7,47.53,0,.05C130.5,403.75,130.46,403.54,130.41,403.24ZM99.57,415.92Zm27,.83a.1.1,0,0,1,0,0Z" transform="translate(-15.48 -2.34)"/><path d="M245.64,305h1C244,304.26,244.86,305,245.64,305Z" transform="translate(-15.48 -2.34)"/><path d="M445.26,107.06c.06-.78.06-1.32,0,0Z" transform="translate(-15.48 -2.34)"/><path d="M463.45,99C462.1,70.64,443,45.57,421.38,28.69a138.2,138.2,0,0,0-37.91-21.4c-11.74-4.28-24.59-6.24-36.94-4a40.23,40.23,0,0,0-21.4,11.62c-4.4,4.4-8.68,8.81-13.09,13.09q-25.86,25.86-51.61,51.73l-9,9q-.14-3.09-.32-6.18c-.61-9.9-1.35-19.93-2.08-29.84-.12-1.34-.24-2.69-.24-4a21.14,21.14,0,0,0-2.33-8.08,35.63,35.63,0,0,0-13.45-15c-10.4-6.48-24.21-7.09-35.71-3.3S174.83,34,171.52,45.94c-1.34,4.89-1,10-1,15,0,1.67,0,3.34,0,5a121.82,121.82,0,0,0-19.71-8.07,63.3,63.3,0,0,0-13.33-2.57,27.31,27.31,0,0,0-11.74,1.47,21.93,21.93,0,0,0-7.22,4.4,8.46,8.46,0,0,0-2.69,6.7A94.36,94.36,0,0,0,116,79.57a85.5,85.5,0,0,0,4.89,24,55.49,55.49,0,0,0,6.48,12.84A52.37,52.37,0,0,0,139,128.49a40.08,40.08,0,0,0,8.93,5.13c6,2.57,12.23,4.28,18.71,3.43a25.9,25.9,0,0,0,4.42-1c.1,12.16.23,24.32.47,36.48,0,1.4,0,2.79.08,4.18-9.26,8.57-17.94,17.6-26.74,26.52-14.55,14.68-29.1,29.23-43.66,43.9-14.43,14.44-28.86,29-43.41,43.18-5.38,5.25-10.89,10.51-16.39,15.65-2,1.83-4,3.67-6.11,5.5-.14.14-.3.26-.45.39A40.68,40.68,0,0,0,30.23,315a8.74,8.74,0,0,0-1.7,1.4c-.62.55-1.22,1.1-1.81,1.69a8.79,8.79,0,0,0-1.31,1.72c-10.15,11.86-11.18,27.94-9,42.92a102.94,102.94,0,0,0,6.36,22.5,138.1,138.1,0,0,0,11.86,23.23,107.1,107.1,0,0,0,15.41,19.33A95.33,95.33,0,0,0,70,442.67c14.8,8.44,31.79,13.94,48.79,14.67,11.93.5,25.16-1.88,34.8-9.27a18.1,18.1,0,0,0,3.36-2.22,44.75,44.75,0,0,0,4.77-4.77c5.26-5.75,10.27-11.86,15.17-18,10.27-12.6,20.05-25.56,30.69-37.67l.53-.61a8.69,8.69,0,0,0,2.53.37,8.51,8.51,0,0,0,2.45-.37h6.35c16.39,0,32.9.12,49.29.12,17.12,0,34.24.13,51.49,0,5.13,0,10.39,0,15.53-.12a38.48,38.48,0,0,0,19.2-6,35.88,35.88,0,0,0,17.61-26.78c1.1-9.05-1.59-18.59-6.11-26.42s-11.26-14.55-19.69-17.86a22.77,22.77,0,0,0-6.36-1.34,10.75,10.75,0,0,0-2-.12h-.24a18,18,0,0,0-3.67,0c-13.13-.11-26.17-.31-39.28-.52,3.57-3.49,7.09-7.08,10.54-10.61q23.85-24.58,47.08-49.78,26.79-28.8,53.32-57.84,19.46-21.28,38.53-42.69c2.56-2.81,5.13-5.62,7.58-8.68,3.91-4.77,6.48-10.88,8.44-16.75A57.63,57.63,0,0,0,463.45,99Zm-218.18-8c-.45-.2-.81-.36-1.15-.49h.17C244.66,90.57,248.33,92.29,245.27,91.06Zm-5.87-.49H240a10.51,10.51,0,0,0-2.91,1,8.23,8.23,0,0,0-1.06.75A6.94,6.94,0,0,1,239.4,90.57ZM198.83,41.1l-.32.15.16-.08ZM184.28,189.48a11.14,11.14,0,0,1-4.32,1.13l-.68-.68a9,9,0,0,0,4.11-.17,9.63,9.63,0,0,0,1-.36Zm-17.45-75.32a25.19,25.19,0,0,1-1.08,4.16c-.49.15-1,.27-1.48.38a16.81,16.81,0,0,1-2.46-.08,31.63,31.63,0,0,1-5.92-1.77c-1.38-.65-2.76-1.32-4.06-2.06-1-.59-1.91-1.26-2.86-1.88-.3-.24-.62-.51-.8-.69-.49-.49-1.11-1-1.59-1.47-.84-.83-1.68-1.76-2.51-2.7a3.82,3.82,0,0,0-.43-.6c-.37-.61-.86-1.22-1.22-1.71a52.18,52.18,0,0,1-3-5.56,70.62,70.62,0,0,1-4.3-15.54,100.14,100.14,0,0,1-.85-10.77,29.46,29.46,0,0,1,5,.26,79.29,79.29,0,0,1,16.62,5.19c-.73-.36-1.47-.61-2.2-1,3.72,1.59,7.44,3.31,11.06,5.23.68,3.49,1.2,7,1.66,10.55-.12-.86-.25-1.59-.37-2.45C167,99.13,167.67,106.7,166.83,114.16Zm8.54,59.33-.19.14.14-.14Zm-4.22,5.59c.06-.09.27-.54.48-1,0,.35,0,.7,0,1.06a6,6,0,0,0,.12,1.46,11.3,11.3,0,0,0,.41,2.25l-1.39-1.39C171,180.26,171.09,179.49,171.15,179.08ZM48.25,325.87c-.57.29-1.13.51-1.7.76C47.12,326.36,47.68,326.1,48.25,325.87Zm63.67,112.55a107.74,107.74,0,0,1-23.8-6.88c.73.37,1.46.61,2.2,1a102.59,102.59,0,0,1-14.07-7.22A69.87,69.87,0,0,1,69.9,421c-.62-.49-2.7-2.08-.13,0-.36-.37-.85-.61-1.22-1-1-.85-2.08-1.71-3.06-2.57a86.17,86.17,0,0,1-9.66-10.39c-.49-.61-2.08-2.69,0,0-.37-.49-.61-.86-1-1.35-.85-1.1-1.59-2.2-2.32-3.3-1.47-2.2-2.94-4.4-4.28-6.72a129,129,0,0,1-8.07-15.9c.36.73.61,1.47,1,2.2a103.7,103.7,0,0,1-6.93-23.61,56.37,56.37,0,0,1-.15-14.21,38,38,0,0,1,2-7.26,26.7,26.7,0,0,1,1.78-3.23l.74-1.1c.12-.12.24-.37.36-.49l0-.08c.26-.32.54-.62.81-.9l.31-.3a29.21,29.21,0,0,0,4.09-3c.69-.4,1.4-.77,2.1-1.11a47.92,47.92,0,0,1,10.31-2.87,92.25,92.25,0,0,1,22.4.22,125.53,125.53,0,0,1,27.81,7.77c-.73-.37-1.47-.61-2.2-1a74.74,74.74,0,0,1,11.25,5.62c1.71,1,3.3,2,4.89,3.06l1.06.71c.67.54,1.33,1,2,1.62a74.65,74.65,0,0,1,8.68,8.92,11,11,0,0,1,1,1.23c.12.12.37.61.49.61s-1.47-2-.73-1,1.34,1.71,1.95,2.69c1.22,1.71,2.45,3.55,3.55,5.38a89.94,89.94,0,0,1,6.72,13.33c-.36-.73-.61-1.47-1-2.2a107.59,107.59,0,0,1,7,24.35,80,80,0,0,1,.29,19.74A46.28,46.28,0,0,1,149,425c-.58,1.18-1.23,2.33-1.89,3.47a20.6,20.6,0,0,1-1.59,2.2c2-2.81.25-.36-.61.49a14.41,14.41,0,0,1-2.05,1.93l.1-.07s-.06,0-.08.07l0,0h0c-.24.12-.36.37-.61.49-.81.63.05-.08.6-.49-.31.22-.61.47-1,.73a32.53,32.53,0,0,1-3.83,2.19,47.83,47.83,0,0,1-9.29,2.6A71.36,71.36,0,0,1,111.92,438.42Zm37.16-13.67c.21-.51.42-1,.68-1.53C149.55,423.74,149.32,424.25,149.08,424.75Zm-11.37,11.44c-.54.25-1.08.5-1.65.73C136.61,436.64,137.16,436.43,137.71,436.19Zm204-71.18.09-.05ZM355,350.38a3.08,3.08,0,0,1-.12.93A3,3,0,0,1,355,350.38Zm-7.58-21c.47.48,1.45,1.86,1.56,2,.75,1.13,1.52,2.23,2.23,3.39a20,20,0,0,1,1.22,2.33,11.45,11.45,0,0,1,.61,1.34.31.31,0,0,1,.05.1,27.45,27.45,0,0,1,1.42,5c.25,1,.37,4.4.25.73a22,22,0,0,0,.24,2.81V350c0,.24-.12.61-.12.85a19.94,19.94,0,0,1-.61,2.57,5.93,5.93,0,0,1-.25.78l-.12.2a24.83,24.83,0,0,1-1.35,2.45,7.31,7.31,0,0,1-.85,1.22c-.61.73-1.35,1.47-2.08,2.2-.37.37-.73.61-1.1,1l-.2.17c-1.92,1.34-4,2.18-6.09,3.36l-.68.26c-.74.24-1.35.49-2.08.73-.17.09-1.18.34-1.81.53-2.59.14-5.22.19-7.82.2l-.52-.6a1.75,1.75,0,0,0-.49-.49l0,0c-.2-.28-.41-.57-.57-.82a48.63,48.63,0,0,1-3.06-5.63c.24.49.49,1.23.12.37-.12-.24-.24-.61-.36-.85-.25-.49-.37-1.11-.62-1.59-.36-1.11-.61-2.21-.85-3.31-.12-.61-.25-1.22-.37-1.71-.12-1,.12,1.35,0,.37,0-.37-.12-.61-.12-1a35,35,0,0,1-.12-3.55,9.38,9.38,0,0,1,.12-1.83,2.24,2.24,0,0,1,.11-.8c0,.24,0,.43,0,.06a35.63,35.63,0,0,1,.86-3.79,6.78,6.78,0,0,1,.61-1.71c.12-.24.24-.61.37-.85s.12-.25.12-.49a.64.64,0,0,1,0-.1,34.76,34.76,0,0,1,1.67-3.21,11.79,11.79,0,0,1,1.34-1.95,7,7,0,0,0,.44-.64c-.15.16-.26.29-.07,0s.25-.37.49-.62a39.08,39.08,0,0,1,3.79-3.91l2.2-1.83,0,0,.19-.16c.11-.09.18-.14,0,0,.06-.06.11-.11.11-.14.37-.25.86-.61,1.22-.86l.73-.47c.37,0,.74,0,1.11,0h.36l.65-.07.15.05-.2,0h.3c.32.08.66.14,1,.2-.46-.21.1-.15.66.17a7.91,7.91,0,0,1,1,.37l-.61-.18a10,10,0,0,1,1.71,1,1.57,1.57,0,0,0,.26.19s0-.06,0-.06c.61.12,1.59,1.34,2.08,1.71A23,23,0,0,1,347.39,329.42ZM325,338.33c-.14.3-.33.74-.19.39C324.82,338.58,324.89,338.46,325,338.33Zm15.39-14.22h-.14C341.08,324,341.75,323.89,340.34,324.11ZM247.84,305l.71-.08A3.08,3.08,0,0,1,247.84,305Zm27.55-5.19-.05.05-.23.14-.19.13,0-.08Zm.66-.57-.08,0,0,0,.19-.1ZM445.23,107.94c0-.36,0-.65,0-.88a6.69,6.69,0,0,1-.16,1.12c-.12.62-.24,1.23-.36,2-.37,1.59-.74,3.06-1.23,4.53-.24.73-.49,1.46-.73,2.32a5.5,5.5,0,0,1-.37.88l.37-.88c-.86,1.59-1.47,3.3-2.45,4.89-.51.82-1,1.66-1.53,2.55-.59.71-1.18,1.43-1.77,2.1-10.39,11.86-21,23.48-31.67,35.22q-25.14,27.7-50.39,55-24.77,26.79-50,53.45c-9.23,9.69-18.37,19.81-28.52,28.63-3,.51-6.08,1.49-8.54,2.07-6.35,1.46-12.71,2.93-19.2,3.91-.61,0-1.22.12-1.71.12h-.37l.47.13h-.59a20.16,20.16,0,0,0-4.64.37c-3.55.61-6.12,4.28-6.61,7.58a9.29,9.29,0,0,0,4.4,9.18c2.69,1.58,5.63,1.58,8.56,1.22.94-.1,1.87-.21,2.8-.34s2,0,3.08.09c7.21.13,14.55.25,21.76.25l45.07.66a38.46,38.46,0,0,0-2.38,3.13A37.69,37.69,0,0,0,312,345.44a39.36,39.36,0,0,0,4.48,21.08q-18.45.08-36.88,0c-17.13,0-34.25-.13-51.37-.13H211c-3.43,0-7.95-.61-11,1.35-4,2.45-7,6.85-9.91,10.39-5.13,6.24-10.27,12.6-15.28,19l-4.27,5.29a2.44,2.44,0,0,1,0-.27,114.1,114.1,0,0,0-12.85-46c-7.21-13.82-17.61-26.29-30.81-34.49a115.51,115.51,0,0,0-21.53-10,120,120,0,0,0-22.87-5.63,129,129,0,0,0-13.59-1.22q11.17-10.89,22.15-21.89,20.73-20.73,41.34-41.46c11.86-12,23.72-24,35.71-35.84,3.91-3.91,8-7.95,12-11.86,1.22-1.22,2.56-2.45,3.79-3.67a7,7,0,0,0,.75-.69c5-2.16,6.67-8.33,4.34-12.85-.06-2.13-.08-4.26-.08-6.39-.12-8.69-.24-17.37-.37-25.93-.24-21.4-.36-42.8-.49-64.08,0-7.22-.12-14.43-.12-21.65V52.78c0-.48.12-.85.12-1.34v1.13a6.8,6.8,0,0,1,.13-1c.11-.44.31-1,.44-1.44.45-.76.86-1.57,1.38-2.33v0a11.19,11.19,0,0,0,1.1-1.22c.78-.89,1.85-1.59,2.69-2.45h0a13.15,13.15,0,0,0,1.35-1,34,34,0,0,1,3.31-1.84,10.33,10.33,0,0,0,1.82-.73,20.56,20.56,0,0,1,3.8-1.1,31.07,31.07,0,0,1,3.34-.63l.57-.1c.61,0,1.34-.12,2-.12,1.34,0,2.69,0,4,.12.24,0,.9.09,1.27.14l.57.1c1.22.25,2.44.62,3.66,1a3,3,0,0,1,.39.13,2.29,2.29,0,0,1,.59.24l.11,0a3.78,3.78,0,0,0,.63.19l-.35-.07a6.25,6.25,0,0,0,.71.32,26,26,0,0,1,3.18,2l.1.07c.54.45,1.08,1,1.62,1.52s.85,1,1.22,1.34a26.53,26.53,0,0,1,2.18,3.75,1.75,1.75,0,0,0,.15.34,1.71,1.71,0,0,1-.07-.18l.06.13c-.21-.69-.1-2.32,0-1.47a4.18,4.18,0,0,0,.12,1.22l.06.62c.16.44.29.87,0,.16l.3,3.62c.37,4.77.74,9.67,1.1,14.44.59,9.12,1.63,18.35,1.48,27.6-.17.24-.33.49-.5.77-1.59,2.44-3.06,4.89-4.52,7.21-3.55,5.87-7.1,11.75-10.52,17.74-.49,1-1.1,1.83-1.59,2.81a10.77,10.77,0,0,0-.37,10c1.71,3.91,6.61,4.89,10.4,4.16,2.44-.49,4.4-2.69,6.11-4.41,2.08-1.95,4-4,6.12-6Q248.44,118,258.72,107.7L311.8,54.62l19.93-19.94c2.82-2.93,5.63-6,8.69-8.68.18-.15.44-.35.68-.52l-.93.64c.32-.24.64-.46,1-.67.53-.39.9-.63,0,0a4.41,4.41,0,0,1,.5-.3,23.89,23.89,0,0,1,3.06-1.72c.24-.12.46-.21.67-.3l.43-.19c1.1-.36,2.32-.73,3.42-1.1a31.83,31.83,0,0,1,3.3-.61l.33-.06c.43,0,.88-.06,1.39-.06a58.31,58.31,0,0,1,7.95.12,5.71,5.71,0,0,1,1.11.13c-.63-.07-1.2-.12-.5,0,.36,0,.73.13,1.1.13,1.47.24,2.81.49,4.28.85,2.81.61,5.62,1.47,8.44,2.33l4,1.46c.74.25,1.47.61,2.2.86l.38.16-.35-.17c.19.08.39.15.59.25,2.93,1.35,5.87,2.69,8.68,4.28a148,148,0,0,1,16.63,10.64l1,.69c.55.42,1.07.88,1.66,1.27,1.35,1.1,2.69,2.2,4,3.43,2.44,2.2,4.89,4.52,7.21,7s4.53,4.89,6.61,7.46c.49.61,2.44,3.18.36.49.37.61.86,1.1,1.23,1.71C432,65.63,433,67,434,68.44a71.35,71.35,0,0,1,4.9,8.44c.67,1.22,1.23,2.45,1.79,3.68.11.17.28.47.41.72.24.73.61,1.47.85,2.2a54.3,54.3,0,0,1,2.57,8.68,29.65,29.65,0,0,1,.84,4.4c-.05-.51-.21-2.36-.1-1.22,0,.37.12.74.12,1.1.12.86.12,1.84.24,2.69C445.71,102.07,445.35,105,445.23,107.94Z" transform="translate(-15.48 -2.34)"/><path d="M208,38.72l-.57.1C206.4,39,205.33,39.33,208,38.72Z" transform="translate(-15.48 -2.34)"/><path d="M220.83,40.48l-.28-.12-.7-.29C219.4,40,219.35,40.16,220.83,40.48Z" transform="translate(-15.48 -2.34)"/><path d="M188,52.57c-.05.66,0,1,0,0Z" transform="translate(-15.48 -2.34)"/><path d="M339.3,324.29c-.41,0-.92.15,0,0Z" transform="translate(-15.48 -2.34)"/><path d="M383.23,27.14c.95.45.49.22,0,0Z" transform="translate(-15.48 -2.34)"/><path d="M341.27,324.65c-.22-.07-.44-.12-.66-.17a8.6,8.6,0,0,0,1,.36Z" transform="translate(-15.48 -2.34)"/><path d="M341.13,25.45l0,0,0,0Z" transform="translate(-15.48 -2.34)"/><path d="M344.7,326.85c-.12-.12-.37-.24-.49-.36a2.85,2.85,0,0,0-.6-.43C343.86,326.34,345.56,327.5,344.7,326.85Z" transform="translate(-15.48 -2.34)"/><path d="M230.16,50.1,230.1,50l-.12-.24a1.12,1.12,0,0,1,.05.13s0,0,0-.08q.1.3.18.48Z" transform="translate(-15.48 -2.34)"/><path d="M441,81.43c-.07-.18-.13-.35-.19-.52s-.11-.23-.16-.35C440.47,80.27,440.44,80.32,441,81.43Z" transform="translate(-15.48 -2.34)"/><path d="M441,81.43a3.21,3.21,0,0,0,.3.58C441.19,81.79,441.1,81.6,441,81.43Z" transform="translate(-15.48 -2.34)"/><path d="M445.33,96.56a.51.51,0,0,0,0,.13S445.34,96.61,445.33,96.56Z" transform="translate(-15.48 -2.34)"/><path d="M328.5,332.33l.3-.34C328.75,332,328.63,332.14,328.5,332.33Z" transform="translate(-15.48 -2.34)"/><path d="M215.67,205.17a7.56,7.56,0,0,0-10.39,0L180.94,229.5,142.42,268l-8.81,8.8c-2.69,2.69-2.93,7.71,0,10.4a7.47,7.47,0,0,0,10.4,0l24.33-24.34,38.53-38.52,8.8-8.81C218.36,212.87,218.61,207.86,215.67,205.17Z" transform="translate(-15.48 -2.34)"/><path d="M285,203.82l-24,24L222.89,266l-8.81,8.8c-2.69,2.69-2.93,7.71,0,10.4a7.47,7.47,0,0,0,10.4,0l24-24L286.61,223l8.8-8.8c2.69-2.69,2.94-7.71,0-10.4A7.57,7.57,0,0,0,285,203.82Z" transform="translate(-15.48 -2.34)"/><path d="M357.91,64.65c2.69-2.69,2.93-7.71,0-10.4a7.47,7.47,0,0,0-10.4,0c-7.09,7.1-14.06,14.31-21.16,21.4L292.6,109.77c-2.57,2.57-5.14,5.26-7.71,7.83s-2.93,7.71,0,10.4a7.47,7.47,0,0,0,10.4,0c7.09-7.1,14.06-14.31,21.16-21.4L350.2,72.47C352.77,69.91,355.34,67.22,357.91,64.65Z" transform="translate(-15.48 -2.34)"/><path d="M368.79,122.13,353.5,137.41l-24.33,24.34-5.63,5.63c-2.69,2.69-2.94,7.7,0,10.39a7.45,7.45,0,0,0,10.39,0l15.29-15.29,24.34-24.33,5.62-5.63c2.7-2.69,2.94-7.7,0-10.39A7.45,7.45,0,0,0,368.79,122.13Z" transform="translate(-15.48 -2.34)"/></svg>